<svg width="522" height="261" viewBox="0 0 522 261" fill="none" xmlns="http://www.w3.org/2000/svg">
<path d="M25.0919 151.767C32.4352 119.393 71.0645 110.279 80.6703 100.842C95.6402 86.1359 78.0003 60.8997 88.2903 42.6106C98.5935 24.2976 127.425 10.8795 147.974 15.2699C180.525 22.2246 192.046 43.1654 228.579 47.1233C246.32 49.0458 255.355 40.8928 278.259 36.8791C296.099 33.7526 310.797 45.504 322.6 43.7808C345.465 37.9834 347.465 16.9924 376.868 15.537C401.859 13.3326 410.899 24.9259 422.967 44.3195C443.492 77.2993 479.91 42.6106 498.813 85.9078C510.78 113.317 479.743 143.873 486.452 157.13C490.231 164.601 500.924 177.366 504.56 184.909C514.137 204.764 502.513 223.001 490.218 242.811L57.2131 241.002C56.7655 241.001 56.0873 240.806 55.7063 240.571C55.7063 240.571 11.1803 213.099 25.0919 151.767Z" fill="#FFC9FE"/>
<path d="M352.157 227.393C358.642 229.726 365.626 228.199 373.104 222.815C364.053 221.054 357.069 222.58 352.157 227.393Z" fill="#A9B9EB"/>
<path d="M362.088 218.837C368.043 220.846 374.376 219.744 381.091 214.703C372.81 213.255 366.476 214.359 362.088 218.837Z" fill="#A9B9EB"/>
<path d="M371.496 210.679C377.454 211.078 382.901 208.146 387.845 201.884C379.884 202.555 374.437 205.486 371.496 210.679Z" fill="#A9B9EB"/>
<path d="M391.917 190.248C385.497 192.348 381.578 195.82 380.154 200.667C385.148 199.829 389.07 196.357 391.917 190.248Z" fill="#A9B9EB"/>
<path d="M391.617 181.083C386.639 183.765 383.927 187.203 383.473 191.399C387.454 189.978 390.169 186.539 391.617 181.083Z" fill="#A9B9EB"/>
<path d="M381.816 187.297C385.025 184.548 386.331 180.365 385.731 174.746C382.044 179.035 380.74 183.219 381.816 187.297Z" fill="#A9B9EB"/>
<path d="M355.538 206.216C350.513 214.042 349.356 221.159 352.065 227.567C356.648 222.357 357.805 215.24 355.538 206.216Z" fill="#A9B9EB"/>
<path d="M367.445 212.536C369.526 207.244 368.429 201.444 364.156 195.139C362.49 202.559 363.587 208.358 367.445 212.536Z" fill="#A9B9EB"/>
<path d="M370.63 188.702C369.175 195.159 370.128 200.205 373.492 203.839C375.306 199.236 374.353 194.19 370.63 188.702Z" fill="#A9B9EB"/>
<path d="M377.772 195.133C379.575 190.529 378.62 185.484 374.91 179.996C373.455 186.457 374.41 191.502 377.772 195.133Z" fill="#A9B9EB"/>
<path d="M340.483 235.658C354.507 226.984 353.141 226.991 360.744 220.363C362.801 218.575 364.712 216.763 366.476 214.927C370.045 211.12 373.191 206.936 375.856 202.451C379.089 197.258 380.953 193.069 381.45 189.885L381.663 189.526C381.761 189.449 381.789 189.312 381.728 189.202C381.742 189.081 381.705 188.958 381.623 188.866C381.513 188.799 381.389 188.759 381.262 188.75C381.14 188.737 381.019 188.774 380.925 188.855L380.726 189.029C380.663 189.141 380.62 189.264 380.606 189.393L380.55 189.41L380.531 189.691C379.979 192.791 378.145 196.862 375.034 201.901C372.366 206.323 369.221 210.437 365.658 214.174C363.885 216.07 362.018 217.872 360.06 219.575L359.547 220.016C362.943 214.76 363.028 208.259 359.805 200.514C356.369 208.16 356.284 214.66 359.547 220.016C352.038 226.484 353.626 226.284 339.954 234.737L340.483 235.658Z" fill="#A9B9EB"/>
<path d="M193.157 233.339C199.09 235.472 205.475 234.077 212.316 229.152C204.038 227.54 197.652 228.937 193.157 233.339Z" fill="#A9B9EB"/>
<path d="M202.216 225.19C207.856 226.294 213.416 224.155 218.896 218.774C211.212 218.461 205.654 220.6 202.216 225.19Z" fill="#A9B9EB"/>
<path d="M211.013 216.583C216.466 216.832 221.392 214.046 225.79 208.224C218.525 208.992 213.599 211.778 211.013 216.583Z" fill="#A9B9EB"/>
<path d="M229 197.738C223.128 199.658 219.541 202.834 218.24 207.267C222.808 206.501 226.396 203.325 229 197.738Z" fill="#A9B9EB"/>
<path d="M228.728 189.356C224.176 191.809 221.692 194.954 221.278 198.791C224.92 197.493 227.402 194.348 228.728 189.356Z" fill="#A9B9EB"/>
<path d="M219.762 195.038C222.699 192.525 223.892 188.698 223.344 183.559C219.971 187.482 218.779 191.308 219.762 195.038Z" fill="#A9B9EB"/>
<path d="M194.588 212.54C189.993 219.699 188.935 226.209 191.412 232.069C195.605 227.305 196.663 220.794 194.588 212.54Z" fill="#A9B9EB"/>
<path d="M206.899 217.093C208.8 212.253 207.798 206.949 203.89 201.181C202.365 207.968 203.369 213.272 206.899 217.093Z" fill="#A9B9EB"/>
<path d="M209.533 196.324C208.2 202.231 209.073 206.845 212.149 210.169C213.809 205.959 212.935 201.343 209.533 196.324Z" fill="#A9B9EB"/>
<path d="M216.066 202.206C217.714 197.996 216.841 193.38 213.448 188.361C212.116 194.27 212.99 198.886 216.066 202.206Z" fill="#A9B9EB"/>
<path d="M181.957 239.272C194.783 231.338 193.534 231.346 200.489 225.283C202.37 223.648 204.118 221.989 205.732 220.311C208.995 216.828 211.874 213.003 214.311 208.9C217.267 204.15 218.972 200.318 219.428 197.406L219.622 197.078C219.713 197.008 219.737 196.882 219.683 196.782C219.695 196.671 219.66 196.559 219.587 196.474C219.486 196.412 219.373 196.376 219.256 196.367C219.144 196.355 219.032 196.39 218.947 196.463L218.766 196.624C218.707 196.726 218.669 196.838 218.654 196.955L218.604 196.972L218.587 197.228C218.081 200.065 216.406 203.788 213.559 208.398C211.119 212.44 208.242 216.205 204.982 219.622C203.363 221.356 201.654 223.004 199.864 224.561L199.394 224.966C202.5 220.158 202.579 214.213 199.628 207.128C196.487 214.121 196.408 220.067 199.394 224.966C192.526 230.881 193.979 230.699 181.472 238.43L181.957 239.272Z" fill="#A9B9EB"/>
<path d="M39.3978 168.416C39.3978 168.416 36.3501 173.772 40.962 183.428C45.6635 193.266 44.6875 200.08 44.6875 200.08L49.0481 203.877C49.0481 203.877 50.0144 193.51 45.8605 185.783C40.6489 176.12 39.3978 168.416 39.3978 168.416Z" fill="#A9B9EB"/>
<path d="M26.3238 171.275C26.3238 171.275 25.469 175.736 30.7383 182.022C36.1221 188.423 36.9707 193.6 36.9707 193.6L40.605 196.574C40.605 196.574 39.1121 187.851 34.571 182.901C28.8983 176.708 26.3238 171.275 26.3238 171.275Z" fill="#A9B9EB"/>
<path d="M48.8428 178.769C48.8428 178.769 52.8162 181.594 55.2446 192.883C57.2248 202.085 55.0775 206.866 56.3254 212.505L50.7238 206.331C50.421 202.337 53.0132 199.733 51.6218 191.303C50.3215 183.41 48.8428 178.769 48.8428 178.769Z" fill="#A9B9EB"/>
<path d="M84.3934 213.169C84.3934 213.169 86.1188 217.743 81.8393 228.458C78.3526 237.201 73.7603 238.322 72.8568 240.337L70.9307 235.886C73.4085 232.464 76.167 232.907 79.7129 225.133C83.0322 217.838 84.3934 213.169 84.3934 213.169Z" fill="#A9B9EB"/>
<path d="M58.1055 185.896C58.1055 185.896 60.7776 193.876 61.3562 198.954C62.1924 206.17 59.3071 210.002 59.6314 217.434L65.3348 225.461C65.3348 225.461 67.1492 214.543 65.7613 205.68C63.4335 190.805 58.1055 185.896 58.1055 185.896Z" fill="#A9B9EB"/>
<path d="M71.8499 189.751C71.013 194.398 70.8605 199.143 71.397 203.834C73.1248 218.038 65.5361 228.719 65.5361 228.719L68.4759 231.581C68.4759 231.581 77.713 224.174 75.9268 212.285C74.0253 199.725 71.8499 189.751 71.8499 189.751Z" fill="#A9B9EB"/>
<path d="M51.0196 207.34C51.0196 207.34 47.6789 206.129 33.7494 207.805C24.823 208.881 27.4552 205.521 19.019 208.011C25.4206 208.62 27.5707 213.312 35.9313 212.792C42.6178 212.373 49.3268 212.478 55.9969 213.105L51.0196 207.34Z" fill="#A9B9EB"/>
<path d="M23.9634 216.203C23.9634 216.203 29.3816 223.12 41.7342 222.323C49.3373 221.852 56.9662 222.634 64.3155 224.638L60.6337 218.392C60.6337 218.392 55.5446 214.643 42.7802 216.705C34.0101 218.121 23.9634 216.203 23.9634 216.203Z" fill="#A9B9EB"/>
<path d="M31.2432 227.988C31.2432 227.988 36.6614 234.906 49.0138 234.109C56.617 233.637 64.2459 234.419 71.5953 236.424L67.9134 230.177C67.9134 230.177 62.8243 226.429 50.0598 228.49C41.2897 229.905 31.2432 227.988 31.2432 227.988Z" fill="#A9B9EB"/>
<path d="M15.3979 193.54C15.3979 193.54 19.3132 197.136 27.1004 196.339C34.9972 195.526 40.7871 197.266 40.7871 197.266L38.5827 194.927C38.5827 194.927 35.3663 192.557 27.2977 193.858C21.749 194.75 15.3979 193.54 15.3979 193.54Z" fill="#A9B9EB"/>
<path d="M44.1092 201.094C44.1092 201.094 38.0354 200.436 29.0974 201.16C23.4569 201.599 15.9849 198.153 15.9849 198.153C15.9849 198.153 21.709 206.269 30.1455 205.083C39.8196 203.722 49.3579 205.091 49.3579 205.091L44.1092 201.094Z" fill="#A9B9EB"/>
<path d="M39.1664 195.863C39.1664 195.863 34.1748 187.909 25.7094 186.279C20.7006 185.272 15.8955 183.433 11.4922 180.841C11.4922 180.841 16.1235 189.049 24.0544 189.706C31.374 190.334 36.4228 195.202 36.4228 195.202L39.1664 195.863Z" fill="#A9B9EB"/>
<path d="M72.171 240.477L73.4473 239.954C70.2238 232.082 55.6273 206.477 37.1271 193.63L36.3403 194.764C54.5833 207.433 68.9855 232.706 72.171 240.477Z" fill="#A9B9EB"/>
<path d="M297.331 177.28C297.331 177.28 294.986 181.399 298.532 188.824C302.149 196.389 301.398 201.629 301.398 201.629L304.751 204.549C304.751 204.549 305.495 196.577 302.299 190.635C298.292 183.203 297.331 177.28 297.331 177.28Z" fill="#A9B9EB"/>
<path d="M287.275 179.478C287.275 179.478 286.616 182.907 290.669 187.742C294.81 192.665 295.462 196.646 295.462 196.646L298.257 198.933C298.257 198.933 297.108 192.225 293.617 188.418C289.255 183.655 287.275 179.478 287.275 179.478Z" fill="#A9B9EB"/>
<path d="M304.593 185.241C304.593 185.241 307.648 187.412 309.516 196.094C311.039 203.17 309.388 206.848 310.348 211.183L306.039 206.435C305.806 203.364 307.8 201.363 306.732 194.879C305.73 188.81 304.593 185.241 304.593 185.241Z" fill="#A9B9EB"/>
<path d="M331.932 211.694C331.932 211.694 333.259 215.211 329.967 223.452C327.286 230.176 323.754 231.037 323.06 232.587L321.578 229.164C323.484 226.532 325.604 226.873 328.331 220.895C330.885 215.285 331.932 211.694 331.932 211.694Z" fill="#A9B9EB"/>
<path d="M311.717 190.72C311.717 190.72 313.772 196.858 314.217 200.762C314.859 206.312 312.64 209.258 312.89 214.974L315.916 218.718C315.916 218.718 318.671 212.75 317.603 205.934C315.815 194.497 311.717 190.72 311.717 190.72Z" fill="#A9B9EB"/>
<path d="M322.862 193.893C322.219 197.467 322.101 201.115 322.515 204.723C323.842 215.646 318.006 223.859 318.006 223.859L320.267 226.061C320.267 226.061 327.371 220.365 325.997 211.222C324.535 201.562 322.862 193.893 322.862 193.893Z" fill="#A9B9EB"/>
<path d="M306.268 207.212C306.268 207.212 303.698 206.28 292.987 207.568C286.123 208.397 288.147 205.813 281.66 207.727C286.582 208.196 288.235 211.804 294.665 211.405C299.807 211.083 304.965 211.163 310.096 211.646L306.268 207.212Z" fill="#A9B9EB"/>
<path d="M285.463 214.027C285.463 214.027 289.63 219.348 299.126 218.734C304.975 218.371 310.841 218.973 316.493 220.514L313.662 215.712C313.662 215.712 309.749 212.828 299.932 214.415C293.189 215.502 285.463 214.027 285.463 214.027Z" fill="#A9B9EB"/>
<path d="M291.06 223.09C291.06 223.09 295.227 228.409 304.726 227.796C310.571 227.434 316.44 228.034 322.091 229.577L319.259 224.773C319.259 224.773 315.345 221.89 305.53 223.476C298.786 224.564 291.06 223.09 291.06 223.09Z" fill="#A9B9EB"/>
<path d="M278.874 196.6C278.874 196.6 281.885 199.365 287.874 198.752C293.946 198.128 298.398 199.464 298.398 199.464L296.703 197.666C296.703 197.666 294.23 195.844 288.026 196.844C283.756 197.53 278.874 196.6 278.874 196.6Z" fill="#A9B9EB"/>
<path d="M300.952 202.41C300.952 202.41 296.282 201.903 289.41 202.461C285.07 202.797 279.326 200.148 279.326 200.148C279.326 200.148 283.727 206.389 290.214 205.478C297.654 204.43 304.988 205.483 304.988 205.483L300.952 202.41Z" fill="#A9B9EB"/>
<path d="M297.153 198.386C297.153 198.386 293.315 192.269 286.804 191.017C282.954 190.241 279.258 188.828 275.873 186.835C275.873 186.835 279.433 193.145 285.531 193.651C291.161 194.134 295.042 197.878 295.042 197.878L297.153 198.386Z" fill="#A9B9EB"/>
<path d="M322.534 232.695L323.514 232.293C321.035 226.239 309.81 206.548 295.585 196.67L294.979 197.542C309.008 207.284 320.083 226.718 322.534 232.695Z" fill="#A9B9EB"/>
<path d="M422.215 192.469C422.215 192.469 423.409 197.007 418.126 203.211C412.741 209.531 412.123 214.736 412.123 214.736L408.172 216.678C408.172 216.678 409.491 208.859 414.058 203.986C419.786 197.893 422.215 192.469 422.215 192.469Z" fill="#A9B9EB"/>
<path d="M431.277 197.131C431.277 197.131 431.034 200.582 425.924 204.177C420.709 207.833 419.072 211.478 419.072 211.478L415.814 212.956C415.814 212.956 418.622 206.829 422.932 204.074C428.319 200.626 431.277 197.131 431.277 197.131Z" fill="#A9B9EB"/>
<path d="M413.24 198.238C413.24 198.238 409.761 199.539 405.766 207.373C402.508 213.757 403.149 217.697 401.129 221.602L406.46 218.155C407.464 215.275 406.065 212.85 408.74 206.919C411.242 201.365 413.24 198.238 413.24 198.238Z" fill="#A9B9EB"/>
<path d="M380.344 216.597C380.344 216.597 378.178 219.626 379.231 228.35C380.086 235.466 383.246 237.19 383.515 238.852L385.804 235.952C384.651 232.948 382.533 232.734 381.444 226.318C380.431 220.3 380.344 216.597 380.344 216.597Z" fill="#A9B9EB"/>
<path d="M405.026 201.671C405.026 201.671 401.498 207.022 400.076 210.646C398.049 215.793 399.423 219.176 397.731 224.583L393.882 227.397C393.882 227.397 392.763 220.984 395.519 214.733C400.143 204.242 405.026 201.671 405.026 201.671Z" fill="#A9B9EB"/>
<path d="M394.157 201.818C393.864 205.401 393.047 208.923 391.734 212.271C387.681 222.386 391.175 231.732 391.175 231.732L388.453 233.263C388.453 233.263 383.106 226.003 386.745 217.604C390.602 208.731 394.157 201.818 394.157 201.818Z" fill="#A9B9EB"/>
<path d="M406.043 218.841C406.043 218.841 408.738 218.602 418.663 222.561C425.021 225.102 423.743 222.112 429.463 225.597C424.631 224.791 422.131 227.824 416.081 225.806C411.241 224.189 406.283 222.953 401.253 222.11L406.043 218.841Z" fill="#A9B9EB"/>
<path d="M424.222 230.658C424.222 230.658 418.879 234.689 409.944 231.685C404.443 229.849 398.675 228.931 392.874 228.968L396.807 225.092C396.807 225.092 401.283 223.329 410.275 227.346C416.453 230.103 424.222 230.658 424.222 230.658Z" fill="#A9B9EB"/>
<path d="M416.558 237.905C416.558 237.905 411.217 241.936 402.28 238.932C396.778 237.097 391.01 236.179 385.209 236.215L389.142 232.339C389.142 232.339 393.619 230.577 402.612 234.593C408.789 237.35 416.558 237.905 416.558 237.905Z" fill="#A9B9EB"/>
<path d="M434.96 215.655C434.96 215.655 431.376 217.536 425.799 215.424C420.147 213.282 415.544 213.428 415.544 213.428L417.625 212.138C417.625 212.138 420.457 211.024 426.14 213.561C430.05 215.303 434.96 215.655 434.96 215.655Z" fill="#A9B9EB"/>
<path d="M412.355 215.595C412.355 215.595 416.952 216.299 423.389 218.582C427.454 220.009 433.626 218.937 433.626 218.937C433.626 218.937 427.827 223.789 421.849 221.265C414.996 218.369 407.707 217.51 407.707 217.51L412.355 215.595Z" fill="#A9B9EB"/>
<path d="M417.013 212.714C417.013 212.714 422.245 207.837 428.793 208.295C432.678 208.533 436.573 208.12 440.32 207.075C440.32 207.075 435.306 212.209 429.339 211.14C423.831 210.169 419.163 212.765 419.163 212.765L417.013 212.714Z" fill="#A9B9EB"/>
<path d="M383.99 239.087L383.154 238.453C387.067 233.289 402.821 217.302 418.95 211.47L419.307 212.458C403.402 218.211 387.857 233.991 383.99 239.087Z" fill="#A9B9EB"/>
<path d="M194.838 60.4527C193.295 60.2444 191.761 60.2202 190.276 60.3842C189.655 60.4527 189.095 60.0038 189.026 59.3815C188.958 58.7606 189.406 58.2001 190.027 58.1315C191.697 57.9487 193.417 57.9743 195.143 58.2081C195.763 58.2928 196.197 58.8627 196.113 59.4837C196.044 59.9971 195.639 60.3842 195.15 60.4527C195.048 60.4675 194.944 60.4675 194.838 60.4527ZM139.146 68.9406C137.969 67.9473 136.95 66.7537 136.121 65.3922C135.794 64.8586 135.962 64.161 136.497 63.8358C137.031 63.5092 137.728 63.6785 138.055 64.2121C138.758 65.364 139.617 66.3734 140.607 67.2081C141.084 67.6126 141.146 68.3263 140.742 68.8048C140.555 69.0266 140.302 69.1583 140.036 69.1959C139.728 69.2389 139.403 69.1569 139.146 68.9406ZM180.115 63.1113C179.818 62.5616 180.022 61.8734 180.573 61.5764C181.101 61.2914 181.619 61.0052 182.126 60.7189C183.075 60.1826 184.056 59.7189 185.042 59.3412C185.627 59.1181 186.283 59.4111 186.506 59.9958C186.729 60.5791 186.436 61.2337 185.851 61.4581C184.971 61.7955 184.092 62.2094 183.241 62.6906C182.722 62.9836 182.192 63.278 181.65 63.5696C181.529 63.6355 181.398 63.6772 181.269 63.6946C180.814 63.7592 180.346 63.5401 180.115 63.1113ZM171.302 67.1825C171.063 66.6059 171.337 65.9419 171.915 65.7027C173.366 65.0992 174.841 64.4433 176.294 63.7498C176.86 63.4809 177.534 63.7202 177.804 64.2847C178.073 64.8492 177.834 65.5253 177.27 65.7954C175.782 66.5051 174.271 67.1771 172.782 67.7954C172.692 67.833 172.598 67.8586 172.506 67.8707C172.007 67.9419 171.505 67.6704 171.302 67.1825ZM203.55 63.4998C202.148 62.7148 200.724 62.0616 199.314 61.5589C198.725 61.3492 198.417 60.7014 198.627 60.1114C198.836 59.5226 199.486 59.2148 200.074 59.4245C201.603 59.9702 203.146 60.6759 204.658 61.524C205.203 61.8304 205.398 62.5213 205.092 63.067C204.913 63.3868 204.6 63.5871 204.261 63.6342C204.023 63.6678 203.775 63.6261 203.55 63.4998ZM148.664 72.6771C146.855 72.4862 145.172 72.1058 143.665 71.544C143.079 71.3263 142.781 70.6744 142.998 70.0871C143.216 69.501 143.868 69.2026 144.454 69.4204C145.785 69.9163 147.279 70.2537 148.9 70.4244C149.523 70.4903 149.974 71.0481 149.908 71.669C149.853 72.1972 149.443 72.6018 148.941 72.673C148.85 72.6851 148.758 72.6878 148.664 72.6771ZM162.084 70.2309C161.919 69.6274 162.274 69.0037 162.877 68.8384C164.354 68.4338 165.889 67.9554 167.439 67.4137C168.03 67.208 168.677 67.5199 168.883 68.1099C169.088 68.7013 168.778 69.3465 168.186 69.5535C166.587 70.1112 165.004 70.6059 163.477 71.0239C163.428 71.0373 163.381 71.0467 163.334 71.0534C162.778 71.1314 162.236 70.7873 162.084 70.2309ZM153.703 72.7564C153.078 72.7954 152.54 72.3209 152.5 71.6973C152.461 71.0723 152.934 70.5346 153.56 70.4943C155.035 70.4016 156.612 70.2013 158.241 69.9043C158.858 69.7927 159.447 70.1999 159.56 70.8155C159.672 71.4311 159.264 72.0212 158.649 72.1327C158.014 72.2497 157.381 72.3518 156.766 72.4392C155.719 72.587 154.688 72.6932 153.703 72.7564ZM211.026 69.1731C209.897 68.0629 208.699 67.0239 207.468 66.0858C206.971 65.7054 206.875 64.9957 207.253 64.4971C207.633 63.9997 208.344 63.9043 208.842 64.2833C210.148 65.2793 211.418 66.3814 212.615 67.5575C213.061 67.9957 213.068 68.7134 212.629 69.1596C212.447 69.3438 212.218 69.454 211.979 69.4863C211.643 69.5346 211.288 69.4298 211.026 69.1731ZM216.804 76.5507C216.082 75.2738 215.199 73.9714 214.176 72.6784C213.789 72.1865 213.873 71.4741 214.363 71.087C214.854 70.6986 215.566 70.7833 215.955 71.2739C217.047 72.6583 217.998 74.0588 218.776 75.4351C219.084 75.9795 218.891 76.6703 218.347 76.9795C218.221 77.0507 218.085 77.095 217.948 77.1152C217.5 77.1784 217.041 76.9674 216.804 76.5507Z" fill="white"/>
<path d="M219.24 72.6747L217.075 77.6298L243.354 90.7202L219.24 72.6747Z" fill="#BDCDFF"/>
<path d="M215.353 83.4563L217.528 88.499L242.183 90.1111L215.353 83.4563Z" fill="#BDCDFF"/>
<path d="M243.355 90.7202L200.939 82.4775L214.275 75.6233L243.355 90.7202Z" fill="white"/>
<path d="M219.24 72.6752L243.355 90.7207L227.534 67.7468L219.24 72.6752Z" fill="white"/>
<path d="M504.56 242.5C504.56 248.438 401.317 253.251 273.96 253.251C146.604 253.251 43.3604 248.438 43.3604 242.5C43.3604 236.562 146.604 231.749 273.96 231.749C401.317 231.749 504.56 236.562 504.56 242.5Z" fill="#C07CBF"/>
<path d="M160.288 241.754L80.5321 241.804C73.1086 241.809 66.348 235.794 65.4317 228.37L43.4647 50.3821C42.5485 42.9571 47.8236 36.9359 55.2471 36.9305L135.003 36.8796C142.427 36.8754 149.187 42.8897 150.102 50.3133L172.069 228.304C172.987 235.726 167.711 241.749 160.288 241.754Z" fill="#AF50AE"/>
<path d="M167.694 241.754L87.9382 241.804C80.5149 241.809 73.7541 235.794 72.838 228.37L50.871 50.3821C49.9548 42.9571 55.2298 36.9359 62.6532 36.9305L142.408 36.8796C149.833 36.8754 156.593 42.8897 157.51 50.3133L179.477 228.304C180.394 235.726 175.117 241.749 167.694 241.754Z" fill="#E6ABE5"/>
<path d="M163.749 236.085L90.4867 236.131C84.6966 236.134 79.4233 231.443 78.7087 225.653L57.5631 54.3189C56.8484 48.5285 60.9629 43.8309 66.7531 43.8283L140.016 43.7816C145.806 43.7776 151.08 48.4686 151.795 54.2603L172.939 225.593C173.655 231.383 169.54 236.081 163.749 236.085Z" fill="white"/>
<path d="M160.64 228.395L91.6653 228.44C87.1931 228.442 83.1202 224.82 82.5682 220.346L80.7724 205.788L79.9972 199.497L78.503 187.386L66.9891 94.0051L62.6043 58.4452C62.0523 53.9729 65.2298 50.3437 69.7021 50.3411L80.1929 50.3359L80.3952 51.9724C80.7698 54.983 83.5103 57.4208 86.5222 57.4182L125.566 57.3764C128.577 57.3738 130.715 54.9295 130.342 51.9189L130.142 50.3033L138.678 50.2981C143.149 50.2941 147.222 53.9194 147.775 58.3917L148.978 68.1492L167.737 220.291C168.291 224.766 165.112 228.393 160.64 228.395Z" fill="#EBABEA"/>
<path d="M121.184 54.2205H88.2471C87.1854 54.2205 86.2192 53.3605 86.0889 52.2995C85.9585 51.2372 86.7134 50.3772 87.775 50.3772H120.712C121.773 50.3772 122.74 51.2372 122.87 52.2995C123 53.3605 122.245 54.2205 121.184 54.2205Z" fill="#E185E0"/>
<path d="M160.639 228.395L91.6644 228.44C87.1922 228.442 83.1193 224.82 82.5673 220.346L80.7715 205.788L167.737 220.291C168.29 224.766 165.111 228.393 160.639 228.395Z" fill="#D17BD0"/>
<path d="M148.978 68.1494L66.9891 94.0054L62.6043 58.4454C62.0523 53.9732 65.2298 50.344 69.7021 50.3414L80.1929 50.3362L80.3952 51.9726C80.7698 54.9833 83.5103 57.421 86.5222 57.4184L125.566 57.3766C128.577 57.374 130.715 54.9298 130.342 51.9191L130.142 50.3035L138.678 50.2983C143.149 50.2944 147.222 53.9197 147.775 58.3919L148.978 68.1494Z" fill="#CB6FCA"/>
<path d="M306.209 165.719L303.691 164.969L305.689 160.024L308.988 160.646L306.209 165.719Z" fill="#DE623C"/>
<path d="M309.269 165.316C309.438 162.619 312.644 161.054 312.792 162.031C312.964 163.174 312.51 164.883 312.51 164.883C313.256 165.252 316.693 163.954 315.164 159.601L316.347 157.73L313.806 155.69L312.123 156.699C306.846 158.015 306.079 159.695 305.89 163.879C305.702 167.994 309.112 167.85 309.269 165.316Z" fill="#F37A50"/>
<path d="M312.419 162.304C312.332 162.338 312.246 162.351 312.157 162.358C312.165 162.372 312.171 162.385 312.177 162.4C312.515 163.249 312.294 164.132 311.685 164.375C311.585 164.414 311.479 164.433 311.374 164.434C311.397 165.015 311.16 165.516 310.726 165.688C310.555 165.757 310.369 165.765 310.184 165.723C310.246 166.303 309.986 166.843 309.499 167.036C308.891 167.278 308.161 166.886 307.875 166.16C307.587 165.436 307.848 164.653 308.455 164.41C308.611 164.349 308.772 164.33 308.934 164.345C308.724 163.577 308.955 162.831 309.504 162.614C309.606 162.574 309.71 162.556 309.816 162.553C309.792 161.973 310.029 161.472 310.463 161.299C310.624 161.237 310.795 161.225 310.966 161.256C310.889 160.745 311.108 160.257 311.537 160.087C312.052 159.884 312.667 160.214 312.909 160.826C313.153 161.438 312.932 162.101 312.419 162.304Z" fill="#DE623C"/>
<path d="M307.758 158.471C307.885 157.737 308.624 156.238 309.951 156.096C311.281 155.955 313.084 158.424 312.016 158.471C310.948 158.52 310.082 157.602 310.082 157.602L307.758 158.471Z" fill="#DE623C"/>
<path d="M353.421 104.378C345.67 104.4 337.776 107.511 337.969 122.299C338.165 137.088 336.87 151.23 332.781 153.408C336.663 157.156 364.071 165.025 375.021 155.02C370.15 149.096 367.391 129.007 367.391 123.556C367.391 116.131 365.318 104.343 353.421 104.378Z" fill="#201D40"/>
<path d="M359.575 235.608C359.222 232.086 363.455 205.402 363.455 205.402C368.593 181.845 364.156 164.872 364.156 164.872L350.091 177.511L353.499 201.035C353.499 201.035 352.879 202.746 352.551 204.115C350.778 211.535 352.544 220.404 353.637 226.316C354.141 229.055 354.928 234.811 354.948 236.12L352.73 238.987C352.73 238.987 360.76 247.873 361.994 247.928C364.394 248.038 363.688 245.66 363.688 245.66C360.389 242.271 359.676 236.616 359.575 235.608Z" fill="#F37A50"/>
<path d="M352.592 242.136L353.032 247.844L354.06 247.891L354.577 242.589C357.309 243.286 359.266 248.242 359.266 248.242C361.147 248.917 365.927 249.38 367.63 248.503C368.041 246.835 363.678 245.666 363.678 245.666C363.283 246.133 360.955 246.491 360.127 245.99C357.081 243.396 355.597 239.626 354.947 236.12C354.947 236.12 350.133 236.455 352.592 242.136Z" fill="#201D40"/>
<path d="M341.301 170.329C337.371 180.059 336.882 194.312 336.629 199.342C327.735 200.882 310.321 214.035 310.321 214.035L307.091 214.199C307.091 214.199 305.74 224.79 306.421 225.66C307.741 227.347 308.94 225.487 308.94 225.487C309.317 221.286 311.99 218.237 312.536 217.518C313.356 216.436 340.138 209.825 345.432 207.566C350.726 205.305 355.695 171.283 355.695 171.283L341.301 170.329Z" fill="#F37A50"/>
<path d="M304.882 215.933L301.276 219.548L301.841 220.268L305.729 217.541C306.844 219.794 304.625 223.996 304.625 223.996C305.262 225.662 307.726 229.166 309.306 229.808C310.675 229.117 308.931 225.485 308.931 225.485C308.388 225.489 306.792 224.122 306.649 223.271C306.636 219.704 308.327 216.51 310.32 214.034C310.32 214.034 307.299 210.973 304.882 215.933Z" fill="#201D40"/>
<path d="M361.068 132.114C361.068 132.114 368.783 138.315 375.021 146.345C376.739 149.189 378.429 154.423 378.429 154.423C376.279 155.158 357.485 140.167 357.485 140.167C357.485 140.167 354.99 138.941 355.895 135.747C356.875 132.302 361.068 132.114 361.068 132.114Z" fill="#F37A50"/>
<path d="M355.229 127.328L349.852 126.523L350.28 131.514C350.28 131.514 353.003 136.421 355.587 135.575C358.171 134.731 356.91 132.562 356.91 132.562L355.229 127.328Z" fill="#DE623C"/>
<path d="M347.575 122.273C349.71 128.163 352.968 130.904 357.682 129.895C361.578 129.06 364.742 122.742 363.082 116.832C361.424 110.921 356.315 107.186 351.672 108.49C347.029 109.793 345.485 116.5 347.575 122.273Z" fill="#F37A50"/>
<path d="M352.453 119.92C352.514 119.892 352.571 119.843 352.604 119.777C353.104 118.818 354.342 118.686 354.355 118.685C354.527 118.668 354.655 118.514 354.638 118.34C354.623 118.167 354.349 117.88 354.024 117.945C353.961 117.958 352.643 118.098 351.981 119.365C351.901 119.52 352.025 119.829 352.179 119.91C352.266 119.957 352.369 119.957 352.453 119.92Z" fill="#201D40"/>
<path d="M362.068 117.712C362.099 117.696 362.126 117.675 362.15 117.648C362.268 117.52 362.259 117.32 362.13 117.202C361.132 116.289 359.961 116.729 359.912 116.748C359.75 116.811 359.668 116.995 359.732 117.157C359.794 117.319 359.976 117.4 360.139 117.338C360.176 117.323 361.001 117.026 361.703 117.668C361.806 117.762 361.952 117.776 362.068 117.712Z" fill="#201D40"/>
<path d="M358.105 120.829C358.559 121.263 358.963 121.713 359.391 121.96C359.535 122.043 359.587 122.229 359.512 122.377C359.197 122.989 358.229 123.521 357.635 123.801C357.547 123.842 357.472 123.729 357.54 123.663C358.131 123.104 358.379 122.7 358.48 122.479C358.531 122.369 358.524 122.243 358.465 122.138C358.33 121.895 358.061 121.401 357.876 120.99C357.814 120.848 357.993 120.722 358.105 120.829Z" fill="#DE623C"/>
<path d="M355.431 126.151C355.248 125.996 355.336 125.698 355.575 125.671C356.182 125.602 357.181 125.469 358.111 125.249C359.044 125.03 359.996 124.704 360.57 124.495C360.796 124.413 361.008 124.64 360.913 124.86C360.621 125.539 359.943 126.624 358.514 126.96C357.086 127.296 355.996 126.628 355.431 126.151Z" fill="white"/>
<path d="M344.264 122.404C349.829 121.438 357.425 114.746 357.954 111.796C356.738 108.326 352.781 106.1 349.59 107.854C346.399 109.607 341.723 118.075 344.264 122.404Z" fill="#201D40"/>
<path d="M356.116 114.096C356.116 114.096 359.735 115.787 363.207 116.131C361.522 112.334 360.299 109.448 358.153 108.736C356.005 108.024 353.75 108.139 353.75 108.139L356.116 114.096Z" fill="#201D40"/>
<path d="M349.028 120.115C350.199 120.957 350.592 122.418 349.904 123.377C349.213 124.337 347.706 124.433 346.531 123.591C345.359 122.75 344.968 121.289 345.656 120.329C346.344 119.369 347.854 119.274 349.028 120.115Z" fill="#F37A50"/>
<path d="M348.498 123.161C348.539 123.138 348.575 123.105 348.605 123.064C349.021 122.465 349.036 121.81 348.646 121.311C348.25 120.8 347.541 120.587 346.959 120.804C346.796 120.865 346.715 121.047 346.775 121.21C346.837 121.374 347.019 121.456 347.181 121.395C347.498 121.276 347.924 121.41 348.149 121.699C348.366 121.976 348.342 122.333 348.085 122.704C347.987 122.847 348.023 123.044 348.166 123.143C348.267 123.214 348.396 123.216 348.498 123.161Z" fill="#DE623C"/>
<path d="M359.705 119.068C359.765 119.54 360.195 119.874 360.668 119.814C361.138 119.754 361.473 119.322 361.413 118.85C361.353 118.378 360.923 118.044 360.45 118.105C359.978 118.165 359.645 118.596 359.705 119.068Z" fill="black"/>
<path d="M353.429 120.846C353.495 121.35 353.954 121.706 354.456 121.642C354.962 121.578 355.317 121.117 355.254 120.614C355.188 120.111 354.728 119.754 354.227 119.818C353.721 119.883 353.366 120.343 353.429 120.846Z" fill="black"/>
<path d="M372.829 130.45C372.401 137.591 373.848 146.212 373.574 150.71L378.429 154.423C380.998 150.843 379.588 140.063 376.491 132.886C375.264 131.284 372.829 130.45 372.829 130.45Z" fill="#F37A50"/>
<path d="M376.16 125.643C376.16 125.643 377.415 128.246 377.967 130.638C377.951 130.691 376.895 132.204 376.49 132.886C374.996 132.057 373.797 131.636 372.691 130.562C373.183 126.605 375.792 125.648 376.16 125.643Z" fill="#DE623C"/>
<path d="M376.797 134.873C375.656 135.092 374.553 134.346 374.334 133.203L372.42 123.254L376.553 122.459L378.467 132.409C378.686 133.551 377.94 134.653 376.797 134.873Z" fill="#494C7F"/>
<path d="M378.472 130.784C378.414 130.711 378.342 130.652 378.265 130.603C378.276 130.592 378.29 130.585 378.304 130.574C379.047 129.976 379.3 129.058 378.872 128.525C378.8 128.438 378.714 128.368 378.619 128.312C378.94 127.796 378.982 127.219 378.674 126.839C378.553 126.688 378.39 126.586 378.2 126.528C378.553 126.033 378.595 125.409 378.253 124.983C377.823 124.45 376.959 124.432 376.326 124.943C375.691 125.454 375.526 126.3 375.956 126.833C376.063 126.968 376.201 127.069 376.354 127.138C375.768 127.729 375.596 128.524 375.984 129.006C376.054 129.093 376.14 129.163 376.236 129.219C375.917 129.736 375.873 130.312 376.18 130.692C376.292 130.833 376.443 130.931 376.615 130.99C376.282 131.416 376.231 131.972 376.534 132.346C376.894 132.797 377.623 132.812 378.16 132.38C378.695 131.95 378.835 131.234 378.472 130.784Z" fill="#F37A50"/>
<path d="M372.57 130.59C371.912 129.566 371.484 126.536 373.731 125.213C376.307 123.694 375.305 125.866 374.71 126.351C373.105 127.66 374.444 128.708 373.839 129.869C373.521 130.48 372.99 131.247 372.57 130.59Z" fill="#F37A50"/>
<path d="M382.946 100.326C382.946 100.326 379.747 109.735 372.795 113.966C373.02 114.495 377.481 122.069 377.481 122.069C377.481 122.069 386.244 120.314 394.707 122.732C391.307 117.442 382.946 100.326 382.946 100.326Z" fill="#95A6DB"/>
<path d="M392.734 109.335C395.932 115.719 397.046 121.637 395.219 122.552C393.392 123.468 389.317 119.035 386.118 112.651C382.92 106.267 381.807 100.349 383.634 99.4338C385.461 98.5182 389.533 102.951 392.734 109.335Z" fill="#494C7F"/>
<path d="M373.177 113.726C371.514 114.481 366.255 116.954 368.344 121.618C370.02 125.358 375.141 123.479 377.48 122.069C376.518 120.433 373.177 113.726 373.177 113.726Z" fill="#494C7F"/>
<path d="M384.433 108.853C384.433 108.853 387.982 106.787 390.022 109.886C391.685 112.833 388.465 114.946 387.482 115.173C386.439 113.908 384.433 108.853 384.433 108.853Z" fill="#768FDB"/>
<path d="M334.475 198.347C335.741 194.108 334.35 169.273 345.533 161.021L364.781 163.049C369.23 170.249 368.215 190.386 368.786 207.585C347.087 213.219 349.855 197.304 334.475 198.347Z" fill="#E62552"/>
<path d="M365.013 158.3C365.013 154.085 368.668 147.77 366.917 143.515C365.639 140.092 363.135 132.37 360.405 131.849C359.297 131.637 357.911 131.519 356.545 131.427C356.545 131.427 357.348 135.001 355.545 135.146C352.073 135.424 350.248 130.974 350.248 130.974C348.377 130.795 341.85 132.742 341.854 133.448C341.875 138.969 344.302 147.897 345.77 153.867C346.041 156.907 345.826 159.265 345.523 160.985C344.967 162.778 344.288 163.805 344.284 164.192C344.284 164.192 357.151 168.563 365.336 164.057C365.336 164.057 365.013 161.147 365.013 158.3Z" fill="#E62552"/>
<path d="M316.03 157.989C321.835 153.599 325.215 148.127 327.888 144.501L322.604 139.649C319.494 142.812 316.348 149.093 313.525 155.858C313.682 157.869 316.03 157.989 316.03 157.989Z" fill="#F37A50"/>
<path d="M346.733 140.524C346.733 140.524 334.473 144.805 327.888 144.501C324.64 143.808 322.602 139.649 322.602 139.649L343.269 132.277C343.269 132.277 345.871 131.295 347.578 134.142C349.421 137.214 346.733 140.524 346.733 140.524Z" fill="#F37A50"/>
<path d="M433.755 106.196C433.363 100.844 434.909 96.1158 439.176 93.7077C443.503 91.2673 448.921 93.6608 448.921 93.6608C448.921 93.6608 453.509 92.0291 457.664 96.6078C461.823 101.187 458.677 105.216 460.377 108.555C461.385 110.533 466.505 110.94 465.183 117.382C464.799 119.239 462.567 120.49 460.675 120.614C457.349 120.833 454.253 119.547 452.905 120.833C448.466 125.068 438.623 123.536 437.244 119.662C436.817 118.461 427.965 120.785 428.847 112.603C429.296 108.457 434.107 110.979 433.755 106.196Z" fill="#2C2858"/>
<path d="M460.737 132.544C465.236 130.232 475.558 126.341 479.91 122.093L473.229 117.342C473.229 117.342 457.958 122.322 454.557 124.133C451.957 126.253 455.667 131.524 460.737 132.544Z" fill="#F5A3B7"/>
<path d="M486.145 91.6985C484.508 89.568 483.587 91.0445 482.735 91.4835C480.366 92.7079 482.01 87.1192 479.401 87.8869C480.097 91.8392 478.501 91.7444 479.704 95.5567L479.422 97.1415L483.239 99.9482L483.665 98.1991C486.127 97.0932 488.787 95.0352 486.145 91.6985Z" fill="#DE623C"/>
<path d="M486.737 92.5647C486.213 91.2783 485.301 90.6659 484.873 90.4604C484.361 90.2292 482.812 90.7856 482.557 91.3791C482.3 91.9724 482.483 92.6116 482.955 92.8492C483.081 92.9072 483.204 92.9267 483.356 92.9015C483.144 93.5268 483.326 94.1663 483.754 94.3719C483.838 94.3976 483.922 94.4233 484.005 94.4491C483.963 94.928 484.155 95.3696 484.493 95.5108C484.622 95.5685 484.78 95.5819 484.897 95.5628C484.804 95.9714 484.936 96.5754 485.274 96.7169C485.6 97.1705 486.24 96.9509 486.608 96.5716C487.359 95.7956 487.622 94.7425 486.737 92.5647Z" fill="#F37A50"/>
<path d="M479.26 96.7022C479.26 96.7022 474.585 111.465 473.231 117.342C472.691 119.675 478.067 121.731 479.91 122.093C481.905 120.136 483.241 115.283 483.864 99.023C482.466 97.4215 479.26 96.7022 479.26 96.7022Z" fill="#F5A3B7"/>
<path d="M435.834 132.543C430.78 131.114 419.107 125.432 414.758 121.184L419.946 116.313C419.946 116.313 434.909 120.459 438.307 122.27C438.644 125.388 438.377 130.671 435.834 132.543Z" fill="#F5A3B7"/>
<path d="M407.728 89.7929C409.364 87.6623 410.284 89.1385 411.135 89.5778C413.508 90.802 411.862 85.2136 414.471 85.9812C413.778 89.9333 415.371 89.8383 414.168 93.6508L414.451 95.2358L410.633 98.0425L410.208 96.2933C407.746 95.1874 405.086 93.1294 407.728 89.7929Z" fill="#DE623C"/>
<path d="M407.137 90.6595C407.662 89.3733 408.574 88.761 409.003 88.5554C409.513 88.3241 411.061 88.8807 411.318 89.474C411.576 90.0674 411.392 90.7067 410.92 90.9443C410.791 91.0022 410.67 91.0216 410.518 90.9964C410.73 91.6221 410.546 92.2611 410.119 92.4667C410.036 92.4924 409.952 92.5182 409.869 92.5442C409.91 93.0229 409.72 93.4643 409.382 93.6057C409.253 93.6638 409.094 93.6769 408.978 93.658C409.069 94.0665 408.937 94.6702 408.602 94.8119C408.273 95.2654 407.634 95.046 407.266 94.6665C406.516 93.8905 406.251 92.8376 407.137 90.6595Z" fill="#F37A50"/>
<path d="M414.613 94.7968C414.613 94.7968 419.246 110.256 420.597 116.132C421.137 118.466 416.597 120.821 414.755 121.184C414.187 118.999 409.851 112.958 410.009 97.1172C411.407 95.5156 414.613 94.7968 414.613 94.7968Z" fill="#F5A3B7"/>
<path d="M442.847 112.958V125.206C442.847 125.206 447.396 127.384 451.336 125.206C450.73 122.485 450.37 113.813 450.37 113.813L442.847 112.958Z" fill="#DE623C"/>
<path d="M437.836 122.271H442.848C442.848 122.271 444.985 125.819 448.051 125.545C451.116 125.27 450.929 122.271 450.929 122.271L457.106 123.09C457.106 123.09 461.861 131.389 461.13 138.007C460.351 145.038 455.367 147.903 455.639 158.594C447.793 161.061 439.995 161.061 434.549 154.559C436.521 147.084 436.629 140.996 435.079 131.996C435.886 127.686 437.836 122.271 437.836 122.271Z" fill="#F5A3B7"/>
<path d="M456.702 108.392C456.702 114.815 452.83 120.021 448.05 120.021C443.273 120.021 439.4 114.815 439.4 108.392C439.4 101.97 443.273 96.7631 448.05 96.7631C452.83 96.7631 456.702 101.97 456.702 108.392Z" fill="#F37A50"/>
<path d="M438.824 108.392C443.6 107.781 448.04 105.12 450.549 101.682C452.167 105.701 456.703 108.392 456.703 108.392C456.703 108.392 460.098 100.704 453.92 96.5566C448.026 92.6001 433.963 95.3033 438.824 108.392Z" fill="#2C2858"/>
<path d="M444.411 110.873C443.903 110.873 443.493 110.461 443.493 109.954C443.493 109.446 443.903 109.034 444.411 109.034C444.919 109.034 445.332 109.446 445.332 109.954C445.332 110.461 444.919 110.873 444.411 110.873Z" fill="black"/>
<path d="M451.741 110.873C451.232 110.873 450.821 110.461 450.821 109.953C450.821 109.446 451.232 109.034 451.741 109.034C452.246 109.034 452.66 109.446 452.66 109.953C452.66 110.461 452.246 110.873 451.741 110.873Z" fill="black"/>
<path d="M453.358 109.125C453.208 109.126 453.06 109.048 452.979 108.909C452.751 108.526 452.475 108.297 452.161 108.227C451.615 108.106 451.075 108.47 451.069 108.474C450.869 108.611 450.596 108.561 450.457 108.361C450.32 108.162 450.368 107.888 450.565 107.749C450.601 107.725 451.417 107.163 452.342 107.362C452.91 107.485 453.38 107.854 453.737 108.459C453.862 108.669 453.792 108.939 453.584 109.064C453.511 109.106 453.436 109.125 453.358 109.125Z" fill="#2C2858"/>
<path d="M442.666 109.17C442.568 109.17 442.472 109.138 442.39 109.073C442.201 108.921 442.171 108.643 442.321 108.453C442.904 107.728 443.544 107.334 444.231 107.281C445.117 107.212 445.725 107.758 445.752 107.781C445.933 107.946 445.943 108.225 445.779 108.405C445.615 108.584 445.339 108.598 445.158 108.436C445.145 108.425 444.784 108.119 444.288 108.162C443.859 108.199 443.429 108.483 443.011 109.005C442.923 109.114 442.795 109.17 442.666 109.17Z" fill="#2C2858"/>
<path d="M448.962 111.161C450.151 112.018 450.522 112.37 450.981 112.656C450.663 113.718 449 114.245 448.524 114.123C449.686 113.551 449.85 112.776 449.85 112.776L448.962 111.161Z" fill="#DE623C"/>
<path d="M438.812 108.144C438.812 108.144 438.02 97.4973 448.526 96.9715C453.084 96.7434 456.14 99.9487 456.14 99.9487C456.14 99.9487 454.019 94.6843 447.37 95.2812C440.808 95.8238 436.05 100.415 438.812 108.144Z" fill="#C4204A"/>
<path d="M440.691 109.289C441.683 110.545 441.732 112.158 440.802 112.893C439.87 113.628 438.312 113.205 437.32 111.95C436.328 110.695 436.282 109.081 437.211 108.347C438.141 107.612 439.699 108.034 440.691 109.289Z" fill="#F37A50"/>
<path d="M439.821 112.002C439.783 112.002 439.745 111.994 439.707 111.978C439.559 111.915 439.488 111.743 439.55 111.593C439.761 111.095 439.767 110.695 439.567 110.403C439.256 109.952 438.524 109.813 437.991 109.83C437.829 109.836 437.694 109.709 437.689 109.546C437.683 109.384 437.81 109.248 437.972 109.242C438.686 109.218 439.607 109.423 440.05 110.069C440.272 110.391 440.458 110.956 440.094 111.822C440.045 111.934 439.937 112.002 439.821 112.002Z" fill="#DE623C"/>
<path d="M445.754 115.692C445.632 115.491 445.806 115.24 446.036 115.289C446.623 115.413 447.596 115.597 448.534 115.681C449.47 115.764 450.459 115.755 451.06 115.738C451.296 115.73 451.423 116.008 451.265 116.184C450.786 116.727 449.814 117.529 448.379 117.401C446.945 117.273 446.133 116.312 445.754 115.692Z" fill="white"/>
<path d="M442.85 122.093C442.85 122.093 444.627 125.259 447.795 125.558C447.092 126.768 446.364 127.686 444.858 127.328C442.037 126.656 442.85 122.093 442.85 122.093Z" fill="white"/>
<path d="M450.928 122.271C450.727 123.06 451.105 125.331 447.793 125.558C448.118 126.163 448.791 127.92 450.736 127.292C452.959 126.575 451.795 122.721 450.928 122.271Z" fill="white"/>
<path d="M411.952 178.341L408.184 182.471C408.184 182.471 406.069 182.899 404.547 183.538C404.257 183.661 403.986 183.79 403.759 183.925C403.749 183.931 403.741 183.936 403.733 183.941C403.453 184.109 403.089 184.321 402.672 184.544C402.427 184.673 402.164 184.807 401.886 184.94C400.228 185.726 398.105 186.43 396.788 185.719C393.806 181.924 398.411 177.279 402.212 175.538C406.018 173.796 407.201 171.228 409.018 171.801C410.833 172.375 411.952 178.341 411.952 178.341Z" fill="#494C7F"/>
<path d="M409.841 176.678C410.582 177.218 413.29 179.424 413.29 179.424L409.613 184.804C409.613 184.804 408.908 183.72 407.26 182.174C403.845 178.969 408.082 175.394 409.841 176.678Z" fill="#F37A50"/>
<path d="M433.337 195.455C427.731 186.368 412.498 177.712 412.498 177.712C412.498 177.712 409.911 181.164 408.816 185.004C408.816 185.004 422.586 199.881 426.596 203.943C430.645 207 436.138 200.938 433.337 195.455Z" fill="#4364CC"/>
<path d="M441.738 211.417L438.713 215.795L443.549 217.613L446.634 214.132L441.738 211.417Z" fill="#F37A50"/>
<path d="M455.357 164.96L441.538 172.557C441.538 172.557 455.348 191.611 463.653 196.187C465.098 196.983 473 192.358 472.901 190.698C472.541 184.648 455.357 164.96 455.357 164.96Z" fill="#4364CC"/>
<path d="M462.473 187.462C460.962 187.277 441.739 211.416 441.739 211.416C441.739 211.416 444.916 214.152 448.25 215.384C461.757 202.376 468.515 197.113 472.964 191.907C474.603 187.708 468.18 184.538 462.473 187.462Z" fill="#4364CC"/>
<path d="M447.656 168.895C447.656 168.895 435.311 155.476 431.777 158.881C428.237 162.285 427.473 189.814 425.476 200.144C424.48 205.303 432.079 207.113 433.872 204.611C437.105 200.094 447.656 168.895 447.656 168.895Z" fill="#768FDB"/>
<path d="M449.02 226.708C443.092 224.892 438.99 221.391 437.073 219.474C436.353 218.751 436.339 217.584 437.042 216.844C438.017 215.824 439.25 214.585 440.045 213.867C440.2 213.725 440.341 213.605 440.458 213.51L445.045 215.923L445.23 216.021C445.108 216.959 445.313 217.768 445.698 218.492C445.818 218.721 445.959 218.941 446.111 219.154C446.311 219.435 446.538 219.703 446.773 219.963C446.948 220.156 447.131 220.343 447.316 220.528C449.266 222.467 451.507 224.008 449.02 226.708Z" fill="#494C7F"/>
<path d="M429.724 166.76C429.724 166.76 428.887 161.168 434.551 154.559C439.329 158.328 444.108 160.652 455.637 158.594C456.569 164.54 456.065 166.248 456.065 166.248L446.41 171.72L429.724 166.76Z" fill="#768FDB"/>
<path d="M217.55 175.87C217.55 175.87 215.486 175.337 216.137 174.681C217.184 173.626 217.241 175.088 218.348 175.311C219.33 175.51 217.838 170.643 213.088 171.45C212.399 171.567 211.071 170.382 211.071 170.382L209.58 173.953L209.677 174.691C209.642 177.419 210.959 178.244 212.024 178.896L217.55 175.87Z" fill="#DE623C"/>
<path d="M183.513 137.375C179.829 142.921 182.635 151.514 189.092 165.411C194.903 165.089 196.236 161.229 196.236 161.229C196.236 161.229 194.858 148.316 193.682 144.432C190.857 135.109 185.289 134.701 183.513 137.375Z" fill="#0E6A41"/>
<path d="M211.386 170.381L196.235 161.229L189.092 165.411C193.26 169.146 198.517 172.474 209.558 174.998C210.995 173.057 211.386 170.381 211.386 170.381Z" fill="#0E6A41"/>
<path d="M134.95 181.86L131.136 186.038C131.136 186.038 128.996 186.471 127.455 187.119C127.162 187.243 126.89 187.373 126.658 187.512C126.65 187.515 126.642 187.522 126.633 187.526C126.351 187.697 125.983 187.911 125.559 188.137C125.311 188.267 125.044 188.403 124.765 188.536C123.086 189.333 120.938 190.046 119.607 189.325C116.588 185.485 121.247 180.786 125.095 179.022C128.945 177.261 130.144 174.661 131.982 175.242C133.819 175.823 134.95 181.86 134.95 181.86Z" fill="#181630"/>
<path d="M127.455 187.119C127.161 187.243 126.889 187.373 126.658 187.511L125.541 184.711C125.45 184.484 125.56 184.225 125.788 184.135C125.849 184.112 125.912 184.102 125.974 184.104C126.142 184.113 126.297 184.216 126.363 184.382L127.455 187.119Z" fill="white"/>
<path d="M125.558 188.137C125.311 188.267 125.043 188.403 124.764 188.536L123.841 186.223C123.751 185.996 123.862 185.739 124.089 185.648C124.149 185.623 124.213 185.614 124.274 185.617C124.442 185.624 124.598 185.729 124.664 185.896L125.558 188.137Z" fill="white"/>
<path d="M132.815 180.178C133.563 180.723 136.304 182.955 136.304 182.955L132.583 188.401C132.583 188.401 131.869 187.303 130.204 185.74C126.747 182.496 131.035 178.877 132.815 180.178Z" fill="#F37A50"/>
<path d="M156.59 199.178C150.917 189.983 135.502 181.224 135.502 181.224C135.502 181.224 132.885 184.717 131.775 188.604C131.775 188.604 145.71 203.658 149.769 207.766C153.866 210.86 159.424 204.727 156.59 199.178Z" fill="#C4204A"/>
<path d="M189.923 233.851L191.754 238.915L196.092 236.001L195.038 231.413L189.923 233.851Z" fill="#F37A50"/>
<path d="M177.371 170.383L162.653 176.547C162.653 176.547 174.511 197.199 182.377 202.692C183.747 203.648 192.193 199.84 192.272 198.16C192.556 192.031 177.371 170.383 177.371 170.383Z" fill="#C4204A"/>
<path d="M182.376 202.692C181.336 203.83 189.923 233.851 189.923 233.851C189.923 233.851 194.047 232.84 197.019 230.82C194.242 212.047 193.876 203.387 192.204 196.661C189.708 192.843 183.32 196.272 182.376 202.692Z" fill="#C4204A"/>
<path d="M171.08 172.35C171.08 172.35 159.941 161.884 156.361 165.329C152.783 168.774 150.656 193.52 148.636 203.974C147.627 209.194 155.317 211.025 157.13 208.493C160.403 203.923 171.08 172.35 171.08 172.35Z" fill="#E62552"/>
<path d="M189.985 110.441C191.678 105.569 188.914 98.7625 183.511 99.9475C178.11 101.134 174.921 102.877 173.037 96.3274C171.536 91.1113 164.913 87.9206 157.926 90.9103C148.986 94.7353 155.115 99.4424 150.086 99.8953C145.055 100.348 140.181 101.34 142.769 107.792C145.357 114.245 152.832 116.92 159.78 113.063C166.727 109.206 166.049 115.001 170.222 114.817C176.157 114.557 189.985 110.441 189.985 110.441Z" fill="#201D40"/>
<path d="M179.562 116.783C177.254 122.868 179.257 129.269 184.036 131.082C188.815 132.893 194.56 129.43 196.867 123.346C199.174 117.261 197.171 110.86 192.392 109.047C187.613 107.236 181.869 110.699 179.562 116.783Z" fill="#F37A50"/>
<path d="M180.252 123.944L185.751 130.488C185.751 130.488 185.311 134.065 185.29 134.569C185.205 136.694 182.479 136.614 180.853 134.672C179.227 132.73 178.387 130.539 178.387 130.539L180.252 123.944Z" fill="#F37A50"/>
<path d="M197.553 122.242C195.948 121.473 187.588 115.653 187.141 113.586C185.755 117.586 178.096 119.893 177.728 118.431C177.652 110.057 182.024 104.534 190.839 105.944C202.927 107.876 197.553 122.242 197.553 122.242Z" fill="#2C2858"/>
<path d="M185.887 121.442C186.002 121.996 186.545 122.351 187.1 122.236C187.654 122.12 188.009 121.577 187.894 121.024C187.778 120.47 187.235 120.113 186.682 120.229C186.127 120.344 185.771 120.887 185.887 121.442Z" fill="black"/>
<path d="M192.637 123.846C192.745 124.365 193.255 124.699 193.776 124.591C194.295 124.483 194.629 123.974 194.521 123.453C194.413 122.933 193.902 122.6 193.383 122.707C192.862 122.815 192.528 123.325 192.637 123.846Z" fill="black"/>
<path d="M195.827 122.862C195.868 122.859 195.907 122.85 195.946 122.832C196.134 122.746 196.221 122.503 196.142 122.292C195.517 120.649 194.051 120.516 193.988 120.51C193.785 120.495 193.609 120.666 193.598 120.894C193.587 121.121 193.742 121.32 193.945 121.336C193.994 121.34 195.019 121.45 195.459 122.606C195.523 122.775 195.673 122.872 195.827 122.862Z" fill="#2C2858"/>
<path d="M185.628 119.277C185.599 119.25 185.576 119.216 185.559 119.177C185.473 118.989 185.564 118.749 185.762 118.64C187.308 117.803 188.506 118.659 188.556 118.695C188.721 118.815 188.742 119.061 188.602 119.241C188.462 119.421 188.216 119.469 188.05 119.349C188.011 119.32 187.161 118.734 186.074 119.323C185.916 119.409 185.738 119.386 185.628 119.277Z" fill="#2C2858"/>
<path d="M191.711 124.243C191.773 124.94 191.779 125.61 191.955 126.132C192.014 126.307 191.922 126.502 191.749 126.569C191.037 126.85 189.839 126.583 189.135 126.38C189.032 126.352 189.052 126.2 189.158 126.196C190.062 126.162 190.564 126.006 190.812 125.896C190.935 125.841 191.022 125.732 191.051 125.6C191.116 125.298 191.255 124.688 191.402 124.209C191.453 124.043 191.696 124.07 191.711 124.243Z" fill="#DE623C"/>
<path d="M180.922 120.049C181.541 121.449 181.114 122.994 179.969 123.5C178.823 124.007 177.392 123.282 176.774 121.882C176.155 120.483 176.582 118.938 177.728 118.432C178.872 117.925 180.303 118.65 180.922 120.049Z" fill="#F37A50"/>
<path d="M179.323 122.295C179.372 122.285 179.419 122.263 179.463 122.229C180.068 121.752 180.286 121.091 180.046 120.466C179.801 119.825 179.147 119.39 178.492 119.431C178.306 119.443 178.167 119.601 178.178 119.786C178.19 119.97 178.349 120.11 178.533 120.1C178.892 120.076 179.282 120.342 179.421 120.705C179.555 121.053 179.422 121.408 179.048 121.706C178.903 121.82 178.878 122.031 178.993 122.176C179.074 122.278 179.203 122.321 179.323 122.295Z" fill="#DE623C"/>
<path d="M180.531 174.135C166.618 174.296 155.06 166.611 155.06 166.611C155.698 165.005 157.397 161.752 161.932 157.085C163.089 152.136 165.527 140.688 166.352 137.894C170.516 131.121 171.904 133.329 171.874 129.398L178.469 130.305C178.469 130.305 179.654 134.814 183.293 135.64C185.567 136.156 185.341 133.676 185.341 133.676C185.341 133.676 188.547 136.181 189.407 137.18C189.407 137.18 191.362 145.715 190.819 148.078C189.827 152.385 183.061 163.965 183.061 163.965C183.061 163.965 180.426 172.897 180.531 174.135Z" fill="#3F964F"/>
<path d="M141.701 162.239C141.608 160.611 141.665 158.26 142.578 158.403C144.044 158.634 144.526 159.189 145.616 159.486C146.581 159.75 146.119 157.949 142.711 155.124L142.845 153.816L139.328 152.663L139.232 153.279C136.907 154.574 135.685 157.854 136.952 161.264C137.495 162.722 141.823 164.408 141.701 162.239Z" fill="#F37A50"/>
<path d="M176.284 131.746C171.573 127.042 163.098 128.719 148.2 132.309C147.982 136.618 149.182 140.021 149.182 140.021C149.182 140.021 163.32 140.71 167.359 140.323C177.055 139.392 178.556 134.016 176.284 131.746Z" fill="#0E6A41"/>
<path d="M143.335 154.44L153.315 139.817C153.315 139.817 150.176 134.045 148.2 132.309C144.558 137.32 141.121 143.429 138.747 152.539C140.664 154.006 143.335 154.44 143.335 154.44Z" fill="#0E6A41"/>
<path d="M208.847 236.576C203.866 240.391 196.525 241.978 193.82 242.427C192.801 242.596 191.831 241.923 191.637 240.908C191.368 239.506 191.072 237.761 190.948 236.685C190.923 236.473 190.906 236.287 190.896 236.135L195.58 233.773L195.77 233.678C196.47 234.329 197.257 234.637 198.081 234.746C198.339 234.781 198.603 234.795 198.869 234.795C199.218 234.794 199.571 234.768 199.924 234.725C200.186 234.693 200.447 234.653 200.708 234.61C203.451 234.143 208.085 232.941 208.847 236.576Z" fill="#181630"/>
<path d="M198.869 234.795L198.903 236.173C198.908 236.39 198.737 236.571 198.52 236.577C198.303 236.581 198.123 236.41 198.116 236.193L198.081 234.746C198.339 234.781 198.603 234.795 198.869 234.795Z" fill="white"/>
<path d="M200.708 234.61L200.734 235.653C200.739 235.871 200.567 236.051 200.352 236.056C200.134 236.061 199.954 235.89 199.949 235.674L199.924 234.725C200.186 234.694 200.447 234.653 200.708 234.61Z" fill="white"/>
<path d="M171.437 173.234L170.847 173.09C173.496 166.937 179.032 156.879 182.342 150.713C182.644 150.151 182.927 149.624 183.188 149.137C186.203 143.512 183.598 135.761 183.573 135.685L184.21 135.671C184.237 135.75 184.945 137.728 185.195 140.363C185.427 142.804 185.36 146.356 183.718 149.421C183.457 149.908 183.174 150.435 182.872 150.996C179.565 157.155 174.074 167.104 171.437 173.234Z" fill="#0E6A41"/>
<path d="M185.878 127.069C185.845 126.851 186.075 126.678 186.249 126.79C186.689 127.076 187.423 127.53 188.163 127.882C188.904 128.235 189.72 128.52 190.219 128.681C190.414 128.745 190.425 129.033 190.236 129.146C189.652 129.49 188.582 129.926 187.448 129.386C186.313 128.845 185.976 127.739 185.878 127.069Z" fill="white"/>
<path d="M269.464 130.038C262.234 134.247 269.65 153.112 277.182 159.034C277.182 159.034 286.318 157.537 284.361 153.764C278.793 143.034 275.125 126.742 269.464 130.038Z" fill="#4364CC"/>
<path d="M305.807 159.999L283.253 151.952C283.253 151.952 279.913 154.913 277.184 159.034C280.782 161.512 287.382 164.218 303.807 164.943C304.963 163.693 305.807 159.999 305.807 159.999Z" fill="#4364CC"/>
<path d="M263.4 118.998L263.403 118.998L267.098 119.629L266.792 129.009L261.783 130.058L257.557 127.037L259.762 118.404L263.4 118.998Z" fill="#F37A50"/>
<path d="M257.092 111.542C256.876 118.015 260.821 123.399 265.905 123.569C270.988 123.739 275.285 118.63 275.5 112.158C275.716 105.686 271.771 100.302 266.688 100.132C261.605 99.962 257.309 105.07 257.092 111.542Z" fill="#F37A50"/>
<path d="M269.204 113.708C269.92 115.052 270.831 116.695 270.831 116.695C270.831 116.695 270.264 118.021 268.472 117.915C269.253 117.655 270.037 117.196 269.799 116.163C269.56 115.131 269.204 113.708 269.204 113.708Z" fill="#DE623C"/>
<path d="M255.891 106.111C256.359 99.9879 262.238 98.9332 262.238 98.9332C262.238 98.9332 261.067 98.2888 261.674 96.5155C262.46 97.2003 263.49 97.6287 264.531 97.6984C271.542 98.1668 275.695 100.026 274.557 102.615C274.152 103.536 278.543 104.776 275.485 110.826C275.184 110.001 275.273 107.108 274.035 106.261C272.795 105.411 273.224 107.752 270.237 106.9C267.221 106.041 265.431 104.431 262.989 105.271C261.016 106.072 257.55 113.044 257.569 113.563C257.526 112.372 255.686 108.801 255.891 106.111Z" fill="#201D40"/>
<path d="M274.971 115.623C274.971 115.623 273.81 118.966 272.905 119.76C272.988 118.251 269.583 118.641 268.152 118.529C265.558 118.326 263.339 115.624 261.919 118.838C258.63 118.483 258.642 111.117 258.642 111.117C255.444 117.946 258.158 123.769 265.93 125.815C271.051 127.163 275.04 121.007 274.971 115.623Z" fill="#201D40"/>
<path d="M265.578 112.716C265.089 112.668 264.732 112.232 264.78 111.742C264.829 111.252 265.264 110.894 265.755 110.943C266.244 110.991 266.602 111.427 266.553 111.917C266.505 112.407 266.069 112.765 265.578 112.716Z" fill="black"/>
<path d="M272.883 113.661C272.393 113.613 272.035 113.176 272.084 112.687C272.132 112.197 272.567 111.839 273.058 111.887C273.547 111.935 273.905 112.372 273.856 112.862C273.809 113.351 273.372 113.709 272.883 113.661Z" fill="black"/>
<path d="M274.649 112.07C274.499 112.055 274.36 111.964 274.291 111.817C274.104 111.413 273.852 111.157 273.543 111.057C273.013 110.883 272.441 111.192 272.434 111.196C272.221 111.312 271.951 111.236 271.834 111.023C271.716 110.811 271.791 110.543 272.003 110.424C272.039 110.403 272.907 109.924 273.81 110.213C274.364 110.391 274.796 110.805 275.093 111.443C275.196 111.664 275.101 111.927 274.879 112.03C274.804 112.065 274.727 112.077 274.649 112.07Z" fill="#201D40"/>
<path d="M263.833 110.983C263.736 110.973 263.643 110.932 263.567 110.859C263.392 110.688 263.389 110.408 263.561 110.234C264.208 109.569 264.889 109.239 265.577 109.254C266.467 109.272 267.02 109.877 267.043 109.902C267.206 110.084 267.19 110.363 267.01 110.527C266.828 110.689 266.551 110.675 266.388 110.496C266.377 110.484 266.044 110.143 265.548 110.138C265.116 110.133 264.661 110.373 264.192 110.852C264.095 110.951 263.961 110.995 263.833 110.983Z" fill="#201D40"/>
<path d="M258.555 111.133C259.47 112.35 259.405 113.944 258.408 114.693C257.413 115.442 255.864 115.063 254.947 113.846C254.034 112.629 254.099 111.035 255.094 110.286C256.09 109.537 257.639 109.916 258.555 111.133Z" fill="#F37A50"/>
<path d="M257.06 114.031C257.109 114.022 257.157 114.001 257.199 113.968C257.806 113.496 258.027 112.841 257.793 112.217C257.556 111.577 256.908 111.139 256.254 111.175C256.071 111.185 255.93 111.342 255.941 111.525C255.951 111.709 256.107 111.85 256.292 111.84C256.649 111.82 257.035 112.088 257.169 112.45C257.301 112.798 257.165 113.15 256.79 113.442C256.644 113.555 256.619 113.764 256.731 113.909C256.813 114.012 256.94 114.055 257.06 114.031Z" fill="#DE623C"/>
<path d="M268.209 121.378C265.95 121.378 264.503 119.468 264.485 119.443C264.365 119.281 264.398 119.052 264.561 118.932C264.722 118.812 264.951 118.846 265.071 119.008C265.156 119.121 267.181 121.768 270.135 120.094C270.31 119.995 270.534 120.057 270.634 120.232C270.733 120.408 270.67 120.631 270.496 120.73C269.669 121.198 268.901 121.378 268.209 121.378Z" fill="#DE623C"/>
<path d="M269.45 232.587L270.484 236.568L276.298 234.638L276.176 231.75L269.45 232.587Z" fill="#F37A50"/>
<path d="M229.907 234.902L230.746 231.177L237.225 231.591L235.769 234.588L229.907 234.902Z" fill="#F37A50"/>
<path d="M276.293 234.486C279.445 239.303 287.737 236.035 287.163 242.32C274.566 241.642 269.325 241.475 269.325 241.475C269.41 240.028 269.821 236.607 270.176 235.277L276.293 234.486Z" fill="#181630"/>
<path d="M235.742 234.293C238.642 239.265 247.4 236.564 246.503 242.811L228.732 241.605C228.732 239.299 229.479 236.211 229.903 234.901L235.742 234.293Z" fill="#181630"/>
<path d="M263.328 162.391L246.9 171.624C246.9 171.624 261.23 196.9 269.273 204.622C270.673 205.968 278.408 203.595 278.922 201.923C280.796 195.825 263.328 162.391 263.328 162.391Z" fill="#181630"/>
<path d="M267.933 201.388C265.123 212.967 268.532 233.439 268.532 233.439C268.532 233.439 273.716 233.62 277.652 232.045C277.223 212.308 279.806 205.692 278.828 198.506C276.389 194.167 270.091 194.957 267.933 201.388Z" fill="#181630"/>
<path d="M259.759 166.456L240.935 165.611C240.935 165.611 239.74 194.641 242.484 205.449C242.962 207.331 249.014 209.739 250.336 208.59C255.148 204.405 259.759 166.456 259.759 166.456Z" fill="#201D40"/>
<path d="M242.413 200.73C234.786 209.885 229.768 230.778 229.768 230.778C229.768 230.778 233.522 233.624 237.75 233.945C247.62 216.75 249.022 211.481 251.996 205.57C253.937 199.874 247.185 195.909 242.413 200.73Z" fill="#201D40"/>
<path d="M245.769 127.098C245.769 127.098 251.419 124.22 257.898 126.146C264.277 131.395 266.804 128.66 266.804 128.66C269.478 128.717 272.362 130.057 272.362 130.057C273.037 143.472 269.786 171.279 269.786 171.279C269.786 171.279 259.985 173.005 252.695 171.279C245.429 169.452 239.052 166.395 239.052 166.395C239.052 166.395 243.869 134.866 245.769 127.098Z" fill="#768FDB"/>
<path d="M254.624 128.407C248.255 119.626 235.203 134.861 228.578 141.926C228.578 141.926 229.163 150.823 235.655 150.52C240.75 148.761 258.472 133.712 254.624 128.407Z" fill="#4364CC"/>
<path d="M213.686 177.499C213.854 174.803 217.059 173.238 217.207 174.215C217.38 175.359 216.925 177.067 216.925 177.067C217.671 177.436 221.109 176.138 219.58 171.785L221.646 169.815L217.61 166.345L216.54 168.883C211.261 170.199 210.096 172.016 209.904 176.199C209.718 180.314 213.528 180.034 213.686 177.499Z" fill="#DE623C"/>
<path d="M222.095 172.325L236.662 149.728C236.662 149.728 231.573 145.859 228.579 141.925C225.218 145.669 222.51 151.941 216.424 167.216C217.225 168.718 222.095 172.325 222.095 172.325Z" fill="#4364CC"/>
<path d="M212.969 176.582C213.052 176.585 213.131 176.606 213.206 176.633C213.206 176.62 213.206 176.606 213.206 176.592C213.241 175.756 213.754 175.099 214.354 175.122C214.451 175.127 214.546 175.151 214.636 175.189C214.833 174.694 215.217 174.363 215.644 174.381C215.814 174.387 215.972 174.45 216.112 174.553C216.276 174.045 216.694 173.69 217.173 173.71C217.773 173.735 218.235 174.334 218.207 175.046C218.176 175.76 217.667 176.319 217.067 176.294C216.916 176.287 216.773 176.244 216.644 176.173C216.535 176.893 216.063 177.429 215.521 177.407C215.423 177.403 215.328 177.38 215.24 177.342C215.042 177.836 214.659 178.168 214.232 178.15C214.074 178.143 213.925 178.09 213.793 178C213.668 178.455 213.303 178.781 212.881 178.764C212.375 178.744 211.984 178.238 212.008 177.635C212.032 177.033 212.463 176.561 212.969 176.582Z" fill="#F37A50"/>
<path d="M104.003 219.67L104.542 223.035L110.185 221.566L110.133 218.722L104.003 219.67Z" fill="#F37A50"/>
<path d="M110.206 221.2C113.233 225.822 121.216 222.408 120.666 228.44L103.445 228.433C103.527 227.045 103.995 223.234 104.335 221.958L110.206 221.2Z" fill="#181630"/>
<path d="M99.1552 154.532L85.2715 162.336C85.2715 162.336 97.383 183.699 104.181 190.228C105.364 191.365 111.902 189.359 112.337 187.946C113.92 182.792 99.1552 154.532 99.1552 154.532Z" fill="#181630"/>
<path d="M103.05 187.493C99.7423 198.364 103.229 220.39 103.229 220.39C103.229 220.39 107.611 220.544 110.938 219.212C110.575 202.531 113.086 191.13 112.259 185.057C110.198 181.391 104.874 182.058 103.05 187.493Z" fill="#181630"/>
<path d="M96.1396 157.967L80.2288 157.255C80.2288 157.255 79.2183 181.791 81.5381 190.925C81.9419 192.516 87.0583 194.55 88.1742 193.581C92.2424 190.043 96.1396 157.967 96.1396 157.967Z" fill="#201D40"/>
<path d="M87.3747 194.49C85.4841 195.572 83.0955 197.322 79.9972 199.498L78.5029 187.388C79.9872 186.908 81.456 186.627 82.8824 186.606C88.4965 185.438 91.4014 191.384 87.3747 194.49Z" fill="#201D40"/>
<path d="M127.469 124.035C126.752 124.873 125.484 126.824 124.622 127.757L121.932 126.372C121.081 122.949 122.635 119.377 122.77 118.945C123.119 117.823 123.214 117.275 123.393 117.25C123.573 117.224 124.646 117.354 124.19 119.004C123.618 121.072 125.897 121.196 127.739 116.96C128.2 115.899 129.627 115.914 129.683 116.993C129.745 118.183 130.734 120.223 127.469 124.035Z" fill="#F37A50"/>
<path d="M108.528 136.757C107.897 138.433 110.086 145.37 110.703 145.264C117.552 141.511 124.996 127.647 124.996 127.647L121.252 125.31C121.252 125.31 116.666 131.104 108.528 136.757Z" fill="#C4204A"/>
<path d="M94.282 127.81C96.875 132.349 108.829 145.021 110.703 145.265L111.358 136.348C111.358 136.348 102.376 122.516 100.547 120.237C97.3882 116.286 90.0345 120.408 94.282 127.81Z" fill="#C4204A"/>
<path d="M130.026 116.665L124.414 125.383C124.189 125.731 123.724 125.833 123.374 125.607L122.196 124.849C121.846 124.625 121.746 124.159 121.97 123.809L127.582 115.092C127.807 114.743 128.272 114.643 128.622 114.867L129.8 115.625C130.149 115.85 130.25 116.316 130.026 116.665Z" fill="#201D40"/>
<path d="M129.506 116.325L123.894 125.043C123.669 125.392 123.204 125.493 122.855 125.268L121.676 124.509C121.327 124.284 121.226 123.818 121.451 123.47L127.063 114.753C127.287 114.403 127.753 114.302 128.102 114.527L129.281 115.285C129.63 115.511 129.731 115.975 129.506 116.325Z" fill="white"/>
<path d="M127.211 121.141C127.346 120.5 127.152 117.835 127.962 117.843C128.16 117.913 128.234 118.305 128.234 118.305C128.349 117.909 128.583 116.174 129.228 116.48C129.777 116.961 129.691 117.338 129.691 117.338L127.211 121.141Z" fill="#F37A50"/>
<path d="M98.5906 120.512C99.387 121.891 91.6538 122.237 90.9901 119.504C90.3264 116.772 92.9045 109.571 92.9045 109.571L99.7114 112.247C99.7114 112.247 97.5542 118.717 98.5906 120.512Z" fill="#DE623C"/>
<path d="M90.7505 103.694C90.6607 109.996 94.6004 115.162 99.55 115.233C104.5 115.303 108.585 110.251 108.675 103.95C108.765 97.6478 104.825 92.4813 99.8752 92.4108C94.9256 92.3404 90.8403 97.392 90.7505 103.694Z" fill="#F37A50"/>
<path d="M105.946 106.05C106.163 106.517 106.718 106.72 107.185 106.502C107.652 106.286 107.855 105.731 107.638 105.264C107.421 104.795 106.866 104.593 106.399 104.81C105.931 105.028 105.728 105.582 105.946 106.05Z" fill="black"/>
<path d="M99.7311 105.27C99.9661 105.777 100.567 105.996 101.073 105.761C101.579 105.526 101.798 104.924 101.563 104.419C101.328 103.913 100.727 103.694 100.221 103.929C99.7155 104.164 99.4959 104.764 99.7311 105.27Z" fill="black"/>
<path d="M104.152 106.017C104.481 107.462 104.918 109.238 104.918 109.238C104.918 109.238 104.049 110.338 102.391 109.782C103.19 109.736 104.045 109.505 104.084 108.474C104.123 107.443 104.152 106.017 104.152 106.017Z" fill="#DE623C"/>
<path d="M106.025 103.902C106.135 103.956 106.27 103.951 106.379 103.879C106.39 103.872 106.759 103.64 107.134 103.746C107.399 103.82 107.626 104.053 107.81 104.436C107.895 104.615 108.109 104.691 108.287 104.605C108.466 104.52 108.541 104.306 108.456 104.128C108.177 103.545 107.794 103.183 107.318 103.053C106.621 102.862 106.008 103.266 105.982 103.284C105.818 103.394 105.774 103.615 105.884 103.78C105.921 103.835 105.97 103.876 106.025 103.902Z" fill="#201D40"/>
<path d="M101.298 103.307C101.181 103.343 101.049 103.317 100.952 103.23C100.942 103.221 100.613 102.935 100.226 102.98C99.9536 103.013 99.693 103.209 99.4521 103.56C99.3403 103.723 99.1176 103.765 98.9545 103.653C98.7913 103.54 98.7498 103.318 98.8615 103.155C99.2267 102.622 99.6607 102.324 100.151 102.269C100.87 102.188 101.413 102.68 101.436 102.703C101.581 102.836 101.59 103.063 101.456 103.208C101.412 103.256 101.356 103.29 101.298 103.307Z" fill="#201D40"/>
<path d="M104.298 112.016C104.489 111.867 104.411 111.565 104.172 111.528C103.564 111.437 102.564 111.264 101.635 111.009C100.706 110.754 99.759 110.39 99.1896 110.158C98.9657 110.066 98.7436 110.287 98.831 110.513C99.0996 111.207 99.7419 112.324 101.166 112.716C102.59 113.107 103.713 112.475 104.298 112.016Z" fill="white"/>
<path d="M92.3686 106.591C92.8785 104.341 93.8563 104.388 95.5291 102.26C96.4105 99.339 98.0724 97.5786 100.416 99.3364C102.822 101.141 104.923 101.283 106.123 100.662C108.911 99.2202 108.676 103.715 108.676 103.715C108.676 103.715 111.497 98.9997 109.874 96.4145C107.559 92.7279 106.267 94.5601 103.664 92.0193C101.062 89.4797 96.4291 89.7459 95.1276 91.3916C93.7556 93.1259 93.8442 93.8489 90.9004 94.6162C87.9567 95.3835 85.7587 98.4164 87.5776 101.791C89.3965 105.165 84.6824 105.861 88.2191 109.394C89.5909 110.764 91.9822 111.228 92.5533 110.751C91.954 109.57 92.04 108.041 92.3686 106.591Z" fill="#2C2858"/>
<path d="M94.2276 103.864C94.89 105.19 94.5474 106.704 93.4624 107.246C92.3775 107.788 90.9609 107.152 90.2985 105.827C89.636 104.501 89.9786 102.987 91.0637 102.444C92.1486 101.902 93.5651 102.538 94.2276 103.864Z" fill="#F37A50"/>
<path d="M92.4691 106.234C92.4412 106.221 92.415 106.204 92.3919 106.18C92.2892 106.08 92.2881 105.914 92.3895 105.811C92.7625 105.434 92.9153 105.093 92.8439 104.798C92.7252 104.308 92.0094 103.975 91.7435 103.888C91.6065 103.843 91.5316 103.696 91.5765 103.557C91.6214 103.42 91.769 103.346 91.9061 103.392C91.9564 103.407 93.1409 103.804 93.3518 104.676C93.4686 105.157 93.27 105.664 92.7613 106.178C92.6827 106.259 92.5656 106.277 92.4691 106.234Z" fill="#DE623C"/>
<path d="M103.521 160.411C97.9879 160.788 81.9934 162.889 77.1404 160.205C75.576 157.163 78.5827 143.057 79.4122 137.384C81.7775 121.206 83.1917 116.679 90.8862 116.071C92.6107 117.162 96.7988 118.5 98.8191 118.787C98.8191 118.787 102.548 125.763 102.822 130.503C103.1 135.311 102.085 143.653 101.529 148.435C100.911 153.746 103.283 156.981 103.521 160.411Z" fill="#E62552"/>
<path d="M71.6719 131.987C71.6719 131.987 84.1312 114.043 89.3364 117.011C93.3086 120.238 84.0338 132.749 72.8107 141.222L71.6719 131.987Z" fill="#C4204A"/>
<path d="M367.385 85.1807H402.496C405.264 85.1807 407.509 82.9356 407.509 80.1661V65.1842C407.509 62.4152 405.264 60.1699 402.496 60.1699H367.385C364.615 60.1699 362.37 62.4152 362.37 65.1842V80.1661C362.37 82.9356 364.615 85.1807 367.385 85.1807Z" fill="white"/>
<path d="M368.765 84.0599V93.3708C368.765 94.1183 369.77 94.3589 370.108 93.6929L375.002 84.0599H368.765Z" fill="white"/>
<path d="M368.257 67.9858H401.2C402.467 67.9858 403.494 66.9588 403.494 65.6919C403.494 64.4249 402.467 63.3979 401.2 63.3979H368.257C366.989 63.3979 365.962 64.4249 365.962 65.6919C365.962 66.9588 366.989 67.9858 368.257 67.9858Z" fill="#E3EAFF"/>
<path d="M368.257 75.2634H401.2C402.467 75.2634 403.494 74.2364 403.494 72.9694C403.494 71.7025 402.467 70.6755 401.2 70.6755H368.257C366.989 70.6755 365.962 71.7025 365.962 72.9694C365.962 74.2364 366.989 75.2634 368.257 75.2634Z" fill="#E3EAFF"/>
<path d="M367.92 82.5398H389.062C390.141 82.5398 391.019 81.6635 391.019 80.5825V79.9089C391.019 78.828 390.141 77.9517 389.062 77.9517H367.92C366.841 77.9517 365.963 78.828 365.963 79.9089V80.5825C365.963 81.6635 366.841 82.5398 367.92 82.5398Z" fill="#E3EAFF"/>
<path d="M287.878 62.8107C289.509 67.6809 286.882 72.9506 282.012 74.5793C277.142 76.2081 271.872 73.5812 270.243 68.711C268.613 63.8426 271.24 58.5729 276.11 56.9441C280.98 55.3137 286.25 57.9406 287.878 62.8107Z" fill="#7F99EB"/>
<path d="M274.278 64.2791C275.097 64.0043 275.985 64.447 276.258 65.2665C276.533 66.0859 276.091 66.9732 275.27 67.248C274.451 67.5211 273.565 67.08 273.289 66.2606C273.016 65.4395 273.458 64.5539 274.278 64.2791Z" fill="white"/>
<path d="M281.832 61.7521C282.651 61.4767 283.54 61.9194 283.813 62.7385C284.087 63.5594 283.644 64.4465 282.825 64.7202C282.006 64.9938 281.119 64.5529 280.844 63.732C280.57 62.9128 281.013 62.0257 281.832 61.7521Z" fill="white"/>
<path d="M276.066 69.3535C275.987 69.3797 275.911 69.418 275.839 69.4668C275.522 69.6829 275.444 70.0383 275.665 70.2596C276.749 71.3522 278.716 71.671 280.558 71.0559C282.349 70.4565 283.685 69.1096 283.964 67.6268C284.022 67.3166 283.76 67.0692 283.38 67.0744C282.999 67.0779 282.642 67.334 282.584 67.6424C282.391 68.6757 281.462 69.6114 280.214 70.0296C278.932 70.4583 277.564 70.2352 276.81 69.4755C276.639 69.303 276.339 69.2629 276.066 69.3535Z" fill="white"/>
<path d="M409.608 148.455C407.847 153.279 402.509 155.762 397.686 154C392.861 152.238 390.377 146.901 392.139 142.077C393.9 137.253 399.241 134.77 404.064 136.532C408.886 138.293 411.37 143.631 409.608 148.455Z" fill="#7F99EB"/>
<path d="M398.055 141.126C398.868 141.422 399.284 142.32 398.988 143.133C398.692 143.945 397.793 144.362 396.982 144.066C396.169 143.77 395.752 142.87 396.049 142.059C396.345 141.247 397.244 140.828 398.055 141.126Z" fill="white"/>
<path d="M405.541 143.858C406.354 144.154 406.771 145.052 406.474 145.865C406.177 146.676 405.279 147.094 404.468 146.798C403.654 146.501 403.237 145.603 403.534 144.791C403.831 143.979 404.73 143.56 405.541 143.858Z" fill="white"/>
<path d="M396.291 146.208C396.212 146.18 396.128 146.16 396.044 146.155C395.662 146.126 395.377 146.356 395.412 146.665C395.578 148.196 396.918 149.672 398.744 150.339C400.515 150.986 402.4 150.767 403.545 149.78C403.782 149.574 403.73 149.218 403.431 148.984C403.131 148.75 402.692 148.728 402.455 148.933C401.66 149.62 400.349 149.772 399.115 149.322C397.845 148.859 396.913 147.832 396.797 146.767C396.77 146.525 396.561 146.307 396.291 146.208Z" fill="white"/>
<path d="M318.059 87.9691C315.969 92.4745 310.627 94.4344 306.122 92.3474C301.616 90.2602 299.656 84.9157 301.744 80.4105C303.829 75.9051 309.174 73.945 313.679 76.0324C318.185 78.1196 320.145 83.4639 318.059 87.9691Z" fill="white"/>
<path d="M307.521 79.9707C308.28 80.322 308.609 81.2216 308.259 81.9801C307.905 82.7386 307.008 83.0684 306.248 82.7172C305.491 82.3656 305.16 81.4659 305.512 80.7076C305.862 79.9493 306.763 79.6193 307.521 79.9707Z" fill="#CDD8FA"/>
<path d="M314.511 83.2086C315.268 83.56 315.599 84.4596 315.247 85.2178C314.897 85.9762 313.996 86.3063 313.239 85.9549C312.48 85.6035 312.151 84.7039 312.501 83.9457C312.852 83.1871 313.752 82.8572 314.511 83.2086Z" fill="#CDD8FA"/>
<path d="M305.409 84.7251C305.336 84.6914 305.258 84.6668 305.175 84.6538C304.809 84.5959 304.52 84.7935 304.527 85.0951C304.564 86.5833 305.735 88.1139 307.44 88.9038C309.094 89.671 310.928 89.6122 312.108 88.7537C312.355 88.5747 312.336 88.2273 312.064 87.9776C311.794 87.7279 311.374 87.671 311.129 87.85C310.307 88.4473 309.031 88.4883 307.879 87.9544C306.691 87.4048 305.877 86.3402 305.854 85.3048C305.846 85.0706 305.662 84.8424 305.409 84.7251Z" fill="#CDD8FA"/>
<path d="M47.8122 142.895C49.6108 146.975 47.7611 151.741 43.6806 153.54C39.6002 155.339 34.8342 153.489 33.0356 149.408C31.237 145.329 33.0868 140.563 37.1672 138.763C41.2477 136.965 46.0137 138.815 47.8122 142.895Z" fill="white"/>
<path d="M36.1693 145.253C36.8561 144.951 37.6584 145.262 37.9612 145.949C38.2639 146.637 37.9526 147.438 37.2656 147.742C36.5788 148.045 35.7765 147.733 35.4737 147.046C35.1709 146.359 35.4823 145.557 36.1693 145.253Z" fill="#CDD8FA"/>
<path d="M42.4998 142.463C43.1867 142.16 43.989 142.472 44.2917 143.158C44.5945 143.846 44.2831 144.647 43.5962 144.95C42.9093 145.253 42.107 144.942 41.8043 144.254C41.5015 143.568 41.8129 142.765 42.4998 142.463Z" fill="#CDD8FA"/>
<path d="M38.1197 149.5C38.0537 149.529 37.9905 149.566 37.9331 149.615C37.6768 149.827 37.6375 150.141 37.8453 150.314C38.8706 151.172 40.5969 151.292 42.1412 150.61C43.641 149.95 44.6891 148.679 44.8114 147.373C44.8369 147.101 44.5908 146.908 44.2618 146.942C43.9327 146.977 43.6456 147.225 43.62 147.498C43.5351 148.406 42.8057 149.291 41.7622 149.75C40.6878 150.224 39.4867 150.142 38.7735 149.544C38.6122 149.41 38.3491 149.398 38.1197 149.5Z" fill="#CDD8FA"/>
<path d="M489.144 205.056L492.861 216.883C493.003 217.334 492.752 217.814 492.301 217.955L471.75 224.417C471.299 224.559 470.818 224.309 470.676 223.857L466.959 212.031C466.817 211.58 467.068 211.101 467.518 210.96L488.07 204.498C488.521 204.355 489.002 204.606 489.144 205.056Z" fill="#CDD8FA"/>
<path d="M489.144 205.056L489.348 205.71L482.098 215.381C481.404 216.347 480.162 216.749 479.03 216.374L467.078 212.404L466.958 212.031C466.817 211.581 467.069 211.101 467.52 210.958L488.072 204.497C488.522 204.356 489 204.606 489.144 205.056Z" fill="white"/>
<path d="M351.417 39.9382L346.585 52.4146C346.402 52.8902 345.867 53.126 345.393 52.9422L323.708 44.5457C323.233 44.3601 322.996 43.8274 323.181 43.3507L328.013 30.8742C328.196 30.3997 328.731 30.1624 329.206 30.3457L350.891 38.7432C351.365 38.9287 351.601 39.4615 351.417 39.9382Z" fill="#CDD8FA"/>
<path d="M351.417 39.9377L351.149 40.6258L338.522 43.896C337.284 44.2432 335.966 43.745 335.265 42.6686L327.859 31.2685L328.013 30.8738C328.196 30.3992 328.731 30.1619 329.205 30.3474L350.888 38.7427C351.363 38.9282 351.6 39.461 351.417 39.9377Z" fill="white"/>
<path d="M208.56 116.935C208.511 116.642 208.534 116.356 208.608 116.085C208.96 113.428 212.667 112.979 217.876 111.957C218.746 111.785 218.07 110.844 217.375 108.64C216.921 107.207 217.484 104.79 219.082 104.515C221.716 104.062 219.539 106.567 222.748 111.282C224.463 113.8 226.981 111.79 227.454 114.535L228.529 120.785C228.713 121.853 228.783 122.899 227.304 123.328C225.868 123.743 226.376 124.725 224.265 125.088L213.699 126.907C212.622 127.092 211.596 126.371 211.412 125.299C211.335 124.855 211.422 124.423 211.619 124.052C210.963 123.822 210.445 123.264 210.32 122.535C210.245 122.092 210.33 121.661 210.527 121.29C209.87 121.061 209.351 120.503 209.226 119.773C209.134 119.243 209.265 118.726 209.553 118.315C209.049 118.034 208.667 117.546 208.56 116.935Z" fill="white"/>
<path d="M215.885 117.675L210.847 118.542C210.162 118.66 209.455 118.407 209.004 117.879C208.819 117.662 208.845 117.336 209.065 117.149C209.282 116.964 209.611 116.991 209.796 117.207C210.011 117.458 210.347 117.579 210.672 117.522L215.831 116.634C216.343 116.547 216.687 116.061 216.599 115.553C216.51 115.043 216.023 114.701 215.513 114.789L212.066 115.382C211.783 115.431 211.513 115.241 211.465 114.96C211.417 114.679 211.607 114.411 211.889 114.361L215.338 113.768C216.414 113.583 217.44 114.303 217.624 115.376C217.727 115.973 217.541 116.55 217.173 116.98C217.594 117.271 217.903 117.722 217.996 118.263C218.1 118.863 217.911 119.441 217.543 119.872C217.961 120.162 218.267 120.611 218.359 121.152C218.472 121.804 218.244 122.437 217.806 122.875C218.173 123.166 218.442 123.579 218.527 124.074C218.711 125.146 217.985 126.168 216.91 126.353L213.698 126.906C213.014 127.024 212.308 126.77 211.856 126.244C211.669 126.027 211.695 125.699 211.913 125.514C212.132 125.329 212.461 125.353 212.646 125.57C212.862 125.821 213.197 125.942 213.522 125.886L216.734 125.333C217.246 125.244 217.59 124.76 217.502 124.25C217.415 123.742 216.926 123.399 216.416 123.487L212.606 124.143C211.921 124.261 211.214 124.007 210.763 123.48C210.577 123.263 210.604 122.935 210.822 122.75C211.043 122.561 211.369 122.59 211.554 122.806C211.772 123.061 212.101 123.179 212.431 123.123L216.567 122.411C217.078 122.323 217.423 121.836 217.335 121.328C217.247 120.819 216.76 120.477 216.249 120.564L211.511 121.38C210.826 121.498 210.119 121.245 209.669 120.717C209.482 120.5 209.508 120.174 209.726 119.987C209.946 119.802 210.274 119.828 210.459 120.045C210.678 120.299 211.005 120.417 211.335 120.359L216.203 119.522C216.714 119.434 217.059 118.949 216.972 118.44C216.883 117.93 216.398 117.588 215.885 117.675Z" fill="#BDCDFF"/>
<path d="M228.843 123.548L232.134 122.982C232.588 122.903 232.895 122.47 232.815 122.015L231.134 112.239C231.055 111.783 230.622 111.477 230.166 111.556L226.877 112.121C226.421 112.2 226.114 112.633 226.194 113.089L227.876 122.865C227.955 123.321 228.388 123.626 228.843 123.548Z" fill="#BDCDFF"/>
<path d="M439.329 40.5257C439.399 40.237 439.396 39.9485 439.339 39.6738C439.175 36.9984 435.506 36.2934 430.382 34.9111C429.524 34.6801 430.266 33.7875 431.112 31.6379C431.665 30.2397 431.271 27.7898 429.697 27.4043C427.098 26.769 429.098 29.4191 425.567 33.8988C423.683 36.2926 421.311 34.1129 420.647 36.8188L419.141 42.9782C418.884 44.0314 418.742 45.0693 420.189 45.6001C421.591 46.1144 421.014 47.0584 423.098 47.5676L433.511 50.1159C434.571 50.3755 435.644 49.7269 435.902 48.6707C436.01 48.2329 435.954 47.7965 435.784 47.4126C436.452 47.2285 437.01 46.708 437.183 45.9898C437.291 45.5529 437.234 45.1167 437.064 44.7334C437.735 44.5503 438.293 44.0295 438.469 43.3103C438.598 42.7879 438.501 42.2625 438.245 41.8323C438.765 41.588 439.18 41.1268 439.329 40.5257Z" fill="#E3EAFF"/>
<path d="M431.972 40.7551L436.936 41.9704C437.612 42.1355 438.334 41.9311 438.821 41.4368C439.02 41.2329 439.018 40.9052 438.81 40.7045C438.606 40.5039 438.277 40.5079 438.078 40.7115C437.846 40.9469 437.504 41.0431 437.181 40.9647L432.098 39.7206C431.595 39.5973 431.282 39.089 431.406 38.5872C431.527 38.0857 432.039 37.7779 432.543 37.9012L435.942 38.7327C436.219 38.8008 436.499 38.6309 436.569 38.3532C436.637 38.0758 436.464 37.7954 436.187 37.7272L432.788 36.8955C431.727 36.6359 430.655 37.2839 430.396 38.34C430.251 38.929 430.399 39.5173 430.733 39.9719C430.294 40.2326 429.954 40.6614 429.825 41.1944C429.68 41.7854 429.828 42.3757 430.165 42.8304C429.728 43.0911 429.392 43.5188 429.26 44.0508C429.103 44.6942 429.287 45.3411 429.693 45.8087C429.308 46.0732 429.009 46.4675 428.891 46.955C428.632 48.0108 429.284 49.0812 430.345 49.3408L433.51 50.1152C434.186 50.2805 434.908 50.0767 435.395 49.5824C435.597 49.3788 435.592 49.051 435.387 48.8501C435.182 48.6508 434.854 48.6524 434.652 48.8563C434.423 49.0911 434.078 49.1878 433.758 49.1097L430.59 48.3351C430.086 48.2118 429.779 47.7035 429.901 47.202C430.025 46.7002 430.534 46.3927 431.037 46.516L434.792 47.4347C435.468 47.6001 436.19 47.3957 436.677 46.9012C436.876 46.697 436.874 46.3692 436.669 46.1694C436.462 45.9657 436.133 45.9714 435.934 46.175C435.699 46.4142 435.363 46.5087 435.037 46.4293L430.962 45.4316C430.458 45.3086 430.148 44.7995 430.27 44.298C430.393 43.7962 430.903 43.4887 431.406 43.6117L436.077 44.7545C436.753 44.9196 437.474 44.7158 437.962 44.2218C438.161 44.0182 438.159 43.6901 437.954 43.4897C437.746 43.2893 437.421 43.292 437.219 43.4954C436.984 43.734 436.648 43.8288 436.322 43.7488L431.525 42.5751C431.021 42.4517 430.711 41.9437 430.835 41.442C430.956 40.9404 431.465 40.6318 431.972 40.7551Z" fill="#BDCDFF"/>
<path d="M418.638 45.7145L415.393 44.9213C414.945 44.8113 414.671 44.358 414.78 43.909L417.139 34.2729C417.248 33.8236 417.701 33.5485 418.151 33.6586L421.391 34.4521C421.842 34.5619 422.116 35.0151 422.007 35.4641L419.648 45.1002C419.539 45.5495 419.086 45.8246 418.638 45.7145Z" fill="#BDCDFF"/>
<path d="M313.515 182.391C313.515 185.57 310.938 188.147 307.759 188.147C304.579 188.147 302.002 185.57 302.002 182.391C302.002 179.212 304.579 176.635 307.759 176.635C310.938 176.635 313.515 179.212 313.515 182.391Z" fill="white"/>
<path d="M173.969 38.925C172.374 40.5198 169.79 40.5198 168.195 38.925C166.602 37.3316 166.602 34.7472 168.195 33.1524C169.79 31.559 172.374 31.559 173.969 33.1524C175.563 34.7472 175.563 37.3316 173.969 38.925Z" fill="white"/>
<path d="M503.825 139.032C502.232 140.626 499.649 140.626 498.052 139.032C496.458 137.438 496.458 134.854 498.052 133.259C499.649 131.666 502.232 131.666 503.825 133.259C505.419 134.854 505.419 137.438 503.825 139.032Z" fill="#E3EAFF"/>
<path d="M316.76 33.1704C315.166 34.7642 312.582 34.7642 310.989 33.1704C309.393 31.5767 309.393 28.9928 310.989 27.3991C312.582 25.8034 315.166 25.8034 316.76 27.3991C318.354 28.9928 318.354 31.5767 316.76 33.1704Z" fill="#E3EAFF"/>
<path d="M319.969 170.614C318.527 170.614 317.352 171.788 317.352 173.233C317.352 174.676 318.527 175.851 319.969 175.851C321.415 175.851 322.589 174.676 322.589 173.233C322.589 171.788 321.415 170.614 319.969 170.614ZM319.969 177.475C317.63 177.475 315.727 175.573 315.727 173.233C315.727 170.893 317.63 168.989 319.969 168.989C322.31 168.989 324.214 170.893 324.214 173.233C324.214 175.573 322.31 177.475 319.969 177.475Z" fill="white"/>
<path d="M495.577 147.218C493.754 147.218 492.27 148.703 492.27 150.528C492.27 152.352 493.754 153.836 495.577 153.836C497.402 153.836 498.886 152.352 498.886 150.528C498.886 148.703 497.402 147.218 495.577 147.218ZM495.577 155.889C492.62 155.889 490.217 153.484 490.217 150.528C490.217 147.571 492.62 145.165 495.577 145.165C498.533 145.165 500.939 147.571 500.939 150.528C500.939 153.484 498.533 155.889 495.577 155.889Z" fill="#E3EAFF"/>
</svg>
