<svg width="75" height="75" viewBox="0 0 75 75" fill="none" xmlns="http://www.w3.org/2000/svg">
<g clip-path="url(#clip0)">
<path d="M13.75 7.5C13.06 7.5 12.5 8.05869 12.5 8.74995V17.4999C12.5 18.1912 13.06 18.7499 13.75 18.7499C14.4399 18.7499 14.9999 18.1912 14.9999 17.4999V8.74995C14.9999 8.05869 14.4399 7.5 13.75 7.5Z" fill="#C82FC6"/>
<path d="M70 15C67.2424 15 65 17.2425 65 20C65 22.7574 67.2425 24.9999 70 24.9999C72.7574 24.9999 74.9999 22.7575 74.9999 20C74.9999 17.2425 72.7574 15 70 15ZM70 22.5C68.6212 22.5 67.4999 21.3788 67.4999 20C67.4999 18.6212 68.6211 17.4999 70 17.4999C71.3788 17.4999 72.5 18.6211 72.5 20C72.4999 21.3788 71.3787 22.5 70 22.5Z" fill="#C82FC6"/>
<path d="M4.99995 56.25C2.24253 56.25 0 58.4925 0 61.25C0 64.0074 2.24253 66.2499 4.99995 66.2499C7.75752 66.2499 9.9999 64.0074 9.9999 61.25C9.9999 58.4925 7.75752 56.25 4.99995 56.25ZM4.99995 63.75C3.62124 63.75 2.4999 62.6288 2.4999 61.25C2.4999 59.8711 3.62109 58.7499 4.99995 58.7499C6.37866 58.7499 7.5 59.8711 7.5 61.25C7.5 62.6288 6.37881 63.75 4.99995 63.75Z" fill="#C82FC6"/>
<path d="M67.5764 16.58L56.7927 11.3738C56.1701 11.0725 55.4239 11.335 55.1239 11.9563C54.8239 12.5776 55.0851 13.3251 55.7065 13.6251L66.4902 18.8313C66.6653 18.9163 66.8503 18.9563 67.0327 18.9563C67.4976 18.9563 67.944 18.6962 68.1588 18.2487C68.4588 17.6275 68.1977 16.88 67.5764 16.58Z" fill="#C82FC6"/>
<path d="M56.25 64.9999C53.4924 64.9999 51.25 67.2424 51.25 69.9998C51.25 72.7573 53.4924 75 56.25 75C59.0075 75 61.2499 72.7574 61.2499 70C61.2499 67.2426 59.0075 64.9999 56.25 64.9999ZM56.25 72.4999C54.8712 72.4999 53.7499 71.3787 53.7499 69.9998C53.7499 68.621 54.8712 67.4999 56.25 67.4999C57.6287 67.4999 58.75 68.6211 58.75 70C58.75 71.3789 57.6287 72.4999 56.25 72.4999Z" fill="#C82FC6"/>
<path d="M53.8262 66.5801L43.0424 61.3739C42.4199 61.0725 41.6737 61.3339 41.3737 61.9564C41.0737 62.5777 41.3349 63.3252 41.9563 63.6252L52.74 68.8314C52.9151 68.9163 53.1001 68.9563 53.2824 68.9563C53.7474 68.9563 54.1937 68.6963 54.4088 68.2488C54.7086 67.6274 54.4474 66.8801 53.8262 66.5801Z" fill="#C82FC6"/>
<path d="M37.5 33.75C34.7424 33.75 32.5 35.9925 32.5 38.75C32.5 41.5075 34.7425 43.7499 37.5 43.7499C40.2575 43.7499 42.4999 41.5074 42.4999 38.75C42.4999 35.9925 40.2575 33.75 37.5 33.75ZM37.5 41.25C36.1212 41.25 34.9999 40.1288 34.9999 38.75C34.9999 37.3712 36.1211 36.2499 37.5 36.2499C38.8787 36.2499 40 37.3711 40 38.75C40 40.1288 38.8787 41.25 37.5 41.25Z" fill="#C82FC6"/>
<path d="M35.3023 35.47L27.0186 29.0137C26.4735 28.5924 25.6887 28.6862 25.2636 29.2312C24.8398 29.7763 24.936 30.5612 25.4811 30.9863L33.7648 37.4426C33.9936 37.6201 34.2636 37.7064 34.5324 37.7064C34.9049 37.7064 35.2724 37.5414 35.5198 37.2252C35.9436 36.68 35.8473 35.895 35.3023 35.47Z" fill="#C82FC6"/>
<path d="M60 32.5001C52.4188 32.5001 46.25 38.6689 46.25 46.2502C46.25 53.8315 52.4188 60.0002 60 60.0002C67.5813 60.0002 73.7501 53.8315 73.7501 46.2502C73.7501 38.6689 67.5813 32.5001 60 32.5001ZM60 57.5C53.7963 57.5 48.75 52.4538 48.75 46.25C48.75 40.0463 53.7963 35 60 35C66.2038 35 71.25 40.0463 71.25 46.25C71.25 52.4538 66.2038 57.5 60 57.5Z" fill="#C82FC6"/>
<path d="M60.0002 37.5C57.2426 37.5 55.0002 39.7425 55.0002 42.5C55.0002 45.2575 57.2428 47.4999 60.0002 47.4999C62.7578 47.4999 65.0001 45.2574 65.0001 42.5C65.0001 39.7425 62.7578 37.5 60.0002 37.5ZM60.0002 45C58.6215 45 57.5001 43.8788 57.5001 42.5C57.5001 41.1212 58.6213 39.9999 60.0002 39.9999C61.3789 39.9999 62.5002 41.1211 62.5002 42.5C62.5002 43.8788 61.3789 45 60.0002 45Z" fill="#C82FC6"/>
<path d="M63.6262 50H56.3738C54.2376 50 52.5 51.6913 52.5 53.7687V57.0638C52.5 57.51 52.7375 57.9225 53.1237 58.1463C55.2187 59.3587 57.5962 60 60 60C62.4038 60 64.7813 59.3587 66.8763 58.1463C67.2626 57.9238 67.5 57.51 67.5 57.0651V53.7701C67.5 51.6913 65.7626 50 63.6262 50ZM65 56.3187C61.8888 57.8687 58.1112 57.8687 54.9999 56.3187V53.7701C54.9999 53.07 55.6162 52.5 56.3736 52.5H63.6261C64.3835 52.5 64.9998 53.07 64.9998 53.7701V56.3187H65Z" fill="#C82FC6"/>
<path d="M29.9998 47.5001C22.4185 47.5001 16.2498 53.6689 16.2498 61.2502C16.2498 68.8315 22.4185 75.0001 29.9998 75.0001C37.5811 75.0001 43.7498 68.8313 43.7498 61.25C43.7498 53.6687 37.5811 47.5001 29.9998 47.5001ZM29.9998 72.5C23.796 72.5 18.7498 67.4538 18.7498 61.25C18.7498 55.0463 23.796 50 29.9998 50C36.2036 50 41.2498 55.0463 41.2498 61.25C41.2498 67.4538 36.2036 72.5 29.9998 72.5Z" fill="#C82FC6"/>
<path d="M30 52.5C27.2424 52.5 25 54.7425 25 57.5C25 60.2575 27.2425 62.4999 30 62.4999C32.7574 62.4999 34.9999 60.2574 34.9999 57.5C34.9999 54.7425 32.7575 52.5 30 52.5ZM30 60C28.6212 60 27.4999 58.8788 27.4999 57.5C27.4999 56.1212 28.6211 54.9999 30 54.9999C31.3787 54.9999 32.5 56.1211 32.5 57.5C32.5 58.8788 31.3787 60 30 60Z" fill="#C82FC6"/>
<path d="M33.6262 64.9999H26.3738C24.2376 64.9999 22.5 66.6912 22.5 68.7686V72.0637C22.5 72.5099 22.7375 72.9224 23.1237 73.1462C25.2187 74.3586 27.5962 75 30 75C32.4038 75 34.7813 74.3586 36.8763 73.1462C37.2626 72.9237 37.5 72.51 37.5 72.065V68.77C37.5 66.6912 35.7625 64.9999 33.6262 64.9999ZM35 71.3186C31.8886 72.8686 28.1112 72.8686 24.9999 71.3186V68.77C24.9999 68.0699 25.6162 67.4999 26.3736 67.4999H33.6261C34.3835 67.4999 34.9998 68.0699 34.9998 68.77V71.3186H35Z" fill="#C82FC6"/>
<path d="M13.75 16.25C6.16875 16.25 0 22.4187 0 30C0 37.5813 6.16875 43.7501 13.75 43.7501C21.3313 43.7501 27.5001 37.5813 27.5001 30C27.5 22.4187 21.3312 16.25 13.75 16.25ZM13.75 41.25C7.54629 41.25 2.50005 36.2038 2.50005 30C2.50005 23.7963 7.54629 18.75 13.75 18.75C19.9538 18.75 25 23.7963 25 30C25 36.2038 19.9538 41.25 13.75 41.25Z" fill="#C82FC6"/>
<path d="M13.7502 21.25C10.9926 21.25 8.75024 23.4925 8.75024 26.25C8.75024 29.0074 10.9928 31.2499 13.7502 31.2499C16.5078 31.2499 18.7501 29.0074 18.7501 26.25C18.7501 23.4925 16.5076 21.25 13.7502 21.25ZM13.7502 28.75C12.3715 28.75 11.2501 27.6288 11.2501 26.25C11.2501 24.8711 12.3713 23.7499 13.7502 23.7499C15.1289 23.7499 16.2502 24.8711 16.2502 26.25C16.2502 27.6288 15.1289 28.75 13.7502 28.75Z" fill="#C82FC6"/>
<path d="M17.3762 33.75H10.1238C7.9876 33.75 6.25 35.4413 6.25 37.5187V40.8138C6.25 41.26 6.48745 41.6725 6.87373 41.8963C8.96875 43.1087 11.3462 43.75 13.75 43.75C16.1538 43.75 18.5313 43.1087 20.6263 41.8963C21.0126 41.6738 21.25 41.26 21.25 40.8151V37.5201C21.25 35.4413 19.5124 33.75 17.3762 33.75ZM18.75 40.0688C15.6388 41.6187 11.8612 41.6187 8.7499 40.0688V37.5201C8.7499 36.82 9.36616 36.25 10.1236 36.25H17.3761C18.1336 36.25 18.7498 36.82 18.7498 37.5201V40.0688H18.75Z" fill="#C82FC6"/>
<path d="M43.7503 0C36.169 0 30.0002 6.16875 30.0002 13.75C30.0002 21.3313 36.169 27.5001 43.7503 27.5001C51.3316 27.5001 57.5003 21.3313 57.5003 13.75C57.5002 6.16875 51.3314 0 43.7503 0ZM43.7503 25C37.5465 25 32.5003 19.9538 32.5003 13.75C32.5003 7.54629 37.5465 2.50005 43.7503 2.50005C49.954 2.50005 55.0003 7.54629 55.0003 13.75C55.0003 19.9538 49.954 25 43.7503 25Z" fill="#C82FC6"/>
<path d="M43.75 4.99988C40.9924 4.99988 38.75 7.24241 38.75 9.99983C38.75 12.7572 40.9925 14.9998 43.75 14.9998C46.5074 14.9998 48.7499 12.7574 48.7499 9.99997C48.7499 7.24255 46.5074 4.99988 43.75 4.99988ZM43.75 12.4999C42.3712 12.4999 41.2499 11.3787 41.2499 9.99983C41.2499 8.62112 42.3711 7.49978 43.75 7.49978C45.1288 7.49978 46.25 8.62097 46.25 9.99983C46.2499 11.3787 45.1287 12.4999 43.75 12.4999Z" fill="#C82FC6"/>
<path d="M47.3765 17.5H40.124C37.9878 17.5 36.2502 19.1913 36.2502 21.2687V24.5638C36.2502 25.01 36.4877 25.4225 36.874 25.6463C38.969 26.8587 41.3464 27.5 43.7502 27.5C46.154 27.5 48.5315 26.8587 50.6265 25.6463C51.0128 25.4238 51.2502 25.01 51.2502 24.5651V21.2701C51.2502 19.1912 49.5126 17.5 47.3765 17.5ZM48.7502 23.8187C45.639 25.3687 41.8615 25.3687 38.7501 23.8187V21.2701C38.7501 20.57 39.3664 20 40.1239 20H47.3763C48.1338 20 48.75 20.57 48.75 21.2701V23.8187H48.7502Z" fill="#C82FC6"/>
<path d="M32.2013 12.9362C31.7527 12.4137 30.9638 12.3511 30.4388 12.7999L21.7763 20.2125C21.2513 20.6612 21.1901 21.45 21.6388 21.975C21.8863 22.2637 22.2363 22.4125 22.5887 22.4125C22.8763 22.4125 23.165 22.3138 23.4013 22.1112L32.0638 14.6987C32.5889 14.25 32.6502 13.4612 32.2013 12.9362Z" fill="#C82FC6"/>
<path d="M59.75 33.0013L52.25 23.0013C51.8362 22.4475 51.0525 22.3387 50.4999 22.7512C49.9474 23.165 49.8362 23.9487 50.2499 24.4999L57.7499 34.5C57.9961 34.8275 58.3711 34.9999 58.7511 34.9999C59.0111 34.9999 59.2749 34.9186 59.4999 34.7499C60.0525 34.3362 60.1638 33.5525 59.75 33.0013Z" fill="#C82FC6"/>
<path d="M49.4913 50.3837C49.0774 49.8312 48.2937 49.72 47.7412 50.1337L40.7587 55.3699C40.2062 55.7837 40.095 56.5674 40.5087 57.1186C40.7549 57.4462 41.1299 57.6186 41.5099 57.6186C41.7711 57.6186 42.0336 57.5361 42.2587 57.3685L49.2412 52.1323C49.7937 51.7188 49.9051 50.935 49.4913 50.3837Z" fill="#C82FC6"/>
<path d="M17.4998 60H8.74971C8.05977 60 7.49976 60.5587 7.49976 61.25C7.49976 61.9412 8.05977 62.4999 8.74971 62.4999H17.4997C18.1896 62.4999 18.7496 61.9412 18.7496 61.25C18.7496 60.5587 18.1897 60 17.4998 60Z" fill="#C82FC6"/>
<path d="M13.7501 0C10.9925 0 8.75 2.24253 8.75 4.99995C8.75 7.75752 10.9925 9.9999 13.75 9.9999C16.5075 9.9999 18.7499 7.75737 18.7499 4.99995C18.75 2.24253 16.5075 0 13.7501 0ZM13.7501 7.5C12.3714 7.5 11.25 6.37881 11.25 4.99995C11.25 3.62124 12.3712 2.4999 13.7501 2.4999C15.1288 2.4999 16.2501 3.62109 16.2501 4.99995C16.25 6.37881 15.1288 7.5 13.7501 7.5Z" fill="#C82FC6"/>
</g>
<defs>
<clipPath id="clip0">
<rect width="75" height="75" fill="white"/>
</clipPath>
</defs>
</svg>
