<svg width="75" height="75" viewBox="0 0 75 75" fill="none" xmlns="http://www.w3.org/2000/svg">
<path d="M66.8935 36.9938H14.8644V34.7233C14.8644 34.4902 14.7718 34.2666 14.607 34.1018C14.4422 33.937 14.2186 33.8444 13.9855 33.8444C13.7524 33.8444 13.5288 33.937 13.364 34.1018C13.1992 34.2666 13.1066 34.4902 13.1066 34.7233V36.9938H8.10693C7.87383 36.9938 7.65028 37.0864 7.48545 37.2512C7.32063 37.416 7.22803 37.6396 7.22803 37.8727C7.22803 38.1058 7.32063 38.3293 7.48545 38.4942C7.65028 38.659 7.87383 38.7516 8.10693 38.7516H13.1066V41.0221C13.1066 41.2552 13.1992 41.4787 13.364 41.6436C13.5288 41.8084 13.7524 41.901 13.9855 41.901C14.2186 41.901 14.4422 41.8084 14.607 41.6436C14.7718 41.4787 14.8644 41.2552 14.8644 41.0221V38.7516H66.8935C67.1266 38.7516 67.3501 38.659 67.5149 38.4942C67.6798 38.3293 67.7724 38.1058 67.7724 37.8727C67.7724 37.6396 67.6798 37.416 67.5149 37.2512C67.3501 37.0864 67.1266 36.9938 66.8935 36.9938Z" fill="#C82FC6"/>
<path d="M32.7777 29.6319C32.9657 29.7401 33.1788 29.797 33.3957 29.797C33.6126 29.797 33.8256 29.7401 34.0136 29.6319L37.6171 27.5519C37.819 27.4353 37.9663 27.2433 38.0267 27.0182C38.087 26.793 38.0554 26.5531 37.9389 26.3512C37.8223 26.1493 37.6304 26.002 37.4052 25.9417C37.18 25.8813 36.9401 25.9129 36.7382 26.0295L33.9174 27.6581V15.2472L44.6651 21.4523L43.4677 22.1437C43.367 22.201 43.2785 22.2776 43.2075 22.3692C43.1365 22.4608 43.0843 22.5656 43.0539 22.6774C43.0236 22.7893 43.0156 22.9061 43.0306 23.021C43.0455 23.1359 43.083 23.2468 43.141 23.3472C43.1989 23.4476 43.2762 23.5355 43.3683 23.6059C43.4603 23.6763 43.5654 23.7278 43.6775 23.7574C43.7896 23.7871 43.9064 23.7942 44.0212 23.7785C44.136 23.7628 44.2467 23.7246 44.3466 23.6659L46.3271 22.5226C46.515 22.4141 46.671 22.2581 46.7795 22.0703C46.8879 21.8824 46.945 21.6693 46.945 21.4523C46.945 21.2354 46.8879 21.0223 46.7795 20.8344C46.671 20.6465 46.515 20.4905 46.3271 20.382L34.0139 13.2727C33.826 13.1643 33.6129 13.1072 33.396 13.1072C33.1791 13.1072 32.966 13.1643 32.7781 13.2727C32.5903 13.3812 32.4343 13.5372 32.3258 13.7251C32.2173 13.9129 32.1602 14.126 32.1602 14.3429V28.5616C32.1605 28.7784 32.2177 28.9914 32.326 29.1792C32.4344 29.3671 32.5902 29.5232 32.7777 29.6319Z" fill="#C82FC6"/>
<path d="M40.8828 23.636L39.6578 24.3432C39.5578 24.4009 39.4702 24.4777 39.3999 24.5693C39.3296 24.6609 39.2781 24.7654 39.2482 24.8769C39.2183 24.9884 39.2107 25.1047 39.2258 25.2191C39.2408 25.3336 39.2783 25.4439 39.336 25.5439C39.3937 25.6438 39.4706 25.7314 39.5621 25.8017C39.6537 25.872 39.7582 25.9235 39.8697 25.9534C39.9812 25.9833 40.0975 25.9909 40.2119 25.9758C40.3264 25.9608 40.4367 25.9233 40.5367 25.8656L41.7617 25.1582C41.9619 25.0409 42.1076 24.8491 42.1669 24.6247C42.2262 24.4003 42.1944 24.1616 42.0784 23.9606C41.9623 23.7596 41.7715 23.6126 41.5475 23.5518C41.3235 23.491 41.0846 23.5213 40.8828 23.636Z" fill="#C82FC6"/>
<path d="M69.8194 0.647339H5.18057C4.00128 0.648657 2.87066 1.1177 2.03676 1.95157C1.20286 2.78545 0.733779 3.91605 0.732422 5.09534V46.2158C0.733505 47.3943 1.2018 48.5243 2.03465 49.3581C2.8675 50.1919 3.99695 50.6614 5.17544 50.6638H5.4564V55.0247C5.4564 55.8985 5.62851 56.7638 5.96291 57.5711C6.2973 58.3784 6.78744 59.1119 7.40532 59.7298C8.02321 60.3477 8.75675 60.8378 9.56405 61.1722C10.3714 61.5066 11.2366 61.6787 12.1104 61.6787C12.9843 61.6787 13.8495 61.5066 14.6568 61.1722C15.4642 60.8378 16.1977 60.3477 16.8156 59.7298C17.4335 59.1119 17.9236 58.3784 18.258 57.5711C18.5924 56.7638 18.7645 55.8985 18.7645 55.0247V50.6638H30.392V55.0247C30.392 56.7894 31.093 58.4819 32.3409 59.7298C33.5888 60.9777 35.2813 61.6787 37.046 61.6787C38.8108 61.6787 40.5033 60.9777 41.7512 59.7298C42.999 58.4819 43.7001 56.7894 43.7001 55.0247V50.6638H54.4197V54.3028C54.4183 56.0602 55.1122 57.7467 56.35 58.9942C57.5877 60.2417 59.2688 60.9488 61.0261 60.9611C62.7834 60.9735 64.4743 60.2901 65.7294 59.0601C66.9846 57.8301 67.7022 56.1535 67.7254 54.3963C68.7879 54.3255 69.7854 53.86 70.5222 53.0912C71.2589 52.3225 71.6815 51.306 71.707 50.2415C72.4718 49.8826 73.1187 49.3135 73.5721 48.6007C74.0256 47.8878 74.2668 47.0607 74.2676 46.2158V5.09534C74.2662 3.91605 73.7971 2.78545 72.9632 1.95157C72.1293 1.1177 70.9987 0.648657 69.8194 0.647339ZM17.0068 55.025C17.0068 56.3235 16.491 57.5689 15.5728 58.4871C14.6545 59.4054 13.4092 59.9212 12.1106 59.9212C10.812 59.9212 9.56665 59.4054 8.64843 58.4871C7.73021 57.5689 7.21436 56.3235 7.21436 55.025V52.5879H8.0918C9.03082 52.5869 9.93109 52.2134 10.5951 51.5495C11.2591 50.8855 11.6326 49.9852 11.6336 49.0462C11.6337 48.956 11.6696 48.8696 11.7334 48.8058C11.7971 48.742 11.8836 48.7062 11.9738 48.7061H14.6348C14.7507 49.3139 15.0343 49.8772 15.4534 50.3324C15.8726 50.7875 16.4106 51.1165 17.0068 51.282V55.025ZM11.9738 46.9483C11.4176 46.9489 10.8843 47.1701 10.491 47.5634C10.0977 47.9567 9.87645 48.49 9.87583 49.0462C9.87529 49.5192 9.68715 49.9726 9.35269 50.3071C9.01823 50.6415 8.56477 50.8296 8.0918 50.8301H7.21421V49.5387C7.21564 48.2406 7.73196 46.996 8.64987 46.0781C9.56778 45.1602 10.8123 44.6439 12.1104 44.6425C12.4405 44.6425 13.0333 44.7651 13.7383 44.9794C14.295 45.1492 14.8738 45.2358 15.4559 45.2365C15.9888 45.237 16.5086 45.4016 16.9447 45.7079C17.3808 46.0141 17.7121 46.4472 17.8935 46.9483H11.9738ZM17.0068 49.3691C16.7667 49.2033 16.5779 48.9736 16.4618 48.7059H17.0068V49.3691ZM41.9424 55.025C41.9424 56.3235 41.4266 57.5689 40.5084 58.4871C39.5901 59.4054 38.3448 59.9212 37.0462 59.9212C35.7476 59.9212 34.5023 59.4054 33.584 58.4871C32.6658 57.5689 32.15 56.3235 32.15 55.025V49.423L35.1589 49.0017C35.9003 48.898 36.6543 49.0647 37.2829 49.4713C37.9204 49.8818 38.6446 50.1386 39.3983 50.2214C40.152 50.3041 40.9146 50.2106 41.626 49.9483L41.9423 49.8311L41.9424 55.025ZM32.15 47.6482V44.6423H37.0459C38.0826 44.6436 39.0922 44.9735 39.9298 45.5844C40.7673 46.1954 41.3897 47.056 41.7076 48.0428L41.0142 48.3003C40.5593 48.468 40.0718 48.5278 39.59 48.4749C39.1081 48.422 38.6451 48.2579 38.2375 47.9955C37.2542 47.3595 36.0747 47.0987 34.9148 47.2609L32.15 47.6482ZM65.9701 54.3031C65.9701 55.6017 65.4543 56.847 64.536 57.7653C63.6178 58.6835 62.3724 59.1993 61.0739 59.1993C59.7753 59.1993 58.5299 58.6835 57.6117 57.7653C56.6935 56.847 56.1776 55.6017 56.1776 54.3031V52.4388H56.5564C58.9807 52.4319 61.3322 51.6096 63.2325 50.1043C63.8316 51.1982 64.7672 52.2922 65.9701 52.486V54.3031ZM65.9701 50.6455C65.192 50.243 64.5337 48.8195 64.3688 48.3586C64.3191 48.2184 64.2347 48.0932 64.1235 47.9945C64.0122 47.8958 63.8777 47.827 63.7326 47.7944C63.5876 47.7619 63.4366 47.7667 63.2938 47.8084C63.1511 47.8501 63.0213 47.9273 62.9165 48.0328C61.2304 49.7223 58.9433 50.6746 56.5564 50.681H56.1776V50.2604C56.1776 48.9619 56.6935 47.7165 57.6117 46.7983C58.5299 45.88 59.7753 45.3642 61.0739 45.3642C62.3724 45.3642 63.6178 45.88 64.536 46.7983C65.4543 47.7165 65.9701 48.9619 65.9701 50.2604V50.6455ZM67.7279 52.6322V50.2604C67.7288 49.3595 67.5455 48.4679 67.1895 47.6403H67.4474C68.0871 47.6404 68.7024 47.8853 69.1672 48.3248C69.632 48.7643 69.9109 49.365 69.9468 50.0036C69.9827 50.6423 69.7728 51.2705 69.3602 51.7592C68.9476 52.248 68.3635 52.5604 67.7279 52.6322ZM72.5098 46.2158C72.5097 46.651 72.4037 47.0797 72.2011 47.4648C71.9984 47.8499 71.7051 48.18 71.3465 48.4266C71.0128 47.6704 70.4667 47.0274 69.7745 46.5758C69.0823 46.1241 68.2738 45.8831 67.4473 45.8821H66.0791C65.265 44.9497 64.2068 44.2631 63.0236 43.8995C61.8405 43.5359 60.5793 43.5097 59.3821 43.824C58.1848 44.1382 57.0991 44.7804 56.247 45.6783C55.395 46.5761 54.8105 47.694 54.5593 48.906H43.6692C43.51 47.2591 42.7437 45.7303 41.5194 44.6173C40.2951 43.5042 38.7005 42.8866 37.0459 42.8845H31.2709C31.0378 42.8845 30.8142 42.9771 30.6494 43.1419C30.4846 43.3067 30.392 43.5303 30.392 43.7634V48.9063H18.7646V48.7061H18.9258C19.1589 48.7061 19.3824 48.6135 19.5473 48.4487C19.7121 48.2838 19.8047 48.0603 19.8047 47.8272C19.8034 46.6742 19.3448 45.5688 18.5295 44.7535C17.7142 43.9382 16.6088 43.4796 15.4559 43.4782C15.0468 43.4776 14.6402 43.4165 14.249 43.297C13.3477 43.0234 12.6281 42.8846 12.1103 42.8846C10.4557 42.8868 8.86104 43.5045 7.63679 44.6176C6.41254 45.7307 5.64628 47.2595 5.48716 48.9065H5.18057C4.46723 48.9057 3.78334 48.622 3.27897 48.1175C2.77459 47.6131 2.49093 46.9292 2.49023 46.2158V5.09534C2.49105 4.38208 2.77476 3.69827 3.27912 3.19394C3.78349 2.6896 4.46731 2.40593 5.18057 2.40515H69.8194C70.5327 2.40593 71.2165 2.6896 71.7209 3.19394C72.2252 3.69827 72.5089 4.38208 72.5098 5.09534V46.2158Z" fill="#C82FC6"/>
<path d="M40.5921 62.5195H33.4995C32.1014 62.5211 30.761 63.0772 29.7724 64.0658C28.7838 65.0545 28.2277 66.3949 28.2261 67.793V73.4628C28.2261 73.6959 28.3187 73.9194 28.4835 74.0843C28.6483 74.2491 28.8719 74.3417 29.105 74.3417H44.9867C45.2198 74.3417 45.4433 74.2491 45.6081 74.0843C45.773 73.9194 45.8656 73.6959 45.8656 73.4628V67.793C45.864 66.3948 45.3079 65.0544 44.3193 64.0658C43.3307 63.0772 41.9903 62.5211 40.5921 62.5195ZM44.1078 72.5839H29.9839V67.793C29.985 66.8609 30.3557 65.9673 31.0148 65.3082C31.6739 64.6492 32.5674 64.2784 33.4995 64.2773H40.5921C41.5242 64.2784 42.4178 64.6491 43.0769 65.3082C43.736 65.9673 44.1067 66.8609 44.1078 67.793V72.5839Z" fill="#C82FC6"/>
<path d="M41.518 67.257H39.9336C39.7005 67.257 39.4769 67.3496 39.3121 67.5144C39.1473 67.6792 39.0547 67.9028 39.0547 68.1359C39.0547 68.369 39.1473 68.5925 39.3121 68.7573C39.4769 68.9222 39.7005 69.0148 39.9336 69.0148H41.518C41.7511 69.0148 41.9746 68.9222 42.1394 68.7573C42.3043 68.5925 42.3969 68.369 42.3969 68.1359C42.3969 67.9028 42.3043 67.6792 42.1394 67.5144C41.9746 67.3496 41.7511 67.257 41.518 67.257Z" fill="#C82FC6"/>
<path d="M15.6566 62.5195H8.56397C7.16585 62.5211 5.82545 63.0772 4.83684 64.0658C3.84822 65.0545 3.29212 66.3949 3.29053 67.793V73.4628C3.29053 73.6959 3.38313 73.9194 3.54795 74.0843C3.71278 74.2491 3.93633 74.3417 4.16943 74.3417H20.0511C20.2842 74.3417 20.5078 74.2491 20.6726 74.0843C20.8374 73.9194 20.93 73.6959 20.93 73.4628V67.793C20.9284 66.3949 20.3723 65.0545 19.3837 64.0658C18.3951 63.0772 17.0547 62.5211 15.6566 62.5195ZM19.1722 72.5839H5.04834V67.793C5.04939 66.8609 5.42012 65.9673 6.0792 65.3082C6.73828 64.6491 7.63189 64.2784 8.56397 64.2773H15.6566C16.5887 64.2784 17.4822 64.6492 18.1413 65.3082C18.8004 65.9673 19.1711 66.8609 19.1722 67.793V72.5839Z" fill="#C82FC6"/>
<path d="M16.5816 67.257H14.9976C14.7645 67.257 14.5409 67.3496 14.3761 67.5144C14.2113 67.6792 14.1187 67.9028 14.1187 68.1359C14.1187 68.369 14.2113 68.5925 14.3761 68.7573C14.5409 68.9222 14.7645 69.0148 14.9976 69.0148H16.5816C16.8147 69.0148 17.0383 68.9222 17.2031 68.7573C17.3679 68.5925 17.4605 68.369 17.4605 68.1359C17.4605 67.9028 17.3679 67.6792 17.2031 67.5144C17.0383 67.3496 16.8147 67.257 16.5816 67.257Z" fill="#C82FC6"/>
<path d="M64.62 61.7981H57.5273C56.1292 61.7997 54.7888 62.3558 53.8002 63.3444C52.8116 64.333 52.2555 65.6734 52.2539 67.0715V73.4738C52.2539 73.7069 52.3465 73.9304 52.5113 74.0953C52.6762 74.2601 52.8997 74.3527 53.1328 74.3527H69.0145C69.2476 74.3527 69.4712 74.2601 69.636 74.0953C69.8008 73.9304 69.8934 73.7069 69.8934 73.4738V67.0715C69.8918 65.6734 69.3357 64.333 68.3471 63.3444C67.3585 62.3558 66.0181 61.7997 64.62 61.7981ZM68.1356 72.5949H54.0117V67.0715C54.0128 66.1395 54.3835 65.2458 55.0426 64.5868C55.7017 63.9277 56.5953 63.557 57.5273 63.5559H64.62C65.5521 63.557 66.4457 63.9277 67.1047 64.5868C67.7638 65.2458 68.1346 66.1395 68.1356 67.0715V72.5949Z" fill="#C82FC6"/>
<path d="M65.5459 66.5352H63.9614C63.7283 66.5352 63.5048 66.6278 63.3399 66.7926C63.1751 66.9574 63.0825 67.181 63.0825 67.4141C63.0825 67.6472 63.1751 67.8707 63.3399 68.0355C63.5048 68.2004 63.7283 68.293 63.9614 68.293H65.5459C65.779 68.293 66.0026 68.2004 66.1674 68.0355C66.3323 67.8707 66.4249 67.6472 66.4249 67.4141C66.4249 67.181 66.3323 66.9574 66.1674 66.7926C66.0026 66.6278 65.779 66.5352 65.5459 66.5352Z" fill="#C82FC6"/>
</svg>
