<svg width="443" height="326" viewBox="0 0 443 326" fill="none" xmlns="http://www.w3.org/2000/svg">
<g opacity="0.8">
<path opacity="0.1" d="M257.387 48.8836C228.988 47.8996 201.937 38.726 176.11 28.6977C150.283 18.6695 124.695 7.55534 96.9777 2.23935C79.148 -1.17919 58.7582 -1.65355 44.394 7.89641C30.5669 17.0935 26.1017 32.9866 23.7024 47.7075C21.8951 58.7942 20.8327 70.4455 25.7802 80.8383C29.2183 88.04 35.3223 94.0969 39.5446 100.997C54.2263 125.013 43.8569 154.623 27.9325 178.067C20.4838 189.067 11.8081 199.558 6.04905 211.268C0.290055 222.978 -2.37579 236.39 2.66187 248.331C7.66032 260.17 19.5625 269.062 32.4566 275.315C58.6484 288.017 89.5134 291.655 119.61 293.713C186.236 298.253 253.216 296.293 320.014 294.332C344.736 293.599 369.564 292.858 393.886 289.036C407.387 286.915 421.328 283.547 431.129 275.413C443.576 265.087 446.662 247.602 438.319 234.641C424.331 212.926 385.649 207.532 375.872 184.226C370.489 171.398 376.017 157.109 383.838 145.21C400.617 119.685 428.742 97.2959 430.224 68.1207C431.243 48.0838 417.721 28.0156 396.818 18.5362C374.903 8.59815 344.521 9.84874 328.353 26.2985C311.715 43.2383 282.461 49.7539 257.387 48.8836Z" fill="#C82FC6"/>
<path d="M260.382 296.335L183.935 295.355L184.159 293.394L187.855 261.052H254.991L259.931 293.394L260.307 295.845L260.382 296.335Z" fill="#D0D2D5"/>
<path opacity="0.1" d="M260.307 295.845H222.158L183.935 295.355L184.159 293.395H259.931L260.307 295.845Z" fill="black"/>
<path d="M272.633 293.885H171.194V296.335H272.633V293.885Z" fill="#D0D2D5"/>
<path d="M369.415 66.7909C369.419 65.9532 369.258 65.123 368.942 64.3476C368.625 63.5721 368.158 62.8667 367.569 62.2714C366.98 61.6762 366.279 61.203 365.507 60.8786C364.734 60.5543 363.906 60.3852 363.068 60.3811H79.7793C78.9413 60.3847 78.1123 60.5534 77.3395 60.8775C76.5668 61.2016 75.8655 61.6748 75.2757 62.2701C74.6859 62.8653 74.2192 63.571 73.9022 64.3467C73.5852 65.1223 73.4242 65.9529 73.4283 66.7909V238.502H369.415V66.7909Z" fill="#444053"/>
<path d="M73.4282 236.797V256.908C73.4282 258.592 74.0973 260.208 75.2884 261.399C76.4794 262.59 78.0948 263.259 79.7792 263.259H363.068C364.752 263.258 366.366 262.588 367.556 261.397C368.746 260.206 369.415 258.592 369.415 256.908V236.797H73.4282Z" fill="#D0D2D5"/>
<path opacity="0.1" d="M358.634 71.1621H85.6794V225.526H358.634V71.1621Z" fill="#6C63FF"/>
<path d="M222.892 255.626C223.894 255.627 224.883 255.4 225.785 254.962C226.687 254.525 227.478 253.889 228.098 253.101C228.286 252.861 228.458 252.608 228.611 252.345L224.981 251.749L228.902 251.78C229.28 250.961 229.486 250.073 229.507 249.17C229.529 248.268 229.365 247.371 229.027 246.535L223.762 249.279L228.619 245.711C228.163 244.929 227.551 244.248 226.82 243.712C226.09 243.175 225.257 242.795 224.373 242.594C223.49 242.393 222.574 242.375 221.684 242.543C220.793 242.71 219.947 243.059 219.196 243.567C218.446 244.075 217.808 244.732 217.323 245.497C216.837 246.262 216.513 247.119 216.372 248.014C216.232 248.909 216.276 249.823 216.503 250.701C216.73 251.578 217.135 252.399 217.693 253.113C218.313 253.898 219.103 254.531 220.004 254.967C220.904 255.402 221.892 255.627 222.892 255.626Z" fill="#C82FC6"/>
<path opacity="0.1" d="M229.509 263.259L260.006 293.885L255.329 263.259H229.509Z" fill="black"/>
<path d="M271.837 99.0122H94.7156C94.1526 99.0122 93.6963 99.4686 93.6963 100.031V205.41C93.6963 205.973 94.1526 206.43 94.7156 206.43H271.837C272.4 206.43 272.856 205.973 272.856 205.41V100.031C272.856 99.4686 272.4 99.0122 271.837 99.0122Z" fill="white"/>
<path d="M358.712 71.1777H85.8557V80.1945H358.712V71.1777Z" fill="white"/>
<path d="M94.5667 72.7458H87.3375C87.1686 72.7458 87.0317 72.8828 87.0317 73.0516V77.9285C87.0317 78.0974 87.1686 78.2343 87.3375 78.2343H94.5667C94.7356 78.2343 94.8725 78.0974 94.8725 77.9285V73.0516C94.8725 72.8828 94.7356 72.7458 94.5667 72.7458Z" fill="#C82FC6"/>
<path opacity="0.3" d="M262.436 72.7458H180.564C180.438 72.7458 180.336 72.8477 180.336 72.9732V78.0069C180.336 78.1325 180.438 78.2343 180.564 78.2343H262.436C262.562 78.2343 262.664 78.1325 262.664 78.0069V72.9732C262.664 72.8477 262.562 72.7458 262.436 72.7458Z" fill="#C82FC6"/>
<path d="M260.221 76.0546H260.022L259.947 75.9919C260.199 75.6934 260.337 75.316 260.339 74.9256C260.337 74.6049 260.239 74.2921 260.06 74.0267C259.88 73.7613 259.625 73.5551 259.328 73.4342C259.031 73.3132 258.705 73.283 258.391 73.3473C258.077 73.4115 257.789 73.5674 257.563 73.7952C257.337 74.0231 257.184 74.3127 257.123 74.6274C257.062 74.9422 257.095 75.268 257.219 75.5639C257.343 75.8597 257.551 76.1122 257.818 76.2895C258.086 76.4669 258.399 76.5611 258.72 76.5604C259.11 76.558 259.487 76.4193 259.786 76.1683L259.861 76.2311V76.4349L261.115 77.6894L261.507 77.2974L260.221 76.0546ZM258.716 76.0546C258.492 76.0554 258.272 75.9895 258.085 75.8653C257.898 75.7411 257.752 75.5642 257.666 75.3571C257.58 75.1499 257.557 74.9217 257.601 74.7016C257.644 74.4815 257.752 74.2792 257.911 74.1205C258.07 73.9619 258.272 73.8539 258.492 73.8103C258.712 73.7667 258.94 73.7895 259.147 73.8757C259.355 73.9619 259.532 74.1077 259.656 74.2947C259.78 74.4816 259.846 74.7012 259.845 74.9256C259.846 75.0741 259.818 75.2214 259.761 75.3589C259.705 75.4963 259.622 75.6212 259.517 75.7263C259.412 75.8313 259.287 75.9145 259.149 75.9708C259.012 76.0272 258.865 76.0557 258.716 76.0546Z" fill="#444053"/>
<path d="M354.792 78.2343C356.308 78.2343 357.536 77.0057 357.536 75.4901C357.536 73.9745 356.308 72.7458 354.792 72.7458C353.276 72.7458 352.048 73.9745 352.048 75.4901C352.048 77.0057 353.276 78.2343 354.792 78.2343Z" fill="#C82FC6"/>
<path d="M310.323 89.9954H286.746C286.22 89.9954 285.794 90.4219 285.794 90.948V106.292C285.794 106.818 286.22 107.245 286.746 107.245H310.323C310.85 107.245 311.276 106.818 311.276 106.292V90.948C311.276 90.4219 310.85 89.9954 310.323 89.9954Z" fill="white"/>
<path d="M350.633 89.9954H318.18C318.048 89.9954 317.941 90.1024 317.941 90.2345V92.5005C317.941 92.6325 318.048 92.7396 318.18 92.7396H350.633C350.765 92.7396 350.872 92.6325 350.872 92.5005V90.2345C350.872 90.1024 350.765 89.9954 350.633 89.9954Z" fill="white"/>
<path d="M350.633 95.8759H318.18C318.048 95.8759 317.941 95.9829 317.941 96.115V98.3809C317.941 98.513 318.048 98.6201 318.18 98.6201H350.633C350.765 98.6201 350.872 98.513 350.872 98.3809V96.115C350.872 95.9829 350.765 95.8759 350.633 95.8759Z" fill="white"/>
<path d="M350.633 101.756H318.18C318.048 101.756 317.941 101.863 317.941 101.995V104.261C317.941 104.394 318.048 104.501 318.18 104.501H350.633C350.765 104.501 350.872 104.394 350.872 104.261V101.995C350.872 101.863 350.765 101.756 350.633 101.756Z" fill="white"/>
<path d="M310.323 117.046H286.746C286.22 117.046 285.794 117.472 285.794 117.998V133.343C285.794 133.869 286.22 134.295 286.746 134.295H310.323C310.85 134.295 311.276 133.869 311.276 133.343V117.998C311.276 117.472 310.85 117.046 310.323 117.046Z" fill="white"/>
<path d="M350.633 117.046H318.18C318.048 117.046 317.941 117.153 317.941 117.285V119.551C317.941 119.683 318.048 119.79 318.18 119.79H350.633C350.765 119.79 350.872 119.683 350.872 119.551V117.285C350.872 117.153 350.765 117.046 350.633 117.046Z" fill="white"/>
<path d="M350.633 122.926H318.18C318.048 122.926 317.941 123.033 317.941 123.165V125.431C317.941 125.563 318.048 125.671 318.18 125.671H350.633C350.765 125.671 350.872 125.563 350.872 125.431V123.165C350.872 123.033 350.765 122.926 350.633 122.926Z" fill="white"/>
<path d="M350.613 128.807H318.199C318.057 128.807 317.941 128.923 317.941 129.066V131.292C317.941 131.435 318.057 131.551 318.199 131.551H350.613C350.756 131.551 350.872 131.435 350.872 131.292V129.066C350.872 128.923 350.756 128.807 350.613 128.807Z" fill="white"/>
<path d="M310.323 144.096H286.746C286.22 144.096 285.794 144.523 285.794 145.049V160.393C285.794 160.919 286.22 161.346 286.746 161.346H310.323C310.85 161.346 311.276 160.919 311.276 160.393V145.049C311.276 144.523 310.85 144.096 310.323 144.096Z" fill="white"/>
<path d="M350.613 144.096H318.199C318.057 144.096 317.941 144.212 317.941 144.355V146.582C317.941 146.724 318.057 146.84 318.199 146.84H350.613C350.756 146.84 350.872 146.724 350.872 146.582V144.355C350.872 144.212 350.756 144.096 350.613 144.096Z" fill="white"/>
<path d="M350.613 149.977H318.199C318.057 149.977 317.941 150.092 317.941 150.235V152.462C317.941 152.605 318.057 152.721 318.199 152.721H350.613C350.756 152.721 350.872 152.605 350.872 152.462V150.235C350.872 150.092 350.756 149.977 350.613 149.977Z" fill="white"/>
<path d="M350.613 155.857H318.199C318.057 155.857 317.941 155.973 317.941 156.116V158.343C317.941 158.486 318.057 158.601 318.199 158.601H350.613C350.756 158.601 350.872 158.486 350.872 158.343V156.116C350.872 155.973 350.756 155.857 350.613 155.857Z" fill="white"/>
<path d="M310.323 171.146H286.746C286.22 171.146 285.794 171.573 285.794 172.099V187.443C285.794 187.969 286.22 188.396 286.746 188.396H310.323C310.85 188.396 311.276 187.969 311.276 187.443V172.099C311.276 171.573 310.85 171.146 310.323 171.146Z" fill="white"/>
<path d="M350.613 171.146H318.199C318.057 171.146 317.941 171.262 317.941 171.405V173.632C317.941 173.775 318.057 173.891 318.199 173.891H350.613C350.756 173.891 350.872 173.775 350.872 173.632V171.405C350.872 171.262 350.756 171.146 350.613 171.146Z" fill="white"/>
<path d="M350.613 177.027H318.199C318.057 177.027 317.941 177.143 317.941 177.286V179.512C317.941 179.655 318.057 179.771 318.199 179.771H350.613C350.756 179.771 350.872 179.655 350.872 179.512V177.286C350.872 177.143 350.756 177.027 350.613 177.027Z" fill="white"/>
<path d="M350.613 182.907H318.199C318.057 182.907 317.941 183.023 317.941 183.166V185.393C317.941 185.536 318.057 185.652 318.199 185.652H350.613C350.756 185.652 350.872 185.536 350.872 185.393V183.166C350.872 183.023 350.756 182.907 350.613 182.907Z" fill="white"/>
<path d="M310.323 198.197H286.746C286.22 198.197 285.794 198.623 285.794 199.149V214.494C285.794 215.02 286.22 215.446 286.746 215.446H310.323C310.85 215.446 311.276 215.02 311.276 214.494V199.149C311.276 198.623 310.85 198.197 310.323 198.197Z" fill="white"/>
<path d="M350.613 198.197H318.199C318.057 198.197 317.941 198.313 317.941 198.456V200.682C317.941 200.825 318.057 200.941 318.199 200.941H350.613C350.756 200.941 350.872 200.825 350.872 200.682V198.456C350.872 198.313 350.756 198.197 350.613 198.197Z" fill="white"/>
<path d="M350.613 204.077H318.199C318.057 204.077 317.941 204.193 317.941 204.336V206.563C317.941 206.706 318.057 206.822 318.199 206.822H350.613C350.756 206.822 350.872 206.706 350.872 206.563V204.336C350.872 204.193 350.756 204.077 350.613 204.077Z" fill="white"/>
<path d="M350.613 209.958H318.199C318.057 209.958 317.941 210.074 317.941 210.217V212.443C317.941 212.586 318.057 212.702 318.199 212.702H350.613C350.756 212.702 350.872 212.586 350.872 212.443V210.217C350.872 210.074 350.756 209.958 350.613 209.958Z" fill="white"/>
<path opacity="0.1" d="M159.853 127.478H119.54V129.567H159.853V127.478Z" fill="#6C63FF"/>
<path opacity="0.1" d="M127.004 116.43H123.123V127.478H127.004V116.43Z" fill="#6C63FF"/>
<path opacity="0.1" d="M132.677 116.43H128.795V127.478H132.677V116.43Z" fill="#6C63FF"/>
<path opacity="0.1" d="M138.349 116.43H134.468V127.478H138.349V116.43Z" fill="#6C63FF"/>
<path opacity="0.1" d="M144.022 116.43H140.141V127.478H144.022V116.43Z" fill="#6C63FF"/>
<path opacity="0.1" d="M149.695 116.43H145.814V127.478H149.695V116.43Z" fill="#6C63FF"/>
<path opacity="0.1" d="M155.371 116.43H151.49V127.478H155.371V116.43Z" fill="#6C63FF"/>
<path opacity="0.1" d="M127.004 118.52H123.123V119.715H127.004V118.52Z" fill="#6C63FF"/>
<path opacity="0.1" d="M132.677 118.52H128.795V119.715H132.677V118.52Z" fill="#6C63FF"/>
<path opacity="0.1" d="M138.349 118.52H134.468V119.715H138.349V118.52Z" fill="#6C63FF"/>
<path opacity="0.1" d="M144.022 118.52H140.141V119.715H144.022V118.52Z" fill="#6C63FF"/>
<path opacity="0.1" d="M149.695 118.52H145.814V119.715H149.695V118.52Z" fill="#6C63FF"/>
<path opacity="0.1" d="M155.371 118.52H151.49V119.715H155.371V118.52Z" fill="#6C63FF"/>
<path opacity="0.1" d="M127.004 123.895H123.123V125.09H127.004V123.895Z" fill="#6C63FF"/>
<path opacity="0.1" d="M132.677 123.895H128.795V125.09H132.677V123.895Z" fill="#6C63FF"/>
<path opacity="0.1" d="M138.349 123.895H134.468V125.09H138.349V123.895Z" fill="#6C63FF"/>
<path opacity="0.1" d="M144.022 123.895H140.141V125.09H144.022V123.895Z" fill="#6C63FF"/>
<path opacity="0.1" d="M149.695 123.895H145.814V125.09H149.695V123.895Z" fill="#6C63FF"/>
<path opacity="0.1" d="M155.371 123.895H151.49V125.09H155.371V123.895Z" fill="#6C63FF"/>
<path opacity="0.1" d="M248.237 132.853H207.924V134.942H248.237V132.853Z" fill="#6C63FF"/>
<path opacity="0.1" d="M215.388 121.805H211.507V132.853H215.388V121.805Z" fill="#6C63FF"/>
<path opacity="0.1" d="M221.061 121.805H217.18V132.853H221.061V121.805Z" fill="#6C63FF"/>
<path opacity="0.1" d="M226.734 121.805H222.853V132.853H226.734V121.805Z" fill="#6C63FF"/>
<path opacity="0.1" d="M232.41 121.805H228.529V132.853H232.41V121.805Z" fill="#6C63FF"/>
<path opacity="0.1" d="M238.083 121.805H234.202V132.853H238.083V121.805Z" fill="#6C63FF"/>
<path opacity="0.1" d="M243.756 121.805H239.875V132.853H243.756V121.805Z" fill="#6C63FF"/>
<path opacity="0.1" d="M215.388 123.895H211.507V125.09H215.388V123.895Z" fill="#6C63FF"/>
<path opacity="0.1" d="M221.061 123.895H217.18V125.09H221.061V123.895Z" fill="#6C63FF"/>
<path opacity="0.1" d="M226.734 123.895H222.853V125.09H226.734V123.895Z" fill="#6C63FF"/>
<path opacity="0.1" d="M232.41 123.895H228.529V125.09H232.41V123.895Z" fill="#6C63FF"/>
<path opacity="0.1" d="M238.083 123.895H234.202V125.09H238.083V123.895Z" fill="#6C63FF"/>
<path opacity="0.1" d="M243.756 123.895H239.875V125.09H243.756V123.895Z" fill="#6C63FF"/>
<path opacity="0.1" d="M215.388 129.269H211.507V130.465H215.388V129.269Z" fill="#6C63FF"/>
<path opacity="0.1" d="M221.061 129.269H217.18V130.465H221.061V129.269Z" fill="#6C63FF"/>
<path opacity="0.1" d="M226.734 129.269H222.853V130.465H226.734V129.269Z" fill="#6C63FF"/>
<path opacity="0.1" d="M232.41 129.269H228.529V130.465H232.41V129.269Z" fill="#6C63FF"/>
<path opacity="0.1" d="M238.083 129.269H234.202V130.465H238.083V129.269Z" fill="#6C63FF"/>
<path opacity="0.1" d="M243.756 129.269H239.875V130.465H243.756V129.269Z" fill="#6C63FF"/>
<path opacity="0.1" d="M248.237 148.079H207.924V150.169H248.237V148.079Z" fill="#6C63FF"/>
<path opacity="0.1" d="M215.388 137.032H211.507V148.079H215.388V137.032Z" fill="#6C63FF"/>
<path opacity="0.1" d="M221.061 137.032H217.18V148.079H221.061V137.032Z" fill="#6C63FF"/>
<path opacity="0.1" d="M226.734 137.032H222.853V148.079H226.734V137.032Z" fill="#6C63FF"/>
<path opacity="0.1" d="M232.41 137.032H228.529V148.079H232.41V137.032Z" fill="#6C63FF"/>
<path opacity="0.1" d="M238.083 137.032H234.202V148.079H238.083V137.032Z" fill="#6C63FF"/>
<path opacity="0.1" d="M243.756 137.032H239.875V148.079H243.756V137.032Z" fill="#6C63FF"/>
<path opacity="0.1" d="M215.388 139.121H211.507V140.317H215.388V139.121Z" fill="#6C63FF"/>
<path opacity="0.1" d="M221.061 139.121H217.18V140.317H221.061V139.121Z" fill="#6C63FF"/>
<path opacity="0.1" d="M226.734 139.121H222.853V140.317H226.734V139.121Z" fill="#6C63FF"/>
<path opacity="0.1" d="M232.41 139.121H228.529V140.317H232.41V139.121Z" fill="#6C63FF"/>
<path opacity="0.1" d="M238.083 139.121H234.202V140.317H238.083V139.121Z" fill="#6C63FF"/>
<path opacity="0.1" d="M243.756 139.121H239.875V140.317H243.756V139.121Z" fill="#6C63FF"/>
<path opacity="0.1" d="M215.388 144.496H211.507V145.692H215.388V144.496Z" fill="#6C63FF"/>
<path opacity="0.1" d="M221.061 144.496H217.18V145.692H221.061V144.496Z" fill="#6C63FF"/>
<path opacity="0.1" d="M226.734 144.496H222.853V145.692H226.734V144.496Z" fill="#6C63FF"/>
<path opacity="0.1" d="M232.41 144.496H228.529V145.692H232.41V144.496Z" fill="#6C63FF"/>
<path opacity="0.1" d="M238.083 144.496H234.202V145.692H238.083V144.496Z" fill="#6C63FF"/>
<path opacity="0.1" d="M243.756 144.496H239.875V145.692H243.756V144.496Z" fill="#6C63FF"/>
<path opacity="0.1" d="M144.269 151.106C143.968 150.72 143.693 150.316 143.446 149.894L149.252 148.942L142.979 148.989C142.377 147.679 142.049 146.26 142.014 144.819C141.979 143.378 142.238 141.945 142.775 140.607L151.184 144.966L143.418 139.258C144.141 137.991 145.117 136.886 146.287 136.014C147.457 135.142 148.794 134.521 150.215 134.19C151.637 133.86 153.111 133.826 154.545 134.092C155.98 134.359 157.344 134.918 158.552 135.737C159.76 136.555 160.786 137.615 161.565 138.848C162.344 140.082 162.859 141.464 163.079 142.906C163.298 144.349 163.217 145.821 162.841 147.231C162.465 148.64 161.801 149.957 160.891 151.098C161.364 151.694 161.769 152.341 162.099 153.027L154.564 156.947L162.597 154.254C163.159 155.919 163.297 157.698 162.999 159.431C162.701 161.163 161.977 162.794 160.891 164.176C162.122 165.737 162.889 167.612 163.103 169.588C163.318 171.564 162.972 173.561 162.104 175.349C161.237 177.138 159.884 178.646 158.2 179.701C156.515 180.756 154.568 181.316 152.58 181.316C150.592 181.316 148.645 180.756 146.961 179.701C145.276 178.646 143.923 177.138 143.056 175.349C142.189 173.561 141.842 171.564 142.057 169.588C142.272 167.612 143.038 165.737 144.269 164.176C142.803 162.311 142.006 160.007 142.006 157.635C142.006 155.263 142.803 152.959 144.269 151.094V151.106Z" fill="#6C63FF"/>
<path opacity="0.1" d="M163.157 157.645C163.157 160.015 162.359 162.316 160.891 164.176C162.122 165.737 162.889 167.612 163.103 169.588C163.318 171.564 162.972 173.561 162.104 175.349C161.237 177.138 159.884 178.646 158.2 179.701C156.515 180.756 154.568 181.316 152.58 181.316C150.592 181.316 148.645 180.756 146.961 179.701C145.276 178.646 143.923 177.138 143.056 175.349C142.189 173.561 141.842 171.564 142.057 169.588C142.272 167.612 143.038 165.737 144.269 164.176C142.846 162.384 163.157 156.457 163.157 157.645Z" fill="#6C63FF"/>
<path opacity="0.2" d="M154.274 184.123C154.292 184.151 154.309 184.179 154.325 184.209H150.734C150.753 184.182 150.765 184.15 150.785 184.123C150.475 183.585 150.316 182.975 150.322 182.355C150.32 181.93 150.393 181.508 150.538 181.108C150.738 181.139 150.984 181.175 151.271 181.206C152.104 181.289 152.943 181.289 153.776 181.206C154.016 181.183 154.263 181.151 154.517 181.112C154.515 181.118 154.515 181.125 154.517 181.132C154.659 181.525 154.731 181.94 154.728 182.359C154.736 182.977 154.579 183.586 154.274 184.123Z" fill="#3F3D56"/>
<path opacity="0.1" d="M141.368 184.209H121.374C121.331 184.095 121.292 183.974 121.257 183.856C120.552 181.591 120.634 179.154 121.488 176.941C119.536 175.591 118.094 173.625 117.394 171.358C116.694 169.091 116.776 166.654 117.626 164.439C117.225 164.162 116.843 163.857 116.486 163.525L121.747 160.903L115.764 162.8C114.802 161.727 114.07 160.468 113.611 159.102C113.153 157.735 112.978 156.29 113.098 154.853L122.433 156.539L113.33 153.375C113.644 151.949 114.25 150.603 115.109 149.422C115.969 148.241 117.063 147.251 118.324 146.513C119.585 145.776 120.985 145.308 122.436 145.138C123.887 144.968 125.357 145.1 126.754 145.526C128.151 145.952 129.445 146.663 130.554 147.613C131.664 148.564 132.564 149.734 133.199 151.049C133.834 152.364 134.19 153.797 134.245 155.257C134.299 156.716 134.051 158.171 133.516 159.53C134.147 159.97 134.729 160.476 135.252 161.04L129.207 167.003L136.087 162.055C137.118 163.482 137.777 165.143 138.005 166.889C138.232 168.634 138.02 170.409 137.389 172.052C139.288 173.367 140.704 175.267 141.423 177.461C142.141 179.656 142.122 182.026 141.368 184.209Z" fill="#6C63FF"/>
<path opacity="0.1" d="M141.368 184.209H121.374C121.331 184.095 121.292 183.974 121.257 183.856C120.552 181.591 120.634 179.154 121.488 176.941C119.606 175.639 137.26 163.976 137.609 165.113C138.313 167.38 138.231 169.818 137.377 172.032C139.282 173.347 140.704 175.249 141.425 177.448C142.145 179.647 142.126 182.022 141.368 184.209Z" fill="#6C63FF"/>
<path opacity="0.1" d="M231.83 169.884C230.616 171.922 228.75 173.491 226.534 174.338C226.629 175.092 226.643 175.854 226.577 176.611L218.105 176.102L226.381 177.897C226.137 179.025 225.711 180.106 225.119 181.096C224.397 182.309 223.437 183.363 222.296 184.193H210.762V184.495H199.001C199.025 184.393 199.048 184.295 199.076 184.193C199.505 182.571 200.313 181.075 201.435 179.827C202.556 178.579 203.958 177.615 205.525 177.015C205.224 174.662 205.722 172.276 206.94 170.239C208.158 168.203 210.025 166.635 212.24 165.787C212.178 165.302 212.149 164.814 212.154 164.325L217.623 166.485L212.213 163.306C212.372 161.873 212.823 160.488 213.537 159.235C214.251 157.983 215.213 156.889 216.364 156.022L221.347 164.09L217.611 155.206C219.646 154.08 221.996 153.656 224.296 153.999C226.597 154.341 228.72 155.432 230.339 157.103C231.957 158.773 232.98 160.931 233.25 163.241C233.519 165.551 233.02 167.886 231.83 169.884Z" fill="#6C63FF"/>
<path opacity="0.1" d="M225.119 181.112C224.397 182.325 223.437 183.378 222.296 184.209H210.762V184.511H199.001C199.025 184.409 199.048 184.311 199.076 184.209C199.505 182.587 200.313 181.09 201.435 179.842C202.556 178.594 203.958 177.631 205.525 177.031C205.427 176.247 207.704 176.364 210.743 176.874C216.698 177.874 225.522 180.438 225.119 181.112Z" fill="#6C63FF"/>
<path d="M175.126 152.882C175.126 152.882 176.577 160.722 173.338 163.282C170.1 165.842 176.083 181.186 185.954 179.395C195.825 177.603 199.848 164.733 199.848 164.733C199.848 164.733 189.961 162.686 193.626 152.286L175.126 152.882Z" fill="#EE8E9E"/>
<path opacity="0.1" d="M175.126 152.882C175.126 152.882 176.577 160.722 173.338 163.282C170.1 165.842 176.083 181.186 185.954 179.395C195.825 177.603 199.848 164.733 199.848 164.733C199.848 164.733 189.961 162.686 193.626 152.286L175.126 152.882Z" fill="black"/>
<path d="M183.865 158.637C192.904 158.637 200.232 151.309 200.232 142.269C200.232 133.23 192.904 125.902 183.865 125.902C174.825 125.902 167.497 133.23 167.497 142.269C167.497 151.309 174.825 158.637 183.865 158.637Z" fill="#EE8E9E"/>
<path d="M210.762 173.385V184.511H156.716V173.891C156.716 172.544 157.113 171.227 157.857 170.105C158.601 168.982 159.659 168.104 160.899 167.579L162.448 166.92C166.368 165.25 171.131 163.176 172.688 162.314C172.858 162.229 173.018 162.125 173.166 162.004C174.017 161.153 173.848 162.259 173.848 162.259C173.848 162.259 173.824 162.471 173.809 162.835C173.715 165.34 174.075 175.184 185.613 174.365C196.868 173.581 197.374 165.968 197.26 163.729C197.254 163.522 197.237 163.315 197.209 163.11C197.988 163.295 198.75 163.544 199.487 163.855C201.839 164.725 205.313 166.121 206.242 166.779C206.532 166.983 206.885 167.195 207.269 167.41C207.705 167.653 208.112 167.944 208.484 168.277C209.201 168.921 209.775 169.708 210.167 170.588C210.559 171.468 210.762 172.421 210.762 173.385Z" fill="#C82FC6"/>
<path opacity="0.1" d="M199.487 163.855C198.534 168.269 195.543 176.537 184.762 176.753C173.276 176.98 172.609 165.556 172.684 162.314C172.857 162.231 173.019 162.127 173.166 162.004C174.021 161.153 173.848 162.259 173.848 162.259C173.848 162.259 172.401 175.302 185.609 174.365C198.817 173.428 197.194 163.114 197.194 163.114C197.194 163.051 198.178 163.392 199.487 163.855Z" fill="black"/>
<path d="M164.49 143.089C165.034 142.953 165.605 142.983 166.132 143.175C166.658 143.367 167.114 143.712 167.442 144.167C168.038 145.002 168.128 146.009 168.203 146.974C168.912 147.123 169.312 146.319 169.379 145.711C169.642 143.237 169.661 140.717 170.492 138.325C171.323 135.934 173.139 133.621 175.926 132.707C176.878 132.377 177.896 132.281 178.894 132.425C179.486 132.523 180.042 132.731 180.63 132.817C182.669 133.154 184.884 132.19 186.793 132.86C187.993 133.284 188.753 134.26 189.314 135.236C189.558 135.762 189.889 136.244 190.294 136.659C191.106 137.388 192.376 137.577 193.54 137.804C194.704 138.031 195.975 138.427 196.472 139.325C196.919 140.136 196.59 141.073 196.441 141.952C196.211 143.343 196.444 144.771 197.104 146.017C197.319 146.409 197.758 146.883 198.28 146.754C198.513 146.675 198.711 146.515 198.836 146.303C200.173 144.429 200.138 141.991 201.816 140.301C202.377 139.737 203.102 139.298 203.647 138.733C204.059 138.315 204.362 137.801 204.527 137.237C204.693 136.673 204.716 136.078 204.595 135.503C204.294 134.209 203.259 133.15 202.424 132.014C201.339 130.573 200.549 128.933 200.099 127.188C200.02 126.985 200.02 126.759 200.099 126.556C200.257 126.351 200.461 126.184 200.695 126.07C201.149 125.766 201.477 125.306 201.617 124.777C201.757 124.248 201.699 123.686 201.455 123.197C200.981 122.228 199.938 121.491 198.762 121.052C197.569 120.66 196.338 120.397 195.089 120.268C194.265 120.386 193.301 119.919 193.046 119.261C192.932 118.967 192.932 118.649 192.819 118.355C192.664 118.06 192.441 117.806 192.169 117.615C191.896 117.424 191.581 117.301 191.251 117.257C190.549 117.144 189.831 117.195 189.153 117.406C188.369 117.626 187.479 117.955 186.801 117.571C186.444 117.371 186.248 117.006 185.864 116.842C185.08 116.513 184.272 117.179 183.712 117.728C183.172 118.304 182.508 118.75 181.771 119.033C181.382 119.182 180.965 119.244 180.55 119.216C180.135 119.188 179.73 119.071 179.364 118.873C178.827 118.531 178.556 117.983 178.129 117.547C177.322 116.828 176.289 116.412 175.208 116.371C174.097 116.312 172.984 116.434 171.911 116.732C169.865 117.231 167.91 118.051 166.121 119.163C165.221 119.657 164.457 120.367 163.898 121.229C163.567 121.889 163.397 122.619 163.4 123.357C163.314 125.674 164.083 128.113 166.086 129.736C164.863 130.245 164.451 131.496 164.165 132.606C163.706 134.378 163.247 136.177 163.42 137.98C163.506 138.913 163.761 139.846 163.624 140.776C163.514 141.213 163.453 141.661 163.443 142.112C163.501 142.361 163.631 142.586 163.818 142.76C164.004 142.934 164.238 143.048 164.49 143.089Z" fill="#454B69"/>
<g opacity="0.1">
<path opacity="0.1" d="M204.341 134.774C204.165 135.158 203.926 135.51 203.635 135.816C203.09 136.389 202.365 136.832 201.804 137.385C200.126 139.063 200.161 141.517 198.825 143.391C198.7 143.603 198.502 143.761 198.268 143.838C197.758 143.971 197.319 143.508 197.092 143.1C196.833 142.604 196.637 142.077 196.508 141.532C196.48 141.67 196.453 141.807 196.429 141.924C196.199 143.315 196.432 144.744 197.092 145.99C197.307 146.382 197.747 146.856 198.268 146.727C198.501 146.648 198.699 146.488 198.825 146.276C200.161 144.402 200.126 141.964 201.804 140.274C202.365 139.709 203.09 139.27 203.635 138.706C204.047 138.287 204.35 137.774 204.515 137.21C204.681 136.646 204.704 136.05 204.584 135.475C204.523 135.235 204.442 135 204.341 134.774Z" fill="black"/>
<path opacity="0.1" d="M200.687 123.169C200.453 123.282 200.248 123.449 200.091 123.656C200.013 123.857 200.013 124.081 200.091 124.283C200.246 124.892 200.444 125.489 200.683 126.07C201.137 125.766 201.465 125.306 201.605 124.777C201.745 124.248 201.688 123.686 201.444 123.197C201.367 123.035 201.275 122.882 201.169 122.738C201.03 122.904 200.867 123.05 200.687 123.169Z" fill="black"/>
<path opacity="0.1" d="M166.11 126.804C164.721 125.659 163.806 124.04 163.542 122.26C163.472 122.611 163.433 122.968 163.425 123.326C163.335 125.038 163.786 126.735 164.714 128.176C164.995 127.562 165.492 127.074 166.11 126.804Z" fill="black"/>
<path opacity="0.1" d="M196.441 139.062C196.59 138.18 196.919 137.243 196.472 136.436C195.975 135.534 194.704 135.142 193.54 134.915C192.376 134.687 191.105 134.495 190.294 133.77C189.889 133.354 189.558 132.873 189.314 132.347C188.761 131.371 187.993 130.387 186.793 129.971C184.884 129.301 182.669 130.261 180.63 129.928C180.042 129.83 179.486 129.626 178.894 129.536C177.896 129.39 176.878 129.487 175.926 129.818C173.138 130.736 171.323 133.049 170.492 135.436C169.661 137.824 169.642 140.344 169.379 142.822C169.312 143.426 168.912 144.233 168.203 144.084C168.128 143.116 168.038 142.124 167.442 141.273C167.114 140.82 166.657 140.475 166.131 140.284C165.605 140.093 165.033 140.063 164.49 140.199C164.161 140.126 163.868 139.938 163.663 139.67C163.706 140.029 163.706 140.393 163.663 140.752C163.553 141.19 163.493 141.638 163.483 142.089C163.533 142.34 163.658 142.57 163.84 142.749C164.022 142.929 164.254 143.05 164.506 143.096C165.049 142.961 165.621 142.991 166.147 143.183C166.673 143.375 167.13 143.72 167.458 144.175C168.054 145.01 168.144 146.017 168.218 146.982C168.928 147.13 169.328 146.327 169.395 145.719C169.657 143.245 169.677 140.725 170.508 138.333C171.339 135.942 173.154 133.629 175.942 132.715C176.894 132.385 177.912 132.289 178.909 132.433C179.501 132.531 180.058 132.739 180.646 132.825C182.685 133.162 184.9 132.198 186.809 132.868C188.008 133.292 188.769 134.268 189.33 135.244C189.573 135.77 189.905 136.252 190.31 136.667C191.121 137.396 192.391 137.584 193.556 137.812C194.72 138.039 195.908 138.408 196.429 139.239C196.41 139.18 196.429 139.121 196.441 139.062Z" fill="black"/>
<path opacity="0.1" d="M163.647 137.843C163.712 137.113 163.668 136.377 163.518 135.66C163.403 136.417 163.378 137.186 163.443 137.949C163.443 138.145 163.487 138.341 163.514 138.533C163.557 138.302 163.616 138.075 163.647 137.843Z" fill="black"/>
</g>
<path d="M144.461 200.329V193.253C144.461 193.2 144.482 193.149 144.52 193.112C144.557 193.074 144.608 193.053 144.661 193.053H145.465C145.518 193.053 145.568 193.074 145.606 193.112C145.643 193.149 145.664 193.2 145.664 193.253V196.197L148.926 193.175C149.003 193.111 149.096 193.07 149.195 193.056C149.294 193.043 149.395 193.057 149.486 193.098C149.577 193.139 149.655 193.204 149.71 193.287C149.766 193.37 149.797 193.467 149.8 193.567V199.977C149.797 200.076 149.766 200.173 149.71 200.256C149.655 200.339 149.577 200.405 149.486 200.446C149.395 200.486 149.294 200.501 149.195 200.487C149.096 200.474 149.003 200.433 148.926 200.369L145.664 197.366V200.294C145.664 200.347 145.643 200.398 145.606 200.436C145.568 200.473 145.518 200.494 145.465 200.494H144.661C144.613 200.495 144.567 200.479 144.531 200.449C144.494 200.418 144.469 200.376 144.461 200.329Z" fill="#444053"/>
<path d="M223.272 193.253V200.33C223.272 200.356 223.267 200.382 223.257 200.407C223.246 200.431 223.231 200.454 223.212 200.472C223.193 200.491 223.171 200.506 223.146 200.515C223.121 200.525 223.095 200.53 223.068 200.529H222.284C222.231 200.529 222.18 200.508 222.143 200.471C222.105 200.433 222.084 200.383 222.084 200.33V197.385L218.822 200.404C218.745 200.468 218.652 200.508 218.553 200.522C218.454 200.535 218.353 200.521 218.262 200.48C218.171 200.439 218.093 200.374 218.037 200.291C217.98 200.208 217.949 200.112 217.944 200.012V193.579C217.949 193.479 217.98 193.382 218.037 193.3C218.093 193.217 218.171 193.151 218.262 193.111C218.353 193.07 218.454 193.056 218.553 193.069C218.652 193.082 218.745 193.123 218.822 193.187L222.084 196.19V193.265C222.084 193.212 222.105 193.161 222.143 193.124C222.18 193.086 222.231 193.065 222.284 193.065H223.068C223.12 193.064 223.17 193.083 223.208 193.118C223.246 193.153 223.269 193.202 223.272 193.253Z" fill="#444053"/>
<path d="M182.536 200.635H180.94C180.732 200.635 180.533 200.553 180.386 200.406C180.239 200.259 180.156 200.059 180.156 199.851V193.994C180.156 193.786 180.239 193.587 180.386 193.44C180.533 193.293 180.732 193.21 180.94 193.21H182.536C182.744 193.21 182.943 193.293 183.09 193.44C183.237 193.587 183.32 193.786 183.32 193.994V199.851C183.32 200.059 183.237 200.259 183.09 200.406C182.943 200.553 182.744 200.635 182.536 200.635ZM187.593 199.851V193.994C187.593 193.786 187.51 193.587 187.363 193.44C187.216 193.293 187.017 193.21 186.809 193.21H185.198C184.99 193.21 184.79 193.293 184.643 193.44C184.496 193.587 184.414 193.786 184.414 193.994V199.851C184.414 200.059 184.496 200.259 184.643 200.406C184.79 200.553 184.99 200.635 185.198 200.635H186.793C186.897 200.637 187.001 200.619 187.098 200.58C187.195 200.542 187.283 200.484 187.358 200.411C187.432 200.338 187.491 200.251 187.532 200.155C187.572 200.059 187.593 199.955 187.593 199.851Z" fill="#444053"/>
<path opacity="0.6" d="M230.909 183.715H136.82V184.762H230.909V183.715Z" fill="#444053"/>
<path d="M165.874 186.718C167.245 186.718 168.356 185.607 168.356 184.236C168.356 182.866 167.245 181.755 165.874 181.755C164.504 181.755 163.393 182.866 163.393 184.236C163.393 185.607 164.504 186.718 165.874 186.718Z" fill="#444053"/>
<path d="M165.874 183.715H136.82V184.762H165.874V183.715Z" fill="#444053"/>
<path d="M375.209 301.858C388.086 301.858 398.524 299.85 398.524 297.374C398.524 294.897 388.086 292.889 375.209 292.889C362.333 292.889 351.895 294.897 351.895 297.374C351.895 299.85 362.333 301.858 375.209 301.858Z" fill="#B42AB3"/>
<path d="M374.821 299.02C376.32 299.02 377.534 297.43 377.534 295.468C377.534 293.507 376.32 291.917 374.821 291.917C373.323 291.917 372.108 293.507 372.108 295.468C372.108 297.43 373.323 299.02 374.821 299.02Z" fill="#3F3D56"/>
<path d="M374.821 294.676C376.32 294.676 377.534 293.086 377.534 291.125C377.534 289.163 376.32 287.573 374.821 287.573C373.323 287.573 372.108 289.163 372.108 291.125C372.108 293.086 373.323 294.676 374.821 294.676Z" fill="#3F3D56"/>
<path d="M374.821 290.337C376.32 290.337 377.534 288.746 377.534 286.785C377.534 284.823 376.32 283.233 374.821 283.233C373.323 283.233 372.108 284.823 372.108 286.785C372.108 288.746 373.323 290.337 374.821 290.337Z" fill="#3F3D56"/>
<path d="M374.821 285.993C376.32 285.993 377.534 284.403 377.534 282.441C377.534 280.479 376.32 278.889 374.821 278.889C373.323 278.889 372.108 280.479 372.108 282.441C372.108 284.403 373.323 285.993 374.821 285.993Z" fill="#3F3D56"/>
<path d="M374.821 281.649C376.32 281.649 377.534 280.059 377.534 278.097C377.534 276.136 376.32 274.545 374.821 274.545C373.323 274.545 372.108 276.136 372.108 278.097C372.108 280.059 373.323 281.649 374.821 281.649Z" fill="#3F3D56"/>
<path d="M374.821 277.305C376.32 277.305 377.534 275.715 377.534 273.754C377.534 271.792 376.32 270.202 374.821 270.202C373.323 270.202 372.108 271.792 372.108 273.754C372.108 275.715 373.323 277.305 374.821 277.305Z" fill="#3F3D56"/>
<path d="M374.821 272.962C376.32 272.962 377.534 271.372 377.534 269.41C377.534 267.448 376.32 265.858 374.821 265.858C373.323 265.858 372.108 267.448 372.108 269.41C372.108 271.372 373.323 272.962 374.821 272.962Z" fill="#3F3D56"/>
<path d="M384.979 239.694C385.349 239.22 385.687 238.723 385.99 238.204L378.855 237.028L386.57 237.087C387.309 235.476 387.712 233.732 387.755 231.961C387.797 230.189 387.478 228.428 386.817 226.784L376.476 232.155L386.018 225.141C385.124 223.596 383.921 222.251 382.484 221.19C381.048 220.13 379.408 219.376 377.668 218.977C375.927 218.578 374.124 218.542 372.368 218.87C370.613 219.199 368.945 219.885 367.466 220.887C365.988 221.889 364.732 223.184 363.777 224.692C362.821 226.201 362.186 227.889 361.912 229.654C361.637 231.418 361.729 233.22 362.182 234.948C362.634 236.675 363.438 238.29 364.542 239.694C363.967 240.424 363.47 241.212 363.06 242.046L372.32 246.856L362.449 243.543C361.755 245.592 361.584 247.781 361.949 249.912C362.315 252.044 363.206 254.051 364.542 255.751C363.035 257.669 362.097 259.972 361.837 262.398C361.576 264.823 362.004 267.273 363.07 269.467C364.136 271.661 365.798 273.51 367.865 274.804C369.933 276.099 372.323 276.785 374.762 276.785C377.202 276.785 379.592 276.099 381.659 274.804C383.727 273.51 385.389 271.661 386.455 269.467C387.521 267.273 387.948 264.823 387.688 262.398C387.428 259.972 386.49 257.669 384.983 255.751C386.784 253.46 387.762 250.629 387.762 247.715C387.762 244.8 386.784 241.97 384.983 239.678L384.979 239.694Z" fill="#C82FC6"/>
<path opacity="0.1" d="M361.762 247.73C361.757 250.646 362.736 253.478 364.542 255.767C363.035 257.685 362.097 259.988 361.837 262.413C361.576 264.839 362.004 267.288 363.07 269.482C364.136 271.676 365.798 273.526 367.865 274.82C369.933 276.114 372.323 276.801 374.762 276.801C377.202 276.801 379.592 276.114 381.659 274.82C383.727 273.526 385.389 271.676 386.455 269.482C387.521 267.288 387.948 264.839 387.688 262.413C387.428 259.988 386.49 257.685 384.983 255.767C386.723 253.56 361.762 246.272 361.762 247.73Z" fill="black"/>
<path opacity="0.1" d="M113.69 326C135.125 326 152.502 322.314 152.502 317.767C152.502 313.22 135.125 309.535 113.69 309.535C92.2552 309.535 74.8787 313.22 74.8787 317.767C74.8787 322.314 92.2552 326 113.69 326Z" fill="#6C63FF"/>
<path d="M126.686 316.811C125.902 316.525 125.063 316.572 124.244 316.481C122.542 316.285 120.958 315.516 119.751 314.302C118.974 313.517 118.364 312.583 117.955 311.557C118.214 311.652 118.473 311.75 118.74 311.855C117.955 310.025 118.779 307.97 119.5 306.12C120.723 302.984 121.88 299.83 122.97 296.66C125.714 288.627 128.066 280.273 128.015 271.727C128.015 268.638 127.447 265.717 127.337 262.632C127.255 260.342 127.607 258.057 127.592 255.763C127.592 255.442 127.592 255.124 127.568 254.803C128.269 254.189 128.82 253.422 129.179 252.561C129.537 251.701 129.693 250.77 129.634 249.84C129.594 249.355 129.525 248.873 129.426 248.397C129.288 247.57 129.104 246.75 128.878 245.943C128.619 245.092 128.266 244.277 127.964 243.445C127.38 241.834 126.984 240.156 126.486 238.518C126.671 238.536 126.851 238.585 127.019 238.663C126.894 238.515 126.807 238.339 126.768 238.149C126.476 237.106 126.318 236.029 126.298 234.946L126.631 234.797C126.781 233.739 126.727 232.663 126.47 231.626C126.659 229.944 126.953 228.25 127.133 226.576C127.2 225.949 127.172 225.161 126.596 225.008C126.478 224.11 126.431 223.201 126.384 222.295C126.22 219.135 126.056 215.977 125.894 212.82C125.729 209.648 125.565 206.481 125.502 203.305C125.459 201.29 125.435 199.204 124.957 197.276C125.04 196.351 124.945 195.42 124.679 194.531C123.95 192.222 121.684 190.391 119.386 190.521C118.701 189.54 117.854 188.684 116.881 187.988C117.34 186.961 117.889 185.903 118.34 185.072C122.017 183.876 124.706 180.25 124.706 175.937C124.712 174.359 124.342 172.801 123.628 171.393C123.696 171.22 123.753 171.044 123.801 170.864C123.998 170.018 123.936 169.131 123.624 168.32C123.514 168.008 123.383 167.705 123.232 167.41C123.13 167.214 123.021 167.018 122.907 166.83L122.707 166.528C122.585 166.344 122.46 166.168 122.315 165.995C122.036 165.621 121.738 165.263 121.421 164.921C121.031 164.498 120.6 164.115 120.135 163.776C119.505 163.308 118.784 162.975 118.018 162.8C117.575 162.713 117.125 162.672 116.673 162.679C116.403 162.679 116.129 162.679 115.858 162.702C115.309 162.733 114.764 162.773 114.219 162.769C114.039 162.769 113.855 162.769 113.674 162.741C112.715 162.613 111.766 162.416 110.836 162.149L110.366 162.051C110.205 162.02 110.048 161.992 109.887 161.973C109.457 161.915 109.024 161.889 108.59 161.894H108.155C107.72 161.915 107.287 161.96 106.857 162.028L106.426 162.094C105.337 162.265 104.275 162.58 103.27 163.031C103.14 163.09 103.007 163.157 102.878 163.227L102.799 163.271C102.693 163.325 102.588 163.384 102.486 163.447L102.427 163.482L102.094 163.694L102.066 163.714C98.9535 165.807 97.1148 169.774 96.6483 173.71C96.1269 178.129 97.0403 182.582 97.9538 186.93L98.7771 190.85C98.8123 191.027 98.8515 191.199 98.8868 191.375C97.7292 192.325 96.8388 193.56 96.3033 194.959C95.5192 196.919 95.4997 199.04 95.5624 201.165C95.5624 201.596 95.5859 202.027 95.629 202.458C95.531 203.274 95.4448 204.093 95.3899 204.916C95.1429 208.719 95.6055 212.541 95.484 216.352C95.3899 219.288 94.9469 222.232 95.1625 225.149C95.3507 227.737 96.0446 230.246 96.7306 232.743L97.7186 236.303C97.7506 236.487 97.8366 236.657 97.9656 236.793C98.1278 236.902 98.3263 236.942 98.5183 236.906C97.8757 238.366 97.3385 239.87 96.911 241.407C96.6156 242.348 96.4211 243.318 96.3308 244.3C96.2014 246.096 96.617 247.879 97.0325 249.624C97.6598 252.237 98.2844 254.861 98.9064 257.496C99.3455 259.339 99.7833 261.18 100.22 263.02C101.082 266.65 101.949 270.304 102.109 274.04C102.199 275.916 102.067 277.796 101.717 279.642C100.586 285.169 100.422 290.85 101.231 296.433C101.885 301.143 102.947 305.788 104.403 310.315C104.72 310.146 105.042 309.989 105.371 309.844L105.234 310.099C104.782 310.883 104.364 311.687 103.979 312.51C103.72 313.045 103.496 313.596 103.309 314.161C102.807 315.729 102.729 317.399 102.658 319.049C102.622 319.367 102.65 319.688 102.741 319.994C102.956 320.586 103.576 320.888 104.152 321.053C105.845 321.535 107.606 321.362 109.366 321.135C109.374 321.174 109.386 321.212 109.401 321.249C109.617 321.841 110.232 322.142 110.813 322.307C113.235 322.997 115.791 322.346 118.289 322.111C120.786 321.876 123.24 322.048 125.643 321.472C126.001 321.395 126.345 321.263 126.663 321.08C127.28 320.648 127.734 320.019 127.948 319.296C128.024 319.109 128.074 318.913 128.097 318.712C128.195 317.854 127.462 317.097 126.686 316.811ZM118.395 280.504C118.259 281.423 117.995 282.318 117.61 283.162C115.725 287.173 114.372 291.413 113.588 295.774C113.074 298.655 112.776 301.571 112.698 304.497C112.659 306.653 112.741 308.911 111.844 310.848L112.169 310.797C112.067 310.985 111.969 311.189 111.875 311.338L111.828 311.424C111.285 310.5 110.922 309.481 110.758 308.421C110.758 308.386 110.581 308.358 110.311 308.343C109.202 302.15 108.818 295.85 109.166 289.568C109.171 288.806 109.277 288.048 109.48 287.314C109.68 286.683 110.017 286.107 110.264 285.495C110.655 284.468 110.919 283.396 111.048 282.304C111.475 279.513 111.64 276.689 111.542 273.867C111.448 271.205 112.063 268.559 112.588 265.909C112.839 264.651 113.071 263.388 113.196 262.126L113.22 261.871C115.552 265.719 117.182 269.951 118.034 274.369C118.507 276.378 118.629 278.454 118.395 280.504ZM101.615 223.848L101.741 223.957C102.12 224.291 102.469 224.657 102.784 225.051C102.94 225.223 103.053 225.43 103.113 225.655C103.231 226.227 102.756 226.713 102.368 227.133C102.199 227.315 102.041 227.506 101.894 227.705C101.81 226.419 101.721 225.134 101.627 223.848H101.615Z" fill="url(#paint0_linear)"/>
<path d="M96.1897 199.275L95.7585 202.603C95.6134 203.732 95.4684 204.857 95.39 205.99C95.1273 209.762 95.6134 213.549 95.488 217.328C95.3861 220.237 94.9235 223.142 95.1469 226.047C95.3469 228.611 96.076 231.104 96.8052 233.574L97.8402 237.102C97.8756 237.287 97.9658 237.456 98.0989 237.588C98.2984 237.706 98.5352 237.744 98.7615 237.694L103.356 237.279C103.062 235.93 102.737 234.534 102.572 233.151C102.447 232.069 102.372 230.979 102.294 229.889C102.051 226.494 101.772 223.099 101.51 219.696L101.02 213.737C100.812 211.15 100.596 208.55 99.9454 206.037C99.2924 203.499 97.9993 201.171 96.1897 199.275Z" fill="#AC28AA"/>
<path d="M104.376 312.581C104.106 313.111 103.87 313.659 103.67 314.219C103.145 315.768 103.066 317.43 102.988 319.065C102.953 319.38 102.982 319.699 103.074 320.002C103.301 320.59 103.952 320.888 104.56 321.049C107.104 321.735 109.786 321.092 112.401 320.857C115.015 320.621 117.599 320.794 120.124 320.225C120.496 320.153 120.857 320.028 121.194 319.853C121.833 319.437 122.31 318.814 122.546 318.089C122.622 317.903 122.674 317.708 122.699 317.509C122.782 316.646 122.033 315.901 121.217 315.619C120.402 315.337 119.512 315.38 118.653 315.294C116.885 315.113 115.226 314.353 113.933 313.134C112.64 311.914 111.786 310.301 111.503 308.547C111.471 308.359 107.253 308.472 106.798 308.715C106.281 309.001 105.967 309.711 105.673 310.193C105.211 310.969 104.778 311.765 104.376 312.581Z" fill="#A26565"/>
<path opacity="0.1" d="M104.376 312.581C104.106 313.111 103.87 313.659 103.67 314.219C103.145 315.768 103.066 317.43 102.988 319.065C102.953 319.38 102.982 319.699 103.074 320.002C103.301 320.59 103.952 320.888 104.56 321.049C107.104 321.735 109.786 321.092 112.401 320.857C115.015 320.621 117.599 320.794 120.124 320.225C120.496 320.153 120.857 320.028 121.194 319.853C121.833 319.437 122.31 318.814 122.546 318.089C122.622 317.903 122.674 317.708 122.699 317.509C122.782 316.646 122.033 315.901 121.217 315.619C120.402 315.337 119.512 315.38 118.653 315.294C116.885 315.113 115.226 314.353 113.933 313.134C112.64 311.914 111.786 310.301 111.503 308.547C111.471 308.359 107.253 308.472 106.798 308.715C106.281 309.001 105.967 309.711 105.673 310.193C105.211 310.969 104.778 311.765 104.376 312.581Z" fill="black"/>
<path d="M111.373 313.827C111.102 314.356 110.866 314.902 110.668 315.462C110.138 317.03 110.06 318.673 109.985 320.308C109.949 320.623 109.978 320.942 110.072 321.245C110.295 321.833 110.946 322.131 111.554 322.295C114.098 322.977 116.783 322.334 119.394 322.099C122.005 321.864 124.597 322.036 127.117 321.468C127.492 321.392 127.853 321.26 128.188 321.076C128.828 320.661 129.305 320.038 129.54 319.312C129.616 319.126 129.668 318.931 129.693 318.732C129.775 317.873 129.027 317.124 128.211 316.842C127.396 316.56 126.506 316.607 125.647 316.517C123.88 316.335 122.221 315.576 120.929 314.358C119.636 313.139 118.781 311.528 118.497 309.774C118.465 309.586 114.247 309.695 113.792 309.938C113.271 310.225 112.957 310.934 112.663 311.416C112.216 312.212 111.777 313.012 111.373 313.827Z" fill="#A26565"/>
<path d="M129.615 272.182C129.67 280.653 127.208 288.933 124.318 296.88C123.174 300.032 121.96 303.156 120.676 306.253C119.916 308.088 119.057 310.127 119.873 311.938C117.52 311.044 115.129 310.519 112.655 310.93C113.596 309.009 113.506 306.775 113.549 304.658C113.629 301.756 113.938 298.866 114.474 296.013C115.305 291.672 116.728 287.465 118.704 283.511C119.104 282.678 119.38 281.79 119.524 280.877C119.845 278.862 119.594 276.792 119.175 274.796C118.272 270.389 116.557 266.188 114.118 262.408L114.094 262.659C113.948 263.92 113.736 265.172 113.459 266.411C112.906 269.034 112.259 271.66 112.357 274.299C112.46 277.096 112.286 279.897 111.84 282.661C111.696 283.746 111.413 284.808 110.997 285.82C110.727 286.428 110.374 286.997 110.162 287.628C109.95 288.354 109.839 289.106 109.833 289.862C109.519 296.241 109.833 302.717 111.134 308.97C108.951 308.798 106.767 309.429 104.815 310.409C103.288 305.933 102.173 301.327 101.482 296.648C100.632 291.115 100.804 285.473 101.992 280.003C102.362 278.178 102.5 276.314 102.404 274.455C102.235 270.751 101.325 267.128 100.42 263.529L99.0399 258.041C98.3865 255.427 97.7331 252.826 97.0797 250.236C96.6446 248.507 96.2055 246.739 96.3427 244.959C96.4384 243.982 96.6436 243.02 96.9543 242.089C97.9331 238.924 99.3971 235.93 101.294 233.213C108.849 233.637 116.493 232.931 124.032 232.351C124.398 232.279 124.777 232.343 125.099 232.531C125.355 232.792 125.509 233.138 125.53 233.503L128.364 249.577C128.823 251.811 129.092 254.08 129.168 256.359C129.168 258.633 128.815 260.899 128.901 263.169C129.019 266.227 129.599 269.12 129.615 272.182Z" fill="#454B69"/>
<path opacity="0.1" d="M114.102 262.659C113.955 263.92 113.743 265.172 113.467 266.411C111.824 263.569 110.052 260.797 108.539 257.884C108.147 257.135 107.778 256.375 107.406 255.614L106.289 253.34C106.081 252.913 105.873 252.486 105.685 252.051C105.378 251.426 105.143 250.768 104.983 250.09C105.532 249.989 106.888 251.47 107.296 251.859C108.128 252.682 108.913 253.551 109.648 254.462C110.541 255.474 111.362 256.548 112.103 257.676C113.051 259.21 113.728 260.895 114.102 262.659Z" fill="black"/>
<path d="M120.394 184.68C120.394 184.68 116.199 191.364 116.976 192.763C117.752 194.163 103.764 191.521 103.764 191.521C103.764 191.521 111.381 184.836 110.601 182.037C109.821 179.238 120.394 184.68 120.394 184.68Z" fill="#EFB7B9"/>
<path d="M116.666 186.702C121.903 186.702 126.149 182.457 126.149 177.219C126.149 171.982 121.903 167.736 116.666 167.736C111.428 167.736 107.182 171.982 107.182 177.219C107.182 182.457 111.428 186.702 116.666 186.702Z" fill="#EFB7B9"/>
<path d="M120.535 191.689C119.52 190.28 118.142 189.172 116.548 188.482C115.63 188.153 114.68 187.919 113.714 187.784L109.931 187.118C109.005 186.953 108.014 186.8 107.151 187.181C106.715 187.404 106.318 187.697 105.975 188.047C104.662 189.266 103.388 190.603 101.737 191.309C101.286 191.501 100.816 191.642 100.365 191.834C98.5185 192.618 97.1385 194.288 96.3584 196.147C95.5351 198.083 95.5116 200.188 95.5743 202.294C95.5732 203.02 95.6455 203.745 95.7899 204.458C95.9786 205.136 96.2185 205.799 96.5074 206.441C97.0286 207.816 97.4659 209.22 97.8168 210.648C98.7968 214.398 99.6123 218.188 100.263 222.017C100.318 222.565 100.479 223.098 100.737 223.585C101.103 224.073 101.545 224.498 102.047 224.843C102.445 225.17 102.811 225.534 103.141 225.929C103.305 226.091 103.427 226.29 103.497 226.51C103.619 227.074 103.105 227.56 102.713 227.972C101.87 228.833 101.26 229.895 100.941 231.057C100.745 231.296 100.644 231.599 100.659 231.908C100.741 232.123 100.772 232.353 100.749 232.582C100.672 232.79 100.55 232.979 100.392 233.135C100.212 233.371 100.083 233.642 100.015 233.932C99.9478 234.221 99.9427 234.521 100 234.813C102.939 236.09 106.084 236.825 109.284 236.985C110.068 237.024 110.852 237.024 111.636 237.118C112.193 237.189 112.742 237.302 113.298 237.369C114.106 237.445 114.918 237.466 115.729 237.432C119.951 237.345 124.295 237.24 128.172 235.566C128.537 233.578 127.749 231.551 127.255 229.591C126.471 226.455 126.275 223.244 125.687 220.08C125.295 217.92 124.706 215.791 124.373 213.616C124.04 211.44 123.981 209.186 124.561 207.069C125.091 205.195 125.251 203.282 125.8 201.412C126.349 199.542 126.733 197.515 126.114 195.664C125.33 193.375 122.95 191.56 120.535 191.689Z" fill="#C82FC6"/>
<path d="M125.192 172.189C125.655 170.507 124.746 168.755 123.664 167.387C122.487 165.917 120.99 164.592 119.151 164.223C117.658 163.921 116.109 164.286 114.588 164.164C113.243 164.058 111.95 163.572 110.613 163.38C109.4 163.25 108.174 163.296 106.975 163.517C105.836 163.687 104.723 163.998 103.662 164.443C99.6239 166.234 97.2599 170.649 96.7111 175.028C96.1622 179.407 97.1227 183.821 98.0793 188.129L98.9457 192.026C99.8474 196.084 100.749 200.157 100.988 204.305C101.227 208.452 100.78 212.71 99.0751 216.497C104.59 213.535 108.863 208.697 111.122 202.858C111.734 201.255 112.189 199.589 112.871 198.013C113.455 196.656 114.204 195.37 114.721 193.986C115.306 192.424 115.587 190.765 115.548 189.098C115.517 187.843 115.309 186.597 115.345 185.342C115.38 184.088 115.701 182.782 116.568 181.873C117.352 181.069 118.43 180.696 119.422 180.175C120.983 179.373 122.347 178.235 123.417 176.843C124.04 176.027 124.075 175.667 124.232 174.741C124.389 173.816 124.949 173.079 125.192 172.189Z" fill="#A26565"/>
<path d="M125.204 243.426C125.302 244.402 125.126 245.386 125.338 246.354C125.498 247.076 125.871 247.726 126.09 248.432C126.308 249.247 126.42 250.086 126.424 250.929C126.455 251.635 126.4 252.498 125.773 252.827C125.498 252.972 125.169 252.972 124.883 253.097C124.597 253.223 124.354 253.564 124.518 253.83C124.683 254.097 124.965 254.054 125.224 254.105C125.483 254.156 125.761 254.422 125.616 254.638C125.557 254.709 125.477 254.759 125.389 254.783C125.127 254.864 124.878 254.983 124.652 255.136C124.541 255.217 124.454 255.326 124.401 255.453C124.347 255.579 124.33 255.718 124.35 255.853C124.365 255.918 124.396 255.979 124.438 256.03C124.481 256.082 124.534 256.123 124.595 256.151C124.656 256.179 124.722 256.193 124.789 256.191C124.856 256.19 124.921 256.174 124.981 256.143C124.866 256.389 124.803 256.656 124.797 256.928C125.8 257.359 126.925 256.794 127.866 256.249C128.273 256.022 128.666 255.771 129.042 255.497C129.803 254.912 130.41 254.151 130.809 253.278C131.208 252.405 131.388 251.448 131.332 250.49C131.287 250.009 131.212 249.531 131.108 249.059C130.964 248.237 130.771 247.425 130.532 246.625C130.262 245.782 129.893 244.978 129.576 244.151C128.901 242.391 128.466 240.548 127.854 238.765C127.814 238.58 127.71 238.415 127.56 238.298C127.426 238.232 127.275 238.203 127.125 238.216C126.439 238.18 125.751 238.243 125.083 238.404C124.691 238.522 124.02 238.796 123.836 239.188C123.652 239.58 123.946 239.909 124.122 240.235C124.686 241.219 125.053 242.302 125.204 243.426Z" fill="#EFB7B9"/>
<path opacity="0.1" d="M124.565 195.79C124.767 195.996 124.936 196.231 125.067 196.488C126.416 198.938 126.431 201.866 126.494 204.662C126.565 207.798 126.737 210.934 126.91 214.09L127.423 223.499C127.474 224.397 127.521 225.294 127.651 226.184C128.254 226.337 128.278 227.121 128.211 227.752C127.776 231.586 126.698 235.534 127.819 239.223C127.862 239.413 127.953 239.588 128.082 239.733C127.512 239.554 126.903 239.546 126.329 239.709C125.769 239.827 125.228 240.035 124.663 240.164C123.95 240.325 123.142 240.395 122.656 240.948C122.105 239.291 121.666 237.599 121.343 235.883C121.076 234.315 121.002 232.7 120.367 231.249C120.112 230.665 119.767 230.124 119.453 229.564C117.81 226.631 117.003 223.318 116.215 220.049C115.861 218.499 115.776 216.9 115.964 215.321C116.078 214.601 116.143 213.874 116.16 213.145C116.112 212.376 116.011 211.611 115.858 210.856C115.525 208.639 115.682 206.376 116.317 204.226C116.905 202.231 117.422 200.13 118.669 198.452C119.916 196.774 122.483 195.817 124.565 195.79Z" fill="black"/>
<path d="M125.032 195.476C125.233 195.684 125.403 195.92 125.534 196.178C126.882 198.624 126.898 201.557 126.961 204.352C127.031 207.488 127.204 210.624 127.376 213.761L127.89 223.169C127.941 224.067 127.988 224.965 128.117 225.855C128.721 226.008 128.745 226.792 128.674 227.423C128.243 231.257 127.165 235.201 128.282 238.894C128.325 239.083 128.416 239.258 128.545 239.404C127.975 239.225 127.366 239.217 126.792 239.38C126.232 239.498 125.691 239.705 125.126 239.831C124.413 239.995 123.605 240.062 123.119 240.615C122.57 238.95 122.135 237.25 121.817 235.526C121.551 233.958 121.476 232.347 120.841 230.896C120.565 230.319 120.26 229.757 119.928 229.211C118.281 226.278 117.477 222.962 116.689 219.692C116.336 218.142 116.251 216.543 116.439 214.964C116.734 213.486 116.698 211.961 116.333 210.499C116 208.283 116.156 206.022 116.791 203.873C117.379 201.878 117.897 199.777 119.144 198.099C120.39 196.421 122.95 195.507 125.032 195.476Z" fill="#C82FC6"/>
<g opacity="0.1">
<path opacity="0.1" d="M123.664 167.387C122.487 165.917 120.99 164.592 119.151 164.223C117.658 163.921 116.109 164.286 114.588 164.164C113.243 164.058 111.95 163.572 110.613 163.38C109.4 163.25 108.174 163.296 106.975 163.517C105.836 163.687 104.723 163.998 103.662 164.443C103.089 164.699 102.541 165.011 102.027 165.372C102.972 165.005 103.954 164.742 104.956 164.588C106.154 164.366 107.378 164.319 108.59 164.451C109.931 164.623 111.22 165.105 112.569 165.211C114.086 165.333 115.635 164.972 117.132 165.27C118.971 165.638 120.476 166.967 121.641 168.437C122.727 169.802 123.632 171.554 123.173 173.24C122.93 174.126 122.366 174.902 122.213 175.816C122.06 176.729 122.021 177.101 121.394 177.917C120.589 178.963 119.617 179.867 118.516 180.594C118.818 180.453 119.128 180.312 119.422 180.159C120.983 179.357 122.347 178.219 123.417 176.827C124.04 176.012 124.075 175.651 124.232 174.726C124.389 173.801 124.949 173.04 125.192 172.15C125.655 170.507 124.746 168.755 123.664 167.387Z" fill="black"/>
<path opacity="0.1" d="M116.568 181.896C116.73 181.728 116.907 181.574 117.097 181.437C116.191 181.876 115.239 182.261 114.545 183.006C113.678 183.911 113.369 185.221 113.322 186.475C113.274 187.73 113.498 188.976 113.525 190.227C113.564 191.895 113.283 193.556 112.698 195.119C112.181 196.503 111.432 197.785 110.848 199.146C110.17 200.714 109.715 202.384 109.103 203.987C107.143 209.049 103.663 213.38 99.1416 216.383C99.1181 216.434 99.0985 216.489 99.075 216.54C104.59 213.578 108.863 208.74 111.122 202.901C111.734 201.298 112.189 199.632 112.871 198.056C113.455 196.699 114.204 195.413 114.721 194.03C115.306 192.468 115.587 190.808 115.548 189.141C115.517 187.886 115.309 186.64 115.344 185.385C115.38 184.131 115.701 182.806 116.568 181.896Z" fill="black"/>
</g>
</g>
<defs>
<linearGradient id="paint0_linear" x1="112.389" y1="322.601" x2="112.389" y2="161.906" gradientUnits="userSpaceOnUse">
<stop stop-color="#808080" stop-opacity="0.25"/>
<stop offset="0.54" stop-color="#808080" stop-opacity="0.12"/>
<stop offset="1" stop-color="#808080" stop-opacity="0.1"/>
</linearGradient>
</defs>
</svg>
