<svg width="75" height="75" viewBox="0 0 75 75" fill="none" xmlns="http://www.w3.org/2000/svg">
<path d="M74.6335 3.77114L71.2222 0.359983C70.7534 -0.108764 69.9234 -0.108764 69.4547 0.359983L59.2198 10.5949C58.7311 11.0836 58.7311 11.8737 59.2198 12.3624L62.6309 15.7735C62.8647 16.0085 63.1835 16.1397 63.5147 16.1397C63.8459 16.1397 64.1634 16.0085 64.3984 15.7735L74.6333 5.5386C75.1221 5.04994 75.1221 4.25995 74.6335 3.77114ZM63.5148 13.1223L61.8711 11.4786L70.3386 3.01118L71.9823 4.65487L63.5148 13.1223Z" fill="#C82FC6"/>
<path d="M65.1906 14.7985L60.1957 9.80353C58.7332 8.34104 56.3558 8.34104 54.8933 9.80353L53.2483 11.4472C53.0133 11.681 52.8821 11.9984 52.8821 12.331C52.8821 12.6622 53.0133 12.9797 53.2483 13.2147L61.7783 21.7445C62.0121 21.9795 62.3308 22.1108 62.662 22.1108C62.9945 22.1108 63.312 21.9782 63.5471 21.7445L65.1908 20.1009C66.6531 18.6384 66.6531 16.261 65.1906 14.7985ZM63.4218 18.3322L62.6619 19.0922L55.9007 12.3298L56.6606 11.5698C57.1481 11.0848 57.9406 11.0823 58.4281 11.5698L63.4218 16.5648C63.9093 17.0523 63.9093 17.8447 63.4218 18.3322Z" fill="#C82FC6"/>
<path d="M64.1821 20.6134L54.3772 10.8085C52.4884 8.91979 49.9784 7.87976 47.3072 7.87976C44.6372 7.87976 42.1272 8.91979 40.2385 10.8085L32.7773 18.2697C32.5424 18.5035 32.4111 18.8209 32.4111 19.1534C32.4111 19.4859 32.5424 19.8022 32.7773 20.0371L54.9535 42.2144C55.1972 42.4582 55.5173 42.5806 55.8372 42.5806C56.1573 42.5806 56.4772 42.4582 56.7209 42.2144L64.1821 34.7533C68.0796 30.8546 68.0796 24.5109 64.1821 20.6134ZM62.4146 32.9858L55.8372 39.5632L35.4284 19.1534L42.0058 12.5772C43.422 11.161 45.3045 10.381 47.307 10.381C49.3108 10.381 51.1932 11.161 52.6094 12.5772L62.4143 22.382C65.3369 25.3047 65.3369 30.0622 62.4146 32.9858Z" fill="#C82FC6"/>
<path d="M54.1638 17.4185L50.7513 14.0047C48.8526 12.1072 45.7663 12.1072 43.8689 14.0047L40.4565 17.4185C39.9676 17.9073 39.9676 18.6973 40.4565 19.186C40.9453 19.6746 41.7364 19.6746 42.2239 19.186L45.6364 15.7722C46.5601 14.8496 48.0614 14.8496 48.9838 15.7722L52.3963 19.186C52.64 19.4297 52.9601 19.5522 53.28 19.5522C53.5988 19.5522 53.9187 19.4297 54.1638 19.186C54.6524 18.6973 54.6524 17.9072 54.1638 17.4185Z" fill="#C82FC6"/>
<path d="M15.7802 62.6231L12.369 59.2119C12.1353 58.977 11.8165 58.8457 11.4853 58.8457C11.1541 58.8457 10.8365 58.977 10.6016 59.2119L0.366501 69.4468C-0.122167 69.9357 -0.122167 70.7256 0.366501 71.2143L3.77766 74.6255C4.01144 74.8604 4.33019 74.9917 4.66139 74.9917C4.99391 74.9917 5.31134 74.8604 5.54512 74.6255L15.7801 64.3905C16.2689 63.9019 16.2689 63.1119 15.7802 62.6231ZM4.66154 71.9743L3.01785 70.3306L11.4853 61.8631L13.129 63.5068L4.66154 71.9743Z" fill="#C82FC6"/>
<path d="M21.7496 61.7718L13.2197 53.2419C12.9859 53.007 12.6672 52.8757 12.336 52.8757C12.0048 52.8757 11.6872 53.007 11.4522 53.2419L9.80854 54.8856C8.34605 56.3481 8.34605 58.7255 9.80854 60.188L14.8035 65.183C15.5347 65.9142 16.4948 66.2792 17.4547 66.2792C18.4146 66.2792 19.3746 65.9142 20.1047 65.183L21.7497 63.5393C21.9847 63.3055 22.1159 62.9881 22.1159 62.6555C22.1158 62.3243 21.9845 62.0069 21.7496 61.7718ZM18.3409 63.4143C17.8534 63.8993 17.0609 63.9018 16.5734 63.4143L11.5785 58.4194C11.091 57.9319 11.091 57.1394 11.5785 56.6519L12.3384 55.892L19.1008 62.6544L18.3409 63.4143Z" fill="#C82FC6"/>
<path d="M43.9278 53.2396L21.7517 31.0635C21.283 30.5947 20.453 30.5947 19.9843 31.0635L10.8169 40.2308C6.91943 44.1295 6.91943 50.4732 10.8169 54.3707L20.6218 64.1756C22.5105 66.0643 25.0205 67.1043 27.6918 67.1043C30.363 67.1043 32.873 66.0643 34.7618 64.1744L43.928 55.007C44.4165 54.5182 44.4165 53.7282 43.9278 53.2396ZM32.9929 62.4082C31.5767 63.8244 29.6942 64.6045 27.6916 64.6045C25.6879 64.6045 23.8054 63.8244 22.3892 62.4082L12.5844 52.6034C9.66189 49.6809 9.66189 44.9234 12.5844 41.9998L20.868 33.7161L41.2753 54.1248L32.9929 62.4082Z" fill="#C82FC6"/>
<path d="M36.2527 26.8008C34.8677 25.4171 32.4552 25.4158 31.0727 26.8008L23.3953 34.477C23.1603 34.7108 23.0291 35.0282 23.0291 35.3608C23.0291 35.6933 23.1603 36.0095 23.3953 36.2445L26.8064 39.6557C27.0502 39.8994 27.3702 40.0219 27.6901 40.0219C28.0101 40.0219 28.3301 39.8994 28.5764 39.6557L36.2525 31.9795C36.9438 31.2882 37.3251 30.3681 37.3251 29.3895C37.3251 28.4108 36.9439 27.4921 36.2527 26.8008ZM34.4816 30.2108L27.6891 37.0033L26.0454 35.3596L32.8379 28.5671C33.2766 28.1271 34.0417 28.1271 34.4816 28.5685C34.7003 28.7872 34.8215 29.0785 34.8215 29.3885C34.8215 29.6996 34.7016 29.9908 34.4816 30.2108Z" fill="#C82FC6"/>
<path d="M48.1927 38.7407C46.7639 37.3119 44.4414 37.3108 43.0128 38.7407L35.3367 46.4169C35.1017 46.6507 34.9705 46.9681 34.9705 47.3006C34.9705 47.6332 35.1017 47.9494 35.3367 48.1844L38.7478 51.5955C38.9916 51.8393 39.3116 51.9617 39.6315 51.9617C39.9516 51.9617 40.2715 51.8404 40.5153 51.5967L48.1927 43.9205C49.6202 42.4919 49.6202 40.1694 48.1927 38.7407ZM46.4239 42.1519L39.6315 48.9443L37.9879 47.3006L44.7803 40.5082C45.2203 40.0682 45.9852 40.0682 46.4239 40.5082C46.8764 40.9607 46.8764 41.6994 46.4239 42.1519Z" fill="#C82FC6"/>
<path d="M37.1037 53.2405L21.7514 37.8882C21.2627 37.3994 20.4726 37.3994 19.9839 37.8882L13.1603 44.7118C12.6715 45.2007 12.6715 45.9906 13.1603 46.4793L28.5139 61.8316C28.7577 62.0754 29.0778 62.1978 29.3977 62.1978C29.7164 62.1978 30.0365 62.0754 30.2802 61.8316L37.1039 55.008C37.5925 54.5193 37.5925 53.7294 37.1037 53.2405ZM29.3964 59.1806L15.8115 45.5957L20.8677 40.5396L34.4525 54.1244L29.3964 59.1806Z" fill="#C82FC6"/>
<path d="M28.5753 51.5356L23.4579 46.4168C22.9691 45.9282 22.1791 45.928 21.6905 46.4168C21.2018 46.9057 21.2018 47.6956 21.6905 48.1843L26.8079 53.303C27.0516 53.5468 27.3717 53.6692 27.6916 53.6692C28.0115 53.6692 28.3316 53.5468 28.5753 53.303C29.0642 52.8142 29.0642 52.0242 28.5753 51.5356Z" fill="#C82FC6"/>
</svg>
