<svg width="31" height="20" viewBox="0 0 31 20" fill="none" xmlns="http://www.w3.org/2000/svg">
<rect width="31" height="20" rx="3" fill="#C835C9"/>
<path d="M14.2483 9.77466C12.4028 10.106 11 11.7621 11 13.7551C11 14.9949 11.9772 16 13.1825 16H18.8175C20.0228 16 21 14.9949 21 13.7551C21 11.7621 19.5972 10.106 17.7517 9.77466C17.2427 10.0987 16.6426 10.2857 16 10.2857C15.3574 10.2857 14.7573 10.0987 14.2483 9.77466Z" fill="white"/>
<path d="M18.7778 6.85714C18.7778 8.4351 17.5341 9.71429 16 9.71429C14.4659 9.71429 13.2222 8.4351 13.2222 6.85714C13.2222 5.27919 14.4659 4 16 4C17.5341 4 18.7778 5.27919 18.7778 6.85714Z" fill="white"/>
</svg>
