<svg width="31" height="20" viewBox="0 0 31 20" fill="none" xmlns="http://www.w3.org/2000/svg">
<rect width="31" height="20" rx="3" fill="#F0A7EF"/>
<path d="M21.8333 4.25H10.1667C9.52352 4.25 9 4.77325 9 5.41667V13.5833C9 14.2268 9.52352 14.75 10.1667 14.75H14.2513C14.2391 15.2153 14.1502 15.9597 13.8165 16.3112C13.694 16.4399 13.5539 16.5 13.375 16.5C13.2138 16.5 13.0833 16.6305 13.0833 16.7917C13.0833 16.9529 13.2138 17.0834 13.375 17.0834H18.625C18.7862 17.0834 18.9167 16.9529 18.9167 16.7917C18.9167 16.6305 18.7862 16.5 18.625 16.5C18.4461 16.5 18.306 16.4402 18.1841 16.3114C17.8512 15.9617 17.7617 15.2163 17.749 14.75H21.8333C22.4765 14.75 23 14.2268 23 13.5833V5.41667C23 4.77325 22.4765 4.25 21.8333 4.25ZM16 14.1684C15.6775 14.1684 15.4149 13.9058 15.4149 13.5833C15.4149 13.2609 15.6775 12.9983 16 12.9983C16.3224 12.9983 16.585 13.2609 16.585 13.5833C16.585 13.9058 16.3224 14.1684 16 14.1684ZM10.1667 12.4167V5.41667H21.8333L21.8338 12.4167H10.1667Z" fill="#BE79C4"/>
</svg>
