<svg width="26" height="24" viewBox="0 0 26 24" fill="none" xmlns="http://www.w3.org/2000/svg">
    <path d="M23.8333 0H2.16668C0.972258 0 0 0.97175 0 2.16668V17.3334C0 18.5283 0.972258 19.5001 2.16668 19.5001H9.75244C9.72969 20.3642 9.56465 21.7466 8.94491 22.3994C8.71746 22.6384 8.45721 22.7501 8.125 22.7501C7.82559 22.7501 7.58332 22.9923 7.58332 23.2917C7.58332 23.5911 7.82559 23.8334 8.125 23.8334H17.875C18.1744 23.8334 18.4167 23.5911 18.4167 23.2917C18.4167 22.9923 18.1744 22.7501 17.875 22.7501C17.5428 22.7501 17.2825 22.6389 17.0562 22.3999C16.4379 21.7504 16.2718 20.366 16.2482 19.5001H23.8334C25.0278 19.5001 26 18.5284 26 17.3334V2.16668C26 0.97175 25.0277 0 23.8333 0ZM13 18.4199C12.4012 18.4199 11.9135 17.9322 11.9135 17.3334C11.9135 16.7346 12.4012 16.2469 13 16.2469C13.5988 16.2469 14.0865 16.7346 14.0865 17.3334C14.0865 17.9322 13.5988 18.4199 13 18.4199ZM2.16668 15.1667V2.16668H23.8334L23.8343 15.1667H2.16668Z" fill="#C832C8"/>
</svg>
