<svg width="400" height="300" viewBox="0 0 400 300" fill="none" xmlns="http://www.w3.org/2000/svg">
<g opacity="0.8">
<path d="M232.965 0H43.7759V290.832H232.965V0Z" fill="#E6E6E6"/>
<path d="M221.704 15.0704H55.0371V67.949H221.704V15.0704Z" fill="white"/>
<path d="M221 86H55V276H221V86Z" fill="white"/>
<path d="M162.082 34.829H120V38.5421H162.082V34.829Z" fill="#E6E6E6"/>
<path d="M173.159 44.4772H120.198V48.1903H173.159V44.4772Z" fill="#E6E6E6"/>
<path d="M169 130H101V134H169V130Z" fill="#E6E6E6"/>
<path d="M206 141H101V144H206V141Z" fill="#C82FC6"/>
<path d="M187 151H102V155H187V151Z" fill="#E6E6E6"/>
<path d="M151 163H101V166H151V163Z" fill="#E6E6E6"/>
<path d="M176 174H101V177H176V174Z" fill="#C82FC6"/>
<path d="M79 129H71V135H79V129Z" fill="#E6E6E6"/>
<path d="M79 140H71V146H79V140Z" fill="#C82FC6"/>
<path d="M79 150H71V156H79V150Z" fill="#E6E6E6"/>
<path d="M79 161H71V167H79V161Z" fill="#E6E6E6"/>
<path d="M79 172H71V179H79V172Z" fill="#C82FC6"/>
<path d="M169 185H101V189H169V185Z" fill="#E6E6E6"/>
<path d="M206 196H101V199H206V196Z" fill="#C82FC6"/>
<path d="M187 206H102V210H187V206Z" fill="#E6E6E6"/>
<path d="M151 218H101V221H151V218Z" fill="#E6E6E6"/>
<path d="M176 229H101V232H176V229Z" fill="#E6E6E6"/>
<path d="M79 184H71V190H79V184Z" fill="#E6E6E6"/>
<path d="M79 195H71V201H79V195Z" fill="#C82FC6"/>
<path d="M79 205H71V211H79V205Z" fill="#E6E6E6"/>
<path d="M79 216H71V222H79V216Z" fill="#E6E6E6"/>
<path d="M79 227H71V234H79V227Z" fill="#E6E6E6"/>
<path d="M82.5 29C79.83 29 77.2199 29.7918 74.9998 31.2752C72.7797 32.7586 71.0494 34.867 70.0276 37.3338C69.0059 39.8006 68.7385 42.515 69.2594 45.1337C69.7803 47.7525 71.0661 50.1579 72.9541 52.0459C74.8421 53.9339 77.2475 55.2197 79.8663 55.7406C82.485 56.2615 85.1994 55.9942 87.6662 54.9724C90.133 53.9506 92.2414 52.2203 93.7248 50.0002C95.2082 47.7801 96 45.17 96 42.5C95.9895 38.9228 94.5638 35.4951 92.0344 32.9656C89.5049 30.4362 86.0772 29.0105 82.5 29ZM82.5 33.05C83.301 33.05 84.0841 33.2875 84.7501 33.7326C85.4161 34.1776 85.9352 34.8101 86.2417 35.5501C86.5483 36.2902 86.6285 37.1045 86.4722 37.8901C86.3159 38.6757 85.9302 39.3974 85.3638 39.9638C84.7974 40.5302 84.0757 40.9159 83.2901 41.0722C82.5045 41.2285 81.6902 41.1483 80.9501 40.8417C80.2101 40.5352 79.5776 40.0161 79.1326 39.3501C78.6875 38.684 78.45 37.901 78.45 37.1C78.4536 36.027 78.8814 34.9989 79.6402 34.2402C80.3989 33.4814 81.427 33.0536 82.5 33.05ZM82.5 52.5471C80.9001 52.5398 79.3261 52.1423 77.9146 51.3891C76.5031 50.6358 75.2967 49.5496 74.4 48.2245C74.4649 45.5245 79.8 44.0382 82.5 44.0382C85.2 44.0382 90.5351 45.5245 90.6 48.2245C89.7023 49.5486 88.4956 50.634 87.0844 51.3872C85.6731 52.1403 84.0996 52.5384 82.5 52.5471Z" fill="#C82FC6"/>
<path d="M400 290.199H0V291.383H400V290.199Z" fill="#CF49CD"/>
<path d="M322.941 89.2828C322.941 89.2828 327.513 100.614 330.561 101.806L321.925 117.312L314.813 107.174C314.813 107.174 315.321 100.017 313.797 97.0355C312.273 94.0537 322.941 89.2828 322.941 89.2828Z" fill="#FBBEBE"/>
<path d="M315.829 99.421C321.159 99.421 325.481 94.348 325.481 88.0901C325.481 81.8322 321.159 76.7592 315.829 76.7592C310.498 76.7592 306.176 81.8322 306.176 88.0901C306.176 94.348 310.498 99.421 315.829 99.421Z" fill="#FBBEBE"/>
<path d="M302.62 169.196L305.16 177.545L308.209 173.37L305.651 163.86L302.62 169.196Z" fill="#FBBEBE"/>
<path d="M309.733 165.021C309.733 165.021 306.685 179.93 308.209 187.086C309.733 194.243 314.305 243.144 314.305 243.144L317.353 281.908L329.545 283.101L328.021 237.777L329.545 198.417L338.182 236.584V283.101L352.914 283.697L351.39 223.464C351.39 223.464 352.406 176.948 345.802 170.985C339.198 165.021 338.182 163.828 338.182 163.828L309.733 165.021Z" fill="#A6A6A6"/>
<path d="M319.893 281.312L318.877 285.486L317.353 290.853C317.353 290.853 312.781 301.588 320.401 299.799C328.021 298.01 327.005 293.835 327.005 293.835C327.005 293.835 329.545 292.046 329.037 291.45C328.529 290.853 328.529 281.908 328.529 281.908L319.893 281.312Z" fill="#2F2E41"/>
<path d="M349.358 281.312L350.374 285.486L351.898 290.853C351.898 290.853 356.47 301.588 348.85 299.799C341.229 298.01 342.245 293.835 342.245 293.835C342.245 293.835 339.705 292.046 340.213 291.45C340.721 290.853 340.721 281.908 340.721 281.908L349.358 281.312Z" fill="#2F2E41"/>
<path d="M321.925 110.156L328.138 99.421L339.705 106.577L341.23 168.599C341.23 168.599 334.625 163.828 324.465 169.792C314.305 175.755 307.7 171.581 307.7 171.581L313.797 144.745L311.257 108.963L314.89 105.092L321.925 110.156Z" fill="#E6E6E6"/>
<path d="M314.891 103.963L312.781 105.981C312.781 105.981 299.572 113.734 299.064 119.101L308.209 148.323C308.209 148.323 310.749 154.883 308.717 157.268C306.685 159.654 304.653 165.617 305.161 168.599C305.669 171.581 302.113 184.104 306.177 184.104C310.241 184.104 319.893 155.479 319.385 144.148C318.877 132.817 318.525 103.138 314.891 103.963Z" fill="#C82FC6"/>
<path d="M303.636 115.523L300.505 115.916C300.505 115.916 297.54 118.505 297.54 124.468C297.54 130.432 297.032 148.323 297.032 148.323C297.032 148.323 296.016 157.268 299.064 163.828C302.112 170.388 302.62 172.177 302.62 172.177L307.701 165.021V150.112L309.733 140.57L303.636 115.523Z" fill="#C82FC6"/>
<path d="M326.611 96.9674L331.577 99.421C331.577 99.421 348.85 104.788 351.39 113.734L344.277 134.606C344.277 134.606 349.358 172.774 347.834 172.774H346.31C346.31 172.774 350.374 176.352 347.834 177.545C345.294 178.737 339.197 188.279 337.673 184.104C336.149 179.93 327.005 130.432 328.021 119.697C329.037 108.963 325.708 98.092 326.611 96.9674Z" fill="#C82FC6"/>
<path d="M319.639 73.4792V72.2865H317.099C317.099 72.2865 313.035 69.3047 309.479 72.8828C305.923 76.461 304.399 78.2501 304.399 78.2501L302.875 80.6356L304.399 81.2319L302.875 83.021H304.399L303.383 84.8101L306.23 89.2828C306.23 89.2828 305.923 84.8101 308.971 84.8101C312.019 84.8101 315.575 80.0392 315.575 80.0392L323.195 86.5992C323.195 86.5992 322.687 83.0379 324.465 83.0294C324.465 83.0294 325.227 74.0756 319.639 73.4792Z" fill="#2F2E41"/>
<path d="M354.946 169.195L353.93 181.719C353.93 181.719 353.93 200.206 348.342 198.417C342.754 196.628 347.326 181.123 347.326 181.123L348.098 169.908L354.946 169.195Z" fill="#FBBEBE"/>
<path d="M343.77 110.752C343.77 110.752 350.374 107.77 352.406 116.716C354.438 125.661 356.978 143.552 356.978 143.552C359.101 149.875 359.101 156.909 356.978 163.232L355.454 172.177L346.818 170.985L344.786 150.708L342.754 125.065L343.77 110.752Z" fill="#C82FC6"/>
</g>
</svg>
