<svg width="25" height="26" viewBox="0 0 25 26" fill="none" xmlns="http://www.w3.org/2000/svg">
<path d="M20.8705 10.0726C20.6732 9.8823 20.4383 9.78711 20.1675 9.78711C19.8969 9.78711 19.6626 9.8823 19.4644 10.0726C19.2667 10.2629 19.1677 10.4882 19.1677 10.7486V12.6718C19.1677 14.5248 18.4827 16.1097 17.1129 17.4268C15.7435 18.7439 14.095 19.4025 12.1678 19.4025C10.2407 19.4025 8.59236 18.7439 7.22251 17.4268C5.85283 16.1101 5.16804 14.5248 5.16804 12.6718V10.7486C5.16804 10.4882 5.06904 10.2629 4.87121 10.0726C4.67326 9.8823 4.43915 9.78711 4.16814 9.78711C3.89714 9.78711 3.66275 9.8823 3.46491 10.0726C3.26691 10.2629 3.16797 10.4882 3.16797 10.7486V12.6718C3.16797 14.8853 3.93632 16.811 5.47259 18.4484C7.00892 20.0859 8.90731 21.0248 11.1678 21.2651V23.2484H7.16795C6.89711 23.2484 6.66277 23.3437 6.46488 23.5341C6.26694 23.7242 6.16794 23.9497 6.16794 24.2101C6.16794 24.4701 6.26694 24.696 6.46488 24.8861C6.66277 25.0763 6.89711 25.1718 7.16795 25.1718H17.1674C17.4382 25.1718 17.6729 25.0764 17.8705 24.8861C18.0687 24.696 18.1677 24.4702 18.1677 24.2101C18.1677 23.9497 18.0687 23.7243 17.8705 23.5341C17.6729 23.3437 17.4383 23.2484 17.1674 23.2484H13.1681V21.2651C15.4282 21.0248 17.3264 20.0859 18.8629 18.4484C20.3994 16.811 21.168 14.8853 21.168 12.6718V10.7486C21.168 10.4883 21.0688 10.2631 20.8705 10.0726Z" fill="#C82FC6"/>
<rect width="2.58549" height="32.7698" transform="matrix(0.706994 0.70722 -0.706994 0.70722 23.168 0)" fill="#C835C9"/>
<path fill-rule="evenodd" clip-rule="evenodd" d="M16.6612 2.84734C16.4239 2.39386 16.1032 1.9728 15.6989 1.58413C14.7198 0.642774 13.543 0.171753 12.1679 0.171753C10.7929 0.171753 9.61587 0.642774 8.63671 1.58413C7.65749 2.52554 7.16797 3.65739 7.16797 4.97958V12.3436L16.6612 2.84734ZM17.1674 5.99799L7.93233 15.236C8.12913 15.5279 8.36393 15.805 8.63671 16.0672C9.6157 17.0083 10.7929 17.479 12.1679 17.479C13.543 17.479 14.7198 17.0083 15.6989 16.0672C16.6779 15.1261 17.1674 13.9939 17.1674 12.6717V5.99799Z" fill="#C82FC6"/>
</svg>
