<svg width="18" height="25" viewBox="0 0 18 25" fill="none" xmlns="http://www.w3.org/2000/svg">
    <path d="M8.99989 17.3073C10.375 17.3073 11.5519 16.8365 12.531 15.8954C13.5099 14.9543 13.9994 13.8222 13.9994 12.5V4.80782C13.9994 3.48564 13.5103 2.35395 12.531 1.41238C11.5519 0.471021 10.375 0 8.99989 0C7.62489 0 6.4479 0.471021 5.46874 1.41238C4.48953 2.35379 4 3.48564 4 4.80782V12.5C4 13.8221 4.48974 14.9543 5.46874 15.8954C6.44774 16.8365 7.62489 17.3073 8.99989 17.3073Z" fill="#C82FC6"/>
<path d="M17.7026 9.90085C17.5052 9.71052 17.2703 9.61533 16.9995 9.61533C16.7289 9.61533 16.4946 9.71052 16.2964 9.90085C16.0987 10.0911 15.9998 10.3165 15.9998 10.5768V12.5C15.9998 14.353 15.3147 15.9379 13.9449 17.255C12.5756 18.5721 10.927 19.2307 8.99986 19.2307C7.07274 19.2307 5.42439 18.5721 4.05454 17.255C2.68486 15.9383 2.00007 14.3531 2.00007 12.5V10.5768C2.00007 10.3165 1.90107 10.0911 1.70324 9.90085C1.50529 9.71052 1.27118 9.61533 1.00017 9.61533C0.72917 9.61533 0.494778 9.71052 0.296944 9.90085C0.0989448 10.0911 0 10.3165 0 10.5768V12.5C0 14.7135 0.768354 16.6392 2.30462 18.2766C3.84095 19.9141 5.73934 20.8531 7.99985 21.0933V23.0767H3.99998C3.72914 23.0767 3.49481 23.172 3.29692 23.3623C3.09897 23.5525 2.99997 23.7779 2.99997 24.0383C2.99997 24.2983 3.09897 24.5242 3.29692 24.7144C3.49481 24.9045 3.72914 25 3.99998 25H13.9995C14.2703 25 14.5049 24.9046 14.7025 24.7144C14.9007 24.5242 14.9998 24.2984 14.9998 24.0383C14.9998 23.778 14.9007 23.5525 14.7025 23.3623C14.505 23.172 14.2703 23.0767 13.9995 23.0767H10.0001V21.0933C12.2602 20.8531 14.1585 19.9141 15.6949 18.2766C17.2314 16.6392 18 14.7135 18 12.5V10.5768C18 10.3165 17.9008 10.0913 17.7026 9.90085Z" fill="#C82FC6"/>
</svg>
