<svg width="25" height="26" viewBox="0 0 25 26" fill="none" xmlns="http://www.w3.org/2000/svg">
<path fill-rule="evenodd" clip-rule="evenodd" d="M6.80152 5.5589H13.9527L3.33887 16.1727V9.02167C3.33887 8.0677 3.67753 7.25223 4.3547 6.57486C5.03212 5.89757 5.84775 5.5589 6.80152 5.5589ZM4.35474 19.9327C4.15989 19.7378 3.99307 19.5315 3.85427 19.3137L17.0937 6.07435C17.3114 6.21315 17.5177 6.37999 17.7126 6.57486C18.39 7.25223 18.7286 8.0677 18.7286 9.02167V11.0055L23.5741 6.17201C23.7185 6.01982 23.8986 5.94351 24.1151 5.94351C24.2114 5.94351 24.3115 5.9636 24.4157 6.00361C24.7285 6.13992 24.8847 6.37634 24.8848 6.71316V19.7947C24.8848 20.1313 24.7286 20.3677 24.4158 20.504C24.3116 20.5439 24.2114 20.564 24.1152 20.564C23.8987 20.564 23.7186 20.4877 23.5742 20.3356L18.7287 15.4901V17.4861C18.7287 18.44 18.39 19.2554 17.7127 19.9327C17.0353 20.61 16.2199 20.9487 15.2659 20.9487H6.80156C5.8478 20.9487 5.03216 20.61 4.35474 19.9327Z" fill="#C832C8"/>
<rect width="2.58549" height="32.7698" transform="matrix(0.706994 0.70722 -0.706994 0.70722 23.168 0)" fill="#C832C8"/>
</svg>
