<svg width="22" height="16" viewBox="0 0 22 16" fill="none" xmlns="http://www.w3.org/2000/svg">
<path fill-rule="evenodd" clip-rule="evenodd" d="M20.7762 0.384612C20.8725 0.384612 20.9727 0.4047 21.0769 0.444706C21.3896 0.581024 21.5458 0.817442 21.5459 1.15426V14.2358C21.5459 14.5724 21.3897 14.8088 21.077 14.9451C20.9728 14.985 20.8726 15.0051 20.7763 15.0051C20.5599 15.0051 20.3797 14.9288 20.2353 14.7767L15.3898 9.93117V11.9272C15.3898 12.8811 15.0512 13.6965 14.3738 14.3738C13.6965 15.0511 12.881 15.3898 11.927 15.3898H3.46269C2.50893 15.3898 1.6933 15.0511 1.01588 14.3738C0.338668 13.6965 0 12.8811 0 11.9272V3.46277C0 2.5088 0.338668 1.69334 1.01583 1.01596C1.69325 0.338668 2.50889 0 3.46265 0H11.9269C12.881 0 13.6964 0.338668 14.3738 1.01596C15.0511 1.69334 15.3898 2.5088 15.3898 3.46277V5.44659L20.2352 0.613114C20.3796 0.46092 20.5598 0.384612 20.7762 0.384612Z" fill="#C832C8"/>
</svg>
