<svg width="22" height="22" viewBox="0 0 22 22" fill="none" xmlns="http://www.w3.org/2000/svg">
<path d="M12.7849 0.805633C12.5297 0.6839 12.2291 0.716167 12.0091 0.893633L4.8752 6.60043H1.46667C0.658533 6.60043 0 7.25897 0 8.0671V13.9338C0 14.7434 0.658533 15.4004 1.46667 15.4004H4.8752L12.0076 21.1072C12.1411 21.2128 12.3039 21.2671 12.4667 21.2671C12.5752 21.2671 12.6837 21.2422 12.7849 21.1938C13.0387 21.072 13.2 20.8154 13.2 20.5338V1.4671C13.2 1.1855 13.0387 0.928833 12.7849 0.805633Z" fill="white"/>
<path d="M16.9116 5.81431C16.6227 5.52977 16.1592 5.53417 15.8747 5.82017C15.5901 6.10911 15.5931 6.57257 15.8805 6.85857C16.9893 7.95271 17.5995 9.42377 17.5995 11.0004C17.5995 12.5771 16.9893 14.0482 15.8805 15.1423C15.5931 15.4254 15.5901 15.8903 15.8747 16.1792C16.0184 16.3244 16.2076 16.3963 16.3953 16.3963C16.5816 16.3963 16.7679 16.3259 16.9116 16.1836C18.302 14.8152 19.0661 12.9731 19.0661 11.0004C19.0661 9.02777 18.302 7.18564 16.9116 5.81431Z" fill="white"/>
<path d="M18.9816 3.74777C18.6927 3.46177 18.2292 3.4647 17.9432 3.75217C17.6587 4.03964 17.6616 4.50457 17.9476 4.7891C19.6152 6.44204 20.5333 8.6479 20.5333 11.0004C20.5333 13.353 19.6152 15.5574 17.9476 17.2103C17.6616 17.4963 17.6587 17.9612 17.9432 18.2487C18.0884 18.3924 18.2761 18.4643 18.4639 18.4643C18.6501 18.4643 18.8379 18.3939 18.9816 18.2516C20.9293 16.323 22 13.7475 22 11.0004C22 8.25337 20.9293 5.6779 18.9816 3.74777Z" fill="white"/>
</svg>
