<svg width="26" height="24" viewBox="0 0 26 24" fill="none" xmlns="http://www.w3.org/2000/svg">
<path d="M16.2497 7.58337C17.4446 7.58337 18.4164 6.61167 18.4164 5.41668C18.4164 4.2217 17.4446 3.25 16.2497 3.25C15.0548 3.25 14.083 4.22175 14.083 5.41668C14.083 5.57213 14.101 5.7232 14.1323 5.8695L11.3747 7.24872C10.9773 6.79382 10.4 6.5 9.74969 6.5C8.55476 6.5 7.58301 7.4717 7.58301 8.66668C7.58301 9.86167 8.55471 10.8334 9.74969 10.8334C10.4 10.8334 10.9773 10.5396 11.3747 10.0846L14.1323 11.4639C14.101 11.6101 14.083 11.7612 14.083 11.9167C14.083 13.1116 15.0547 14.0834 16.2497 14.0834C17.4447 14.0834 18.4164 13.1117 18.4164 11.9167C18.4164 10.7217 17.4446 9.75 16.2497 9.75C15.5994 9.75 15.0221 10.0438 14.6246 10.4987L11.8671 9.1195C11.8984 8.97325 11.9164 8.82218 11.9164 8.66668C11.9164 8.51119 11.8984 8.36017 11.8671 8.21387L14.6246 6.83465C15.0221 7.2896 15.5994 7.58337 16.2497 7.58337Z" fill="#C832C8"/>
<path d="M23.8333 0H2.16668C0.972258 0 0 0.97175 0 2.16668V17.3334C0 18.5283 0.972258 19.5001 2.16668 19.5001H9.75244C9.72969 20.3642 9.56465 21.7466 8.94491 22.3994C8.71746 22.6384 8.45721 22.7501 8.125 22.7501C7.82559 22.7501 7.58332 22.9923 7.58332 23.2917C7.58332 23.5911 7.82559 23.8334 8.125 23.8334H17.875C18.1744 23.8334 18.4167 23.5911 18.4167 23.2917C18.4167 22.9923 18.1744 22.7501 17.875 22.7501C17.5428 22.7501 17.2825 22.6389 17.0562 22.3999C16.4379 21.7504 16.2718 20.366 16.2482 19.5001H23.8334C25.0278 19.5001 26 18.5284 26 17.3334V2.16668C26 0.97175 25.0277 0 23.8333 0ZM13 18.4199C12.4012 18.4199 11.9135 17.9322 11.9135 17.3334C11.9135 16.7346 12.4012 16.2469 13 16.2469C13.5988 16.2469 14.0865 16.7346 14.0865 17.3334C14.0865 17.9322 13.5988 18.4199 13 18.4199ZM2.16668 15.1667V2.16668H23.8334L23.8343 15.1667H2.16668Z" fill="#C832C8"/>
</svg>
