<svg width="28" height="27" viewBox="0 0 28 27" fill="none" xmlns="http://www.w3.org/2000/svg">
<path d="M16.2497 10.5833C17.4446 10.5833 18.4164 9.61158 18.4164 8.41659C18.4164 7.22161 17.4446 6.24991 16.2497 6.24991C15.0548 6.24991 14.083 7.22166 14.083 8.41659C14.083 8.57203 14.101 8.72311 14.1323 8.86941L11.3747 10.2486C10.9773 9.79373 10.4 9.49991 9.74969 9.49991C8.55476 9.49991 7.58301 10.4716 7.58301 11.6666C7.58301 12.8616 8.55471 13.8333 9.74969 13.8333C10.4 13.8333 10.9773 13.5395 11.3747 13.0846L14.1323 14.4638C14.101 14.61 14.083 14.7611 14.083 14.9166C14.083 16.1115 15.0547 17.0833 16.2497 17.0833C17.4447 17.0833 18.4164 16.1116 18.4164 14.9166C18.4164 13.7216 17.4446 12.7499 16.2497 12.7499C15.5994 12.7499 15.0221 13.0437 14.6246 13.4986L11.8671 12.1194C11.8984 11.9732 11.9164 11.8221 11.9164 11.6666C11.9164 11.5111 11.8984 11.3601 11.8671 11.2138L14.6246 9.83456C15.0221 10.2895 15.5994 10.5833 16.2497 10.5833Z" fill="#C832C8"/>
<path d="M23.8333 2.99991H2.16668C0.972258 2.99991 0 3.97166 0 5.16659V20.3333C0 21.5282 0.972258 22.5 2.16668 22.5H9.75244C9.72969 23.3642 9.56465 24.7465 8.94491 25.3993C8.71746 25.6383 8.45721 25.75 8.125 25.75C7.82559 25.75 7.58332 25.9922 7.58332 26.2916C7.58332 26.591 7.82559 26.8333 8.125 26.8333H17.875C18.1744 26.8333 18.4167 26.591 18.4167 26.2916C18.4167 25.9922 18.1744 25.75 17.875 25.75C17.5428 25.75 17.2825 25.6388 17.0562 25.3998C16.4379 24.7503 16.2718 23.3659 16.2482 22.5H23.8334C25.0278 22.5 26 21.5283 26 20.3333V5.16659C26 3.97166 25.0277 2.99991 23.8333 2.99991ZM13 21.4198C12.4012 21.4198 11.9135 20.9321 11.9135 20.3333C11.9135 19.7345 12.4012 19.2468 13 19.2468C13.5988 19.2468 14.0865 19.7345 14.0865 20.3333C14.0865 20.9321 13.5988 21.4198 13 21.4198ZM2.16668 18.1666V5.16659H23.8334L23.8343 18.1666H2.16668Z" fill="#C832C8"/>
<rect x="24.6211" y="0.116455" width="2.89119" height="34.8215" transform="rotate(45 24.6211 0.116455)" fill="white"/>
<rect width="2.89119" height="30.8289" transform="matrix(0.706994 0.70722 -0.706994 0.70722 25.7334 3.09448)" fill="#C832C8"/>
</svg>
