<svg width="840" height="140" viewBox="0 0 840 140" fill="none" xmlns="http://www.w3.org/2000/svg">
<path d="M843.516 -1.91504H-4.64795V140.252H843.516V-1.91504Z" fill="url(#paint0_radial)"/>
<g opacity="0.24">
<path opacity="0.24" d="M448.058 -1.97461C480.807 3.99767 490.51 17.6534 468.364 26.5625C449.338 34.2122 412.965 37.806 396.358 45.866C381.448 53.1054 386.19 62.0379 390.269 70.2744C394.347 78.511 396.415 87.7187 377.778 94.2804C357.14 101.551 319.202 102.779 285.57 102.758C251.938 102.738 215.385 102.281 188.107 107.651C153.205 114.508 145.143 128.717 109.064 135.102C92.6368 138.01 72.5013 138.865 52.9633 139.093C33.7724 139.316 14.5488 139.001 -4.4082 138.153L62.2771 -1.86815L448.058 -1.97461Z" fill="url(#paint1_linear)"/>
</g>
<g opacity="0.91">
<path opacity="0.91" d="M-35.5656 -9.35002C-27.8159 -16.8273 -0.59594 -20.6024 23.5711 -19.9217C47.7382 -19.241 69.5783 -15.1742 90.6177 -11.2393C111.657 -7.30446 133.753 -3.34182 157.974 -2.90423C181.735 -2.4597 204.643 -5.45685 227.038 -8.07892C249.433 -10.701 273.568 -13.0279 296.721 -11.2289C319.874 -9.4299 340.487 -1.98738 335.149 5.55586C327.677 16.0407 282.417 17.923 263.086 26.6575C238.94 37.5695 264.879 53.486 250.276 66.065C241.438 73.6777 217.516 78.9635 192.57 79.5574C167.624 80.1513 142.571 76.3484 126.089 70.2256C113.515 65.5545 105.583 59.6783 92.2296 55.2433C78.8757 50.8083 56.3526 48.1515 40.8105 51.7495C27.2432 54.8752 25.3431 61.3696 30.136 66.5512C34.9288 71.7329 44.8881 76.2512 51.0153 81.2869C63.9421 91.8933 58.1459 104.677 36.3805 113.62C14.6152 122.563 -22.3292 127.331 -57 125.675" fill="url(#paint2_linear)"/>
</g>
<g style="mix-blend-mode:screen" opacity="0.33">
<path style="mix-blend-mode:screen" opacity="0.33" d="M351.891 140.253C332.455 132.868 317.902 124.293 321.826 115.64C325.75 106.987 352.447 98.51 388.867 97.3708C414.204 96.5804 438.8 99.2687 463.241 101.03C487.682 102.791 517.232 103.391 535.998 99.2858C554.434 95.2484 554.599 88.4909 553.909 82.5458C553.219 76.6008 554.743 69.7628 574.508 66.0865C594.654 62.3345 625.389 63.8738 645.391 67.6697C665.393 71.4656 677.845 76.9838 692.182 82.014C706.519 87.0443 724.945 91.9721 749.86 93.4066C775.084 94.8703 805.87 92.7308 824.698 96.9658C839.88 100.381 838.448 106.102 835.883 111.022L837.501 130.438L351.891 140.253Z" fill="url(#paint3_linear)"/>
</g>
<g style="mix-blend-mode:multiply" opacity="0.65">
<g style="mix-blend-mode:multiply" opacity="0.65">
<path d="M637.523 -0.0212622C626.385 0.557829 615.228 1.40808 606.016 3.03735C596.805 4.66662 589.692 7.17371 589.115 9.94508C588.227 14.263 602.568 17.8065 616.635 20.4514C630.702 23.0964 646.639 25.8011 651.429 29.9674C658.704 36.3374 636.389 42.581 636.446 49.19C636.503 54.6408 652.894 59.6274 673.706 61.6473C694.518 63.6673 718.637 63.01 738.995 60.7281C759.354 58.4463 776.35 54.6867 790.955 50.5435C818.191 42.7924 838.437 33.1432 839.136 22.9471C839.835 12.7509 817.833 2.14114 779.618 -2.05957L637.523 -0.0212622Z" fill="#9C53D3"/>
</g>
</g>
<g opacity="0.35">
<path opacity="0.35" d="M5.21846 133.816C60.8336 142.18 130.227 141.192 178.717 125.17C203.02 117.142 216.221 105.528 225.599 93.0408C235.854 79.4122 243.2 64.9062 264.114 53.5007C302.032 32.8661 367.545 25.8687 424.97 24.9658C456.745 24.459 488.982 25.677 519.87 29.0288C550.759 32.3806 580.666 37.5467 609.687 43.2707C669.384 55.0765 726.001 69.6762 782.694 84.0161C788.645 85.5237 794.599 87.0229 800.556 88.5135C800.61 88.5244 800.671 88.5259 800.728 88.5179C800.785 88.5099 800.833 88.4928 800.863 88.47C800.893 88.4472 800.902 88.4203 800.89 88.3945C800.878 88.3687 800.844 88.3459 800.796 88.3304C744.844 74.3227 689.547 59.7571 631.476 47.4956C602.773 41.4351 573.387 35.8687 542.998 31.6694C513.698 27.6298 483.321 25.3157 452.653 24.7869C394.939 23.7563 330.311 28.0961 283.987 44.5314C273.77 48.1228 264.823 52.3689 257.441 57.1293C248.381 63.0408 242.199 69.689 237.028 76.4266C226.437 90.2512 219.456 105.272 197.965 116.823C179.757 126.618 153.086 132.704 125.75 135.89C94.1391 139.565 60.3811 139.604 28.5006 136.503C20.6576 135.734 12.9171 134.773 5.31475 133.624C5.01626 133.582 4.89107 133.786 5.17993 133.829L5.21846 133.816Z" fill="#F7FAFB"/>
<path opacity="0.35" d="M4.71792 132.959C32.9354 135.883 62.156 136.395 90.8077 134.467C118.789 132.636 146.866 128.658 170.726 121.788C182.568 118.415 193.032 114.179 201.672 109.258C210.425 104.207 217.145 98.5556 223.038 92.7634C234.872 81.1323 243.884 68.7345 262.121 58.6322C296.601 39.5309 355.365 31.8009 408.101 28.9815C441.135 27.2042 474.529 27.1642 507.584 28.8622C540.851 30.5956 573.406 34.6416 604.949 39.5096C667.237 49.1348 726.761 62.197 785.188 75.6467C791.607 77.1203 797.994 78.601 804.349 80.0888C804.619 80.1527 804.859 79.9696 804.59 79.9057C747.867 66.7029 690.471 53.8409 630.696 43.5087C599.268 38.0786 566.993 33.3895 533.851 30.4934C501.335 27.6569 467.914 26.9755 434.897 27.7421C381.391 29.0198 323.205 34.4244 280.839 49.9142C259.877 57.5803 246.657 67.691 236.008 78.6195C224.55 90.3827 214.738 102.853 194.884 112.482C174.664 122.278 146.327 128.296 117.739 131.754C88.3443 135.308 57.6573 136.271 27.4223 134.591C19.8094 134.161 12.2556 133.547 4.79493 132.751C4.73237 132.743 4.66576 132.747 4.60978 132.762C4.5538 132.776 4.51304 132.8 4.49645 132.827C4.47985 132.855 4.48877 132.884 4.52128 132.909C4.55378 132.934 4.60719 132.952 4.66975 132.959H4.71792Z" fill="#F7FAFB"/>
<path opacity="0.35" d="M4.27339 132.103C31.5706 133.603 59.4167 132.819 86.3385 130.438C113.53 128.032 140.596 123.986 164.523 117.721C176.743 114.562 187.826 110.613 197.405 106.005C206.697 101.469 214.4 96.3453 221.332 91.0599C235.361 80.3614 246.993 68.9134 266.539 59.8589C304.168 42.444 361.949 35.4892 414.214 32.2907C447.126 30.2529 480.401 29.6012 513.591 30.3444C546.136 31.111 578.373 33.7984 609.81 37.5122C671.26 44.7524 730.746 55.4807 788.2 67.4696C794.825 68.8495 801.427 70.255 808.007 71.686C808.276 71.7456 808.526 71.5625 808.247 71.4986C752.18 59.3435 694.282 48.5003 634.517 40.4083C603.59 36.226 572.018 32.8785 539.887 31.1408C507.448 29.3861 474.499 29.5394 441.963 30.7149C388.043 32.6783 329.953 37.8188 285.44 52.2652C264.151 59.1987 249.255 68.3853 236.546 78.5088C222.536 89.6119 209.691 101.192 188.065 109.872C166.179 118.662 137.852 124.114 109.726 127.717C81.9428 131.327 53.0443 132.975 24.0988 132.597C17.4743 132.495 10.8658 132.262 4.27339 131.899C3.96527 131.899 3.9749 132.095 4.27339 132.112V132.103Z" fill="#F7FAFB"/>
<path opacity="0.35" d="M3.77392 131.248C29.8868 131.116 55.9516 129.301 81.2365 126.473C108.197 123.45 135.041 119.255 159.498 113.313C183.955 107.372 203.376 98.9266 219.937 89.0033C236.383 79.1481 250.999 68.5987 272.336 60.5918C292.557 53.0109 316.888 47.815 341.74 43.982C368.825 39.7912 397.057 37.1166 425.413 35.2639C457.132 33.1337 489.14 31.9513 521.218 31.7247C553.137 31.6255 585.002 32.8935 616.368 35.5109C676.499 40.4215 735.465 48.8116 791.697 59.361C798.405 60.6217 805.077 61.9221 811.715 63.2622C811.994 63.3176 812.235 63.1344 811.955 63.0791C756.869 51.9141 699.303 43.3172 640.19 37.4274C609.734 34.4462 578.826 32.3636 547.639 31.7077C516.019 31.0433 484.273 31.976 452.826 33.4922C398.077 36.1285 340.17 40.8389 292.663 53.8286C270.661 59.8337 253.532 67.9513 238.444 77.1549C221.892 87.2571 206.573 97.8363 184.35 105.745C161.241 113.961 132.971 119.225 104.981 123.207C78.1397 127.096 50.3668 129.59 22.2224 130.639C16.0793 130.852 9.92984 130.975 3.77392 131.009C3.71008 131.009 3.64884 131.02 3.6037 131.04C3.55855 131.06 3.5332 131.087 3.5332 131.116C3.5332 131.144 3.55855 131.171 3.6037 131.191C3.64884 131.211 3.71008 131.222 3.77392 131.222V131.248Z" fill="#F7FAFB"/>
<path opacity="0.35" d="M3.33046 130.382C28.402 128.431 53.1537 125.748 77.423 122.35C103.95 118.687 130.381 114.36 155.088 108.747C180.219 103.044 201.151 95.1989 220.283 86.0847C238.905 77.2176 256.583 67.9331 279.461 61.1103C301.415 54.5643 326.295 50.0966 351.484 46.6299C379.166 42.8309 407.638 40.2414 436.216 38.1588C498.359 33.6486 561.042 30.4288 623.975 33.261C682.172 35.9113 739.342 41.8999 794.046 51.0762C801.209 52.2772 808.322 53.5407 815.383 54.8667C815.662 54.9178 815.912 54.7346 815.624 54.6835C761.915 44.6239 704.817 37.8649 647.122 34.2917C617.075 32.4 586.721 31.6307 556.382 31.9919C525.666 32.3922 495.124 34.1213 464.726 36.0293C408.707 39.5685 350.434 43.951 299.681 55.5864C276.091 60.9953 256.478 68.4016 238.472 76.9791C219.215 86.1444 200.92 95.6674 177.301 102.72C153.152 109.939 125.412 114.845 98.038 119.104C72.5762 123.081 46.5477 126.307 20.1229 128.764C14.4997 129.278 8.86052 129.752 3.20529 130.186C2.89717 130.207 3.03198 130.416 3.33046 130.391V130.382Z" fill="#F7FAFB"/>
<path opacity="0.35" d="M2.82955 129.526C53.0815 121.387 104.518 114.1 152.748 103.742C178.11 98.2991 200.439 91.0589 221.882 83.0308C242.901 75.1603 263.737 67.2429 288.262 61.553C337.946 50.0197 394.947 45.254 449.599 40.748C509.432 35.8162 569.207 30.271 630.387 30.6543C687.514 31.0078 745.026 35.0496 799.149 43.2139C805.876 44.2276 812.555 45.3122 819.186 46.4678C819.475 46.5189 819.6 46.3102 819.311 46.2633C766.248 37.0427 709.381 32.1237 652.533 30.7736C623.043 30.0823 593.474 30.4769 564.132 31.9533C534.601 33.4269 505.398 35.9482 476.213 38.3417C419.808 42.9712 361.931 47.1237 308.771 57.0513C284.622 61.5572 262.938 67.6603 242.689 74.9899C220.668 82.9669 199.803 91.5529 175.289 98.0947C149.782 104.909 121.618 109.777 93.9071 114.534C68.8725 118.84 43.5107 122.809 18.2065 126.826C13.0199 127.652 7.83968 128.482 2.66588 129.317C2.37702 129.36 2.5022 129.568 2.79106 129.521L2.82955 129.526Z" fill="#F7FAFB"/>
<path opacity="0.35" d="M2.38632 128.657C23.8582 122.916 46.9381 118.372 69.9025 113.955C96.699 108.798 123.977 104.104 150.6 98.7722C176.598 93.5806 200.573 87.0303 224.404 80.1777C247.734 73.4656 271.324 67.0303 297.197 62.3881C349.191 53.0653 405.095 48.7595 459.613 43.4571C518.194 37.7458 575.85 29.8285 635.943 27.7757C691.856 25.8591 749.089 27.9077 802.894 35.1053C809.627 36.0082 816.294 36.9934 822.892 38.061C823.181 38.1079 823.307 37.8992 823.018 37.8523C769.964 29.3089 712.866 26.1487 656.596 27.0474C628.038 27.5537 599.62 29.0863 571.623 31.63C542.323 34.2322 513.476 37.6947 484.397 40.7271C428.079 46.6044 370.442 50.693 315.626 59.1002C290.277 63.0374 266.01 68.2248 243.286 74.5644C219.493 81.1274 196.548 88.2739 171.639 94.015C145.372 100.071 117.535 104.752 90.2863 109.858C65.4348 114.509 40.5062 119.202 16.6753 124.824C11.7454 125.987 6.89254 127.196 2.11672 128.474C2.06853 128.49 2.03504 128.512 2.02275 128.538C2.01046 128.564 2.02024 128.591 2.0502 128.614C2.08015 128.637 2.12814 128.654 2.18489 128.662C2.24165 128.67 2.30314 128.668 2.35744 128.657H2.38632Z" fill="#F7FAFB"/>
<path opacity="0.35" d="M1.93357 127.78C20.3532 120.403 42.4895 114.922 64.5968 110.02C90.7386 104.223 117.834 99.4235 144.89 94.53C198.089 84.9091 247.917 71.7064 302.8 64.0232C357.183 56.421 413.742 52.4687 468.856 46.0973C525.819 39.5088 580.625 29.4321 638.782 24.875C693.907 20.5565 751.553 20.5522 805.888 26.898C812.849 27.7115 819.734 28.6357 826.561 29.6493C826.849 29.6919 826.984 29.4875 826.686 29.4449C772.977 21.4423 715.186 20.0454 659.214 23.2737C601.443 26.5999 547.387 35.9185 491.763 43.0735C435.56 50.3137 377.615 54.3895 321.268 61.3869C294.435 64.732 268.251 69.0231 242.968 74.2191C216.45 79.645 190.549 85.6374 163.743 90.7949C112.711 100.59 58.0301 108.418 13.1413 123.41C9.13582 124.747 5.28436 126.158 1.58695 127.643C1.35587 127.737 1.70248 127.886 1.93357 127.792V127.78Z" fill="#F7FAFB"/>
<path opacity="0.35" d="M1.46466 126.903C16.5913 118.232 37.3603 111.724 58.6204 106.294C83.1445 100.029 109.296 95.1481 135.804 90.7997C190.918 81.7622 246.033 72.3457 303.275 66.2511C359.795 60.2332 417.567 56.6259 473.317 49.2409C529.789 41.7622 582.313 29.4964 639.026 22.2903C693.91 15.3227 752.914 13.0569 809.001 18.6787C816.194 19.3985 823.309 20.2545 830.348 21.2341C830.406 21.2383 830.467 21.2327 830.517 21.2184C830.567 21.2042 830.603 21.1822 830.618 21.1568C830.634 21.1314 830.628 21.1043 830.601 21.0809C830.574 21.0574 830.528 21.0391 830.473 21.0296C775.387 13.4487 716.373 13.9342 660.508 19.6199C602.736 25.5058 549.913 37.6523 494.038 46.0765C437.604 54.5944 378.494 58.5595 320.501 64.2664C262.507 69.9734 207.133 78.9854 151.489 88.0143C124.692 92.3627 98.0401 96.8261 72.6686 102.657C50.5708 107.729 28.8389 113.73 11.2955 121.609C7.66259 123.243 4.25435 124.973 1.08913 126.788C0.896557 126.894 1.32024 127.001 1.50318 126.894L1.46466 126.903Z" fill="#F7FAFB"/>
<path opacity="0.35" d="M0.962861 126.042C12.5943 116.651 30.8117 109.215 50.6468 103.253C72.8504 96.5876 97.4806 91.5535 122.698 87.5629C180.037 78.5084 240.091 72.8269 300.096 68.4274C358.408 64.1685 417.759 61.0978 474.173 52.9462C531.868 44.6072 583.141 29.9479 639.256 19.9819C693.389 10.3652 753.452 5.63779 811.378 10.4461C819.014 11.0807 826.563 11.8857 834.025 12.8311C834.084 12.8354 834.144 12.8298 834.194 12.8155C834.244 12.8012 834.28 12.7793 834.296 12.7539C834.311 12.7285 834.305 12.7014 834.278 12.6779C834.251 12.6544 834.206 12.6362 834.15 12.6267C776.888 5.36522 716.17 8.00151 660.266 16.3277C602.918 24.8755 551.799 39.7136 495.481 49.3516C438.874 59.0322 378.377 62.6906 318.786 66.8729C257.403 71.183 196.299 76.5578 137.17 85.1566C90.365 91.9709 39.8241 101.809 9.48423 119.786C6.18456 121.74 3.20186 123.795 0.558474 125.936C0.533931 125.96 0.530401 125.987 0.548571 126.012C0.566742 126.037 0.605305 126.059 0.656823 126.072C0.708341 126.085 0.769147 126.089 0.827458 126.084C0.885769 126.079 0.937449 126.064 0.972499 126.042H0.962861Z" fill="#F7FAFB"/>
<path opacity="0.35" d="M0.480242 125.161C19.4583 103.466 68.7859 90.3955 116.351 83.1893C176.473 74.0794 240.946 72.2268 303.783 69.7949C365.291 67.4142 428.416 64.9227 486.419 54.8886C540.706 45.5189 587.52 29.9184 638.947 18.0317C692.569 5.62963 753.903 -1.8789 814.612 2.27358C822.395 2.81099 830.108 3.52891 837.721 4.42435C837.78 4.42855 837.84 4.42297 837.89 4.4087C837.94 4.39443 837.976 4.37248 837.992 4.34707C838.007 4.32166 838.001 4.29461 837.974 4.27113C837.947 4.24765 837.901 4.2294 837.846 4.21992C778.765 -2.67106 717.035 2.09044 661.94 12.8826C607.702 23.53 560.406 39.8716 506.572 50.8682C447.837 62.8699 383.325 66.3835 319.497 68.9602C255.669 71.5368 190.791 73.0104 129.119 81.1578C81.9387 87.3972 32.0911 98.6535 7.14329 118.377C4.40857 120.542 2.02743 122.791 0.0180852 125.106C-0.0974587 125.234 0.374327 125.289 0.480242 125.161Z" fill="#F7FAFB"/>
</g>
<g opacity="0.35">
<path opacity="0.35" d="M9.11134 78.8255C27.169 79.2691 45.4366 78.8649 62.7738 77.6382C79.9379 76.4337 95.9705 74.5207 110.063 71.9957C124.35 69.4576 136.271 66.3025 145.136 62.7134C149.569 60.9347 153.014 59.0388 155.395 57.0687C157.697 54.9875 159.104 52.8606 159.594 50.7179C160.893 46.0935 159.594 41.4579 159.594 36.8312C159.643 32.4741 160.775 28.0412 167.738 23.9335C173.854 20.4043 183.096 17.196 194.894 14.5064C206.824 11.7487 220.899 9.49885 235.849 7.65888C251.566 5.75451 268.099 4.21843 285.193 3.07453C302.093 1.9254 319.346 1.06244 336.81 0.492766C341.118 0.347973 345.436 0.223229 349.763 0.11185C350.078 0.11185 350.078 -0.00843865 349.763 0.000471655C332.457 0.436238 315.305 1.14409 298.432 2.1189C281.391 3.09252 264.774 4.4129 248.783 6.06393C233.251 7.65236 218.702 9.69378 205.506 12.1363C192.8 14.488 182.129 17.3528 174.033 20.5855C170.007 22.2176 166.791 23.9456 164.443 25.7379C161.926 27.7787 160.36 29.8737 159.771 31.9885C158.207 36.6174 159.516 41.2641 159.575 45.8997C159.575 50.2835 158.926 54.8322 152.129 58.9867C145.707 62.9206 135.006 66.4936 121.924 69.4451C108.762 72.4101 93.2093 74.7755 76.1107 76.413C59.1554 78.054 40.9065 78.8989 22.468 78.8967C17.9781 78.8916 13.493 78.8306 9.03267 78.7141C8.71794 78.7141 8.72777 78.8188 9.03267 78.8255H9.11134Z" fill="#F7FAFB"/>
<path opacity="0.35" d="M8.57052 77.9759C26.0548 78.1901 43.556 77.6317 60.0986 76.332C76.8664 75.0322 92.5303 73.093 106.414 70.5982C120.459 68.0998 132.371 65.0417 141.566 61.5743C146.132 59.8633 149.812 58.0387 152.533 56.1368C155.235 54.1067 157.07 52.0225 158.011 49.9129C160.234 45.4578 159.899 40.9514 160.863 36.474C161.778 32.2416 163.814 27.9669 171.289 24.0419C177.826 20.6937 187.215 17.6704 198.917 15.1449C210.877 12.5209 224.764 10.3802 239.429 8.60924C254.813 6.78153 270.918 5.28401 287.534 4.13627C303.932 2.98915 320.646 2.08873 337.568 1.44091C341.548 1.2924 345.541 1.1491 349.547 1.01099C349.862 1.01099 349.724 0.892924 349.419 0.904062C332.623 1.44543 315.989 2.21986 299.612 3.22297C283.096 4.22308 266.975 5.53296 251.418 7.13904C236.271 8.68705 222.02 10.6509 208.988 12.9864C196.532 15.2144 185.919 17.925 177.643 20.9923C173.533 22.5398 170.17 24.1828 167.61 25.893C164.834 27.8565 162.956 29.8793 162.004 31.9297C159.663 36.3648 160.037 40.84 159.053 45.2952C158.158 49.6479 156.359 54.1409 148.667 58.1862C141.412 61.9264 131.005 65.3102 118.03 68.1479C105 71.0239 89.8475 73.361 73.2585 75.0534C56.9135 76.7394 39.2976 77.7034 21.3567 77.8935C17.0953 77.9341 12.8275 77.9244 8.57052 77.8645C8.25579 77.8645 8.25579 77.9715 8.57052 77.9759Z" fill="#F7FAFB"/>
<path opacity="0.35" d="M8.07003 77.1286C25.0322 77.1099 41.8384 76.3936 57.6704 75.0146C73.918 73.6233 89.1141 71.6695 102.717 69.2229C116.586 66.7573 128.534 63.7832 138.066 60.424C142.809 58.7597 146.741 56.9835 149.79 55.1268C152.886 53.1343 155.152 51.0804 156.556 48.9921C159.615 44.7597 160.333 40.4426 162.202 36.1702C163.972 32.1093 166.785 28.0239 174.605 24.3128C181.504 21.1132 191.03 18.2404 202.675 15.848C214.586 13.3576 228.247 11.3171 242.548 9.61077C257.609 7.84474 273.311 6.37507 289.483 5.21799C305.345 4.0708 321.481 3.1285 337.815 2.39565C341.624 2.22339 345.437 2.06003 349.253 1.90559C349.568 1.89445 349.43 1.78753 349.125 1.79866C333.023 2.4388 317.078 3.26783 301.354 4.28241C285.242 5.31161 269.496 6.61549 254.252 8.18289C239.498 9.6892 225.553 11.5726 212.688 13.7964C200.376 15.9152 189.735 18.4902 181.214 21.4125C172.156 24.5934 166.923 28.1242 164.159 31.8397C161.041 36.0721 160.373 40.358 158.514 44.6149C156.655 48.8718 153.793 53.1933 145.659 57.0893C137.912 60.7099 127.339 63.9836 114.451 66.7525C101.488 69.5711 86.6192 71.9024 70.4074 73.658C54.6566 75.3953 37.676 76.4895 20.2464 76.8902C16.2007 76.9749 12.1452 77.0157 8.07987 77.0127C8.01466 77.0127 7.9521 77.0186 7.90599 77.0291C7.85988 77.0395 7.83398 77.0537 7.83398 77.0684C7.83398 77.0832 7.85988 77.0974 7.90599 77.1078C7.9521 77.1183 8.01466 77.1241 8.07987 77.1241L8.07003 77.1286Z" fill="#F7FAFB"/>
<path opacity="0.35" d="M7.58767 76.2788C23.9595 76.0228 40.0297 75.1526 55.1422 73.7037C70.9081 72.2195 85.685 70.2455 99.0479 67.8385C112.684 65.4096 124.621 62.5281 134.456 59.2913C139.331 57.696 143.492 55.9947 146.878 54.2124C150.382 52.2835 153.111 50.287 155.031 48.247C159.064 44.1527 160.834 39.9715 163.657 35.8305C166.273 31.9812 169.854 28.1186 177.889 24.6414C185.081 21.6078 194.653 18.8964 206.137 16.6399C218.176 14.275 231.455 12.2549 245.675 10.6255C260.415 8.92368 275.712 7.48187 291.43 6.31289C306.665 5.15678 322.195 4.20115 337.834 3.37917C341.539 3.18611 345.247 2.999 348.958 2.81782C349.273 2.80223 349.145 2.69531 348.83 2.70867C333.369 3.46159 317.996 4.32812 302.859 5.37062C287.311 6.42299 272.094 7.71121 257.311 9.22656C242.695 10.7057 228.823 12.5362 215.933 14.6863C203.903 16.6897 193.364 19.1157 184.715 21.8725C175.529 24.8708 169.873 28.2255 166.411 31.7763C162.477 35.8238 160.825 39.9626 157.982 44.0525C155.1 48.1824 151.097 52.3591 142.422 56.0814C134.152 59.5622 123.413 62.7116 110.634 65.4038C97.8055 68.148 83.3085 70.4621 67.5842 72.2758C52.5553 74.0395 36.3893 75.2537 19.6853 75.8734C15.6528 76.013 11.594 76.111 7.509 76.1674C7.19427 76.1674 7.19427 76.2832 7.509 76.2788H7.58767Z" fill="#F7FAFB"/>
<path opacity="0.35" d="M7.01602 75.4302C39.3846 74.4791 70.1402 70.9929 95.5354 66.4286C108.94 64.0326 120.863 61.2395 130.983 58.1242C136.112 56.5483 140.587 54.8682 144.349 53.1055C148.084 51.288 151.159 49.4046 153.545 47.4742C158.512 43.5603 161.413 39.5351 165.141 35.5589C168.613 31.9034 172.911 28.2435 181.193 24.9779C196.408 18.9634 222.049 14.7444 248.822 11.6458C277.079 8.37353 307.569 6.18828 338.108 4.35053C341.623 4.13965 345.144 3.93249 348.671 3.72904C348.976 3.71121 348.839 3.60429 348.534 3.62211C318.368 5.35962 288.291 7.36444 259.926 10.3048C232.819 13.1116 206.312 16.8717 188.225 22.3516C178.97 25.1561 172.882 28.3237 168.761 31.6896C164.03 35.55 161.345 39.5173 157.519 43.4244C153.584 47.4341 148.48 51.4571 139.293 55.0368C130.509 58.3971 119.571 61.4435 106.836 64.0763C82.2476 69.2354 51.4724 73.2517 18.553 74.8667C14.7369 75.0538 10.8945 75.2023 7.02584 75.3122C6.72093 75.3122 6.7111 75.4325 7.02584 75.4236L7.01602 75.4302Z" fill="#F7FAFB"/>
<path opacity="0.35" d="M6.60497 74.5799C37.9703 73.1097 67.4178 69.481 92.272 64.9768C105.53 62.6 117.49 59.8735 127.896 56.8551C138.323 53.7598 146.516 50.3095 152.17 46.6328C158.071 42.8993 162.006 39.0367 166.786 35.2276C171.074 31.7904 176.07 28.3488 184.49 25.3082C200.364 19.6078 225.799 15.636 251.922 12.6511C279.461 9.51244 308.859 7.32496 338.287 5.31346L348.309 4.63405C348.372 4.62992 348.425 4.62032 348.456 4.60737C348.488 4.59442 348.495 4.57918 348.477 4.565C348.458 4.55082 348.416 4.53886 348.359 4.53176C348.302 4.52466 348.234 4.52299 348.172 4.52713C319.295 6.47626 290.319 8.51003 262.8 11.3457C236.185 14.0968 209.914 17.6765 191.433 22.9291C182.119 25.5733 175.697 28.5805 170.956 31.7726C165.527 35.4147 161.809 39.1726 157.039 42.8592C151.993 46.753 145.757 50.609 136.03 54.0394C126.756 57.2531 115.666 60.1782 103.042 62.7404C78.581 67.7791 48.868 71.8534 16.9224 73.8916C13.4472 74.1129 9.94904 74.3059 6.42794 74.4708C6.12304 74.4864 6.2509 74.5933 6.5558 74.5777L6.60497 74.5799Z" fill="#F7FAFB"/>
<path opacity="0.35" d="M6.03202 73.7309C36.2958 71.7261 64.4941 67.9815 88.9845 63.5264C102.06 61.1696 114.03 58.5145 124.707 55.6029C135.492 52.6059 144.362 49.2802 151.056 45.7236C157.705 42.2375 162.751 38.6154 168.377 35.0424C173.52 31.7812 179.196 28.5112 187.959 25.6509C204.433 20.2758 229.475 16.558 254.958 13.6844C281.809 10.6571 310.283 8.46521 338.619 6.27328L348.081 5.54041C348.376 5.5159 348.248 5.40898 347.953 5.43126C320.177 7.59869 292.186 9.66365 265.433 12.4303C239.536 15.1034 213.826 18.4782 195.011 23.4145C174.642 28.7606 167.324 35.7552 156.653 42.2263C150.496 45.9753 143.198 49.6508 133.047 52.9365C123.351 56.0134 112.131 58.8288 99.6068 61.3278C75.2541 66.2708 46.5837 70.4007 15.7003 72.8978C12.4218 73.1621 9.14329 73.4042 5.8648 73.624C5.80809 73.6289 5.76152 73.6385 5.73405 73.6508C5.70658 73.663 5.70018 73.6772 5.71607 73.6905C5.73196 73.7038 5.76902 73.7153 5.82011 73.7227C5.87119 73.7302 5.93266 73.7331 5.99266 73.7309H6.03202Z" fill="#F7FAFB"/>
<path opacity="0.35" d="M5.51194 72.8819C34.4184 70.3247 61.3775 66.52 85.504 62.1227C98.4052 59.7946 110.396 57.2189 121.344 54.4242C132.464 51.54 141.998 48.3611 149.74 44.9571C157.283 41.6647 163.509 38.2298 170.06 34.8394C175.961 31.8322 182.138 28.7982 190.901 26.1519C207.877 21.0285 232.702 17.5267 257.714 14.7356C283.817 11.8241 311.297 9.6255 338.433 7.26427C341.551 6.9925 344.679 6.71628 347.787 6.43784C348.082 6.41111 347.954 6.30418 347.659 6.33091C321.044 8.72333 293.928 10.8306 267.884 13.5282C242.508 16.1545 217.182 19.3645 198.071 24.0424C177.741 29.0366 168.486 35.6926 156.103 41.7471C148.746 45.3447 140.366 48.8464 129.547 51.994C119.499 54.8898 108.259 57.5631 95.9788 59.9776C71.9408 64.7691 44.6277 68.8879 15.3277 71.8327C12.0132 72.1669 8.67897 72.4832 5.29556 72.7817C5.01033 72.8084 5.13818 72.9153 5.43324 72.8886L5.51194 72.8819Z" fill="#F7FAFB"/>
<path opacity="0.35" d="M5.03985 72.0289C32.5895 68.8714 58.5602 65.0522 82.5041 60.637C95.2116 58.3357 107.194 55.8362 118.364 53.1568C129.788 50.3797 139.946 47.349 148.687 44.1107C157.028 41.0388 164.276 37.8289 171.801 34.6524C178.469 31.8389 185.315 28.9854 194.353 26.5239C212.057 21.7102 236.646 18.4267 261.156 15.7269C286.482 12.9446 312.94 10.7505 338.758 8.22441C341.702 7.9378 344.633 7.64079 347.551 7.33338C347.836 7.30219 347.551 7.20641 347.305 7.23537C321.831 9.86168 295.492 12.0135 270.077 14.6532C245.291 17.2283 220.427 20.2555 201.071 24.684C191.609 26.8469 184.301 29.3619 177.672 32.006C170.05 35.04 163.214 38.1719 155.641 41.2104C147.074 44.6497 137.593 47.9755 126.282 50.985C115.744 53.754 104.278 56.3345 91.9856 58.7035C67.9398 63.393 41.7115 67.4757 13.7639 70.8794C10.8133 71.2403 7.80362 71.59 4.79396 71.9331C4.50873 71.9643 4.79396 72.0601 5.03985 72.0289Z" fill="#F7FAFB"/>
<path opacity="0.35" d="M4.51849 71.1804C30.4058 67.5425 55.3019 63.5546 79.0715 59.2384C91.6118 56.9646 103.621 54.5444 115.05 51.9877C126.769 49.3306 137.537 46.4665 147.251 43.4226C156.437 40.5602 164.788 37.5708 173.256 34.5992C180.662 32.0019 188.078 29.3355 197.274 27.0388C215.352 22.528 239.478 19.4651 263.457 16.841C288.341 14.1278 314.169 11.9069 339.043 9.18482C341.817 8.87964 344.571 8.57001 347.305 8.24924C347.59 8.21583 347.305 8.12004 347.059 8.15345C322.854 10.9847 297.311 13.1766 272.575 15.7517C248.242 18.28 223.771 21.1469 204.11 25.3125C194.579 27.3373 186.957 29.7141 179.718 32.1667C171.358 34.998 163.489 37.9049 155.031 40.7228C145.494 43.9531 134.89 47.0151 123.311 49.8826C112.471 52.4949 100.953 54.9585 88.8185 57.2603C64.8002 61.8714 39.0705 66.0347 12.5836 69.884C9.82308 70.285 7.05277 70.683 4.27261 71.078C4.00705 71.1159 4.27261 71.2116 4.51849 71.1738V71.1804Z" fill="#F7FAFB"/>
<path opacity="0.35" d="M3.99533 70.3321C27.8857 66.1665 52.1892 62.1301 75.6567 57.8376C88.1478 55.5543 100.422 53.2042 112.166 50.725C124.305 48.1547 135.773 45.4265 146.512 42.5542C156.426 39.9123 165.769 37.1635 175.133 34.4213C183.001 32.1069 190.811 29.71 199.908 27.625C218.478 23.3748 242.408 20.4789 266.052 17.9239C290.306 15.3065 315.436 13.0656 339.041 10.1653C341.71 9.83707 344.333 9.49997 346.91 9.15395C346.959 9.14584 346.993 9.13389 347.006 9.1204C347.018 9.10691 347.008 9.09284 346.978 9.08092C346.947 9.069 346.898 9.06008 346.84 9.05587C346.782 9.05167 346.719 9.05249 346.664 9.05816C323.845 12.0921 299.148 14.3308 275.15 16.8324C251.151 19.334 227.074 22.0227 207.049 25.9499C197.351 27.85 189.345 30.1065 181.477 32.3831C172.507 34.9715 163.773 37.6023 154.616 40.1573C144.016 43.1556 132.691 46.0187 120.693 48.7335C109.55 51.2217 97.7767 53.5629 85.7479 55.8306C61.7001 60.3659 36.5705 64.5827 11.6572 68.873C9.03438 69.3185 6.41159 69.7729 3.78879 70.2363C3.53307 70.2786 3.78879 70.3744 4.03468 70.3321H3.99533Z" fill="#F7FAFB"/>
<path opacity="0.35" d="M3.52582 69.4851C25.3901 64.8429 49.1723 60.6773 72.4726 56.4159C97.494 51.8383 122.014 47.1515 144.724 41.9857C155.12 39.6022 165.251 37.1608 175.273 34.7015C183.771 32.6188 191.993 30.4536 201.101 28.4977C220.123 24.3923 244.122 21.6346 267.658 19.1152C291.627 16.549 316.363 14.2658 339.044 11.1494C341.608 10.7974 344.139 10.4343 346.637 10.0601C346.892 10.02 346.637 9.92199 346.381 9.96209C324.487 13.2656 299.997 15.5934 276.205 18.0838C252.413 20.5743 228.178 23.1827 207.838 26.9941C198.367 28.7762 190.203 30.8723 181.883 32.915C172.195 35.2896 162.536 37.6687 152.602 39.992C141.114 42.6829 129.273 45.2981 116.968 47.7997C105.402 50.1498 93.4418 52.3996 81.3934 54.6227C57.6112 59.0111 33.1995 63.2546 10.391 67.8946C7.9518 68.3906 5.53227 68.8926 3.13241 69.4005C2.90619 69.4495 3.25042 69.5297 3.48647 69.4807L3.52582 69.4851Z" fill="#F7FAFB"/>
<path opacity="0.35" d="M2.99511 68.6253C22.6169 63.5799 45.7795 59.2695 68.8142 55.0616C93.4029 50.5686 118.277 46.1513 142.246 41.4957C153.262 39.3528 164.153 37.1779 174.919 34.9711C183.899 33.1334 192.692 31.2489 201.711 29.42C221.186 25.4728 245.273 22.8487 268.76 20.3627C292.542 17.8433 317.062 15.5044 338.926 12.1697C341.457 11.7821 343.942 11.3804 346.381 10.9646C346.627 10.9222 346.381 10.8242 346.126 10.8688C325.216 14.4463 300.883 16.8676 277.277 19.3469C253.672 21.8262 229.497 24.3033 208.832 27.9387C199.439 29.5915 190.971 31.5206 182.188 33.3339C171.834 35.4664 161.396 37.5744 150.872 39.658C127.021 44.3693 102.353 48.8422 77.6366 53.3152C54.0314 57.581 30.3279 61.8914 9.49638 66.8522C7.16209 67.4061 4.86714 67.9704 2.61154 68.5451C2.40499 68.5986 2.74924 68.6788 2.95579 68.6253H2.99511Z" fill="#F7FAFB"/>
<path opacity="0.35" d="M2.51189 67.7654C19.7633 62.4037 42.1095 57.9374 64.7902 53.7896C89.0543 49.3523 114.351 45.2068 139.432 41.0145C160.529 37.4927 181.813 34.0132 202.192 30.2798C222.571 26.5464 246.452 24.0426 270.057 21.5922C293.888 19.104 318.388 16.6916 339.427 13.0851C341.721 12.6916 343.957 12.2832 346.134 11.86C346.37 11.8132 346.026 11.7352 345.79 11.782C325.794 15.6624 301.402 18.1974 277.679 20.67C253.779 23.1627 229.121 25.5573 207.847 29.1348C203.441 29.8766 199.241 30.6785 194.923 31.447C190.163 32.3024 185.36 33.1407 180.515 33.962C169.282 35.8888 157.952 37.7845 146.612 39.6779C121.777 43.8279 96.7555 47.9333 72.5012 52.257C49.3878 56.3781 26.5498 60.7552 8.00992 65.9589C5.97726 66.5321 4.01016 67.115 2.10863 67.7075C1.92176 67.7654 2.34467 67.8211 2.53155 67.7654H2.51189Z" fill="#F7FAFB"/>
<path opacity="0.35" d="M1.99226 66.917C16.893 61.3125 38.1573 56.6836 60.4347 52.5871C84.2071 48.2143 109.77 44.345 135.578 40.625C158.199 37.3705 181.5 34.3454 203.502 30.8905C213.673 29.2894 224.328 27.852 235.388 26.589C247.329 25.2302 259.574 24.0095 271.78 22.7687C295.178 20.3875 319.197 17.9349 339.005 14.1703C341.366 13.7248 343.657 13.2525 345.89 12.7669C345.937 12.7566 345.964 12.7424 345.965 12.7276C345.966 12.7128 345.941 12.6985 345.895 12.6878C345.849 12.6772 345.787 12.6711 345.721 12.6709C345.656 12.6707 345.593 12.6764 345.546 12.6867C326.858 16.8122 302.811 19.4496 279.324 21.8777C255.443 24.3414 230.746 26.5712 208.921 29.9014C199.302 31.3694 189.742 32.8396 179.906 34.2341C167.72 35.9604 155.455 37.6578 143.318 39.3887C117.451 43.0709 91.8198 46.8889 67.6933 51.1436C45.1602 55.1198 23.4336 59.5571 7.15589 64.91C5.18879 65.5471 3.33645 66.1968 1.59884 66.8591C1.5785 66.8718 1.57838 66.8857 1.59851 66.8984C1.61865 66.9112 1.65778 66.9219 1.70912 66.9287C1.76047 66.9356 1.82081 66.9382 1.8797 66.9361C1.93859 66.9339 1.99232 66.9272 2.03161 66.917H1.99226Z" fill="#F7FAFB"/>
<path opacity="0.35" d="M1.46115 66.0681C14.1096 60.2764 34.0264 55.4893 55.8809 51.424C79.2402 47.078 105.157 43.4515 131.614 40.1569C145.03 38.484 158.652 36.9047 172.284 35.3298C183.103 34.0823 193.922 32.8527 204.475 31.4761C209.482 30.8212 214.399 30.1395 219.514 29.5114C225.159 28.8297 230.923 28.1949 236.746 27.5867C248.814 26.3259 261.098 25.1765 273.275 23.9714C296.555 21.6681 320.357 19.142 339.113 15.1613C341.343 14.6846 343.487 14.1879 345.546 13.6711C345.762 13.6176 345.408 13.5374 345.202 13.5909C327.852 17.9547 304.227 20.7013 280.907 23.0826C257.085 25.5129 232.29 27.5667 209.816 30.6229C187.342 33.6791 163.225 36.1763 140.043 38.9897C113.3 42.2353 87.0594 45.7771 63.0411 49.9895C40.8425 53.881 20.1781 58.432 5.91662 63.9564C4.18558 64.6291 2.54633 65.3137 0.99888 66.0102C0.861183 66.0748 1.28413 66.1305 1.42183 66.0681H1.46115Z" fill="#F7FAFB"/>
<path opacity="0.35" d="M0.958671 65.2057C11.6105 59.2291 30.2684 54.2215 52.0048 50.1406C74.8428 45.8503 100.917 42.4933 127.62 39.6086C141.999 38.0493 156.664 36.6437 171.378 35.2626C182.659 34.2023 194.088 33.1754 205.173 32.0014C210.248 31.4624 215.176 30.8631 220.241 30.3218C226.201 29.6848 232.25 29.0944 238.328 28.522C250.593 27.3681 262.996 26.2944 275.221 25.1271C298.325 22.9285 321.802 20.3334 339.27 16.1478C341.361 15.6443 343.355 15.1201 345.25 14.5751C345.447 14.5194 345.102 14.4392 344.906 14.4971C328.834 19.1216 305.485 22.0018 282.106 24.3341C258.186 26.7154 233.499 28.6601 210.14 31.3332C199.547 32.545 188.502 33.5429 177.515 34.5698C163.628 35.8685 149.76 37.1739 136.108 38.5795C108.775 41.4129 82.0129 44.6808 58.2208 48.8597C36.268 52.709 16.7249 57.4203 4.49942 63.1162C3.05361 63.7845 1.72583 64.4706 0.486557 65.1633C0.368531 65.2302 0.840645 65.2591 0.958671 65.1945V65.2057Z" fill="#F7FAFB"/>
<path opacity="0.35" d="M0.436348 64.3614C4.80021 61.3136 11.1914 58.4343 19.3893 55.8231C27.4262 53.2951 36.8264 51.0045 47.3713 49.0045C57.8576 47.0154 69.1008 45.2405 80.9693 43.7006C92.6449 42.1875 104.701 40.8301 117.075 39.6353C128.809 38.4881 140.759 37.4612 152.808 36.5033C163.44 35.6568 174.151 34.8661 184.852 34.0708C193.33 33.4426 201.847 32.8189 210.158 32.0816C216.06 31.5559 221.863 30.9678 227.784 30.4599C235.731 29.7671 243.747 29.1234 251.753 28.4551C267.755 27.1431 283.807 25.8087 298.963 24.0556C313.362 22.3939 327.053 20.3178 337.803 17.5556C340.376 16.8941 342.764 16.197 344.954 15.4683C345.141 15.4104 344.708 15.3547 344.531 15.4126C335.108 18.5468 322.017 20.9727 307.569 22.8706C292.708 24.8286 276.607 26.2698 260.487 27.6064C244.878 28.9095 229.151 30.1369 213.827 31.616C205.959 32.3689 197.854 32.9748 189.779 33.5807C179.413 34.3582 169.007 35.1155 158.679 35.9175C146.877 36.8375 135.074 37.8131 123.478 38.8957C111.203 40.0323 99.2035 41.3157 87.5296 42.7405C75.6912 44.1841 64.3863 45.8416 53.725 47.6969C42.9133 49.5724 33.1006 51.726 24.4841 54.1145C15.885 56.5242 8.8686 59.2027 3.65254 62.067C2.31491 62.8088 1.10514 63.5639 0.0133988 64.3257C-0.0849561 64.3948 0.387158 64.4238 0.485513 64.3569L0.436348 64.3614Z" fill="#F7FAFB"/>
</g>
<g opacity="0.35">
<path opacity="0.35" d="M871.629 68.289C854.407 67.5515 836.781 67.7247 819.827 68.798C802.615 69.8793 786.345 71.7836 771.863 74.412C757.558 76.987 745.35 80.2588 735.927 84.0426C731.207 85.9243 727.393 87.9471 724.57 90.0661C721.801 92.3109 719.899 94.6205 718.891 96.9615C716.449 101.993 716.619 107.078 715.484 112.133C714.439 116.931 712.451 121.825 704.898 126.269C698.277 130.099 688.661 133.537 676.652 136.368C664.278 139.257 650.278 141.646 635.128 143.456C619.396 145.353 602.951 146.829 586.051 147.862C569.039 148.917 551.741 149.638 534.305 150.021C530.25 150.114 526.184 150.187 522.118 150.246C521.755 150.246 521.755 150.398 522.118 150.392C539.072 150.156 555.942 149.616 572.603 148.774C589.636 147.928 606.327 146.678 622.464 145.039C637.924 143.488 652.517 141.417 665.862 138.878C678.608 136.447 689.497 133.43 697.981 129.978C702.285 128.199 705.802 126.301 708.465 124.32C711.252 122.119 713.177 119.851 714.211 117.551C716.722 112.531 716.608 107.455 717.619 102.409C718.641 97.5846 720.447 92.582 728.068 88.109C735.412 83.9052 746.158 80.154 759.585 77.1063C773.061 74.0092 788.724 71.6087 805.721 70.0355C822.523 68.4623 840.388 67.7825 858.239 68.0374C862.674 68.1058 867.092 68.2377 871.47 68.4323C871.834 68.4469 871.982 68.3065 871.629 68.289Z" fill="#F7FAFB"/>
<path opacity="0.35" d="M871.859 69.2312C855.328 68.7772 838.613 69.1295 822.589 70.2697C806.12 71.4256 790.518 73.2837 776.431 75.7667C762.496 78.1978 750.306 81.2337 740.404 84.7391C735.288 86.5385 730.968 88.4794 727.524 90.5257C724.059 92.7088 721.493 94.9798 719.869 97.301C716.224 102.207 715.326 107.213 713.43 112.177C711.453 117.276 708.319 122.331 698.823 126.904C691.365 130.418 681.405 133.539 669.464 136.104C657.005 138.77 643.22 140.994 628.474 142.719C613.185 144.529 597.301 145.985 581.01 147.069C564.811 148.165 548.364 149.001 531.763 149.57C527.731 149.714 523.699 149.84 519.655 149.954C519.292 149.954 519.292 150.112 519.655 150.1C535.9 149.651 552.035 148.967 567.983 148.052C584.447 147.117 600.596 145.846 616.276 144.249C631.246 142.741 645.486 140.791 658.708 138.436C671.31 136.195 682.367 133.426 691.418 130.245C695.97 128.615 699.852 126.868 703.003 125.032C706.999 122.61 709.803 120.07 711.351 117.469C714.543 112.531 715.292 107.523 717.45 102.549C719.551 97.7077 722.947 92.8017 732.022 88.4691C740.32 84.5543 751.423 81.0799 764.744 78.2299C778.129 75.3445 793.328 73.069 809.686 71.5013C825.68 69.9396 842.659 69.156 859.763 69.1902C863.806 69.1902 867.827 69.2721 871.847 69.3892C872.211 69.3892 872.199 69.2517 871.847 69.2429L871.859 69.2312Z" fill="#F7FAFB"/>
<path opacity="0.35" d="M872.153 70.1728C839.216 69.7457 806.142 72.6887 779.145 77.4485C765.31 79.8625 753.044 82.8245 742.8 86.2249C737.61 87.9434 733.115 89.7941 729.386 91.7482C725.521 93.8784 722.507 96.1045 720.391 98.3919C715.848 103.102 713.963 107.941 711.135 112.727C709.873 115.148 708.025 117.547 705.603 119.909C703.012 122.237 699.267 124.47 694.461 126.552C678.379 133.541 651.631 138.38 623.544 141.765C593.605 145.378 561.235 147.569 528.82 149.12C524.936 149.315 521.044 149.491 517.144 149.649C516.781 149.667 516.94 149.807 517.292 149.792C549.764 148.394 582.156 146.419 612.629 143.163C640.83 140.15 668.282 135.908 687.136 129.592C697.634 126.044 704.894 121.932 708.375 117.563C712.304 112.803 714.053 107.941 717.177 103.146C720.312 98.4329 724.9 93.7346 734.554 89.6009C743.357 85.8859 754.548 82.5838 767.651 79.8357C793.558 74.3416 826.586 70.6731 860.307 70.2928C864.248 70.2489 868.201 70.2548 872.142 70.2928C872.505 70.2928 872.505 70.1524 872.142 70.1465L872.153 70.1728Z" fill="#F7FAFB"/>
<path opacity="0.35" d="M872.461 71.1182C840.137 71.2615 808.301 74.4532 781.861 79.1252C768.112 81.5311 755.763 84.4291 745.186 87.7319C740.002 89.345 735.398 91.0762 731.432 92.9042C727.207 94.9343 723.757 97.0653 721.131 99.2671C715.622 103.752 712.647 108.406 708.955 113.002C707.326 115.241 705.203 117.455 702.595 119.631C699.632 121.901 695.556 124.064 690.465 126.067C673.667 132.758 647.056 137.371 619.547 140.736C589.858 144.363 558.056 146.733 526.13 148.693C522.344 148.923 518.558 149.149 514.772 149.372C514.42 149.395 514.568 149.535 514.931 149.515C546.54 147.672 578.069 145.501 607.962 142.236C636.016 139.173 663.615 135.046 683.196 128.896C693.796 125.557 701.446 121.664 705.616 117.487C710.159 112.985 712.817 108.374 716.974 103.845C721.131 99.3168 726.855 94.8116 736.941 90.8827C746.186 87.3318 757.485 84.1659 770.446 81.4948C796.149 76.1412 828.109 72.3176 861.172 71.4342C864.958 71.3347 868.743 71.2762 872.529 71.2586C872.893 71.2586 872.893 71.1094 872.529 71.1123L872.461 71.1182Z" fill="#F7FAFB"/>
<path opacity="0.35" d="M872.755 72.0599C841.442 72.8001 811.117 76.1556 785.301 80.6725C771.606 83.0488 759.131 85.861 748.172 89.0423C737.063 92.2817 728.224 95.9938 722.049 100.013C715.519 104.269 711.419 108.734 706.841 113.145C704.822 115.256 702.388 117.338 699.55 119.385C696.198 121.578 691.79 123.654 686.432 125.564C668.895 131.968 642.33 136.368 615.298 139.711C585.882 143.348 554.603 145.896 523.301 148.251L512.284 149.073C512.218 149.079 512.164 149.092 512.133 149.108C512.101 149.124 512.094 149.143 512.112 149.16C512.13 149.178 512.173 149.193 512.232 149.203C512.291 149.212 512.362 149.216 512.431 149.213C543.358 146.923 574.32 144.533 603.861 141.212C631.381 138.123 658.696 134.156 678.822 128.293C689.702 125.141 697.869 121.431 702.787 117.408C707.921 113.157 711.566 108.795 716.632 104.536C721.856 100.147 728.671 95.8908 739.188 92.1579C749.017 88.7236 760.631 85.6534 773.704 83.0334C799.078 77.8787 829.641 73.9936 861.636 72.5748C865.327 72.411 869.052 72.2822 872.789 72.1945C873.153 72.1945 873.153 72.0394 872.789 72.0482L872.755 72.0599Z" fill="#F7FAFB"/>
<path opacity="0.35" d="M872.982 73.0108C842.316 74.3741 813.059 77.9197 787.549 82.422C774.132 84.7666 761.74 87.4787 750.591 90.5109C739.063 93.6665 729.541 97.2712 722.378 101.192C715.166 105.147 710.01 109.319 704.626 113.455C701.957 115.503 699.436 117.607 695.892 119.567C692.106 121.589 687.442 123.494 681.99 125.245C663.636 131.277 637.354 135.423 610.914 138.723C581.792 142.356 551.127 145.074 520.642 147.818C517.042 148.143 513.442 148.464 509.853 148.792C509.512 148.821 509.659 148.965 510 148.933C540.2 146.197 570.639 143.585 599.874 140.209C626.962 137.079 654.016 133.258 674.642 127.656C679.404 126.364 683.739 124.973 687.601 123.496C690.256 122.501 692.694 121.47 694.904 120.406C696.836 119.416 698.52 118.395 699.947 117.349C705.728 113.321 710.385 109.19 716.416 105.182C722.833 100.911 730.897 96.8241 742.096 93.2463C752.44 89.9837 764.26 87.0511 777.304 84.5108C802.53 79.5375 831.924 75.5998 862.93 73.6866C866.307 73.4798 869.715 73.3004 873.152 73.1483C873.504 73.1307 873.357 72.9903 872.993 73.0079L872.982 73.0108Z" fill="#F7FAFB"/>
<path opacity="0.35" d="M873.289 73.9506C843.623 75.9575 815.467 79.6319 790.242 84.0845C776.917 86.4188 764.451 89.0628 753 91.9832C741.168 95.0131 731.031 98.4523 722.879 102.202C714.929 105.876 708.705 109.773 702.435 113.658C699.391 115.562 696.552 117.531 692.781 119.348C688.698 121.242 683.844 123.019 678.3 124.649C659.264 130.418 633.051 134.382 606.962 137.679C577.977 141.342 547.686 144.25 517.827 147.392C514.34 147.76 510.853 148.129 507.366 148.506C507.037 148.541 507.184 148.682 507.525 148.647C536.93 145.472 566.892 142.635 595.866 139.197C622.602 136.023 649.497 132.328 670.679 126.969C675.456 125.76 679.864 124.458 683.865 123.075C686.546 122.148 689.203 121.212 691.52 120.22C693.616 119.284 695.471 118.313 697.074 117.315C703.491 113.512 709.136 109.65 716.053 105.906C723.549 101.857 732.544 98.0068 744.05 94.6308C754.837 91.5055 766.836 88.6726 779.861 86.1762C805.075 81.2789 833.617 77.2623 863.772 74.8049C866.952 74.5474 870.166 74.3075 873.392 74.0881C873.457 74.0816 873.511 74.0691 873.543 74.053C873.574 74.0368 873.582 74.0182 873.563 74.0008C873.545 73.9833 873.502 73.9683 873.443 73.9585C873.384 73.9487 873.313 73.9448 873.244 73.9477L873.289 73.9506Z" fill="#F7FAFB"/>
<path opacity="0.35" d="M873.586 74.8949C845.067 77.5483 817.934 81.3309 792.947 85.7367C766.12 90.476 741.485 96.0929 723.471 103.126C714.624 106.581 707.286 110.264 700.108 113.95C696.701 115.682 693.634 117.481 689.727 119.134C685.288 120.926 680.159 122.598 674.417 124.125C654.655 129.589 628.577 133.358 602.863 136.64C574.185 140.3 544.485 143.368 515.522 146.879C511.964 147.31 508.42 147.747 504.892 148.19C504.562 148.231 504.892 148.359 505.175 148.318C533.922 144.697 563.622 141.61 592.528 138.079C618.753 134.876 645.285 131.321 666.864 126.243C671.869 125.063 676.552 123.797 680.88 122.451C683.515 121.632 686.138 120.807 688.467 119.927C690.641 119.068 692.603 118.175 694.339 117.253C701.403 113.695 708.047 110.082 715.816 106.622C724.329 102.75 734.626 99.1566 746.482 95.9203C757.683 92.9488 769.841 90.2271 782.827 87.7845C807.932 82.9785 835.299 79.0103 864.273 75.9744C867.419 75.6467 870.599 75.3337 873.791 75.0382C874.132 75.0061 873.984 74.8656 873.632 74.8978L873.586 74.8949Z" fill="#F7FAFB"/>
<path opacity="0.35" d="M873.801 75.846C846.306 79.1824 819.907 83.088 794.865 87.5245C768.254 92.2432 743.301 97.6115 723.538 104.241C714.233 107.437 705.641 110.766 697.802 114.214C694.076 115.814 690.635 117.496 686.444 119.023C681.7 120.681 676.377 122.225 670.543 123.634C650.008 128.806 623.977 132.392 598.478 135.672C570.005 139.335 540.781 142.608 512.694 146.473C509.264 146.945 505.856 147.426 502.472 147.918C502.405 147.928 502.357 147.944 502.336 147.963C502.316 147.982 502.326 148.002 502.364 148.019C502.401 148.036 502.464 148.048 502.537 148.054C502.611 148.059 502.689 148.056 502.756 148.047C530.65 144.004 559.953 140.674 588.711 137.076C614.64 133.832 640.956 130.397 663.138 125.567C668.224 124.442 673.041 123.238 677.562 121.963C680.473 121.182 683.226 120.363 685.808 119.509C687.972 118.733 689.97 117.927 691.794 117.095C699.437 113.804 707.001 110.498 715.474 107.345C725.158 103.702 736.247 100.322 748.571 97.2546C760.217 94.418 772.599 91.7887 785.631 89.3851C810.753 84.7192 837.347 80.6034 865.135 77.0805C868.099 76.7031 871.064 76.3345 874.051 75.9718C874.38 75.9308 874.051 75.805 873.767 75.846H873.801Z" fill="#F7FAFB"/>
<path opacity="0.35" d="M874.13 76.7877C848.007 80.7781 822.066 84.8269 797.067 89.259C770.513 93.969 745.072 99.112 723.537 105.326C713.564 108.24 704.2 111.289 695.484 114.459C691.418 115.922 687.681 117.466 683.32 118.862C678.259 120.4 672.712 121.827 666.737 123.13C645.646 127.951 619.966 131.342 594.968 134.592C566.483 138.293 537.509 141.774 510.126 146.001C506.726 146.528 503.36 147.066 500.029 147.616C499.711 147.666 500.029 147.792 500.313 147.742C527.412 143.278 556.454 139.685 585.212 135.999C610.71 132.734 636.753 129.434 659.298 124.9C664.505 123.832 669.497 122.696 674.256 121.498C677.284 120.775 680.165 120.012 682.888 119.213C685.16 118.531 687.034 117.785 689.021 117.054C697.471 113.947 706.058 110.869 715.496 107.944C726.107 104.626 737.716 101.53 750.217 98.6819C762.227 95.9911 774.763 93.4602 787.777 91.0991C812.957 86.471 839.318 82.2905 865.861 78.2095L874.391 76.9018C874.448 76.8912 874.487 76.8755 874.502 76.8577C874.516 76.84 874.505 76.8216 874.469 76.8059C874.434 76.7903 874.377 76.7785 874.31 76.773C874.243 76.7675 874.171 76.7686 874.107 76.776L874.13 76.7877Z" fill="#F7FAFB"/>
<path opacity="0.35" d="M874.426 77.7295C849.575 82.4102 823.543 86.6785 798.17 91.1866C771.196 95.9698 744.88 100.99 721.403 106.899C710.806 109.567 700.755 112.382 691.192 115.301C686.762 116.656 682.685 118.124 677.721 119.359C672.362 120.674 666.732 121.913 660.855 123.071C639.014 127.436 613.778 130.607 589.302 133.817C561.35 137.473 533.263 141.13 507.208 145.633C503.998 146.188 500.817 146.759 497.668 147.344C497.372 147.397 497.668 147.525 497.951 147.47C523.586 142.716 551.594 138.922 579.727 135.238C604.793 131.953 630.507 128.802 653.62 124.639C658.495 123.766 663.195 122.829 667.704 121.834C670.975 121.108 674.337 120.403 677.483 119.64C680.156 118.97 682.649 118.255 684.945 117.498C693.827 114.69 703.117 111.96 712.84 109.354C735.816 103.21 761.678 97.9591 788.732 93.0677C814.491 88.4133 840.977 84.0573 866.703 79.3707C869.413 78.8733 872.113 78.3721 874.801 77.867C875.096 77.8114 874.801 77.6827 874.517 77.7382L874.426 77.7295Z" fill="#F7FAFB"/>
<path opacity="0.35" d="M874.675 78.6864C851.073 84.0927 824.564 88.633 798.578 93.2143C771.444 97.9974 744.413 102.81 719.267 108.275C708.17 110.685 697.414 113.201 687.192 115.855C682.297 117.124 677.754 118.487 672.302 119.596C666.624 120.749 660.945 121.872 654.948 122.914C632.675 126.825 608.04 129.794 584.121 132.96C556.408 136.622 528.911 140.472 503.935 145.294C500.96 145.867 498.029 146.452 495.145 147.049C494.861 147.107 495.258 147.21 495.542 147.151C520.188 142.04 547.788 137.986 575.75 134.229C600.181 130.953 625.35 127.951 648.644 124.148C653.664 123.329 658.571 122.466 663.296 121.539C669.577 120.304 675.789 119.122 681.252 117.639C690.679 115.07 700.663 112.637 710.964 110.302C735.826 104.67 762.71 99.7176 789.991 94.8994C816.182 90.2742 842.862 85.7544 867.292 80.5119C869.927 79.9463 872.528 79.37 875.095 78.783C875.367 78.7215 874.97 78.6191 874.697 78.6806L874.675 78.6864Z" fill="#F7FAFB"/>
<path opacity="0.35" d="M874.936 79.6284C853.356 85.5876 826.938 90.3503 800.827 94.9023C773.068 99.7381 744.765 104.357 717.575 109.404C706.058 111.542 694.7 113.742 683.899 116.112C678.447 117.308 673.348 118.569 667.408 119.605C661.729 120.591 656.05 121.574 650.291 122.487C627.451 126.07 602.941 128.905 579.237 132.079C551.979 135.724 525.345 139.741 501.596 144.782C498.567 145.425 495.584 146.085 492.646 146.762C492.373 146.824 492.782 146.926 493.055 146.865C516.52 141.458 543.347 137.164 571.037 133.355C595.184 130.034 620.205 127.132 643.942 123.622C648.974 122.879 653.937 122.103 658.707 121.281C665.215 120.155 671.803 119.087 677.618 117.724C687.827 115.378 698.486 113.165 709.556 111.095C736.36 105.981 764.425 101.344 792.161 96.5786C818.533 92.047 845.122 87.3809 867.94 81.6733C870.438 81.0453 872.888 80.4027 875.288 79.7454C875.538 79.6752 875.129 79.5728 874.879 79.6401L874.936 79.6284Z" fill="#F7FAFB"/>
<path opacity="0.35" d="M875.277 80.5733C855.787 86.98 829.846 91.9826 803.802 96.4732C775.931 101.28 746.821 105.595 718.176 110.085C705.683 112.037 693.303 114.005 681.434 116.182C675.88 117.2 670.656 118.312 664.806 119.216C658.776 120.149 652.711 121.068 646.543 121.934C623.305 125.195 598.954 127.899 575.523 131.064C548.265 134.744 522.028 138.98 499.131 144.305C496.103 145.011 493.142 145.732 490.25 146.469C489.988 146.534 490.397 146.639 490.647 146.572C513.238 140.82 539.69 136.239 567.494 132.334C591.345 128.993 616.15 126.19 640.183 122.972C645.271 122.29 650.314 121.582 655.243 120.831C662.261 119.818 669.039 118.698 675.539 117.478C686.409 115.34 698.028 113.456 709.613 111.604C738.098 107.063 767.208 102.78 795.307 98.0822C821.6 93.694 847.768 88.8874 868.689 82.82C871.089 82.1238 873.403 81.409 875.629 80.6757C875.856 80.6025 875.458 80.4972 875.231 80.5733H875.277Z" fill="#F7FAFB"/>
<path opacity="0.35" d="M875.527 81.5296C858.025 88.3782 832.492 93.6528 806.245 98.1317C778.168 102.915 748.218 106.908 718.29 110.863C705.138 112.595 691.895 114.301 679.152 116.229C673.178 117.133 667.51 118.154 661.366 118.979C655.221 119.804 648.872 120.629 642.637 121.413C619.024 124.353 594.764 126.927 571.571 130.09C544.381 133.799 518.622 138.249 496.61 143.839C493.582 144.604 490.655 145.384 487.831 146.18C487.581 146.25 487.979 146.352 488.228 146.282C509.808 140.22 535.817 135.35 563.689 131.362C587.188 127.992 611.914 125.292 636.242 122.36C648.736 120.851 661.286 119.292 672.939 117.387C684.592 115.483 697.131 113.833 709.488 112.197C739.586 108.213 769.832 104.275 798.453 99.6178C824.735 95.3349 850.415 90.3821 869.507 83.987C871.779 83.2206 873.971 82.4307 876.038 81.6262C876.231 81.5472 875.743 81.474 875.538 81.5501L875.527 81.5296Z" fill="#F7FAFB"/>
<path opacity="0.35" d="M875.833 82.4745C860.398 89.6506 835.786 95.1885 809.447 99.6411C781.053 104.442 750.092 108.14 718.926 111.568C704.843 113.116 690.6 114.587 676.789 116.287C670.611 117.048 664.693 117.937 658.458 118.665C651.946 119.422 645.4 120.159 638.82 120.877C614.969 123.484 590.879 125.918 567.993 129.068C540.542 132.833 515.055 137.552 493.839 143.427C490.931 144.228 488.16 145.053 485.377 145.896C485.15 145.966 485.548 146.071 485.786 145.998C506.537 139.609 532.046 134.445 560.1 130.35C583.406 126.947 608.166 124.344 632.789 121.69C645.624 120.312 658.344 118.888 670.679 117.235C683.388 115.532 696.801 114.151 709.92 112.715C741.369 109.283 772.739 105.694 801.849 101.063C828.108 96.8765 853.141 91.7511 870.37 85.0635C872.468 84.2463 874.436 83.4106 876.276 82.5564C876.305 82.5399 876.309 82.5212 876.288 82.504C876.266 82.4867 876.221 82.4721 876.16 82.463C876.099 82.4539 876.028 82.451 875.959 82.4547C875.89 82.4584 875.829 82.4686 875.788 82.4832L875.833 82.4745Z" fill="#F7FAFB"/>
<path opacity="0.35" d="M876.14 83.4166C862.624 90.9029 839.034 96.7275 812.536 101.186C783.654 106.033 751.477 109.412 719.085 112.35C704.252 113.692 689.248 114.912 674.551 116.354C667.986 116.998 661.649 117.773 655.095 118.426C648.36 119.099 641.58 119.742 634.799 120.383C610.63 122.668 586.484 124.985 563.757 128.132C536.101 131.965 511.023 136.959 490.67 143.14C488.012 143.945 485.445 144.77 482.946 145.606C482.731 145.682 483.219 145.755 483.435 145.679C503.449 139.023 528.386 133.455 556.806 129.297C579.885 125.88 604.656 123.384 629.586 121.029C635.136 120.507 640.679 119.978 646.214 119.444C653.892 118.704 661.388 117.885 668.929 117.08C682.627 115.617 696.812 114.485 710.817 113.242C743.311 110.357 775.658 107.145 805.154 102.546C831.538 98.4301 855.889 93.097 871.358 86.1285C873.266 85.2685 875.015 84.3879 876.639 83.4956C876.787 83.4108 876.299 83.3376 876.151 83.4225L876.14 83.4166Z" fill="#F7FAFB"/>
<path opacity="0.35" d="M876.414 84.3789C870.427 88.3238 861.719 91.9572 850.711 95.1037C840.025 98.1183 827.798 100.745 814.366 102.912C800.945 105.089 786.802 106.957 772.104 108.494C758.236 109.956 744.016 111.22 729.649 112.335C716.974 113.318 704.174 114.195 691.373 115.07C681.583 115.743 671.713 116.386 662.139 117.252C649.997 118.352 637.697 119.3 625.442 120.312C610.404 121.5 595.618 122.891 581.147 124.478C564.654 126.305 548.951 128.573 534.296 131.245C517.743 134.296 502.873 137.912 490.092 141.993C486.707 143.074 483.474 144.18 480.392 145.313C480.177 145.392 480.676 145.466 480.881 145.387C493.256 140.829 508.073 136.745 524.892 133.258C539.448 130.287 555.273 127.755 572.06 125.71C586.931 123.915 602.24 122.371 617.889 121.088C630.814 119.996 643.898 119.04 656.766 117.893C666.273 117.051 675.802 116.296 685.524 115.623C697.95 114.745 710.398 113.929 722.755 113.008C736.963 111.949 751.047 110.775 764.835 109.395C779.373 107.969 793.448 106.249 806.927 104.249C820.471 102.253 833.013 99.8374 844.271 97.055C855.697 94.2028 865.156 90.871 872.245 87.202C873.983 86.2922 875.55 85.3619 876.981 84.4169C877.106 84.3292 876.561 84.2911 876.436 84.3789H876.414Z" fill="#F7FAFB"/>
</g>
<g style="mix-blend-mode:screen" opacity="0.33">
<path style="mix-blend-mode:screen" opacity="0.33" d="M829.417 122.606C833.818 121.201 837.397 119.706 837.5 118.155C837.603 116.605 833.766 115.005 825.519 114.026C812.646 112.5 793.721 112.888 777.668 113.544C761.615 114.2 744.392 115.041 728.842 114.179C705.085 112.86 698.182 108.363 677.687 106.181C660.783 104.381 636.216 104.515 618.368 106.113C600.52 107.71 589.124 110.555 584.836 113.531C580.549 116.507 582.785 119.6 587.452 122.559C596.273 128.092 614.87 133.493 646.053 136.95C677.236 140.406 722.318 141.519 756.599 138.751L829.417 122.606Z" fill="url(#paint4_linear)"/>
</g>
<defs>
<radialGradient id="paint0_radial" cx="0" cy="0" r="1" gradientUnits="userSpaceOnUse" gradientTransform="translate(-6.03891 -2.51782) scale(1219.25 204.368)">
<stop stop-color="#FF0257"/>
<stop offset="1" stop-color="#29139C"/>
</radialGradient>
<linearGradient id="paint1_linear" x1="-4.41769" y1="68.5944" x2="480.305" y2="68.5944" gradientUnits="userSpaceOnUse">
<stop stop-color="#FFD700"/>
<stop offset="1" stop-color="#FD0063"/>
</linearGradient>
<linearGradient id="paint2_linear" x1="189432" y1="24291.9" x2="334119" y2="24291.9" gradientUnits="userSpaceOnUse">
<stop stop-color="#FFD700"/>
<stop offset="1" stop-color="#FD0063"/>
</linearGradient>
<linearGradient id="paint3_linear" x1="321.187" y1="102.089" x2="837.459" y2="102.089" gradientUnits="userSpaceOnUse">
<stop stop-color="#00C1FF"/>
<stop offset="1" stop-color="#AA2CFF"/>
</linearGradient>
<linearGradient id="paint4_linear" x1="265020" y1="17297.4" x2="328391" y2="17297.4" gradientUnits="userSpaceOnUse">
<stop stop-color="#00C1FF"/>
<stop offset="1" stop-color="#AA2CFF"/>
</linearGradient>
</defs>
</svg>
