<svg width="133" height="29" viewBox="0 0 133 29" fill="none" xmlns="http://www.w3.org/2000/svg">
<g filter="url(#filter0_d)">
<path d="M24.6178 26.6611H19.0978L18.4578 23.3011L17.7778 20.9011L12.7378 20.7811L8.29781 20.9011L7.61781 23.0211L6.93781 26.6611H1.57781L10.2978 0.901131H16.7378L24.6178 26.6611ZM16.6178 16.7011L13.5778 5.98113H13.2178L9.69781 16.7011L13.1378 16.7811L16.6178 16.7011ZM37.1531 26.6611H31.1131L24.7131 6.46113H29.7931L30.3931 9.38113L34.0731 22.0611H34.3931L38.6731 9.66113L39.2331 6.46113H44.1931L37.1531 26.6611ZM52.2991 20.1811L52.4991 26.6611H47.4591L47.6591 20.6611L47.4591 6.46113H52.5791L52.2991 20.1811ZM68.5109 15.9811C70.9376 19.2345 73.5776 22.4345 76.4309 25.5811L76.3109 26.1811C74.4976 26.6345 72.8443 26.9145 71.3509 27.0211L70.7109 26.7411C68.0709 23.2478 65.6843 19.8745 63.5509 16.6211L63.4709 20.1811L63.6709 26.6611H58.6309L58.8309 20.6611L58.6309 6.46113H63.7509L63.5509 15.5811L69.0709 8.50113L70.3109 6.46113L75.8309 6.42113L68.5109 15.9811ZM96.6522 26.6611H91.5722L91.0122 23.7411L90.6522 22.5811L86.5722 22.5411L82.9722 22.6211L82.6922 23.4611L82.0922 26.6611H77.1722L84.2522 6.46113H90.2122L96.6522 26.6611ZM89.5722 18.7811L87.2922 11.0611H86.9722L84.2922 18.7811L86.8922 18.8211L89.5722 18.7811ZM107.744 6.18113C109.664 6.18113 111.504 6.51447 113.264 7.18113L112.504 11.6611L111.784 11.8611C110.931 11.2211 110.104 10.7411 109.304 10.4211C108.504 10.1011 107.771 9.94113 107.104 9.94113C106.357 9.94113 105.771 10.1278 105.344 10.5011C104.917 10.8478 104.704 11.2745 104.704 11.7811C104.704 12.3411 104.971 12.8078 105.504 13.1811C106.037 13.5278 106.877 13.9411 108.024 14.4211C109.224 14.9278 110.197 15.3945 110.944 15.8211C111.717 16.2478 112.371 16.8478 112.904 17.6211C113.464 18.3678 113.744 19.3145 113.744 20.4611C113.744 21.6078 113.437 22.6878 112.824 23.7011C112.237 24.6878 111.331 25.4878 110.104 26.1011C108.904 26.7145 107.411 27.0211 105.624 27.0211C104.664 27.0211 103.611 26.9145 102.464 26.7011C101.344 26.5145 100.251 26.2078 99.1841 25.7811L99.8641 21.0611L100.384 20.7011C101.264 21.5011 102.251 22.1411 103.344 22.6211C104.437 23.1011 105.411 23.3411 106.264 23.3411C107.011 23.3411 107.611 23.1545 108.064 22.7811C108.544 22.4078 108.784 21.9411 108.784 21.3811C108.784 20.7945 108.504 20.3278 107.944 19.9811C107.411 19.6078 106.571 19.1945 105.424 18.7411C104.224 18.2345 103.237 17.7678 102.464 17.3411C101.717 16.8878 101.064 16.2745 100.504 15.5011C99.9707 14.7278 99.7041 13.7678 99.7041 12.6211C99.7041 11.4211 100.024 10.3278 100.664 9.34113C101.331 8.35447 102.264 7.58113 103.464 7.02113C104.691 6.46113 106.117 6.18113 107.744 6.18113ZM131.889 6.86113L131.609 10.7011L127.529 10.4211H126.369L126.249 20.1811L126.409 26.6611H121.409L121.609 20.6611L121.529 10.4211H120.369L116.209 10.7011L115.889 10.3011L116.169 6.46113H131.609L131.889 6.86113Z" fill="url(#paint0_linear)"/>
</g>
<defs>
<filter id="filter0_d" x="0.866512" y="0.901123" width="131.734" height="27.5427" filterUnits="userSpaceOnUse" color-interpolation-filters="sRGB">
<feFlood flood-opacity="0" result="BackgroundImageFix"/>
<feColorMatrix in="SourceAlpha" type="matrix" values="0 0 0 0 0 0 0 0 0 0 0 0 0 0 0 0 0 0 127 0"/>
<feOffset dy="0.711368"/>
<feGaussianBlur stdDeviation="0.355684"/>
<feColorMatrix type="matrix" values="0 0 0 0 0 0 0 0 0 0 0 0 0 0 0 0 0 0 0.25 0"/>
<feBlend mode="normal" in2="BackgroundImageFix" result="effect1_dropShadow"/>
<feBlend mode="normal" in="SourceGraphic" in2="effect1_dropShadow" result="shape"/>
</filter>
<linearGradient id="paint0_linear" x1="5.40043" y1="7.74908" x2="138.86" y2="25.87" gradientUnits="userSpaceOnUse">
<stop stop-color="#882BFF"/>
<stop offset="1" stop-color="#FF007A" stop-opacity="0.76"/>
</linearGradient>
</defs>
</svg>
