<svg width="45" height="52" viewBox="0 0 45 52" fill="none" xmlns="http://www.w3.org/2000/svg">
<g filter="url(#filter0_d)">
<path d="M21.7635 39.0978C13.4693 38.9219 14.0639 47.5374 7.64565 47.5374C-3.2957 47.5374 -0.157962 25.7178 12.8903 12.2224C26.1753 -1.51781 38.4822 -2.74859 42.1641 3.95035C46.6462 12.105 34.8224 14.7704 34.8224 26.6142C34.8224 36.6362 42.2343 40.3285 42.2343 44.9C42.2343 47.4272 39.3359 50.0619 36.7636 49.9989C29.1754 49.9989 32.3519 39.0978 21.7635 39.0978Z" fill="url(#paint0_linear)"/>
</g>
<g filter="url(#filter1_d)">
<path d="M29.8518 24.4759C30.913 25.0849 30.913 26.6072 29.8518 27.2162L18.2117 33.8955C17.1505 34.5044 15.824 33.7433 15.824 32.5254L15.824 19.1667C15.824 17.9488 17.1505 17.1877 18.2117 17.7966L29.8518 24.4759Z" fill="white"/>
</g>
<defs>
<filter id="filter0_d" x="0.00433671" y="0" width="44.1698" height="51.9913" filterUnits="userSpaceOnUse" color-interpolation-filters="sRGB">
<feFlood flood-opacity="0" result="BackgroundImageFix"/>
<feColorMatrix in="SourceAlpha" type="matrix" values="0 0 0 0 0 0 0 0 0 0 0 0 0 0 0 0 0 0 127 0"/>
<feOffset dy="0.995663"/>
<feGaussianBlur stdDeviation="0.497832"/>
<feColorMatrix type="matrix" values="0 0 0 0 0 0 0 0 0 0 0 0 0 0 0 0 0 0 0.25 0"/>
<feBlend mode="normal" in2="BackgroundImageFix" result="effect1_dropShadow"/>
<feBlend mode="normal" in="SourceGraphic" in2="effect1_dropShadow" result="shape"/>
</filter>
<filter id="filter1_d" x="5.86734" y="7.62564" width="34.737" height="36.4408" filterUnits="userSpaceOnUse" color-interpolation-filters="sRGB">
<feFlood flood-opacity="0" result="BackgroundImageFix"/>
<feColorMatrix in="SourceAlpha" type="matrix" values="0 0 0 0 0 0 0 0 0 0 0 0 0 0 0 0 0 0 127 0"/>
<feOffset/>
<feGaussianBlur stdDeviation="4.97832"/>
<feColorMatrix type="matrix" values="0 0 0 0 0.996078 0 0 0 0 0.439216 0 0 0 0 0.294118 0 0 0 1 0"/>
<feBlend mode="normal" in2="BackgroundImageFix" result="effect1_dropShadow"/>
<feBlend mode="normal" in="SourceGraphic" in2="effect1_dropShadow" result="shape"/>
</filter>
<linearGradient id="paint0_linear" x1="12.335" y1="17.7409" x2="47.057" y2="39.0716" gradientUnits="userSpaceOnUse">
<stop stop-color="#882BFF"/>
<stop offset="1" stop-color="#FF007A"/>
</linearGradient>
</defs>
</svg>
