<svg width="396" height="376" viewBox="0 0 396 376" fill="none" xmlns="http://www.w3.org/2000/svg">
<g opacity="0.8">
<g clip-path="url(#clip0)">
<path d="M380.037 149.045C380.037 214.273 340.275 269.712 284.896 289.918C262.605 298.006 238.757 300.134 215.493 296.111C213.285 295.731 211.093 295.295 208.916 294.802C205.967 294.142 203.053 293.383 200.174 292.525C140.719 274.893 97.1411 217.331 97.1411 149.045C97.1411 66.7294 160.469 0 238.589 0C316.709 0 380.037 66.7294 380.037 149.045Z" fill="#FFC9FE"/>
<path d="M149.995 195.048C149.746 195.188 149.56 195.427 149.478 195.712C149.396 195.996 149.425 196.304 149.557 196.566L202.738 301.525C202.871 301.787 203.098 301.983 203.368 302.07C203.638 302.156 203.93 302.126 204.179 301.986L279.355 259.694C279.604 259.554 279.79 259.315 279.872 259.03C279.955 258.746 279.926 258.438 279.793 258.175L226.613 153.217C226.479 152.955 226.253 152.759 225.983 152.672C225.712 152.585 225.421 152.615 225.171 152.755L149.995 195.048Z" fill="#3F3D56"/>
<path d="M156.983 198.115L205.649 294.161L272.367 256.627L223.702 160.58L156.983 198.115ZM152.755 200.493L152.765 200.488L152.754 200.493L152.755 200.493Z" fill="white"/>
<path d="M173.805 208.674C172.769 209.257 172.548 210.959 173.313 212.468C174.077 213.977 175.542 214.73 176.579 214.147L225.443 186.657C226.48 186.074 226.7 184.372 225.936 182.863C225.171 181.355 223.706 180.601 222.67 181.184L173.805 208.674Z" fill="#FF95FE"/>
<path d="M179.826 220.556C178.789 221.139 178.569 222.841 179.333 224.35C180.097 225.859 181.563 226.613 182.599 226.029L231.463 198.539C232.5 197.956 232.721 196.254 231.956 194.745C231.192 193.237 229.727 192.483 228.69 193.066L179.826 220.556Z" fill="#FF95FE"/>
<path d="M185.846 232.438C184.81 233.021 184.589 234.723 185.354 236.232C186.118 237.741 187.583 238.495 188.62 237.911L237.484 210.422C238.52 209.838 238.741 208.136 237.977 206.628C237.212 205.119 235.747 204.365 234.711 204.948L185.846 232.438Z" fill="#FF95FE"/>
<path d="M191.867 244.32C190.83 244.903 190.61 246.605 191.374 248.114C192.138 249.623 193.604 250.377 194.64 249.794L243.504 222.304C244.541 221.721 244.762 220.018 243.997 218.51C243.233 217.001 241.768 216.247 240.731 216.83L191.867 244.32Z" fill="#FF95FE"/>
<path d="M197.887 256.202C196.851 256.785 196.63 258.487 197.395 259.996C198.159 261.505 199.624 262.259 200.661 261.676L249.525 234.186C250.562 233.603 250.782 231.9 250.018 230.392C249.253 228.883 247.788 228.129 246.752 228.712L197.887 256.202Z" fill="#FF95FE"/>
<path d="M207.376 149.702L251.653 152.55L264.053 113.585L225.217 104.939L207.376 149.702Z" fill="#2F2E41"/>
<path d="M239.309 139.849C249.089 139.849 257.017 131.494 257.017 121.189C257.017 110.884 249.089 102.53 239.309 102.53C229.529 102.53 221.6 110.884 221.6 121.189C221.6 131.494 229.529 139.849 239.309 139.849Z" fill="#FFB8B8"/>
<path d="M268.079 158.67L239.372 163.62L231.804 131.996L251.899 130.071L268.079 158.67Z" fill="#FFB8B8"/>
<path d="M284.781 288.466L284.896 289.918C262.605 298.006 238.757 300.134 215.493 296.111L215.342 298.69C215.257 300.072 214.865 301.414 214.197 302.607C213.529 303.8 212.604 304.81 211.496 305.557C210.389 306.303 209.131 306.764 207.823 306.904C206.515 307.043 205.195 306.855 203.968 306.357L208.916 294.802L215.174 280.178L219.277 270.592L217.8 237.428L217.643 233.996L217.45 229.618L220.123 229.601L239.121 229.48L257.228 229.359L259.989 229.343C277.302 251.782 291.588 270.02 284.781 288.466Z" fill="#2F2E41"/>
<path d="M259.728 229.068L217.45 234.018L215.884 203.219C210.923 189.885 214.198 177.983 224.495 167.303L226.589 158.572C227.138 156.28 228.273 154.191 229.871 152.531C231.469 150.872 233.468 149.706 235.65 149.16C242.571 144.978 250.41 142.985 259.206 143.271C262.719 144.716 265.697 147.313 267.701 150.679C269.705 154.045 270.629 158.001 270.336 161.963C268.517 186.167 265.251 208.825 259.728 229.068Z" fill="#C82FC6"/>
<path d="M247.723 177.37L247.384 180.07L241.982 223.018L239.122 229.48L238.187 231.592L216.406 280.766L215.493 296.111L215.342 298.69C215.269 299.974 214.93 301.226 214.35 302.357C213.769 303.488 212.961 304.472 211.981 305.239C211.002 306.007 209.875 306.539 208.679 306.799C207.484 307.058 206.249 307.039 205.061 306.743C203.874 306.446 202.762 305.879 201.804 305.082C200.846 304.285 200.066 303.277 199.517 302.128C198.968 300.979 198.665 299.718 198.627 298.432C198.59 297.147 198.821 295.868 199.302 294.686L200.174 292.525L204.923 280.766L217.8 237.428L218.859 233.853L220.123 229.601L223.714 217.518L229.434 180.361L229.977 176.82L247.723 177.37Z" fill="#FFB8B8"/>
<path d="M250.855 181.219C242.652 178.113 234.783 177.783 227.367 181.219L229.788 159.113C229.699 156.352 230.642 153.665 232.413 151.629C234.185 149.593 236.644 148.372 239.262 148.226C240.577 148.154 241.893 148.355 243.134 148.819C244.375 149.283 245.517 150.001 246.495 150.931C247.472 151.861 248.266 152.985 248.83 154.239C249.394 155.493 249.717 156.852 249.782 158.238L250.855 181.219Z" fill="#A52CA3"/>
<path d="M225.912 99.1431C225.912 99.1431 216.756 102.664 216.521 115.465C216.508 117.619 216.781 119.764 217.331 121.839C217.925 124.191 218.401 129.296 214.409 136.1C211.8 140.517 209.441 145.092 207.345 149.803L217.655 150.851L219.36 132.842C220.187 124.11 222.229 115.555 225.421 107.451L225.487 107.281C225.487 107.281 230.217 115.944 239.207 115.677L235.906 112.389C235.906 112.389 247.165 116.857 253.288 117.754C253.986 117.857 254.645 118.158 255.193 118.626C255.742 119.094 256.158 119.711 256.399 120.41C256.639 121.109 256.694 121.863 256.557 122.593C256.42 123.322 256.097 123.998 255.623 124.548C255.587 124.59 255.55 124.631 255.513 124.673C251.769 128.847 244.316 138.548 249.01 145.857C253.704 153.167 249.906 155.311 249.906 155.311L256.86 151.041L260.017 148.916L260.089 151.623L276.73 149.097C276.73 149.097 281.206 148.287 271.267 137.071C271.267 137.071 268.604 132.68 269.614 128.794C270.45 125.839 270.607 122.717 270.072 119.686C267.575 107.066 258.435 82.0993 225.912 99.1431Z" fill="#2F2E41"/>
<path d="M238.589 374.625C273.757 374.625 302.267 372.901 302.267 370.775C302.267 368.649 273.757 366.925 238.589 366.925C203.421 366.925 174.911 368.649 174.911 370.775C174.911 372.901 203.421 374.625 238.589 374.625Z" fill="#FFC9FE"/>
<path d="M0.387696 177.388C0.25401 177.425 0.139977 177.517 0.0706137 177.643C0.00125075 177.77 -0.017771 177.92 0.0177229 178.061L14.2617 234.394C14.2975 234.534 14.3848 234.655 14.5046 234.728C14.6243 234.801 14.7667 234.821 14.9005 234.783L55.2487 223.456C55.3824 223.418 55.4964 223.326 55.5658 223.2C55.6352 223.074 55.6542 222.924 55.6187 222.783L41.3747 166.45C41.3389 166.309 41.2516 166.189 41.1318 166.116C41.0121 166.043 40.8697 166.023 40.7359 166.06L0.387696 177.388Z" fill="#F2F2F2"/>
<path d="M10.3022 186.691C9.74587 186.847 9.46015 187.633 9.66489 188.443C9.86963 189.253 10.4887 189.785 11.045 189.629L37.2713 182.266C37.8277 182.11 38.1134 181.323 37.9086 180.514C37.7039 179.704 37.0848 179.172 36.5285 179.328L10.3022 186.691Z" fill="white"/>
<path d="M11.9147 193.068C11.3584 193.225 11.0727 194.011 11.2774 194.82C11.4822 195.63 12.1012 196.162 12.6575 196.006L38.8839 188.643C39.4402 188.487 39.726 187.701 39.5212 186.891C39.3165 186.081 38.6974 185.549 38.1411 185.705L11.9147 193.068Z" fill="white"/>
<path d="M13.5273 199.446C12.971 199.602 12.6852 200.388 12.89 201.198C13.0947 202.007 13.7138 202.54 14.2701 202.383L40.4964 195.02C41.0527 194.864 41.3385 194.078 41.1337 193.268C40.929 192.459 40.3099 191.927 39.7536 192.083L13.5273 199.446Z" fill="white"/>
<path d="M15.1398 205.823C14.5835 205.979 14.2978 206.765 14.5025 207.575C14.7073 208.385 15.3263 208.917 15.8826 208.761L42.109 201.398C42.6653 201.242 42.951 200.455 42.7463 199.646C42.5415 198.836 41.9225 198.304 41.3662 198.46L15.1398 205.823Z" fill="white"/>
<path d="M16.7524 212.2C16.1961 212.356 15.9103 213.143 16.1151 213.952C16.3198 214.762 16.9389 215.294 17.4952 215.138L43.7215 207.775C44.2779 207.619 44.5636 206.833 44.3588 206.023C44.1541 205.213 43.535 204.681 42.9787 204.837L16.7524 212.2Z" fill="white"/>
<path d="M18.3649 218.578C17.8086 218.734 17.5229 219.52 17.7276 220.33C17.9324 221.139 18.5514 221.671 19.1077 221.515L45.3341 214.152C45.8904 213.996 46.1761 213.21 45.9714 212.4C45.7666 211.591 45.1476 211.058 44.5913 211.215L18.3649 218.578Z" fill="white"/>
<path d="M103.5 375.873C103.5 375.943 103.734 376 104.022 376H159.349C159.637 376 159.871 375.943 159.871 375.873V365.678C159.871 365.608 159.637 365.55 159.349 365.55H104.022C103.734 365.55 103.5 365.608 103.5 365.678V375.873Z" fill="#F2F2F2"/>
<path d="M114.584 374.088C114.584 374.229 115.232 374.343 116.027 374.343C116.822 374.343 117.47 374.229 117.47 374.088V367.462C117.47 367.321 116.822 367.207 116.027 367.207C115.232 367.207 114.584 367.321 114.584 367.462V374.088Z" fill="white"/>
<path d="M120.848 374.088C120.848 374.229 121.495 374.343 122.291 374.343C123.086 374.343 123.733 374.229 123.733 374.088V367.462C123.733 367.321 123.086 367.207 122.291 367.207C121.495 367.207 120.848 367.321 120.848 367.462V374.088Z" fill="white"/>
<path d="M127.111 374.088C127.111 374.229 127.759 374.343 128.554 374.343C129.349 374.343 129.997 374.229 129.997 374.088V367.462C129.997 367.321 129.349 367.207 128.554 367.207C127.759 367.207 127.111 367.321 127.111 367.462V374.088Z" fill="white"/>
<path d="M133.375 374.088C133.375 374.229 134.022 374.343 134.817 374.343C135.613 374.343 136.26 374.229 136.26 374.088V367.462C136.26 367.321 135.613 367.207 134.817 367.207C134.022 367.207 133.375 367.321 133.375 367.462V374.088Z" fill="white"/>
<path d="M139.638 374.088C139.638 374.229 140.285 374.343 141.081 374.343C141.876 374.343 142.523 374.229 142.523 374.088V367.462C142.523 367.321 141.876 367.207 141.081 367.207C140.285 367.207 139.638 367.321 139.638 367.462V374.088Z" fill="white"/>
<path d="M145.901 374.088C145.901 374.229 146.549 374.343 147.344 374.343C148.139 374.343 148.787 374.229 148.787 374.088V367.462C148.787 367.321 148.139 367.207 147.344 367.207C146.549 367.207 145.901 367.321 145.901 367.462V374.088Z" fill="white"/>
<path d="M1.86749 136.735C1.74548 136.804 1.65436 136.921 1.61412 137.061C1.57389 137.2 1.58783 137.351 1.65288 137.48L27.7103 188.907C27.7756 189.036 27.8866 189.132 28.0191 189.174C28.1515 189.216 28.2944 189.202 28.4166 189.133L65.2513 168.411C65.3733 168.342 65.4644 168.225 65.5046 168.086C65.5449 167.946 65.5309 167.795 65.4659 167.667L39.4085 116.239C39.3432 116.111 39.2321 116.015 39.0997 115.972C38.9673 115.93 38.8243 115.944 38.7022 116.013L1.86749 136.735Z" fill="#E6E6E6"/>
<path d="M5.29147 138.238L29.1367 185.299L61.8274 166.908L37.9823 119.847L5.29147 138.238ZM3.21999 139.403L3.22458 139.401L3.21948 139.404L3.21999 139.403Z" fill="white"/>
<path d="M13.5341 143.412C13.0262 143.698 12.9181 144.532 13.2927 145.271C13.6672 146.01 14.3851 146.38 14.893 146.094L38.8355 132.624C39.3434 132.339 39.4515 131.505 39.077 130.765C38.7024 130.026 37.9845 129.657 37.4767 129.943L13.5341 143.412Z" fill="#FF95FE"/>
<path d="M16.4841 149.234C15.9762 149.52 15.8681 150.354 16.2426 151.093C16.6172 151.832 17.3351 152.202 17.8429 151.916L41.7855 138.446C42.2933 138.161 42.4014 137.327 42.0269 136.587C41.6523 135.848 40.9345 135.479 40.4266 135.765L16.4841 149.234Z" fill="#FF95FE"/>
<path d="M19.434 155.056C18.9262 155.342 18.818 156.176 19.1926 156.915C19.5671 157.654 20.285 158.024 20.7929 157.738L44.7354 144.268C45.2433 143.983 45.3514 143.149 44.9769 142.409C44.6023 141.67 43.8844 141.301 43.3766 141.586L19.434 155.056Z" fill="#FF95FE"/>
<path d="M22.3837 160.878C21.8759 161.164 21.7677 161.998 22.1423 162.737C22.5168 163.476 23.2347 163.845 23.7426 163.56L47.6851 150.09C48.193 149.805 48.3011 148.971 47.9266 148.231C47.552 147.492 46.8341 147.123 46.3263 147.408L22.3837 160.878Z" fill="#FF95FE"/>
<path d="M25.3337 166.7C24.8258 166.986 24.7177 167.82 25.0922 168.559C25.4668 169.298 26.1847 169.668 26.6925 169.382L50.6351 155.912C51.1429 155.627 51.2511 154.793 50.8765 154.053C50.502 153.314 49.7841 152.945 49.2762 153.23L25.3337 166.7Z" fill="#FF95FE"/>
<path d="M28.2834 172.522C27.7755 172.808 27.6674 173.642 28.0419 174.381C28.4165 175.12 29.1344 175.489 29.6422 175.204L53.5848 161.734C54.0927 161.449 54.2008 160.615 53.8262 159.875C53.4517 159.136 52.7338 158.767 52.2259 159.052L28.2834 172.522Z" fill="#FF95FE"/>
<path d="M359.795 268.158C359.676 268.084 359.534 268.063 359.4 268.099C359.266 268.135 359.151 268.226 359.081 268.352L330.933 318.541C330.863 318.667 330.843 318.817 330.877 318.958C330.912 319.099 330.998 319.22 331.117 319.295L367.065 341.679C367.184 341.753 367.327 341.774 367.461 341.738C367.595 341.702 367.71 341.611 367.78 341.485L395.927 291.296C395.998 291.17 396.018 291.02 395.983 290.879C395.949 290.738 395.863 290.617 395.744 290.542L359.795 268.158Z" fill="#E6E6E6"/>
<path d="M360.357 272.021L334.6 317.949L366.504 337.816L392.261 291.887L360.357 272.021ZM358.336 270.762L358.34 270.765L358.335 270.762L358.336 270.762Z" fill="white"/>
<path d="M360.447 282.13C359.952 281.821 359.219 282.158 358.815 282.879C358.41 283.601 358.484 284.439 358.98 284.748L382.346 299.297C382.842 299.606 383.574 299.27 383.979 298.548C384.383 297.827 384.309 296.989 383.814 296.68L360.447 282.13Z" fill="#FF95FE"/>
<path d="M357.261 287.812C356.765 287.503 356.033 287.84 355.628 288.561C355.223 289.283 355.297 290.121 355.793 290.429L379.159 304.979C379.655 305.288 380.387 304.952 380.792 304.23C381.196 303.509 381.123 302.671 380.627 302.362L357.261 287.812Z" fill="#FF95FE"/>
<path d="M354.074 293.494C353.579 293.185 352.846 293.522 352.442 294.243C352.037 294.964 352.111 295.803 352.607 296.111L375.973 310.661C376.469 310.97 377.201 310.634 377.606 309.912C378.01 309.191 377.936 308.352 377.441 308.044L354.074 293.494Z" fill="#FF95FE"/>
<path d="M350.888 299.176C350.392 298.867 349.66 299.203 349.255 299.925C348.851 300.646 348.924 301.485 349.42 301.793L372.786 316.343C373.282 316.652 374.014 316.315 374.419 315.594C374.824 314.872 374.75 314.034 374.254 313.726L350.888 299.176Z" fill="#FF95FE"/>
<path d="M347.701 304.858C347.206 304.549 346.473 304.885 346.069 305.607C345.664 306.328 345.738 307.166 346.234 307.475L369.6 322.025C370.095 322.333 370.828 321.997 371.232 321.276C371.637 320.554 371.563 319.716 371.068 319.407L347.701 304.858Z" fill="#FF95FE"/>
<path d="M344.515 310.54C344.019 310.231 343.287 310.567 342.882 311.289C342.478 312.01 342.551 312.848 343.047 313.157L366.413 327.707C366.909 328.015 367.641 327.679 368.046 326.958C368.451 326.236 368.377 325.398 367.881 325.089L344.515 310.54Z" fill="#FF95FE"/>
</g>
</g>
<defs>
<clipPath id="clip0">
<rect width="396" height="376" fill="white"/>
</clipPath>
</defs>
</svg>
