<svg width="25" height="25" viewBox="0 0 25 25" fill="none" xmlns="http://www.w3.org/2000/svg">
<path d="M24.5793 16.7673C24.2991 16.487 23.9583 16.3467 23.5579 16.3467H16.5865L14.5432 18.3899C13.9623 18.9507 13.2812 19.2312 12.5 19.2312C11.7189 19.2312 11.0377 18.951 10.4568 18.3899L8.42851 16.3467H1.44229C1.04172 16.3467 0.701201 16.4871 0.420668 16.7673C0.140188 17.0477 0 17.3883 0 17.7891V22.5967C0 22.9973 0.140188 23.3379 0.420668 23.6183C0.701148 23.8987 1.04167 24.0387 1.44229 24.0387H23.5579C23.9584 24.0387 24.2992 23.8987 24.5793 23.6183C24.8599 23.3379 25 22.9973 25 22.5967V17.7891C25 17.3883 24.8599 17.0477 24.5793 16.7673ZM18.9456 21.8304C18.755 22.0208 18.5296 22.1159 18.2692 22.1159C18.0087 22.1159 17.7836 22.0208 17.5931 21.8304C17.4029 21.6401 17.3078 21.4148 17.3078 21.1545C17.3078 20.8942 17.4029 20.6685 17.5931 20.4785C17.7836 20.288 18.0087 20.1927 18.2692 20.1927C18.5296 20.1927 18.755 20.288 18.9456 20.4785C19.1357 20.6685 19.2308 20.8941 19.2308 21.1545C19.2308 21.4148 19.1357 21.6401 18.9456 21.8304ZM22.7915 21.8304C22.6013 22.0208 22.3759 22.1159 22.1154 22.1159C21.855 22.1159 21.6297 22.0208 21.4393 21.8304C21.2492 21.6401 21.1541 21.4148 21.1541 21.1545C21.1541 20.8942 21.2492 20.6685 21.4393 20.4785C21.6297 20.288 21.8549 20.1927 22.1154 20.1927C22.3758 20.1927 22.6012 20.288 22.7915 20.4785C22.9818 20.6685 23.0771 20.8941 23.0771 21.1545C23.0771 21.4148 22.982 21.6401 22.7915 21.8304Z" fill="#C82FC6"/>
<path d="M11.8242 17.0225C12.0046 17.2126 12.2299 17.3077 12.5003 17.3077C12.7708 17.3077 12.9959 17.2126 13.1763 17.0225L19.9072 10.2915C20.2176 10.0011 20.2878 9.65049 20.1175 9.23982C19.9475 8.84931 19.6519 8.65402 19.2311 8.65381H15.3848V1.92301C15.3848 1.66263 15.2895 1.43724 15.0996 1.24696C14.9091 1.05662 14.6838 0.961426 14.4235 0.961426H10.577C10.3167 0.961426 10.0913 1.05662 9.90096 1.24696C9.71073 1.43724 9.61553 1.66258 9.61553 1.92301V8.65386H5.76937C5.3485 8.65386 5.05318 8.84936 4.88289 9.23987C4.71271 9.65039 4.78275 10.0012 5.09333 10.2916L11.8242 17.0225Z" fill="#C82FC6"/>
</svg>
