<svg width="400" height="300" viewBox="0 0 400 300" fill="none" xmlns="http://www.w3.org/2000/svg">
<g opacity="0.8">
<path d="M275.871 0.179199H0.117676V202.509H275.871V0.179199Z" fill="#E6E6E6"/>
<path d="M267.986 25.5562H8.00293V190.539H267.986V25.5562Z" fill="white"/>
<path d="M275.754 0H0V13.4215H275.754V0Z" fill="#C82FC6"/>
<path d="M8.70571 9.34939C9.90488 9.34939 10.877 8.23567 10.877 6.86183C10.877 5.48799 9.90488 4.37427 8.70571 4.37427C7.50654 4.37427 6.53442 5.48799 6.53442 6.86183C6.53442 8.23567 7.50654 9.34939 8.70571 9.34939Z" fill="white"/>
<path d="M16.9474 9.34939C18.1466 9.34939 19.1187 8.23567 19.1187 6.86183C19.1187 5.48799 18.1466 4.37427 16.9474 4.37427C15.7482 4.37427 14.7761 5.48799 14.7761 6.86183C14.7761 8.23567 15.7482 9.34939 16.9474 9.34939Z" fill="white"/>
<path d="M25.1889 9.34939C26.388 9.34939 27.3602 8.23567 27.3602 6.86183C27.3602 5.48799 26.388 4.37427 25.1889 4.37427C23.9897 4.37427 23.0176 5.48799 23.0176 6.86183C23.0176 8.23567 23.9897 9.34939 25.1889 9.34939Z" fill="white"/>
<path d="M177.254 50.886H30.1223V145.703H177.254V50.886Z" fill="#C82FC6"/>
<path d="M253.813 50.886H197.784V86.9935H253.813V50.886Z" fill="#E6E6E6"/>
<path d="M253.813 98.4167H197.784V134.524H253.813V98.4167Z" fill="#E6E6E6"/>
<path d="M253.813 145.948H197.784V182.055H253.813V145.948Z" fill="#E6E6E6"/>
<path d="M131.489 161.628H30.1223V169.468H131.489V161.628Z" fill="#E6E6E6"/>
<path d="M122.935 98.2945L90.8567 77.0764V119.512L122.935 98.2945L90.8567 77.0764V119.512L122.935 98.2945Z" fill="white"/>
<path d="M329.424 279.236L330.742 286.784L324.153 288.294L325.142 278.858L329.424 279.236Z" fill="#FFB8B8"/>
<path d="M356.395 277.862L354.903 286.41L348.765 286.58L350.724 276.153L356.395 277.862Z" fill="#FFB8B8"/>
<path d="M366.179 190.048L367.89 203.279C367.89 203.279 366.179 232.679 365.752 234.149C365.324 235.619 364.041 242.969 364.041 242.969L356.77 278.25C356.77 278.25 350.475 279.23 349.192 275.31L349.499 254.239L349.071 230.229L343.938 202.789L334.957 240.029C334.957 240.029 334.529 252.279 333.246 256.69C331.963 261.1 330.252 280.21 330.252 280.21C330.252 280.21 324.813 281.68 324.385 280.21C323.957 278.74 321.698 243.949 321.698 238.559C321.698 233.169 319.183 181.487 319.183 181.487L366.179 190.048Z" fill="#C82FC6"/>
<path d="M350.736 285.923C351.441 286.089 352.168 286.089 352.873 285.923C353.674 285.617 352.873 283.781 352.873 283.781H355.811C355.811 283.781 359.017 292.043 360.352 292.655C361.688 293.267 365.962 300 360.887 300C357.755 299.954 354.699 298.893 352.072 296.94C352.072 296.94 351.537 294.186 349.133 293.879C346.729 293.573 345.126 290.207 345.126 290.207L347.736 284.688C347.81 284.533 347.919 284.402 348.053 284.312C348.186 284.221 348.338 284.173 348.492 284.173C348.647 284.172 348.799 284.22 348.933 284.31C349.066 284.4 349.176 284.529 349.251 284.685C349.614 285.419 350.118 286.064 350.736 285.923Z" fill="#2F2E41"/>
<path d="M328.379 284.975C328.379 284.975 327.784 286.34 327.188 285.657C326.69 284.933 326.288 284.128 325.996 283.268C325.996 283.268 324.209 282.244 323.911 283.268C323.613 284.292 322.421 289.753 321.826 290.435C321.23 291.118 314.974 298.285 321.23 299.65C327.486 301.015 328.677 297.944 328.677 297.944C328.677 297.944 327.784 296.237 329.571 295.555C331.358 294.872 331.656 292.483 331.656 292.483L330.759 284.769C330.739 284.605 330.677 284.451 330.581 284.327C330.485 284.203 330.358 284.115 330.218 284.073C330.078 284.032 329.93 284.039 329.793 284.094C329.657 284.149 329.538 284.25 329.451 284.383C329.106 284.899 328.721 285.236 328.379 284.975Z" fill="#2F2E41"/>
<path d="M376.017 155.748L377.3 181.228C377.3 181.228 383.288 197.399 375.161 196.909C367.035 196.418 372.167 180.738 372.167 180.738L364.211 157.997L376.017 155.748Z" fill="#FFB8B8"/>
<path d="M310.15 148.398L308.866 173.878C308.866 173.878 302.878 190.048 311.005 189.558C319.131 189.068 313.999 173.388 313.999 173.388L321.955 150.647L310.15 148.398Z" fill="#FFB8B8"/>
<path d="M344.366 93.0268C350.508 93.0268 355.487 87.3228 355.487 80.2866C355.487 73.2504 350.508 67.5464 344.366 67.5464C338.225 67.5464 333.246 73.2504 333.246 80.2866C333.246 87.3228 338.225 93.0268 344.366 93.0268Z" fill="#FFB8B8"/>
<path d="M353.134 85.4316C353.134 85.4316 350.14 99.1519 356.128 102.582C362.116 106.012 337.309 110.912 335.598 102.582L336.454 98.6619C336.454 98.6619 339.875 93.7618 339.02 89.3517L353.134 85.4316Z" fill="#FFB8B8"/>
<path d="M346.505 102.827C346.505 102.827 339.125 103.617 336.827 98.0767C336.827 98.0767 319.559 99.3969 315.71 117.527C320.177 117.674 325.719 175.914 318.397 181.718C312.454 186.43 328.653 193.688 351.21 193.968L368.318 192.988C365.128 189.84 357.495 148.865 362.33 149.378C362.33 149.378 375.161 126.347 373.878 122.917C372.595 119.487 370.54 105.963 354.032 100.475C354.032 100.475 353.776 103.317 346.505 102.827Z" fill="#E6E6E6"/>
<path d="M368.318 114.587L373.878 122.917C373.878 122.917 379.438 157.708 377.728 158.198C376.017 158.688 365.752 162.608 364.041 161.138C362.33 159.668 354.631 130.757 354.631 130.757L368.318 114.587Z" fill="#E6E6E6"/>
<path d="M322.981 112.137L315.71 117.527C315.71 117.527 305.017 151.828 308.011 153.298C311.005 154.768 327.686 153.788 327.686 153.788L322.981 112.137Z" fill="#E6E6E6"/>
<path d="M356.522 68.885C356.522 68.885 352.67 59.3239 345.287 61.5303C337.905 63.7367 333.732 67.0463 333.411 70.356C333.09 73.6656 333.571 78.6301 333.571 78.6301C333.571 78.6301 334.374 71.8269 339.51 73.2979C344.645 74.7688 352.67 73.6656 352.67 73.6656L353.954 86.9042C353.954 86.9042 355.398 84.5139 357.003 85.9848C358.608 87.4558 361.657 71.8269 356.522 68.885Z" fill="#2F2E41"/>
<path d="M399.837 299.729H289.6V298.697H400L399.837 299.729Z" fill="#C82FC6"/>
</g>
</svg>
