<svg width="30" height="26" viewBox="0 0 30 26" fill="none" xmlns="http://www.w3.org/2000/svg">
<path d="M29.2652 0.73457C28.7757 0.244983 28.1874 0.000244141 27.4997 0.000244141H2.49998C1.8125 0.000244141 1.22413 0.245038 0.734271 0.73457C0.244684 1.22443 0 1.8128 0 2.50028V23.5001C0 24.1876 0.244684 24.7761 0.734271 25.2659C1.22413 25.7554 1.8125 26 2.49998 26H27.5001C28.1874 26 28.7759 25.7554 29.2655 25.2659C29.755 24.7761 30 24.1876 30 23.5001V2.50028C30 1.8128 29.755 1.22443 29.2652 0.73457ZM5.99993 23.0002C5.99993 23.271 5.90121 23.5055 5.70326 23.7033C5.50537 23.9013 5.27103 24.0004 5.00002 24.0004H3.00019C2.7294 24.0004 2.49484 23.9013 2.29694 23.7033C2.09916 23.5056 2 23.2711 2 23.0002V21.0002C2 20.7294 2.09916 20.4949 2.29694 20.2969C2.49484 20.0992 2.7294 20.0001 3.00019 20.0001H4.99985C5.27086 20.0001 5.5052 20.0992 5.70309 20.2969C5.90104 20.4949 5.99993 20.7294 5.99993 21.0002V23.0002ZM5.99993 17.0001C5.99993 17.2709 5.90121 17.5055 5.70326 17.7032C5.50537 17.9009 5.27103 18.0002 5.00002 18.0002H3.00019C2.7294 18.0002 2.49484 17.9009 2.29694 17.7032C2.09916 17.5056 2 17.2709 2 17.0001V14.9999C2 14.7291 2.09916 14.4948 2.29694 14.2968C2.49484 14.099 2.7294 13.9999 3.00019 13.9999H4.99985C5.27086 13.9999 5.5052 14.099 5.70309 14.2968C5.90104 14.4947 5.99993 14.729 5.99993 14.9999V17.0001ZM5.99993 11.0001C5.99993 11.2711 5.90121 11.5055 5.70326 11.7033C5.50537 11.9013 5.27103 12.0003 5.00002 12.0003H3.00019C2.7294 12.0003 2.49484 11.9013 2.29694 11.7033C2.09916 11.5055 2 11.2711 2 11.0001V9.00025C2 8.72925 2.09916 8.49485 2.29694 8.29701C2.49484 8.09907 2.7294 8.00006 3.00019 8.00006H4.99985C5.27086 8.00006 5.5052 8.09907 5.70309 8.29701C5.90104 8.49507 5.99993 8.72947 5.99993 9.00025V11.0001ZM5.99993 5.00037C5.99993 5.27116 5.90121 5.50561 5.70326 5.70361C5.50537 5.90145 5.27103 6.00045 5.00002 6.00045H3.00019C2.7294 6.00045 2.49484 5.90145 2.29694 5.70361C2.09916 5.50545 2 5.27138 2 5.00037V3.00043C2 2.72942 2.09916 2.49514 2.29694 2.29719C2.49484 2.0993 2.7294 2.00035 3.00019 2.00035H4.99985C5.27086 2.00035 5.5052 2.09935 5.70309 2.29719C5.90104 2.49535 5.99993 2.72964 5.99993 3.00043V5.00037ZM21.9999 23.0002C21.9999 23.271 21.901 23.5055 21.7031 23.7033C21.5051 23.9013 21.2706 24.0004 20.9998 24.0004H8.99996C8.72911 24.0004 8.49488 23.9013 8.29688 23.7033C8.09904 23.5056 8.00004 23.2711 8.00004 23.0002V15.0002C8.00004 14.7298 8.09904 14.4952 8.29688 14.2972C8.49488 14.0994 8.72911 14.0003 8.99996 14.0003H20.9998C21.2706 14.0003 21.5051 14.0994 21.7031 14.2972C21.9011 14.4951 22 14.7298 22 15.0002V23.0002H21.9999ZM21.9999 11.0001C21.9999 11.2711 21.901 11.5055 21.7031 11.7033C21.5051 11.9013 21.2706 12.0003 20.9998 12.0003H8.99996C8.72911 12.0003 8.49488 11.9013 8.29688 11.7033C8.09904 11.5055 8.00004 11.2711 8.00004 11.0001V3.00027C8.00004 2.72926 8.09904 2.49497 8.29688 2.29702C8.49488 2.09919 8.72911 2.00019 8.99996 2.00019H20.9998C21.2706 2.00019 21.5051 2.09919 21.7031 2.29702C21.9011 2.49519 22 2.72948 22 3.00027V11.0001H21.9999ZM27.9998 23.0002C27.9998 23.271 27.9009 23.5055 27.7031 23.7033C27.5049 23.9013 27.2705 24.0004 26.9996 24.0004H24.9998C24.729 24.0004 24.4944 23.9013 24.2967 23.7033C24.0986 23.5056 23.9997 23.2711 23.9997 23.0002V21.0002C23.9997 20.7294 24.0986 20.4949 24.2967 20.2969C24.4943 20.0992 24.729 20.0001 24.9998 20.0001H26.9996C27.2704 20.0001 27.5049 20.0992 27.7031 20.2969C27.9009 20.4949 27.9998 20.7294 27.9998 21.0002V23.0002ZM27.9998 17.0001C27.9998 17.2709 27.9009 17.5055 27.7031 17.7032C27.5049 17.9009 27.2705 18.0002 26.9996 18.0002H24.9998C24.729 18.0002 24.4944 17.9009 24.2967 17.7032C24.0986 17.5056 23.9997 17.2709 23.9997 17.0001V14.9999C23.9997 14.7291 24.0986 14.4948 24.2967 14.2968C24.4943 14.099 24.729 13.9999 24.9998 13.9999H26.9996C27.2704 13.9999 27.5049 14.099 27.7031 14.2968C27.9009 14.4947 27.9998 14.729 27.9998 14.9999V17.0001ZM27.9998 11.0001C27.9998 11.2711 27.9009 11.5055 27.7031 11.7033C27.5049 11.9013 27.2705 12.0003 26.9996 12.0003H24.9998C24.729 12.0003 24.4944 11.9013 24.2967 11.7033C24.0986 11.5055 23.9997 11.2711 23.9997 11.0001V9.00025C23.9997 8.72925 24.0986 8.49485 24.2967 8.29701C24.4943 8.09907 24.729 8.00006 24.9998 8.00006H26.9996C27.2704 8.00006 27.5049 8.09907 27.7031 8.29701C27.9009 8.49507 27.9998 8.72947 27.9998 9.00025V11.0001ZM27.9998 5.00037C27.9998 5.27116 27.9009 5.50545 27.7031 5.70361C27.5049 5.90145 27.2705 6.00045 26.9996 6.00045H24.9998C24.729 6.00045 24.4944 5.90167 24.2967 5.70361C24.0986 5.50545 23.9997 5.27138 23.9997 5.00037V3.00043C23.9997 2.72942 24.0986 2.49514 24.2967 2.29719C24.4943 2.0993 24.729 2.00035 24.9998 2.00035H26.9996C27.2704 2.00035 27.5049 2.09935 27.7031 2.29719C27.9009 2.49535 27.9998 2.72964 27.9998 3.00043V5.00037Z" fill="#C82FC6"/>
</svg>
