<svg width="400" height="300" viewBox="0 0 400 300" fill="none" xmlns="http://www.w3.org/2000/svg">
<g opacity="0.7">
<path d="M33.2289 144.772C32.8242 144.772 32.4363 144.926 32.1502 145.199C31.864 145.473 31.7031 145.843 31.7026 146.23V296.986C31.7031 297.373 31.864 297.743 32.1501 298.017C32.4363 298.29 32.8242 298.444 33.2289 298.444H231.099C231.504 298.444 231.891 298.29 232.178 298.017C232.464 297.743 232.624 297.373 232.625 296.986V170.43C232.624 170.043 232.464 169.672 232.178 169.399C231.891 169.126 231.504 168.972 231.099 168.971H117.534C116.382 168.972 115.27 168.562 114.417 167.821L88.8863 145.661C88.2277 145.088 87.369 144.771 86.4785 144.772H33.2289Z" fill="#7E007D"/>
<path d="M124.612 125.29C124.365 125.152 124.071 125.113 123.793 125.182C123.516 125.25 123.278 125.421 123.133 125.657L64.5357 220.911C64.3908 221.147 64.3499 221.428 64.422 221.693C64.494 221.958 64.6731 222.185 64.92 222.324L145.25 267.418C145.497 267.557 145.792 267.596 146.069 267.527C146.347 267.458 146.584 267.287 146.73 267.051L205.327 171.798C205.472 171.562 205.513 171.28 205.441 171.015C205.369 170.751 205.19 170.524 204.943 170.385L124.612 125.29Z" fill="#E6E6E6"/>
<path d="M125.842 129.813C125.595 129.675 125.3 129.636 125.023 129.704C124.746 129.773 124.508 129.944 124.363 130.18L69.2703 219.736C69.1255 219.972 69.0845 220.254 69.1566 220.519C69.2286 220.784 69.4077 221.01 69.6546 221.149L144.021 262.896C144.268 263.034 144.563 263.073 144.84 263.005C145.117 262.936 145.355 262.765 145.5 262.529L200.592 172.973C200.737 172.737 200.778 172.455 200.706 172.19C200.634 171.925 200.455 171.698 200.208 171.559L125.842 129.813Z" fill="white"/>
<path d="M111.791 174.053L166.587 204.813C166.771 204.916 166.974 204.984 167.185 205.012C167.396 205.04 167.61 205.028 167.816 204.977C168.023 204.926 168.216 204.836 168.386 204.714C168.556 204.591 168.699 204.438 168.807 204.263C168.915 204.087 168.985 203.893 169.015 203.692C169.044 203.49 169.032 203.285 168.978 203.088C168.925 202.892 168.831 202.707 168.703 202.544C168.574 202.382 168.414 202.246 168.23 202.142L113.434 171.382C113.251 171.279 113.048 171.211 112.836 171.182C112.625 171.154 112.411 171.166 112.204 171.217C111.998 171.268 111.804 171.357 111.634 171.48C111.464 171.602 111.321 171.756 111.213 171.931C111.105 172.107 111.034 172.301 111.005 172.503C110.975 172.704 110.988 172.91 111.042 173.107C111.095 173.304 111.189 173.489 111.318 173.651C111.447 173.813 111.607 173.95 111.791 174.053V174.053Z" fill="#E6E6E6"/>
<path d="M126.627 148.907L162.981 169.314C163.493 169.602 164.276 169.237 164.729 168.5C165.183 167.762 165.136 166.931 164.623 166.644L128.27 146.236C127.758 145.949 126.975 146.313 126.521 147.051C126.068 147.788 126.115 148.619 126.627 148.907Z" fill="#E6E6E6"/>
<path d="M121.918 156.563L158.271 176.97C158.783 177.258 159.566 176.893 160.02 176.156C160.474 175.418 160.426 174.587 159.914 174.3L123.561 153.892C123.048 153.605 122.265 153.97 121.812 154.707C121.358 155.444 121.405 156.275 121.918 156.563Z" fill="#E6E6E6"/>
<path d="M106.479 182.688L161.275 213.448C161.646 213.656 162.088 213.715 162.504 213.611C162.92 213.508 163.276 213.251 163.493 212.897C163.711 212.543 163.773 212.121 163.665 211.724C163.557 211.326 163.289 210.986 162.918 210.778L108.122 180.017C107.752 179.809 107.31 179.751 106.894 179.854C106.478 179.958 106.122 180.215 105.904 180.568C105.686 180.922 105.625 181.344 105.733 181.742C105.84 182.139 106.109 182.479 106.479 182.688Z" fill="#E6E6E6"/>
<path d="M101.167 191.323L155.963 222.083C156.334 222.291 156.776 222.35 157.192 222.246C157.608 222.143 157.964 221.886 158.181 221.532C158.399 221.178 158.461 220.756 158.353 220.359C158.245 219.961 157.977 219.621 157.606 219.413L102.81 188.652C102.627 188.549 102.424 188.482 102.213 188.454C102.002 188.425 101.787 188.437 101.581 188.488C101.375 188.54 101.182 188.629 101.012 188.752C100.842 188.874 100.699 189.028 100.591 189.203C100.483 189.378 100.412 189.572 100.383 189.774C100.354 189.975 100.366 190.18 100.42 190.377C100.473 190.574 100.567 190.759 100.695 190.921C100.823 191.083 100.984 191.22 101.167 191.323V191.323Z" fill="#E6E6E6"/>
<path d="M95.8548 199.958L150.651 230.718C151.022 230.926 151.463 230.984 151.879 230.881C152.295 230.777 152.65 230.52 152.868 230.167C153.086 229.813 153.147 229.391 153.04 228.994C152.932 228.596 152.664 228.256 152.294 228.048L97.4977 197.287C97.3142 197.184 97.1111 197.117 96.9003 197.089C96.6894 197.06 96.4748 197.072 96.2687 197.123C96.0626 197.175 95.8691 197.264 95.6992 197.387C95.5293 197.509 95.3863 197.662 95.2784 197.838C95.1706 198.013 95.0999 198.207 95.0705 198.409C95.0411 198.61 95.0535 198.815 95.107 199.012C95.1605 199.209 95.2541 199.394 95.3824 199.556C95.5107 199.718 95.6713 199.855 95.8548 199.958V199.958Z" fill="#E6E6E6"/>
<path d="M90.5428 208.593L145.339 239.354C145.522 239.457 145.725 239.524 145.936 239.552C146.147 239.58 146.362 239.569 146.568 239.517C146.774 239.466 146.968 239.377 147.137 239.254C147.307 239.132 147.45 238.978 147.558 238.803C147.666 238.628 147.737 238.434 147.766 238.232C147.796 238.031 147.783 237.826 147.73 237.629C147.676 237.432 147.583 237.247 147.454 237.085C147.326 236.923 147.165 236.786 146.982 236.683L92.1857 205.922C91.815 205.714 91.3729 205.655 90.9567 205.759C90.5405 205.862 90.1843 206.119 89.9664 206.473C89.7486 206.827 89.6869 207.25 89.795 207.647C89.9031 208.045 90.1721 208.385 90.5428 208.593Z" fill="#E6E6E6"/>
<path d="M85.2308 217.228L140.027 247.989C140.398 248.197 140.84 248.256 141.256 248.152C141.672 248.049 142.028 247.792 142.246 247.438C142.464 247.084 142.526 246.662 142.418 246.264C142.31 245.866 142.041 245.526 141.67 245.318L86.8737 214.557C86.6902 214.454 86.4871 214.387 86.2763 214.359C86.0654 214.331 85.8508 214.343 85.6447 214.394C85.4386 214.445 85.2451 214.534 85.0752 214.657C84.9053 214.779 84.7623 214.933 84.6544 215.108C84.5465 215.283 84.4759 215.477 84.4465 215.679C84.417 215.88 84.4295 216.085 84.483 216.282C84.5365 216.479 84.6301 216.664 84.7584 216.826C84.8867 216.989 85.0472 217.125 85.2308 217.228Z" fill="#E6E6E6"/>
<path d="M174.342 187.322C179.058 187.322 182.881 183.67 182.881 179.165C182.881 174.66 179.058 171.008 174.342 171.008C169.626 171.008 165.802 174.66 165.802 179.165C165.802 183.67 169.626 187.322 174.342 187.322Z" fill="#E6E6E6"/>
<path d="M56.4373 152.722C56.1569 152.666 55.8645 152.718 55.6241 152.867C55.3838 153.016 55.2151 153.25 55.1552 153.517L31.0942 261.583C31.0349 261.851 31.0893 262.13 31.2453 262.36C31.4014 262.59 31.6464 262.751 31.9266 262.808L123.062 281.324C123.342 281.381 123.635 281.329 123.875 281.18C124.115 281.031 124.284 280.797 124.344 280.529L148.405 172.464C148.464 172.196 148.41 171.916 148.254 171.687C148.098 171.457 147.853 171.296 147.573 171.239L56.4373 152.722Z" fill="#E6E6E6"/>
<path d="M59.1009 156.642C58.8205 156.585 58.5281 156.637 58.2877 156.786C58.0474 156.935 57.8787 157.169 57.8188 157.437L35.197 259.039C35.1377 259.306 35.1921 259.586 35.3481 259.815C35.5041 260.045 35.7491 260.206 36.0294 260.263L120.398 277.405C120.679 277.462 120.971 277.41 121.212 277.261C121.452 277.112 121.621 276.878 121.68 276.61L144.302 175.008C144.362 174.74 144.307 174.461 144.151 174.231C143.995 174.002 143.75 173.841 143.47 173.783L59.1009 156.642Z" fill="white"/>
<path d="M122.581 215.486L60.4146 202.856C60.206 202.814 60.0081 202.733 59.8323 202.618C59.6565 202.502 59.5062 202.355 59.3899 202.185C59.2737 202.014 59.1938 201.823 59.1549 201.623C59.116 201.423 59.1188 201.217 59.1632 201.018C59.2075 200.819 59.2925 200.63 59.4134 200.462C59.5342 200.294 59.6885 200.151 59.8674 200.04C60.0463 199.93 60.2463 199.854 60.4559 199.817C60.6656 199.78 60.8808 199.783 61.0892 199.826L123.256 212.456C123.464 212.498 123.662 212.579 123.838 212.695C124.014 212.81 124.164 212.957 124.28 213.127C124.397 213.298 124.477 213.489 124.515 213.689C124.554 213.889 124.552 214.095 124.507 214.294C124.463 214.493 124.378 214.682 124.257 214.85C124.136 215.018 123.982 215.161 123.803 215.272C123.624 215.383 123.424 215.458 123.214 215.495C123.005 215.532 122.79 215.529 122.581 215.486Z" fill="#E6E6E6"/>
<path d="M129.4 187.366L88.157 178.987C87.576 178.869 87.2559 178.095 87.4422 177.258C87.6285 176.421 88.2506 175.839 88.8316 175.957L130.075 184.336C130.656 184.455 130.976 185.229 130.79 186.065C130.603 186.902 129.981 187.484 129.4 187.366Z" fill="#E6E6E6"/>
<path d="M127.466 196.052L86.2232 187.673C85.6421 187.554 85.3221 186.78 85.5084 185.944C85.6946 185.107 86.3167 184.525 86.8978 184.643L128.141 193.022C128.722 193.14 129.042 193.914 128.856 194.751C128.67 195.588 128.048 196.17 127.466 196.052Z" fill="#E6E6E6"/>
<path d="M120.4 225.283L58.2334 212.652C57.8134 212.566 57.4464 212.324 57.2128 211.98C56.9793 211.636 56.8983 211.217 56.9876 210.815C57.077 210.414 57.3294 210.063 57.6894 209.839C58.0495 209.616 58.4877 209.538 58.908 209.622L121.075 222.253C121.283 222.295 121.48 222.376 121.656 222.492C121.831 222.607 121.981 222.754 122.097 222.924C122.213 223.095 122.293 223.286 122.332 223.486C122.37 223.686 122.368 223.891 122.323 224.09C122.279 224.289 122.194 224.478 122.073 224.645C121.953 224.813 121.799 224.956 121.62 225.067C121.442 225.178 121.242 225.254 121.033 225.291C120.823 225.328 120.608 225.325 120.4 225.283Z" fill="#E6E6E6"/>
<path d="M118.219 235.08L56.052 222.449C55.632 222.363 55.265 222.121 55.0314 221.777C54.7979 221.432 54.7169 221.013 54.8062 220.612C54.8956 220.211 55.148 219.86 55.508 219.636C55.8681 219.412 56.3063 219.334 56.7266 219.419L118.893 232.05C119.101 232.092 119.299 232.173 119.474 232.288C119.65 232.403 119.8 232.551 119.916 232.721C120.032 232.892 120.111 233.083 120.15 233.282C120.189 233.482 120.186 233.688 120.142 233.887C120.098 234.086 120.013 234.274 119.892 234.442C119.771 234.61 119.617 234.753 119.439 234.864C119.26 234.974 119.061 235.05 118.851 235.087C118.642 235.125 118.427 235.122 118.219 235.08Z" fill="#E6E6E6"/>
<path d="M116.038 244.876L53.8711 232.245C53.6625 232.203 53.4647 232.123 53.2888 232.007C53.113 231.892 52.9627 231.745 52.8465 231.575C52.7302 231.404 52.6504 231.213 52.6115 231.013C52.5726 230.813 52.5754 230.607 52.6197 230.408C52.664 230.209 52.7491 230.02 52.8699 229.852C52.9907 229.684 53.145 229.541 53.3239 229.43C53.5028 229.319 53.7028 229.243 53.9125 229.207C54.1221 229.17 54.3373 229.173 54.5457 229.216L116.712 241.846C117.132 241.932 117.499 242.174 117.733 242.519C117.966 242.863 118.047 243.282 117.958 243.683C117.869 244.084 117.616 244.435 117.256 244.659C116.896 244.883 116.458 244.961 116.038 244.876Z" fill="#E6E6E6"/>
<path d="M113.857 254.673L51.69 242.042C51.4814 242 51.2835 241.919 51.1077 241.804C50.9319 241.689 50.7816 241.542 50.6653 241.371C50.5491 241.2 50.4692 241.009 50.4303 240.809C50.3914 240.609 50.3942 240.403 50.4385 240.204C50.4829 240.005 50.5679 239.816 50.6888 239.648C50.8096 239.481 50.9639 239.337 51.1428 239.227C51.3217 239.116 51.5216 239.04 51.7313 239.003C51.941 238.966 52.1561 238.969 52.3646 239.012L114.531 251.643C114.74 251.685 114.938 251.766 115.113 251.881C115.289 251.996 115.44 252.143 115.556 252.314C115.672 252.484 115.752 252.675 115.791 252.876C115.83 253.076 115.827 253.281 115.783 253.481C115.738 253.68 115.653 253.869 115.532 254.036C115.412 254.204 115.257 254.347 115.078 254.458C114.899 254.569 114.699 254.645 114.49 254.682C114.28 254.718 114.065 254.715 113.857 254.673Z" fill="#E6E6E6"/>
<path d="M111.675 264.469L49.5088 251.839C49.0888 251.753 48.7218 251.511 48.4882 251.166C48.2547 250.822 48.1737 250.403 48.263 250.002C48.3524 249.601 48.6048 249.25 48.9648 249.026C49.3249 248.802 49.7631 248.724 50.1834 248.809L112.35 261.439C112.559 261.482 112.756 261.562 112.932 261.678C113.108 261.793 113.258 261.94 113.375 262.11C113.491 262.281 113.571 262.472 113.61 262.672C113.649 262.873 113.646 263.078 113.601 263.277C113.557 263.476 113.472 263.665 113.351 263.833C113.23 264.001 113.076 264.144 112.897 264.255C112.718 264.366 112.518 264.442 112.309 264.478C112.099 264.515 111.884 264.512 111.675 264.469Z" fill="#E6E6E6"/>
<path d="M72.814 187.088C77.5301 187.088 81.3532 183.436 81.3532 178.931C81.3532 174.426 77.5301 170.774 72.814 170.774C68.098 170.774 64.2749 174.426 64.2749 178.931C64.2749 183.436 68.098 187.088 72.814 187.088Z" fill="#E6E6E6"/>
<path d="M251.112 158.504C251.862 159.122 252.748 159.573 253.704 159.821C254.66 160.07 255.662 160.112 256.637 159.943C257.612 159.774 258.535 159.398 259.338 158.844C260.142 158.29 260.805 157.571 261.28 156.74L268.285 144.481L262.987 140.286L251.44 148.643C250.651 149.215 250.005 149.947 249.55 150.787C249.096 151.627 248.844 152.554 248.812 153.499C248.781 154.444 248.971 155.384 249.369 156.25C249.767 157.116 250.362 157.886 251.112 158.504Z" fill="#FFB9B9"/>
<path d="M259.313 141.41L267.493 147.712L312.086 114.692L309.448 57.222C306.94 59.1386 304.854 61.5112 303.312 64.2025C301.77 66.8939 300.802 69.8505 300.464 72.9015L292.824 105.366L259.313 141.41Z" fill="#C82FC6"/>
<path d="M345.333 275.003H356.415L357.471 182.244H335.306L345.333 275.003Z" fill="#FFB9B9"/>
<path d="M317.891 280.044H328.973L330.029 181.236L307.864 180.228L317.891 280.044Z" fill="#FFB9B9"/>
<path d="M303.642 190.31L331.084 191.318L332.14 185.773L333.723 193.335L359.054 192.327C359.05 167.808 358.502 140.716 361.693 131.328L303.115 136.873C298.501 155.87 297.933 173.866 303.642 190.31Z" fill="#2F2E41"/>
<path d="M351.715 299.201C357.639 299.201 362.283 301.398 361.744 295.762L360.209 276.708C360.18 275.901 359.905 275.119 359.419 274.458C358.933 273.798 358.256 273.286 357.471 272.986C353.249 268.259 349.027 267.755 344.806 271.474C343.433 273.113 342.632 275.122 342.517 277.218L341.658 296.143C341.361 301.643 345.949 299.201 351.715 299.201Z" fill="#2F2E41"/>
<path d="M297.618 299.468L325.784 298.755C326.95 298.601 328.015 298.04 328.775 297.18C329.534 296.321 329.935 295.224 329.899 294.1L330.43 280.952C330.464 280.304 330.232 279.669 329.783 279.182C329.334 278.696 328.704 278.395 328.027 278.346L323.696 278.027C323.182 273.526 320.313 272.433 316.308 272.986L303.642 286.597L295.296 288.83C293.958 289.188 292.803 290 292.048 291.115C291.293 292.229 290.99 293.569 291.196 294.882C291.419 296.3 292.218 297.577 293.42 298.435C294.623 299.294 296.131 299.665 297.618 299.468Z" fill="#2F2E41"/>
<path d="M330.029 38.0655C339.064 38.0655 346.389 31.0687 346.389 22.4377C346.389 13.8067 339.064 6.80994 330.029 6.80994C320.994 6.80994 313.669 13.8067 313.669 22.4377C313.669 31.0687 320.994 38.0655 330.029 38.0655Z" fill="#FFB9B9"/>
<path d="M321.585 50.1644L349.555 42.6026C343.3 40.2781 340.885 36.2235 342.167 30.5037H323.696C326.071 39.1203 326.08 46.1518 321.585 50.1644Z" fill="#FFB9B9"/>
<path d="M301.532 143.427C317.316 145.354 331.86 139.516 345.597 135.109C351.799 133.12 358.047 135.196 363.804 131.832C361.314 108.407 363.731 82.0209 369.02 53.9018C369.322 52.31 369.007 50.6677 368.134 49.2812C367.262 47.8948 365.891 46.859 364.277 46.367L346.916 41.0902L331.612 46.1314L323.696 47.6438L307.396 58.1649C306.445 58.7786 305.699 59.6418 305.249 60.6506C304.799 61.6594 304.663 62.771 304.859 63.8516C309.756 90.2965 308.621 117.439 301.532 143.427Z" fill="#C82FC6"/>
<path d="M345.861 135.361L351.138 148.468L356.415 140.906L349.555 134.353L345.861 135.361Z" fill="#FFB9B9"/>
<path d="M314.33 16.8653C320.691 12.9655 327.034 11.681 333.362 12.7783C335.286 13.1213 337.116 13.8385 338.739 14.8853C340.361 15.932 341.741 17.2861 342.793 18.8634C343.845 20.4408 344.547 22.2078 344.854 24.0548C345.162 25.9019 345.069 27.7896 344.581 29.6009C344.568 29.6497 344.555 29.6985 344.541 29.7474L345.487 28.0497C347.995 23.5476 348.851 18.3723 347.918 13.3509C347.201 9.49487 345.045 6.01807 341.849 3.56551C338.652 1.11295 334.633 -0.148874 330.537 0.0141566L326.978 0.15581C322.882 0.318817 318.985 1.88471 315.999 4.56707C313.013 7.24943 311.138 10.869 310.716 14.7637C310.671 15.1843 310.752 15.6084 310.949 15.9869C311.146 16.3655 311.452 16.683 311.83 16.9028C312.208 17.1226 312.643 17.2357 313.086 17.2291C313.528 17.2225 313.96 17.0964 314.33 16.8653Z" fill="#2F2E41"/>
<path d="M348.5 134.353L355.888 143.427L381.746 106.626L379.51 69.2387C379.225 64.4768 377.684 59.8612 375.03 55.8211C372.376 51.781 368.696 48.4478 364.331 46.1315L364.859 103.601L348.5 134.353Z" fill="#C82FC6"/>
<path d="M181.694 101.808C181.452 101.662 181.159 101.613 180.879 101.673C180.6 101.733 180.356 101.896 180.202 102.127L118.266 195.432C118.113 195.664 118.062 195.943 118.124 196.211C118.187 196.478 118.358 196.71 118.6 196.857L197.287 244.522C197.529 244.668 197.822 244.717 198.102 244.657C198.382 244.597 198.625 244.434 198.779 244.203L260.715 150.897C260.869 150.666 260.92 150.386 260.857 150.119C260.794 149.852 260.623 149.619 260.382 149.472L181.694 101.808Z" fill="#E396E2"/>
<path d="M182.763 106.368C182.521 106.221 182.228 106.173 181.948 106.233C181.668 106.292 181.425 106.456 181.271 106.687L123.039 194.411C122.886 194.642 122.835 194.922 122.898 195.19C122.96 195.457 123.131 195.689 123.373 195.836L196.218 239.962C196.461 240.108 196.754 240.157 197.033 240.097C197.313 240.037 197.556 239.874 197.71 239.643L255.942 151.918C256.095 151.687 256.146 151.407 256.084 151.14C256.021 150.873 255.85 150.64 255.608 150.493L182.763 106.368Z" fill="white"/>
<path d="M220.829 182.642L167.153 150.128C166.974 150.019 166.818 149.877 166.696 149.711C166.573 149.545 166.486 149.357 166.44 149.158C166.393 148.96 166.388 148.755 166.424 148.554C166.461 148.354 166.538 148.162 166.652 147.991C166.767 147.819 166.915 147.67 167.089 147.553C167.263 147.436 167.46 147.353 167.667 147.309C167.875 147.264 168.09 147.259 168.3 147.294C168.51 147.329 168.71 147.403 168.89 147.512L222.565 180.026C222.745 180.135 222.901 180.276 223.023 180.443C223.146 180.609 223.233 180.797 223.279 180.995C223.326 181.194 223.331 181.399 223.294 181.599C223.258 181.8 223.18 181.991 223.066 182.163C222.952 182.335 222.804 182.484 222.63 182.601C222.456 182.718 222.259 182.801 222.051 182.845C221.844 182.89 221.629 182.895 221.419 182.86C221.209 182.825 221.009 182.751 220.829 182.642Z" fill="#E396E2"/>
<path d="M237.468 158.548L201.858 136.978C201.357 136.674 201.339 135.842 201.818 135.119C202.298 134.397 203.093 134.058 203.595 134.362L239.205 155.932C239.707 156.236 239.724 157.068 239.245 157.79C238.765 158.513 237.97 158.852 237.468 158.548Z" fill="#E396E2"/>
<path d="M232.49 166.048L196.88 144.477C196.379 144.173 196.361 143.341 196.84 142.619C197.32 141.896 198.115 141.557 198.617 141.861L234.227 163.431C234.728 163.735 234.746 164.567 234.267 165.29C233.787 166.012 232.992 166.351 232.49 166.048Z" fill="#E396E2"/>
<path d="M215.214 191.1L161.539 158.587C161.176 158.366 160.92 158.018 160.826 157.617C160.733 157.217 160.809 156.797 161.039 156.45C161.27 156.104 161.634 155.858 162.053 155.768C162.473 155.679 162.912 155.751 163.275 155.971L216.951 188.484C217.13 188.593 217.286 188.735 217.408 188.901C217.531 189.068 217.618 189.255 217.664 189.454C217.711 189.652 217.716 189.858 217.68 190.058C217.643 190.258 217.566 190.45 217.452 190.622C217.338 190.793 217.189 190.942 217.015 191.059C216.841 191.176 216.644 191.259 216.437 191.304C216.229 191.348 216.014 191.353 215.804 191.318C215.594 191.283 215.394 191.209 215.214 191.1H215.214Z" fill="#E396E2"/>
<path d="M209.599 199.559L155.924 167.045C155.561 166.825 155.305 166.476 155.212 166.076C155.118 165.675 155.195 165.255 155.425 164.909C155.655 164.562 156.019 164.317 156.439 164.227C156.858 164.137 157.297 164.21 157.66 164.429L211.336 196.943C211.516 197.051 211.672 197.193 211.795 197.36C211.917 197.526 212.005 197.714 212.051 197.912C212.098 198.111 212.103 198.316 212.067 198.517C212.03 198.718 211.953 198.909 211.839 199.081C211.724 199.253 211.576 199.402 211.402 199.519C211.227 199.636 211.031 199.719 210.823 199.763C210.615 199.808 210.399 199.813 210.19 199.777C209.98 199.742 209.779 199.668 209.599 199.559Z" fill="#E396E2"/>
<path d="M203.985 208.017L150.309 175.504C150.129 175.395 149.973 175.253 149.85 175.087C149.728 174.92 149.64 174.733 149.594 174.534C149.547 174.335 149.542 174.13 149.578 173.929C149.615 173.729 149.692 173.537 149.806 173.365C149.92 173.193 150.069 173.044 150.243 172.927C150.418 172.81 150.614 172.727 150.822 172.683C151.03 172.638 151.245 172.634 151.455 172.669C151.665 172.704 151.866 172.778 152.046 172.888L205.721 205.401C206.084 205.621 206.34 205.97 206.433 206.371C206.527 206.771 206.45 207.191 206.22 207.538C205.99 207.884 205.625 208.129 205.206 208.219C204.787 208.309 204.348 208.237 203.985 208.017Z" fill="#E396E2"/>
<path d="M198.369 216.476L144.694 183.962C144.331 183.742 144.074 183.393 143.98 182.992C143.886 182.592 143.963 182.172 144.193 181.825C144.423 181.478 144.788 181.232 145.208 181.143C145.628 181.053 146.067 181.126 146.431 181.346L200.106 213.86C200.469 214.08 200.725 214.429 200.818 214.829C200.912 215.23 200.835 215.649 200.605 215.996C200.375 216.343 200.01 216.588 199.591 216.678C199.172 216.768 198.733 216.695 198.369 216.476Z" fill="#E396E2"/>
<path d="M192.755 224.934L139.079 192.421C138.899 192.312 138.744 192.17 138.621 192.004C138.499 191.837 138.412 191.649 138.365 191.451C138.319 191.252 138.314 191.047 138.35 190.847C138.387 190.646 138.464 190.455 138.578 190.283C138.692 190.111 138.841 189.963 139.015 189.846C139.189 189.729 139.385 189.646 139.593 189.601C139.801 189.557 140.016 189.552 140.226 189.587C140.435 189.622 140.636 189.696 140.816 189.805L194.491 222.318C194.854 222.538 195.111 222.887 195.205 223.288C195.299 223.689 195.223 224.109 194.992 224.456C194.762 224.803 194.397 225.048 193.977 225.138C193.558 225.227 193.118 225.154 192.755 224.934Z" fill="#6C63FF"/>
<path d="M187.496 139.98C192.212 139.98 196.035 136.328 196.035 131.823C196.035 127.318 192.212 123.666 187.496 123.666C182.78 123.666 178.957 127.318 178.957 131.823C178.957 136.328 182.78 139.98 187.496 139.98Z" fill="#E396E2"/>
<path d="M19.78 184.369C19.5651 184.369 19.3527 184.412 19.1565 184.496C18.9604 184.58 18.785 184.702 18.6418 184.855C18.4987 185.008 18.3909 185.188 18.3257 185.384C18.2605 185.579 18.2392 185.786 18.2633 185.99L31.4939 298.158C31.5357 298.514 31.7135 298.843 31.9933 299.082C32.2731 299.321 32.6353 299.453 33.0106 299.453H231.317C231.692 299.453 232.054 299.321 232.334 299.082C232.614 298.843 232.792 298.514 232.833 298.158L246.064 185.99C246.088 185.786 246.067 185.579 246.001 185.384C245.936 185.188 245.829 185.008 245.686 184.855C245.543 184.701 245.368 184.578 245.172 184.494C244.975 184.41 244.763 184.368 244.548 184.369H19.78Z" fill="#C82FC6"/>
<path d="M37.821 203.207L101.377 202.879C101.807 202.876 102.218 202.71 102.519 202.418C102.821 202.126 102.989 201.732 102.987 201.321C102.985 200.911 102.812 200.518 102.507 200.23C102.202 199.941 101.789 199.78 101.36 199.781L37.8035 200.11C37.3735 200.112 36.962 200.277 36.6596 200.569C36.3572 200.861 36.1886 201.256 36.1909 201.667C36.1933 202.078 36.3663 202.471 36.672 202.76C36.9777 203.049 37.391 203.21 37.821 203.207Z" fill="white"/>
<path d="M37.821 212.786L75.5186 212.457C75.9481 212.454 76.3588 212.288 76.6606 211.996C76.9624 211.704 77.1305 211.31 77.1282 210.9C77.1259 210.49 76.9532 210.097 76.6482 209.808C76.3431 209.519 75.9305 209.358 75.501 209.359L37.8035 209.688C37.3735 209.69 36.962 209.856 36.6596 210.148C36.3572 210.44 36.1886 210.835 36.1909 211.245C36.1933 211.656 36.3663 212.049 36.672 212.338C36.9777 212.627 37.391 212.788 37.821 212.786Z" fill="white"/>
<path d="M399.792 300H0V298.9H400L399.792 300Z" fill="#C82FC6"/>
</g>
</svg>
