<svg width="8" height="8" viewBox="0 0 8 8" fill="none" xmlns="http://www.w3.org/2000/svg">
<path d="M7.33331 0H0.666671C0.299156 0 0 0.298999 0 0.666671V5.33333C0 5.701 0.299156 6 0.666671 6H3.00074C2.99374 6.26591 2.94296 6.69125 2.75228 6.8921C2.68229 6.96566 2.60221 7 2.5 7C2.40787 7 2.33332 7.07455 2.33332 7.16667C2.33332 7.2588 2.40787 7.33334 2.5 7.33334H5.49999C5.59211 7.33334 5.66666 7.2588 5.66666 7.16667C5.66666 7.07455 5.59211 7 5.49999 7C5.39777 7 5.31769 6.96581 5.24804 6.89225C5.05782 6.69241 5.00671 6.26646 4.99944 6H7.33333C7.70084 6 8 5.70102 8 5.33333V0.666671C7.99998 0.298999 7.70083 0 7.33331 0ZM3.99999 5.66764C3.81574 5.66764 3.66568 5.51758 3.66568 5.33333C3.66568 5.14908 3.81574 4.99902 3.99999 4.99902C4.18424 4.99902 4.3343 5.14908 4.3343 5.33333C4.3343 5.51758 4.18424 5.66764 3.99999 5.66764ZM0.666671 4.66666V0.666671H7.33333L7.33361 4.66666H0.666671Z" fill="#BE79C3"/>
</svg>
