<svg width="25" height="25" viewBox="0 0 25 25" fill="none" xmlns="http://www.w3.org/2000/svg">
<g clip-path="url(#clip0)">
<path d="M16.2692 5.61699C14.8578 2.73517 11.9055 0.829895 8.59392 0.829895C3.85541 0.829895 0.000376282 4.66306 0.000376282 9.37462C0.000376282 10.6551 0.275272 11.8823 0.817838 13.0266L0.0145849 17.0433C-0.0876588 17.5546 0.363405 18.0066 0.874819 17.9054L4.94108 17.1015C5.48858 17.3612 6.05497 17.5587 6.63694 17.6948C5.33243 11.5162 10.0157 5.7165 16.2692 5.61699Z" fill="#C832C8"/>
<path d="M24.1821 19.2764C24.3225 18.9805 24.4445 18.6789 24.5489 18.3724H24.5221C26.3505 13.0055 22.5053 7.36483 16.8286 7.09018C16.8285 7.08989 16.8284 7.08959 16.8283 7.0893C11.9439 6.86421 7.88574 10.7751 7.88574 15.6245C7.88574 20.3321 11.7119 24.1622 16.4179 24.169C17.6944 24.1673 18.9179 23.8925 20.0588 23.3513C24.5122 24.2318 24.1649 24.1692 24.2672 24.1692C24.73 24.1692 25.0758 23.7451 24.9854 23.2932L24.1821 19.2764Z" fill="#C832C8"/>
</g>
<defs>
<clipPath id="clip0">
<rect width="25" height="25" fill="white"/>
</clipPath>
</defs>
</svg>
