<svg width="20" height="22" viewBox="0 0 20 22" fill="none" xmlns="http://www.w3.org/2000/svg">
<path d="M11.4613 10.2443C13.25 9.28942 14.3597 7.43775 14.3484 5.42906C14.3847 2.47101 11.9919 0.0430435 9 0C6.00806 0.0430435 3.61532 2.47101 3.65161 5.42906C3.64274 7.43935 4.75484 9.29101 6.54435 10.2467C2.67661 11.334 0.00725806 14.8221 0 18.7957V20.6441C0 21.3926 0.613709 21.9992 1.37097 22H16.629C17.3863 21.9992 17.9992 21.3934 18 20.6449V18.7957C18.0048 14.8189 15.3331 11.3252 11.4613 10.2443Z" fill="#C832C8"/>
<circle cx="15.5" cy="11.5" r="4.5" fill="white"/>
<circle cx="15.4996" cy="11.5" r="3.9" fill="#C832C8"/>
<circle cx="15.5" cy="11.5" r="2.5" fill="white"/>
<rect x="15.0615" y="9.60004" width="0.876923" height="3.8" rx="0.438461" fill="#C832C8"/>
<rect x="17.4004" y="11.0615" width="0.876923" height="3.8" rx="0.438462" transform="rotate(90 17.4004 11.0615)" fill="#C832C8"/>
</svg>
