<svg width="42" height="23" viewBox="0 0 42 23" fill="none" xmlns="http://www.w3.org/2000/svg">
<path d="M21 11.9223C24.2033 11.9223 26.8 9.25338 26.8 5.96113C26.8 2.66887 24.2033 0 21 0C17.7967 0 15.2 2.66887 15.2 5.96113C15.2 9.25338 17.7967 11.9223 21 11.9223ZM24.0224 8.0519C23.7356 9.0264 22.5073 9.75897 21.0351 9.75897C19.5629 9.75897 24.6649 10.0861 24.3782 9.11161L24.0224 8.0519ZM30.7605 18.089V20.0539C30.7605 20.3452 30.5717 20.6837 30.3128 20.802C29.3095 21.2609 26.5826 22.2 20.9902 22.2C15.3978 22.2 12.6857 21.2608 11.6824 20.802C11.4235 20.6836 11.2395 20.3451 11.2395 20.0539V18.089C11.2395 15.1444 13.4011 12.7017 16.1844 12.3744C16.269 12.3645 16.3846 12.4017 16.4535 12.4531C17.7368 13.4079 19.303 13.9778 21.005 13.9778C22.7069 13.9778 24.2756 13.4079 25.5589 12.4531C25.6278 12.4017 25.7322 12.3646 25.8168 12.3744C28.6002 12.7017 30.7605 15.1444 30.7605 18.089ZM42 12.7613V13.9242C42 14.0965 41.8765 14.2969 41.7234 14.3669C41.1295 14.6385 39.5098 15.1943 36.2001 15.1943C32.8903 15.1943 31.155 14.6385 30.5612 14.3669C30.408 14.2969 30.169 14.0965 30.169 13.9242V12.7613C30.169 11.0186 31.5755 9.57283 33.2228 9.37921C33.2729 9.37336 33.4048 9.39537 33.4457 9.42577C34.2052 9.99089 35.164 10.3282 36.1712 10.3282C37.1785 10.3282 38.1228 9.99089 38.8823 9.42577C38.9232 9.39537 39.0046 9.37343 39.0546 9.37921C40.7018 9.5729 42 11.0186 42 12.7613ZM11.4388 14.367C10.845 14.6386 9.1676 15.1943 5.85777 15.1943C2.54793 15.1943 0.899431 14.6385 0.305598 14.367C0.152284 14.2969 0 14.0965 0 13.9242V12.7613C0 11.0186 1.29102 9.5729 2.93828 9.37928C2.98831 9.37343 3.06257 9.39544 3.10333 9.42577C3.86283 9.99096 4.79274 10.3283 5.79991 10.3283C6.80716 10.3283 7.73706 9.99096 8.49656 9.42577C8.53732 9.39537 8.72701 9.37343 8.77711 9.37928C10.4244 9.57297 11.8309 11.0186 11.8309 12.7613V13.9242C11.831 14.0965 11.5921 14.2969 11.4388 14.367ZM5.79998 2.05551C3.90422 2.05551 2.3673 3.63505 2.3673 5.58356C2.3673 7.53206 3.90415 9.11161 5.79998 9.11161C7.69581 9.11161 9.23266 7.53206 9.23266 5.58356C9.23266 3.63505 7.69581 2.05551 5.79998 2.05551ZM5.79998 4.625C1.4 4.625 3.67322 7.37195 3.5 6.78334H6.3C6.12678 7.37195 9.1 4.625 5.79998 4.625ZM36.2 2.05551C34.3042 2.05551 32.7673 3.63505 32.7673 5.58356C32.7673 7.53206 34.3042 9.11161 36.2 9.11161C38.0958 9.11161 39.6327 7.53206 39.6327 5.58356C39.6327 3.63505 38.0958 2.05551 36.2 2.05551ZM36.1999 7.72991C35.3108 7.72991 38.6731 8.0914 38.5 7.50279L38.0042 6.69891C37.831 7.28752 37.0891 7.72991 36.1999 7.72991Z" fill="#C832C8"/>
</svg>
