<svg width="16" height="24" viewBox="0 0 16 24" fill="none" xmlns="http://www.w3.org/2000/svg">
<path d="M13.566 9.54665C13.94 9.54665 14.3089 9.64917 14.6311 9.84251C15.6169 10.4332 15.9401 11.7183 15.3516 12.7074L13.2997 16.1585L12.8911 16.8461L12.507 17.4925L12.1177 18.1465C11.9876 18.5077 11.8261 18.8576 11.631 19.1903C11.1564 20.0012 10.5029 20.6971 9.72749 21.2215V22.2887C10.1076 22.2918 10.3487 23.6174 10.3487 24H2.07374C2.07374 23.6144 2.38472 22.2877 2.76789 22.2877H2.78923V21.2419C1.05899 20.0859 0 18.121 0 16.0197V6.26908C0 5.11669 0.933449 4.17954 2.08089 4.17954C2.32377 4.17954 2.55754 4.22133 2.77505 4.2989V3.48215C2.77505 2.33029 3.70895 1.39268 4.8564 1.39268C5.12672 1.39268 5.38579 1.44472 5.62262 1.5396C5.86452 0.653504 6.67354 0 7.6319 0C8.59026 0 9.39928 0.653504 9.64014 1.5396C9.8769 1.44472 10.1361 1.39268 10.4064 1.39268C11.5548 1.39268 12.4877 2.33029 12.4877 3.48215V9.8512C12.8088 9.65635 13.1808 9.54665 13.566 9.54665Z" fill="#C832C8"/>
</svg>
