<svg width="24" height="24" viewBox="0 0 24 24" fill="none" xmlns="http://www.w3.org/2000/svg">
<path fill-rule="evenodd" clip-rule="evenodd" d="M12 24C18.6274 24 24 18.6274 24 12C24 5.37258 18.6274 0 12 0C5.37258 0 0 5.37258 0 12C0 18.6274 5.37258 24 12 24Z" fill="#C832C8"/>
<mask id="path-2-inside-1" fill="white">
<path fill-rule="evenodd" clip-rule="evenodd" d="M17.8796 7.86349C17.8201 7.84067 17.763 7.82921 17.708 7.82921C17.5845 7.82921 17.4818 7.87274 17.3994 7.95958L14.6349 10.7173V9.58542C14.6349 9.04114 14.4417 8.57589 14.0552 8.18942C13.6687 7.80299 13.2035 7.60977 12.6592 7.60977H7.83005C7.2859 7.60977 6.82055 7.80299 6.43406 8.18942C6.04771 8.57589 5.85449 9.04114 5.85449 9.58542V14.4147C5.85449 14.9589 6.04771 15.4241 6.43408 15.8106C6.82058 16.197 7.28592 16.3903 7.83008 16.3903H12.6593C13.2036 16.3903 13.6688 16.197 14.0553 15.8106C14.4417 15.4241 14.6349 14.9589 14.6349 14.4147V13.2759L17.3994 16.0404C17.4818 16.1272 17.5846 16.1708 17.7081 16.1708C17.763 16.1708 17.8202 16.1593 17.8796 16.1365C18.0581 16.0588 18.1472 15.9239 18.1472 15.7318V8.26832C18.1471 8.07615 18.058 7.94127 17.8796 7.86349Z"/>
</mask>
<path fill-rule="evenodd" clip-rule="evenodd" d="M17.8796 7.86349C17.8201 7.84067 17.763 7.82921 17.708 7.82921C17.5845 7.82921 17.4818 7.87274 17.3994 7.95958L14.6349 10.7173V9.58542C14.6349 9.04114 14.4417 8.57589 14.0552 8.18942C13.6687 7.80299 13.2035 7.60977 12.6592 7.60977H7.83005C7.2859 7.60977 6.82055 7.80299 6.43406 8.18942C6.04771 8.57589 5.85449 9.04114 5.85449 9.58542V14.4147C5.85449 14.9589 6.04771 15.4241 6.43408 15.8106C6.82058 16.197 7.28592 16.3903 7.83008 16.3903H12.6593C13.2036 16.3903 13.6688 16.197 14.0553 15.8106C14.4417 15.4241 14.6349 14.9589 14.6349 14.4147V13.2759L17.3994 16.0404C17.4818 16.1272 17.5846 16.1708 17.7081 16.1708C17.763 16.1708 17.8202 16.1593 17.8796 16.1365C18.0581 16.0588 18.1472 15.9239 18.1472 15.7318V8.26832C18.1471 8.07615 18.058 7.94127 17.8796 7.86349Z" fill="#C832C8"/>
<path d="M17.8796 7.86349L18.3474 6.79029L18.3235 6.7799L18.2992 6.77057L17.8796 7.86349ZM17.3994 7.95958L18.2262 8.78843L18.2376 8.77706L18.2487 8.76538L17.3994 7.95958ZM14.6349 10.7173H13.4641V13.5387L15.4617 11.5461L14.6349 10.7173ZM14.0552 8.18942L14.8831 7.36161L14.883 7.36153L14.0552 8.18942ZM6.43406 8.18942L5.6063 7.36151L5.6061 7.36171L6.43406 8.18942ZM6.43408 15.8106L5.60617 16.6383L5.6063 16.6385L6.43408 15.8106ZM14.0553 15.8106L14.8831 16.6384L14.8831 16.6384L14.0553 15.8106ZM14.6349 13.2759L15.4628 12.4481L13.4642 10.4495V13.2759H14.6349ZM17.3994 16.0404L18.2486 15.2345L18.2381 15.2234L18.2273 15.2126L17.3994 16.0404ZM17.8796 16.1365L18.2985 17.2298L18.3232 17.2203L18.3474 17.2098L17.8796 16.1365ZM18.1472 8.26832H19.3179V8.26788L18.1472 8.26832ZM17.708 8.99994C17.5979 8.99994 17.5127 8.97668 17.4599 8.95642L18.2992 6.77057C18.1276 6.70465 17.928 6.65848 17.708 6.65848V8.99994ZM18.2487 8.76538C18.1872 8.83018 18.1019 8.89461 17.9941 8.9402C17.8869 8.98548 17.7865 8.99994 17.708 8.99994V6.65848C17.2735 6.65848 16.8604 6.82668 16.5501 7.15377L18.2487 8.76538ZM15.4617 11.5461L18.2262 8.78843L16.5726 7.13072L13.8081 9.88841L15.4617 11.5461ZM13.4641 9.58542V10.7173H15.8056V9.58542H13.4641ZM13.2274 9.01722C13.3953 9.18522 13.4641 9.35314 13.4641 9.58542H15.8056C15.8056 8.72913 15.488 7.96656 14.8831 7.36161L13.2274 9.01722ZM12.6592 8.7805C12.8915 8.7805 13.0594 8.8493 13.2274 9.0173L14.883 7.36153C14.2781 6.75669 13.5156 6.43904 12.6592 6.43904V8.7805ZM7.83005 8.7805H12.6592V6.43904H7.83005V8.7805ZM7.26182 9.01732C7.42984 8.84933 7.59789 8.7805 7.83005 8.7805V6.43904C6.97391 6.43904 6.21126 6.75666 5.6063 7.36151L7.26182 9.01732ZM7.02522 9.58542C7.02522 9.35312 7.09405 9.18514 7.26202 9.01712L5.6061 7.36171C5.00138 7.96663 4.68376 8.72915 4.68376 9.58542H7.02522ZM7.02522 14.4147V9.58542H4.68376V14.4147H7.02522ZM7.262 14.9828C7.09403 14.8148 7.02522 14.6469 7.02522 14.4147H4.68376C4.68376 15.2709 5.0014 16.0335 5.60617 16.6383L7.262 14.9828ZM7.83008 15.2195C7.59791 15.2195 7.42989 15.1507 7.26187 14.9827L5.6063 16.6385C6.21127 17.2434 6.97393 17.561 7.83008 17.561V15.2195ZM12.6593 15.2195H7.83008V17.561H12.6593V15.2195ZM13.2275 14.9827C13.0595 15.1507 12.8916 15.2195 12.6593 15.2195V17.561C13.5156 17.561 14.2781 17.2433 14.8831 16.6384L13.2275 14.9827ZM13.4642 14.4147C13.4642 14.6469 13.3954 14.8148 13.2274 14.9828L14.8831 16.6384C15.488 16.0335 15.8057 15.271 15.8057 14.4147H13.4642ZM13.4642 13.2759V14.4147H15.8057V13.2759H13.4642ZM18.2273 15.2126L15.4628 12.4481L13.8071 14.1037L16.5716 16.8683L18.2273 15.2126ZM17.7081 15C17.7865 15 17.8868 15.0145 17.994 15.0597C18.1018 15.1053 18.1871 15.1697 18.2486 15.2345L16.5502 16.8464C16.8607 17.1734 17.2738 17.3415 17.7081 17.3415V15ZM17.4607 15.0433C17.5133 15.0231 17.5983 15 17.7081 15V17.3415C17.9277 17.3415 18.127 17.2955 18.2985 17.2298L17.4607 15.0433ZM16.9764 15.7318C16.9764 15.6423 16.9994 15.4892 17.1037 15.3315C17.2073 15.1747 17.3364 15.0962 17.4119 15.0633L18.3474 17.2098C18.6013 17.0991 18.8642 16.9142 19.057 16.6226C19.2504 16.33 19.3179 16.0135 19.3179 15.7318H16.9764ZM16.9764 8.26832V15.7318H19.3179V8.26832H16.9764ZM17.4118 8.9367C17.3362 8.90377 17.2071 8.82519 17.1036 8.66854C16.9994 8.51093 16.9765 8.35804 16.9764 8.26876L19.3179 8.26788C19.3178 7.98643 19.2503 7.67001 19.0569 7.37748C18.8642 7.08591 18.6013 6.90099 18.3474 6.79029L17.4118 8.9367Z" fill="white" mask="url(#path-2-inside-1)"/>
</svg>
