<svg width="41" height="41" viewBox="0 0 41 41" fill="none" xmlns="http://www.w3.org/2000/svg">
<path fill-rule="evenodd" clip-rule="evenodd" d="M20.5 41C31.8218 41 41 31.8218 41 20.5C41 9.17816 31.8218 0 20.5 0C9.17816 0 0 9.17816 0 20.5C0 31.8218 9.17816 41 20.5 41Z" fill="#E40000"/>
<path fill-rule="evenodd" clip-rule="evenodd" d="M30.5428 13.4334C30.4413 13.3944 30.3436 13.3749 30.2498 13.3749C30.0388 13.3749 29.8632 13.4492 29.7225 13.5976L24.9998 18.3086V16.3751C24.9998 15.4453 24.6697 14.6504 24.0096 13.9902C23.3493 13.3301 22.5546 13 21.6247 13H13.3749C12.4453 13 11.6504 13.3301 10.9901 13.9902C10.3301 14.6504 10 15.4453 10 16.3751V24.6251C10 25.5548 10.3301 26.3496 10.9901 27.0097C11.6504 27.6699 12.4454 28 13.375 28H21.6248C22.5547 28 23.3494 27.6699 24.0096 27.0097C24.6698 26.3496 24.9999 25.5548 24.9999 24.6251V22.6796L29.7226 27.4024C29.8633 27.5507 30.0389 27.625 30.2499 27.625C30.3437 27.625 30.4414 27.6055 30.5429 27.5666C30.8478 27.4337 31 27.2033 31 26.8752V14.125C30.9999 13.7967 30.8476 13.5663 30.5428 13.4334Z" fill="white"/>
</svg>
